<svg width="82" height="64" viewBox="0 0 82 64" fill="none" xmlns="http://www.w3.org/2000/svg">
<g clip-path="url(#clip0_615_3093)">
<path d="M25.0691 20.5H21.3359V43.5H25.0691V20.5Z" fill="#465D72"/>
<path d="M38.1373 36.1624C38.1373 39.6823 35.1349 39.9629 34.2417 39.9629C32.0102 39.9629 31.6043 37.9039 31.6043 36.6619V27.8594H27.8711V36.6435C27.8711 38.8239 28.5655 40.6235 29.7825 41.8231C30.8576 42.8839 32.4685 43.4635 34.2137 43.4635C35.4513 43.4635 37.204 43.0835 38.1373 42.2436V43.4994H41.8705V27.8594H38.1373V36.1624Z" fill="#465D72"/>
<path d="M49.3338 22.3398H45.6007V27.8598H42.8008V31.5398H45.6007V43.4998H49.3338V31.5398H52.1337V27.8598H49.3338V22.3398Z" fill="#465D72"/>
<path d="M63.8897 38.8275C63.0768 39.5479 62.0035 39.9472 60.8257 39.9472C58.2293 39.9472 56.3226 38.0676 56.3226 35.487C56.3226 32.9064 58.1686 31.106 60.8257 31.106C61.983 31.106 63.0768 31.4859 63.9102 32.2063L64.4767 32.6865L66.9938 30.2062L66.3639 29.6459C64.8827 28.3276 62.9163 27.5879 60.8248 27.5879C56.1583 27.5879 52.7695 30.9073 52.7695 35.4677C52.7695 40.0088 56.2395 43.4468 60.8248 43.4468C62.9555 43.4468 64.9425 42.7072 66.4049 41.3676L67.0134 40.8074L64.4572 38.3289L63.8897 38.8275Z" fill="#465D72"/>
<path d="M80.3198 29.2234C79.2446 28.1636 77.9847 27.584 76.2394 27.584C75.0019 27.584 73.6001 27.964 72.6668 28.803V20.5H68.9336V43.5H72.6668V34.8842C72.6668 31.3643 75.2035 31.0846 76.0966 31.0846C78.3281 31.0846 78.2665 33.1445 78.2665 34.3846V43.5H81.9997V34.404C81.9997 32.2236 81.5377 30.424 80.3198 29.2234Z" fill="#465D72"/>
<path d="M60.706 32.8711C62.1974 32.8711 63.406 34.0607 63.406 35.5317C63.406 37.001 62.1974 38.1924 60.706 38.1924C59.2155 38.1924 58.0078 37.001 58.0078 35.5317C58.0087 34.0616 59.2164 32.8711 60.706 32.8711Z" fill="#465D72"/>
<path d="M16.1096 37.7258C14.69 39.1656 12.7618 39.9458 10.7329 39.9458C6.57411 39.9458 3.55024 36.7258 3.55024 32.3061C3.55024 27.8662 6.57411 24.6462 10.7329 24.6462C12.7422 24.6462 14.649 25.4254 16.09 26.8459L16.6574 27.4062L19.153 24.9461L18.6052 24.3858C16.5361 22.2854 13.7362 21.1465 10.7329 21.1465C4.6058 21.1465 0 25.9461 0 32.3254C0 38.6854 4.62633 43.4657 10.7329 43.4657C13.7567 43.4657 16.5566 42.3065 18.6257 40.2061L19.1736 39.6458L16.6985 37.1462L16.1096 37.7258Z" fill="#465D72"/>
</g>
<defs>
<clipPath id="clip0_615_3093">
<rect width="82" height="23" fill="white" transform="translate(0 20.5)"/>
</clipPath>
</defs>
</svg>
