<?xml version="1.0" encoding="utf-8"?>
<!-- Generator: Adobe Illustrator 27.5.0, SVG Export Plug-In . SVG Version: 6.00 Build 0)  -->
<svg version="1.1" id="katman_1" xmlns="http://www.w3.org/2000/svg" xmlns:xlink="http://www.w3.org/1999/xlink" x="0px" y="0px"
	 viewBox="0 0 1588 1191" style="enable-background:new 0 0 1588 1191;" xml:space="preserve">
<style type="text/css">
	.st0{fill:#EDEDED;}
	.st1{fill:#EA4335;}
	.st2{fill:#4285F4;}
	.st3{fill:#34A853;}
	.st4{fill:#FBBC05;}
	.st5{fill:#5F6368;}
</style>
<g id="Artwork">
	<g>
		<path class="st0" d="M314.94,1026.44V165.3c0-25.3,20.51-45.81,45.81-45.81h866.43c25.3,0,45.81,20.51,45.81,45.81v861.14
			c0,25.3-20.51,45.81-45.81,45.81H360.76C335.45,1072.25,314.94,1051.74,314.94,1026.44z"/>
		<g>
			<path class="st1" d="M849.22,356.27l12.95,0.24l35.19-35.19l1.71-14.9c-27.96-24.86-64.75-40.02-105.02-40.02
				c-72.93,0-134.45,49.6-152.69,116.83c3.85-2.66,12.04-0.67,12.04-0.67l70.32-11.55c0,0,3.64-5.98,5.44-5.61
				c16.09-17.6,39.22-28.68,64.88-28.68C814.92,336.72,834.12,344.05,849.22,356.27L849.22,356.27z"/>
			<path class="st2" d="M946.76,383.33c-8.16-30.14-25.02-56.74-47.73-76.94l-49.85,49.85c19.96,16.13,32.75,40.78,32.75,68.37v8.79
				c24.23,0,43.95,19.72,43.95,43.95c0,24.23-19.72,43.95-43.96,43.95h-87.89l-8.8,8.84v52.75l8.8,8.75h87.89
				c63,0,114.27-51.26,114.27-114.27c0-38.96-19.61-73.4-49.45-94.03L946.76,383.33z"/>
			<path class="st3" d="M706.15,591.63h87.83v-70.32h-87.81c-6.46,0-12.57-1.43-18.1-3.94l-12.66,3.88l-35.2,35.2l-3.08,11.88
				c19.2,14.61,43.13,23.3,69.05,23.32L706.15,591.63z"/>
			<path class="st4" d="M706.15,363.09c-63,0-114.27,51.26-114.27,114.27c0,37.1,17.78,70.11,45.26,91l50.97-50.97
				c-15.26-6.91-25.91-22.23-25.91-40.03c0-24.23,19.72-43.95,43.95-43.95c17.8,0,33.14,10.65,40.03,25.91l50.97-50.97
				C776.27,380.88,743.25,363.09,706.15,363.09z"/>
		</g>
		<g>
			<path class="st5" d="M606.99,928.96v-84.39h29.23c3.77,0,7.33,0.64,10.67,1.88c3.33,1.26,6.26,3.03,8.77,5.31
				c2.51,2.28,4.5,5.02,5.95,8.19s2.18,6.7,2.18,10.55s-0.73,7.25-2.18,10.43s-3.44,5.92-5.95,8.19c-2.51,2.28-5.44,4.05-8.77,5.31
				s-6.89,1.88-10.67,1.88h-15.91v32.65h-13.31L606.99,928.96z M636.57,883.58c2.2,0,4.17-0.37,5.89-1.12
				c1.73-0.74,3.18-1.75,4.37-3c1.18-1.26,2.08-2.67,2.71-4.25c0.62-1.57,0.94-3.14,0.94-4.71c0-1.65-0.32-3.26-0.94-4.83
				c-0.64-1.57-1.54-2.96-2.71-4.18c-1.18-1.22-2.63-2.22-4.37-3c-1.73-0.78-3.69-1.18-5.89-1.18H620.3v26.28L636.57,883.58
				L636.57,883.58z"/>
			<path class="st5" d="M707.71,921.89h-0.7c-1.73,2.28-3.97,4.34-6.72,6.19c-2.75,1.84-6.25,2.77-10.49,2.77
				c-3.07,0-5.93-0.49-8.6-1.47c-2.67-0.98-4.99-2.36-6.95-4.13c-1.96-1.77-3.52-3.85-4.66-6.25c-1.14-2.4-1.71-5.04-1.71-7.95
				c0-3.07,0.61-5.81,1.83-8.24c1.22-2.43,2.91-4.47,5.07-6.13c2.16-1.65,4.74-2.92,7.71-3.82c2.99-0.9,6.21-1.35,9.66-1.35
				c3.85,0,7.07,0.37,9.66,1.12c2.59,0.74,4.55,1.43,5.89,2.06v-2.24c0-1.73-0.37-3.33-1.12-4.83c-0.74-1.5-1.77-2.77-3.07-3.82
				c-1.3-1.06-2.77-1.88-4.42-2.47c-1.65-0.6-3.37-0.89-5.19-0.89c-2.91,0-5.52,0.57-7.83,1.71s-4.38,2.96-6.19,5.48l-10.37-6.84
				c2.75-3.77,6.17-6.62,10.26-8.55c4.09-1.92,8.72-2.88,13.91-2.88c8.56,0,15.18,2.12,19.86,6.36c4.67,4.25,7.01,10.3,7.01,18.16
				V929h-12.85v-7.07L707.71,921.89z M707.71,904.93c-1.73-1.02-3.65-1.84-5.77-2.47c-2.12-0.62-4.55-0.94-7.3-0.94
				c-4.09,0-7.34,0.94-9.78,2.83c-2.43,1.89-3.65,4.17-3.65,6.84c0,1.42,0.32,2.65,0.94,3.72c0.62,1.06,1.43,1.98,2.42,2.77
				c0.98,0.78,2.12,1.38,3.41,1.77c1.3,0.4,2.61,0.6,3.94,0.6c2.12,0,4.14-0.41,6.07-1.24c1.92-0.82,3.6-1.92,5.02-3.29
				c1.42-1.38,2.55-2.96,3.41-4.78c0.86-1.81,1.3-3.73,1.3-5.77L707.71,904.93z"/>
			<path class="st5" d="M744.6,880.88h0.7c1.57-3.29,3.94-5.85,7.13-7.66c3.18-1.81,6.7-2.71,10.55-2.71c1.26,0,2.18,0.04,2.77,0.12
				c0.58,0.08,1.19,0.2,1.83,0.36v13.21c-0.86-0.32-1.71-0.53-2.53-0.65c-0.82-0.12-1.91-0.17-3.24-0.17
				c-4.95,0-8.93,1.51-11.96,4.54c-3.03,3.03-4.54,7.01-4.54,11.96v30.05h-13.09v-57.75h12.37v8.72L744.6,880.88z M785.26,882.76
				h-10.14v-11.55h10.14v-17.68h13.09v17.68h14.27v11.55h-14.27v26.39c0,1.46,0.16,2.79,0.48,4c0.32,1.22,0.78,2.22,1.42,3.03
				c1.34,1.53,3.03,2.3,5.07,2.3c1.26,0,2.24-0.09,2.95-0.29c0.7-0.2,1.46-0.49,2.24-0.89l4.01,11.55
				c-1.65,0.62-3.37,1.12-5.19,1.47c-1.81,0.36-3.85,0.53-6.13,0.53c-2.75,0-5.19-0.44-7.3-1.32c-2.12-0.89-3.97-2.08-5.54-3.6
				c-3.37-3.45-5.07-8.14-5.07-14.07v-29.09L785.26,882.76z"/>
			<path class="st5" d="M834.24,878.99h0.7c1.73-2.75,4.18-5.04,7.37-6.89c3.18-1.84,6.78-2.77,10.78-2.77
				c7.3,0,12.77,2.18,16.38,6.54c3.61,4.37,5.43,10.15,5.43,17.39v35.72h-13.09v-33.94c0-5.03-1.16-8.55-3.48-10.55
				c-2.32-2-5.36-3-9.13-3c-2.28,0-4.29,0.48-6.01,1.42c-1.73,0.94-3.23,2.22-4.47,3.82c-1.26,1.61-2.2,3.45-2.83,5.54
				c-0.64,2.08-0.94,4.26-0.94,6.54v30.17h-13.09v-57.75h12.37V879L834.24,878.99z"/>
			<path class="st5" d="M939.73,915.17c-2.43,4.47-5.89,8.22-10.37,11.2c-4.47,2.99-9.98,4.47-16.5,4.47
				c-4.33,0-8.31-0.77-11.96-2.3s-6.81-3.68-9.49-6.42c-2.67-2.75-4.75-5.99-6.25-9.73c-1.5-3.73-2.24-7.83-2.24-12.32
				c0-4.17,0.7-8.11,2.12-11.84c1.42-3.73,3.4-6.99,5.95-9.78c2.55-2.79,5.64-5.02,9.25-6.66s7.62-2.47,12.02-2.47
				c4.39,0,8.47,0.74,11.96,2.24c3.49,1.5,6.46,3.57,8.89,6.25c2.43,2.67,4.3,5.89,5.6,9.66c1.3,3.77,1.95,7.9,1.95,12.37v1.06
				c-0.08,0.4-0.12,0.74-0.12,1.06c-0.08,0.32-0.12,0.64-0.12,0.94h-44.44c0.24,2.75,0.9,5.15,2,7.19c1.1,2.04,2.45,3.73,4.06,5.07
				c1.61,1.34,3.4,2.32,5.36,2.95c1.96,0.64,3.89,0.94,5.77,0.94c3.77,0,6.87-0.9,9.32-2.71c2.43-1.81,4.43-4.05,6.01-6.72
				l11.2,5.54L939.73,915.17z M927.6,892.9c-0.16-1.18-0.53-2.49-1.12-3.94c-0.58-1.46-1.5-2.79-2.71-4.01
				c-1.22-1.22-2.79-2.26-4.71-3.12c-1.93-0.86-4.26-1.3-7.01-1.3c-3.77,0-7.01,1.12-9.73,3.36c-2.71,2.24-4.54,5.24-5.48,9.01
				H927.6z"/>
			<path class="st5" d="M949.35,871.21h12.37v8.72h0.7c0.7-1.5,1.67-2.88,2.88-4.18c1.22-1.3,2.59-2.4,4.13-3.31
				c1.53-0.91,3.14-1.65,4.83-2.24c1.69-0.58,3.32-0.87,4.9-0.87c1.88,0,3.49,0.19,4.83,0.53c1.34,0.36,2.55,0.85,3.65,1.47
				l-3.77,11.91c-0.86-0.4-1.83-0.69-2.88-0.89c-1.06-0.2-2.34-0.29-3.82-0.29c-2.12,0-4.06,0.44-5.84,1.31
				c-1.77,0.87-3.32,2.05-4.66,3.55c-1.34,1.5-2.38,3.28-3.12,5.33c-0.74,2.05-1.12,4.22-1.12,6.51v30.21h-13.09v-57.75
				L949.35,871.21z"/>
		</g>
		<g>
			<path class="st5" d="M564.98,759.6c0,10.24-3.04,18.39-9.12,24.47c-6.83,7.24-15.8,10.85-26.92,10.85
				c-11.12,0-19.65-3.68-27.02-11.05c-7.37-7.37-11.05-16.45-11.05-27.23c0-10.78,3.68-19.86,11.05-27.23
				c7.37-7.37,16.38-11.05,27.02-11.05c5.39,0,10.47,0.95,15.24,2.87c4.78,1.91,8.71,4.61,11.78,8.09l-6.75,6.76
				c-2.25-2.73-5.17-4.86-8.75-6.39c-3.59-1.54-7.42-2.3-11.51-2.3c-7.98,0-14.74,2.77-20.27,8.3c-5.47,5.6-8.19,12.58-8.19,20.99
				s2.73,15.39,8.19,20.99c5.53,5.53,12.28,8.3,20.27,8.3c7.3,0,13.38-2.05,18.22-6.14c4.84-4.09,7.65-9.73,8.39-16.89h-26.61v-8.8
				h35.52c0.34,1.91,0.52,3.76,0.52,5.53L564.98,759.6z"/>
			<path class="st5" d="M571.42,768.2c0-7.71,2.42-14.09,7.26-19.13c4.91-5.05,11.09-7.57,18.53-7.57s13.58,2.53,18.42,7.57
				c4.91,5.05,7.37,11.43,7.37,19.13s-2.46,14.16-7.37,19.13c-4.84,5.05-10.98,7.57-18.42,7.57s-13.62-2.53-18.53-7.57
				C573.84,782.28,571.42,775.91,571.42,768.2z M580.84,768.2c0,5.39,1.57,9.75,4.71,13.1s7.03,5.02,11.67,5.02
				c4.64,0,8.54-1.67,11.67-5.02s4.71-7.71,4.71-13.1c0-5.39-1.57-9.66-4.71-12.99c-3.2-3.41-7.09-5.12-11.67-5.12
				c-4.58,0-8.46,1.71-11.67,5.12C582.42,758.56,580.84,762.88,580.84,768.2z"/>
			<path class="st5" d="M628.75,768.2c0-7.71,2.42-14.09,7.26-19.13c4.91-5.05,11.09-7.57,18.53-7.57s13.58,2.53,18.42,7.57
				c4.91,5.05,7.37,11.43,7.37,19.13s-2.46,14.16-7.37,19.13c-4.84,5.05-10.98,7.57-18.42,7.57s-13.62-2.53-18.53-7.57
				C631.17,782.28,628.75,775.91,628.75,768.2z M638.17,768.2c0,5.39,1.57,9.75,4.71,13.1s7.03,5.02,11.67,5.02
				s8.54-1.67,11.67-5.02s4.71-7.71,4.71-13.1c0-5.39-1.57-9.66-4.71-12.99c-3.2-3.41-7.09-5.12-11.67-5.12
				c-4.58,0-8.46,1.71-11.67,5.12C639.74,758.56,638.17,762.88,638.17,768.2L638.17,768.2z"/>
			<path class="st5" d="M711.13,817.03c-2.81,0-5.43-0.36-7.89-1.07c-2.46-0.71-4.7-1.72-6.71-3.02s-3.73-2.83-5.17-4.61
				c-1.43-1.77-2.53-3.76-3.28-5.94l8.91-3.68c1.02,2.94,2.79,5.29,5.32,7.07c2.53,1.77,5.45,2.66,8.8,2.66
				c5.12,0,9.1-1.53,11.98-4.6s4.3-7.3,4.3-12.69v-4.82h-0.41c-1.77,2.66-4.18,4.76-7.21,6.3c-3.04,1.53-6.33,2.3-9.87,2.3
				c-6.55,0-12.19-2.55-16.89-7.68c-4.64-5.25-6.96-11.61-6.96-19.04s2.32-13.75,6.96-18.94c4.71-5.19,10.33-7.78,16.89-7.78
				c3.55,0,6.84,0.77,9.87,2.3c3.03,1.54,5.44,3.64,7.21,6.3h0.41v-6.96h9.01v48.01c0,8.05-2.29,14.36-6.85,18.94
				c-4.64,4.64-10.78,6.96-18.42,6.96L711.13,817.03z M711.44,786.32c4.64,0,8.43-1.67,11.37-5.02c3.07-3.35,4.61-7.71,4.61-13.1
				c0-5.39-1.54-9.58-4.61-12.99c-3-3.41-6.79-5.12-11.37-5.12s-8.28,1.71-11.37,5.12c-3.07,3.41-4.61,7.74-4.61,12.99
				s1.54,9.66,4.61,12.99C703.14,784.61,706.93,786.32,711.44,786.32z"/>
			<path class="st5" d="M757.3,720v73.28h-9.42V720H757.3z"/>
			<path class="st5" d="M790.77,794.92c-7.37,0-13.44-2.53-18.22-7.57c-4.78-5.05-7.16-11.43-7.16-19.13s2.32-14,6.96-19.09
				c4.64-5.08,10.57-7.62,17.81-7.62s13.35,2.41,17.76,7.21c4.41,4.82,6.6,11.55,6.6,20.22l-0.11,1.02h-39.41
				c0.13,4.91,1.77,8.87,4.91,11.87c3.14,3,6.89,4.5,11.26,4.5c6.01,0,10.71-3,14.12-9.01l8.39,4.09c-2.25,4.23-5.37,7.54-9.37,9.92
				s-8.51,3.59-13.56,3.59L790.77,794.92z M775.72,762.17h28.77c-0.28-3.48-1.69-6.36-4.25-8.65c-2.55-2.29-5.99-3.43-10.28-3.43
				c-3.55,0-6.6,1.1-9.16,3.28s-4.25,5.12-5.07,8.8H775.72z"/>
			<path class="st5" d="M879.72,794.92c-10.85,0-19.93-3.65-27.23-10.96c-7.24-7.3-10.85-16.41-10.85-27.33
				c0-10.92,3.61-19.99,10.85-27.23c7.24-7.37,16.3-11.05,27.23-11.05s20.02,4,26.92,11.98l-6.75,6.55
				c-5.25-6.35-11.98-9.51-20.17-9.51c-8.19,0-14.91,2.73-20.37,8.19c-5.39,5.39-8.09,12.43-8.09,21.08s2.7,15.69,8.09,21.08
				c5.45,5.47,12.25,8.19,20.37,8.19c8.54,0,15.93-3.59,22.22-10.75l6.85,6.66c-3.48,4.17-7.74,7.38-12.8,9.67
				C890.94,793.78,885.52,794.92,879.72,794.92z"/>
			<path class="st5" d="M926.6,720v73.28h-9.42V720H926.6z"/>
			<path class="st5" d="M934.69,768.2c0-7.71,2.42-14.09,7.26-19.13c4.91-5.05,11.09-7.57,18.53-7.57s13.58,2.53,18.42,7.57
				c4.91,5.05,7.37,11.43,7.37,19.13s-2.46,14.16-7.37,19.13c-4.84,5.05-10.98,7.57-18.42,7.57s-13.62-2.53-18.53-7.57
				C937.11,782.28,934.69,775.91,934.69,768.2z M944.11,768.2c0,5.39,1.57,9.75,4.71,13.1s7.03,5.02,11.67,5.02
				s8.54-1.67,11.67-5.02s4.71-7.71,4.71-13.1c0-5.39-1.57-9.66-4.71-12.99c-3.2-3.41-7.09-5.12-11.67-5.12
				c-4.58,0-8.46,1.71-11.67,5.12C945.69,758.56,944.11,762.88,944.11,768.2z"/>
			<path class="st5" d="M1038.37,793.28h-9.01v-6.96h-0.41c-1.43,2.46-3.64,4.5-6.6,6.14s-6.06,2.46-9.26,2.46
				c-6.14,0-10.86-1.76-14.17-5.27c-3.31-3.52-4.96-8.51-4.96-14.99v-31.52h9.42v30.91c0.2,8.19,4.33,12.28,12.39,12.28
				c3.76,0,6.89-1.52,9.42-4.55c2.53-3.03,3.78-6.67,3.78-10.9v-27.74h9.42v50.15L1038.37,793.28z"/>
			<path class="st5" d="M1070.31,794.92c-6.55,0-12.19-2.59-16.89-7.78c-4.64-5.25-6.96-11.57-6.96-18.94
				c0-7.37,2.32-13.68,6.96-18.94c4.71-5.19,10.33-7.78,16.89-7.78c3.68,0,7.04,0.78,10.08,2.36c3.03,1.57,5.37,3.65,7.01,6.25h0.41
				l-0.41-6.96V720h9.42v73.28h-9.01v-6.96h-0.41c-1.64,2.59-3.97,4.67-7.01,6.25C1077.35,794.14,1074,794.92,1070.31,794.92
				L1070.31,794.92z M1071.85,786.32c4.64,0,8.43-1.67,11.37-5.02c3.07-3.35,4.6-7.71,4.6-13.1c0-5.39-1.53-9.58-4.6-12.99
				c-3-3.41-6.79-5.12-11.37-5.12c-4.58,0-8.28,1.71-11.37,5.12c-3.07,3.41-4.6,7.74-4.6,12.99s1.53,9.66,4.6,12.99
				C1063.55,784.61,1067.34,786.32,1071.85,786.32z"/>
		</g>
	</g>
</g>
</svg>
