<svg version="1.2" xmlns="http://www.w3.org/2000/svg" viewBox="0 0 500 500" width="500" height="500">
	<title>6670984</title>
	<defs>
		<clipPath clipPathUnits="userSpaceOnUse" id="cp1">
			<path d="m154.63 238.77q0.04-0.21 0.06-0.42c-0.91-3.3-5.62-3.24-8.26-4.63q-0.8-0.43-1.39-1.03-0.08-0.08-0.15-0.16c-0.83-0.91-1.34-2.05-1.53-3.36-0.81-5.31 1.92-10.11 4.27-14.78q-0.11-0.19-0.28-0.36c-0.59-0.57-1.51-0.55-2.34-0.56-3.08-0.04-5.96-1.02-8.46-2.81-1.19-0.85-2.26-1.86-3.29-2.91-0.58-0.6-1.66-2.69-2.55-2.76-0.08-0.01-0.15 0.04-0.22 0.07-1.05 4.23-1.14 8.19-3.67 11.98-0.96 1.44-2.1 2.72-3.44 3.65-0.71 0.68-1.57 1.18-2.75 1.38q-0.45 0.08-0.92 0.09-0.18 0.03-0.37 0.06-0.22 0.01-0.38-0.08c-1.9-0.08-3.87-0.53-5.34 0.59-0.69 0.53-1.12 1.33-1.46 2.14-2.48 5.94-0.74 13.69 2.41 19.03 2.39 4.08 6.59 7.85 11.17 9.13 4.35 1.22 8.89 0.19 13.03-1.32 1.82-0.67 3.54-1.33 5.2-2.09 4.99-2.31 9.29-4.87 10.6-10.56q0.03-0.14 0.06-0.29z"/>
		</clipPath>
	</defs>
	<style>
		.s0 { fill: #f1ebff } 
		.s1 { fill: none;stroke: #7a5ce0;stroke-linecap: round;stroke-linejoin: round } 
		.s2 { fill: none;stroke: #000000;stroke-linecap: round;stroke-linejoin: round;stroke-width: 2 } 
		.s3 { fill: #7a5ce0 } 
		.s4 { fill: #dacafc } 
		.s5 { fill: #000000 } 
		.s6 { fill: #1c1c1b } 
		.s7 { fill: #ff6363 } 
		.s8 { fill: #1d1d1b } 
		.s9 { fill: #081132 } 
		.s10 { fill: none;stroke: #1d1d1b;stroke-linecap: round;stroke-linejoin: round } 
		.s11 { fill: none;stroke: #081132;stroke-linecap: round;stroke-linejoin: round;stroke-width: .5 } 
		.s12 { fill: #ffffff } 
		.s13 { fill: none;stroke: #634ab5;stroke-linecap: round;stroke-linejoin: round;stroke-width: 4 } 
		.s14 { fill: #634ab5 } 
		.s15 { fill: #dc8b77 } 
		.s16 { fill: #ae96ff } 
		.s17 { fill: none;stroke: #1c1c1b;stroke-linecap: round;stroke-linejoin: round;stroke-width: .5 } 
		.s18 { fill: none;stroke: #ff6363;stroke-linecap: round;stroke-linejoin: round } 
		.s19 { fill: none;stroke: #292929;stroke-linecap: round;stroke-linejoin: round } 
		.s20 { fill: none;stroke: #000000;stroke-linecap: round;stroke-linejoin: round } 
		.s21 { fill: none;stroke: #101c59;stroke-linecap: round;stroke-linejoin: round } 
		.s22 { fill: #bfa7f2 } 
		.s23 { fill: none;stroke: #ae96ff;stroke-linecap: round;stroke-linejoin: round;stroke-width: 5 } 
	</style>
	<g id="BACKGROUND">
	</g>
	<g id="OBJECTS">
		<g id="&lt;Group&gt;">
			<path id="&lt;Path&gt;" class="s0" d="m307.6 351.6c-35.6-41.5-93.8-62.1-147.5-52.1-15 2.8-29.9 7.9-42.4 16.8-12.6 8.8-22.8 21.5-26.8 36.4-5.5 20.1 1.5 43.1 17.2 56.8 11.2 9.7 25.7 14.5 40.1 18.1 28.3 7 57.7 9.9 86.8 8.6 17.2-0.7 34.7-3 50.3-10.3 14.5-6.6 28-18.9 35.2-33.3 7.5-14.8-3.3-29.9-12.9-41z"/>
			<path id="&lt;Path&gt;" class="s0" d="m372.2 328.6c6.6-10.4 14.5-20.3 24.7-27.1 10.3-6.9 23.2-10.4 35.2-7.6 12 2.8 22.5 12.8 24.2 25 1.2 9.1-2.3 18.1-6.3 26.4-9.2 19.4-21.8 38-40 49.3-14.5 9-45.2 18.2-53.5-3.3-7.6-19.8 5.5-46.4 15.7-62.7z"/>
			<path id="&lt;Path&gt;" class="s0" d="m195.4 39.6c23-1.1 46.3-0.4 69.3 0.8 29.9 1.5 60 4 88.8 12.2 32.3 9.3 64.6 26.6 84.3 54.9 19.4 27.8 31.3 70.8 18.1 103.5-8.9 22.2-28.7 38-48.2 51.8-19.6 13.7-40.5 26.9-53.8 46.8-2.6 3.8-4.8 7.8-8.2 10.9-3.3 3.1-8 5.1-12.4 3.9-3.3-0.9-5.9-3.6-8.2-6.2-8.2-9.2-15.2-19.6-24.7-27.5-18-14.7-42.2-18.2-65.1-21.3q-38.8-5.1-77.6-10.2c-20.4-2.7-44.6-5.9-63.4-14.3-30.3-13.3-51.3-44.4-55.1-77.4-4.6-39.6 14.3-88.5 51.7-105.3 32.8-14.8 68.4-20.8 104.5-22.6z"/>
		</g>
		<g id="&lt;Group&gt;">
			<path id="&lt;Path&gt;" class="s1" d="m298.3 442.7h-18.4c-2.8 0-5.1-2.3-5.1-5.1v-124.1c0-2.9-2.3-5.2-5.1-5.2h-73"/>
			<path id="&lt;Path&gt;" class="s1" d="m303.8 426.1h-18.4c-2.8 0-5.1-2.3-5.1-5.1v-118.1c0-2.8-2.3-5.1-5.1-5.1h-73"/>
			<path id="&lt;Path&gt;" class="s1" d="m297.8 405.5h-24.2c-2.4 0-4.3-1.9-4.3-4.3v-83.9c0-2.9-2.3-5.2-5.1-5.2h-89.6"/>
		</g>
		<g id="&lt;Group&gt;">
			<path id="&lt;Path&gt;" class="s2" d="m215.4 450.5l17.9-129c0-0.4 0.6-0.4 0.7 0l19.5 129"/>
			<path id="&lt;Path&gt;" class="s2" d="m119.3 449.5l20.3-84.1 30.8 84.1"/>
			<g id="&lt;Group&gt;">
				<g id="&lt;Group&gt;">
					<g id="&lt;Group&gt;">
						<path id="&lt;Path&gt;" class="s3" d="m74.3 329.8q-0.3-0.8-0.6-1.7 0.3 0.9 0.6 1.7z"/>
						<path id="&lt;Path&gt;" class="s3" d="m80.7 284.5c2.3 5.6 5 11 7.5 16.5 2.8 5.7 5.5 11.4 9 16.8 7.1 11.1 16.1 20.9 26.1 29.4 10.7 9.2 23.1 16.3 35.7 22.5q0.2 0.1 0.4 0.2-4 0.1-7.9 0c-5.3-0.2-10.5-0.8-15.6-1.8 4.6 1.2 9.2 2.1 14.1 2.3 8 0.3 16-0.3 23.8-1.9 7.8-1.5 15.6-4 22.3-8.5 3-2 5.7-4.5 7.8-7.4q1.7-2.4 2.8-5.1-0.1-0.3-0.1-0.6c-3.9-14.1-16.1-15.9-27-22.2-11.6-6.5-21.4-16.1-28.3-27.5-6.4-10.6-10.2-22.4-15.3-33.6-4.7-10.5-10.9-15.9-21.9-19.7-8.1-2.8-17-4.8-25.1-2-7.3 2.4-12.6 8.3-16.1 15.2 0.6 9.5 4.2 18.9 7.8 27.4z"/>
					</g>
					<path id="&lt;Path&gt;" class="s4" d="m195.7 308.6c0.1-5.5-0.1-10.5 1.3-16 1.9-7.2 7.5-11.2 14.4-13.4 1.5-0.5 3.2-0.9 4.7-0.3 1.7 0.6 2.8 2.3 3.5 4.1 2.2 5.6 1.1 11.9-0.1 17.8q-3.9 19.8-7.8 39.6c-0.2 0.7-0.4 1.6-1.1 2-0.5 0.2-1.1 0.1-1.7 0-5.9-1.1-11.6-3-17-5.6 2.3 1.1 3.8-27 3.8-28.2z"/>
					<path id="&lt;Path&gt;" class="s4" d="m209.9 386.6c4.4-1.2 6.5-1.6 10.7-3.3 0 19.2 2.7 51.5 2.6 57.1-5.4 0.6-9.6 2.6-15 2.6-4.3-6.6-6-25.4-8.4-32.7-0.6-1.7-3-10.1-5.8-19.7q8-1.8 15.9-4z"/>
					<path id="&lt;Path&gt;" class="s5" d="m200 348.1c6.2 1.4 12.5 2.1 18.8 3 3.4 0.5 10.1 2.4 13.3 0.1 3.9-3-2.6-4.7-5.5-6.3-5-2.9-10.2-5.6-15.2-8.3-4.7-2.6-10.8-8-15.6-2.8-3.1 3.4-3.4 8.8-3.8 13.2 2.7 0.1 5.3 0.5 8 1.1z"/>
					<path id="&lt;Path&gt;" class="s6" d="m99.5 325.6c2.9-9.1 15.9-11.2 23.9-10.6 16.7 1.4 33.5 1.8 50.1 3.2 13.5 1.1 28.2 4 37.5 14.9 7.6 8.8 8.8 21 11 32.1 4 20.6 5.1 39.8 4.6 60.6 0 0.5 0 1.1-0.3 1.5-0.4 0.5-1.1 0.6-1.7 0.7q-11.9 1.6-23.8 3.2c-0.5 0-1 0.1-1.4-0.1-0.5-0.3-0.6-0.9-0.8-1.4-1.2-4.3-17.6-69.8-16.5-70-13.7 2.2-24.5 1.5-38.3 0.4-9.8-0.8-19.8-2.5-28.3-7.3-8.2-4.8-19.3-16.7-16-27.2z"/>
					<path id="&lt;Path&gt;" class="s7" d="m95.6 322c0.9 1.5 0.9 2.9 1.4 3.7 2.5-0.1 5 0 7.5 0 6.6 0.1 13.2 0.2 19.7-1.2 5.6-1.1 11.2-2.9 16.6-4.8 8.4-2.9 16.3-5 15.7-15.3-0.8-13.3-2.4-30.1 1.3-43 1.5-5.3 2.3-9.2 4.6-14.1 0.6-1.4 1.2-2.8 1.3-4.3 0.1-1-0.1-2.1-0.4-3.1-4.1-17-18.3-17.2-33.3-18.6-2.3-0.2-4.7-0.4-7 0-2.8 0.5-6.1 1.3-8.6 2.8-13.1 8-14 21.3-18 35-2 6.9-5.1 13.4-7 20.3-4.3 14.7-2.3 29.8 6.2 42.6z"/>
					<path id="&lt;Path&gt;" class="s5" d="m226.9 440.2c1.6 0.9 4.1 1.4 5.8 1.9 4.5 1.4 9.1 2.2 13.5 3.7 2.3 0.8 4.5 3.7 2 5.8-1.1 0.9-2.6 1.1-4 1.3-11.2 1.3-22.5 0.7-33.7 0-0.6 0-1.3-0.1-1.7-0.5-0.3-0.2-0.4-0.6-0.6-0.9-1.3-3.6-2.3-7.6-3.1-11.3 1.5-0.4 3.1 0.2 4.6 0.4 2 0.1 4.1 0.3 5.9-0.7 2.4-1.4 4.6-3.1 6.6-5 0.2-0.2 0.4-0.4 0.6-0.5 0.8-0.3 1.5 0.5 1.8 1.3 0.5 1.6 0.5 3.4 2 4.3q0.2 0.1 0.3 0.2z"/>
					<path id="&lt;Path&gt;" class="s6" d="m195.2 304.9c-0.1-1.8 0-3.6 1.8-4.2 2.4-0.9 3.2 0.4 4.7-2.1 3-4.8 5.1-10.9 7.1-16.1 2.4-6.4 6.9-14.7 6.7-21.5-0.1-0.3-0.1-0.7-0.3-1-0.2-0.3-0.7-0.5-1.1-0.6-3.5-0.9-7.2-0.8-10.9-0.6-24 1.6-37.4 27.8-48.8 45.7-1.7 2.7-11.7 15.8-14.3 15.6 9.2 0.7 16.2 5.4 24.7 8 5.2 1.5 11 6.2 15.9 6.9 1.5 0.2 8-11.7 8.9-13.2 2.5-4.1 6-8.8 5.9-13.7 0-1-0.2-2.1-0.3-3.2z"/>
					<path id="&lt;Path&gt;" class="s6" d="m223.9 307.2c-0.5 4.1-1.2 8-2.2 12-0.1 0.3-0.2 0.7-0.4 0.9-0.4 0.5-1 0.5-1.6 0.5-1.2-0.1-2.3-0.4-3.5-0.7-7.3-1.4-19.4 3.6-25.1-3.3-1.1-1.3-1.5-3.2-1.7-5-1.7-12.7 2.4-25.2 2.2-38-0.1-6.9 2.4-11 5.9-16.6 3.3-5.3 8-7.2 14-5.1 10.1 3.4 15.8 14.2 15.4 24.4-0.5 10.3-1.6 20.6-3 30.9z"/>
					<g id="&lt;Group&gt;">
						<g id="&lt;Group&gt;">
							<path id="&lt;Path&gt;" class="s4" d="m130 208.1c-0.1 1.2 2.4 4.1 3.2 4.9 1.3 1.5 2.7 2.6 4.5 3.2 4.5 1.9 9.3 2 12.9-1.8 1.7-1.8 2.9-4 3.8-6.3 1.5-3.5 3.6-13.1 2.6-16.7-0.8-3.3-4.3-0.4-7.6-1.6-2.8-0.9-4.9-1.8-7.9-1.3-2.7 0.5-5.3 1.8-6.9 4q-0.7 0.9-1.3 1.8c-0.9 1.9-1.7 3.8-2.3 5.8-0.5 1.7-0.6 3.4-0.9 5.1q0 1.5-0.1 2.9z"/>
						</g>
					</g>
					<g id="&lt;Group&gt;">
						<g id="&lt;Group&gt;">
							<path id="&lt;Path&gt;" class="s4" d="m128.1 230.2c2.6 1.9 5.9 3.1 9.1 3.4 0.6 0 8.5-0.9 7.4-2.4-3-3.9-1.3-7.4 0.5-11.7 0.3-0.6 2.8-4.7 2.5-5.1q-0.1-0.2-0.2-0.4c-0.6-0.5-1.6-0.5-2.4-0.5-3.1-0.1-5.9-1-8.5-2.8-1.1-0.9-2.2-1.9-3.2-2.9-0.6-0.6-1.7-2.7-2.6-2.8-0.1 0-0.1 0-0.2 0.1-1.1 4.2-1.6 7.9-3.7 11.9-1.6 3.2-5.6 4.7-6.8 4.9 1.8 3.3 5 6.2 8.1 8.3z"/>
						</g>
					</g>
					<path id="&lt;Path&gt;" class="s8" d="m136.9 201.7c0.1-0.6 0.2-1.4 0.8-1.7 0.6-0.3 1.2 0.2 1.9 0.4 2 0.4 4-1.8 5.1-3.2q0.4-0.5 0.8-0.9c1.3-1.4 2.7-2 5-1.9 2.3 0.2 4.6 1 6.8 0.6 2.5-0.5 4.6-2.6 5.2-5.1 0.9-4-2.4-9.3-6.9-8.6-1.2 0.2-2.5 0.9-3.6 0.2-0.6-0.3-0.9-1-1.4-1.5-1.5-2.2-4.7-3-7.1-2-0.7 0.3-1.3 0.7-1.9 0.9-1.3 0.4-2.7 0.1-4.1 0-1.5-0.1-3.2 0.2-4.5 1.1-1.3 0.9-2.2 2.5-1.9 4.1 0.1 0.5 0.2 0.9 0.2 1.4-0.2 1.6-2.8 1.7-3.6 3.2-0.7 1.4 0.6 3.1 0.2 4.6-0.2 0.9-1 1.7-1.1 2.6-0.1 1.2 0.9 2 1.4 2.9 0.5 1.1 1 2.5 1.1 3.7 0.2 2.4-1.3 5 2.3 4.7 2.9-0.2 5-2.6 5.3-5.5z"/>
					<path id="&lt;Path&gt;" class="s7" d="m182 264.3c1.4 1.7 2.5 3.4 6.6 3.1 5.1-0.3 10.1-2.9 13-7.2 0.9-1.2 1.5-2.6 1.7-4 1.2-8.7-8.5-14.3-14.7-17.8-7.1-4-14.7-6.8-22.5-9.3-6.8-2.2-14-6-21.4-5.4q-0.3 0-0.5 0.1 0.1 1.4 0.1 2.9c3.4 5.3 5.5 11.6 6.8 17.8 0.9 3.9 2.9 8.5 2.5 12.6q12.2 1.7 24.3 4.5c2.1 0.4 3.1 1.5 4.1 2.7z"/>
					<path id="&lt;Path&gt;" class="s4" d="m194.3 245.9c-3.2 0.4-5.8 2.8-7.3 5.5-1.5 2.8-2.1 6-2.7 9.1-1.7 8.9-2.2 19.2-5.2 27.7-1.8 5.3-9 12.6-5.4 18.6 1 1.8 3.2 2.8 5.2 2.4 3.6-0.7 5.2-4.7 6.8-8 1.9-4.2 4.8-7.5 7.4-11.3 3.2-4.6 5.6-10.4 7.9-15.6 3-6.6 5.6-14.1 3.2-21-1.5-4.2-5.5-7.8-9.9-7.4z"/>
					<g id="&lt;Clip Group&gt;">
						<path id="&lt;Path&gt;" class="s9" d="m138.1 215.8q0.2 0.1 0.4 0.1c2.6 1.1 5.4 1.8 8.2 1.4 0.7 0.3 0.4 0.8 0.1 1.8q-0.7 2.2-1.3 4.4-3.8-3.9-7.6-7.8 0.1 0 0.2 0.1z"/>
						<g id="&lt;Group&gt;">
							<g id="&lt;Group&gt;" clip-path="url(#cp1)">
							</g>
						</g>
					</g>
					<path id="&lt;Path&gt;" class="s7" d="m98.6 233.8c-5.2 6-7.3 14-9.1 21.5q-3.4 14.5-6.8 29.1c-0.5 2.2-1.1 4.5-1.1 6.9-0.1 3.7 0.9 8.5 1.8 12.1 1.1 4.6 3.9 4.3 8 3.9 6.5-0.6 15.3-2.6 19.7-7.9 2.1-2.5 2.8-5.9 3.4-9.2q1.2-6.6 2.4-13.3c3.4-18.1 6.8-36.9 3-54.9-9.1 1.3-16 5.7-21.3 11.8z"/>
					<path id="&lt;Path&gt;" class="s10" d="m120.1 251.8c-7.6 2-6.9 11.7-7.6 17.6-1 8.8-2.6 17.6-5 26.1"/>
					<path id="&lt;Path&gt;" class="s11" d="m199.8 273.1c-2.8 12.4-9.4 31.4-9.5 44.1"/>
					<path id="&lt;Path&gt;" class="s12" d="m146.2 209c0.4 1.1 1.4 2 2.5 2.2 1.1 0.1 2.2-0.4 2.9-1.5"/>
					<path id="&lt;Path&gt;" class="s13" d="m76.6 314.5c20.8-4.7 38.5-8.2 57.2 0.7 12.2 5.7 20.4 16.5 22.7 27.9 2.3 11.4-1.4 19.4-11.4 24.5"/>
					<path id="&lt;Path&gt;" class="s11" d="m185.7 361.2c-0.5-4.3-0.7-9.7-1.2-14"/>
					<path id="&lt;Path&gt;" class="s11" d="m190.5 321.4c-13.3-2-22-0.2-39.2-0.2"/>
					<path id="&lt;Path&gt;" class="s4" d="m132.9 201.3c0 2.2 1.7 4 3.9 4 2.2 0 4-1.8 4-4 0-2.2-1.8-4-4-4-2.2 0-3.9 1.8-3.9 4z"/>
					<path id="&lt;Path&gt;" class="s14" d="m160.3 370.2c-0.1 0-1.2-0.4-1.3-0.5-12.6-6.2-25-13.3-35.7-22.5-10-8.5-19-18.3-26.1-29.4-3.5-5.4-6.2-11.1-9-16.8-2.5-5.5-5.2-10.9-7.5-16.5-3.6-8.5-7.2-17.9-7.8-27.4-1.9 4-3.2 8.2-3.9 12.5-3.1 18.3-1 40.8 4.7 58.5q0.3 0.9 0.6 1.7c3.9 10.5 11.6 20 26 28.2 25.6 14.6 45.9 12.4 51.1 12.6 2.7 0.1 6.3-0.3 8.9-0.4z"/>
				</g>
				<path id="&lt;Path&gt;" class="s4" d="m109.3 287.5c4.1 0.9 8 2.2 12 3.4 6.2 1.9 12.6 3 19 4.7 1.8 0.5 3.6 0.9 5.5 1 3.2 0 6.3-1.3 9.6-1.4 4.3-0.1 8.5 2.3 10.8 5.9 4 6.1-2.6 4.5-6.7 4.4q-4.8-0.1-9.6-0.1c-12.6-0.2-24.5 0.4-37.2 1.5-6.9 0.6-18.8 2.2-25-1.9-2.9-2-7.8-11.7-5.1-14.6 0.5-0.5 1.2-0.8 1.9-1.1 6.2-2.5 12.9-3.4 19.5-2.7q2.7 0.3 5.3 0.9z"/>
				<path id="&lt;Path&gt;" class="s15" d="m202 297.8q-0.1 0-0.2 0"/>
				<path id="&lt;Path&gt;" class="s14" d="m71.8 285.9c0.2 2.6 0.6 5.2 1.1 7.7 0.5 3.2 1 6.4 1.8 9.5 0.7 2.8 1.6 5.6 3.4 7.8 2.9 3.6 8.3 5 12.7 3.5 3.4-1.1 2.9-2.4 1.5-5.2-3.1-6-6.3-12.2-8.9-18.4-2.6-6.3-5.1-12.3-7.2-18.7-0.5-1.4-1-2.8-1.4-4.1q-0.8-3.1-1.3-6.3c0.3 1.9-0.3 4.3-0.5 6.2q-0.3 3.2-0.8 6.4c-0.5 3.9-0.7 7.7-0.4 11.6z"/>
			</g>
			<g id="&lt;Group&gt;">
				<path id="&lt;Path&gt;" class="s2" d="m52.7 450.5l18.7-129c0.1-0.4 0.7-0.4 0.8 0l20.4 129"/>
				<path id="&lt;Path&gt;" class="s16" d="m245.8 317.4h-185.9v5.8h185.9z"/>
			</g>
			<path id="&lt;Path&gt;" class="s17" d="m138.7 200.7c-0.2-1.4-2.2-2.2-3.4-1.4"/>
			<g id="&lt;Group&gt;">
				<path id="&lt;Path&gt;" class="s5" d="m200.4 317.7h-83.6c-0.9 0-1.5-0.7-1.5-1.5v-0.9c0-0.9 0.6-1.6 1.5-1.6h83.6c0.9 0 1.6 0.7 1.6 1.6v0.9c0 0.8-0.7 1.5-1.6 1.5z"/>
				<path id="&lt;Path&gt;" class="s5" d="m202.2 317.7h-74.1l6.5-42.5c0.2-1.5 1.5-2.6 2.9-2.6h68.2c1.8 0 3.1 1.6 2.9 3.3z"/>
				<g id="&lt;Group&gt;">
					<path id="&lt;Path&gt;" class="s18" d="m170.6 293.7l3.2 2.7"/>
					<path id="&lt;Path&gt;" class="s18" d="m166.4 293.7l3.2 2.7"/>
				</g>
			</g>
			<path id="&lt;Path&gt;" class="s10" d="m180.6 257.4c-0.2 2.8 1.3 6.4 2.6 8.1"/>
		</g>
		<g id="&lt;Group&gt;">
			<g id="&lt;Group&gt;">
				<g id="&lt;Group&gt;">
					<g id="&lt;Group&gt;">
						<path id="&lt;Compound Path&gt;" class="s7" d="m349.8 182.8q-1.5 0.4-2.8 1.1 0.1 0.1 0.1 0.2c0.9 1.2 0.7 2.8-0.5 3.7-1.1 0.8-2.7 0.6-3.6-0.5q0-0.2-0.1-0.3-1.1 1.1-1.9 2.4 0.1 0 0.3 0.1c1.3 0.5 1.9 2 1.3 3.4-0.5 1.3-2 1.9-3.3 1.3q-0.2 0-0.3-0.1-0.4 1.4-0.4 3 0.1 0 0.3-0.1c1.4-0.1 2.7 0.9 2.8 2.3 0.2 1.4-0.8 2.7-2.2 2.9q-0.2 0-0.4 0 0.5 1.5 1.2 2.8 0.1-0.1 0.2-0.2c1.2-0.9 2.8-0.6 3.6 0.5 0.9 1.1 0.7 2.8-0.5 3.6q-0.1 0.1-0.3 0.2 1.1 1.1 2.4 1.9 0.1-0.1 0.1-0.3c0.6-1.3 2.1-2 3.4-1.4 1.3 0.6 1.9 2.1 1.4 3.4q-0.1 0.2-0.2 0.4 1.5 0.3 3 0.4 0-0.2 0-0.4c-0.2-1.4 0.8-2.7 2.2-2.9 1.4-0.2 2.7 0.9 2.9 2.3q0 0.2 0 0.4 1.5-0.4 2.8-1.2-0.1-0.1-0.2-0.3c-0.9-1.1-0.7-2.7 0.5-3.6 1.1-0.8 2.7-0.6 3.6 0.5q0.1 0.2 0.2 0.4 1.1-1.2 1.9-2.5-0.2 0-0.4-0.1c-1.3-0.6-1.9-2.1-1.3-3.4 0.5-1.3 2-1.9 3.3-1.4q0.2 0.1 0.4 0.2 0.3-1.5 0.4-3-0.2 0-0.4 0c-1.4 0.2-2.6-0.8-2.8-2.2-0.2-1.4 0.8-2.7 2.2-2.9q0.2 0 0.4 0-0.5-1.5-1.2-2.8-0.1 0.1-0.2 0.2c-1.2 0.8-2.8 0.6-3.6-0.5-0.9-1.2-0.7-2.8 0.5-3.6q0.1-0.1 0.2-0.2-1.1-1.1-2.3-1.9-0.1 0.2-0.1 0.3c-0.6 1.3-2.1 1.9-3.4 1.4-1.3-0.6-1.9-2.1-1.4-3.4q0.1-0.2 0.2-0.3-1.5-0.3-3-0.4 0 0.1 0.1 0.3c0.1 1.4-0.9 2.7-2.3 2.8-1.4 0.2-2.7-0.8-2.8-2.2q-0.1-0.1-0.1-0.3zm3.1 4.6c5.8-0.7 11 3.4 11.7 9.2 0.7 5.7-3.4 11-9.1 11.7-5.8 0.7-11-3.4-11.7-9.1-0.7-5.8 3.4-11.1 9.1-11.8z"/>
					</g>
					<path id="&lt;Compound Path&gt;" class="s7" d="m352.7 210.5c6.9 0.8 13.2-4.3 14-11.2 0.8-7-4.2-13.3-11.2-14.1-6.9-0.8-13.2 4.3-13.9 11.2-0.8 7 4.2 13.3 11.1 14.1zm-6.6-13.5c0.6-4.1 4.6-7.2 8.9-6.7 4.4 0.4 7.6 4.2 7.1 8.4-0.5 4.1-4.5 7.2-8.9 6.7-4.4-0.4-7.6-4.2-7.1-8.4z"/>
				</g>
			</g>
			<g id="&lt;Group&gt;">
				<g id="&lt;Group&gt;">
					<g id="&lt;Group&gt;">
						<path id="&lt;Compound Path&gt;" class="s7" d="m265.5 206.5q-1.2 0.3-2.3 0.9 0.1 0.1 0.1 0.2c0.7 1 0.6 2.3-0.4 3-0.9 0.8-2.2 0.6-2.9-0.4q-0.1-0.1-0.1-0.2-0.9 0.9-1.6 2 0.2 0 0.3 0.1c1 0.4 1.5 1.7 1.1 2.8-0.5 1.1-1.7 1.7-2.8 1.2q-0.1-0.1-0.2-0.1-0.3 1.2-0.3 2.5 0.1 0 0.2-0.1c1.2-0.1 2.2 0.8 2.4 2 0.1 1.1-0.7 2.2-1.9 2.4q-0.1 0-0.3 0 0.4 1.3 1 2.4 0.1-0.1 0.2-0.2c0.9-0.7 2.2-0.5 2.9 0.4 0.7 1 0.6 2.4-0.4 3.1q-0.1 0.1-0.2 0.2 0.9 0.9 1.9 1.6 0.1-0.2 0.1-0.3c0.5-1.1 1.7-1.6 2.8-1.2 1 0.5 1.5 1.8 1.1 2.9q-0.1 0.2-0.2 0.3 1.3 0.3 2.5 0.4 0-0.2 0-0.3c-0.2-1.2 0.6-2.3 1.8-2.5 1.1-0.1 2.2 0.7 2.3 1.9q0.1 0.2 0 0.4 1.3-0.4 2.4-1-0.1-0.1-0.2-0.2c-0.7-1-0.6-2.4 0.4-3.1 0.9-0.7 2.2-0.5 2.9 0.4q0.1 0.2 0.2 0.3 0.9-0.9 1.5-2-0.1-0.1-0.3-0.1c-1-0.5-1.5-1.8-1.1-2.9 0.5-1.1 1.7-1.6 2.7-1.1q0.2 0 0.3 0.1 0.3-1.2 0.4-2.6-0.2 0.1-0.3 0.1c-1.2 0.1-2.2-0.7-2.4-1.9-0.1-1.2 0.7-2.3 1.9-2.4q0.1 0 0.2 0-0.3-1.3-0.9-2.4-0.1 0.1-0.2 0.2c-0.9 0.7-2.2 0.5-2.9-0.5-0.7-0.9-0.6-2.3 0.4-3q0.1-0.1 0.2-0.2-0.9-0.9-2-1.6 0 0.2 0 0.3c-0.5 1.1-1.7 1.6-2.8 1.1-1-0.5-1.6-1.7-1.1-2.8q0-0.1 0.1-0.3-1.2-0.3-2.4-0.3 0 0.1 0 0.2c0.2 1.2-0.6 2.3-1.8 2.4-1.1 0.2-2.2-0.7-2.3-1.9q0-0.1 0-0.2zm2.5 3.9c4.7-0.6 8.9 2.8 9.5 7.7 0.6 4.9-2.7 9.3-7.4 9.9-4.7 0.6-8.9-2.9-9.5-7.7-0.6-4.9 2.7-9.3 7.4-9.9z"/>
					</g>
					<path id="&lt;Compound Path&gt;" class="s7" d="m268.1 228.6c4.9 0.5 9.4-3.2 10-8.3 0.5-5.2-3.1-9.9-8.1-10.5-4.9-0.6-9.4 3.1-10 8.3-0.5 5.2 3.1 9.9 8.1 10.5zm-5.4-10.1c0.4-3.5 3.6-6 7.1-5.6 3.5 0.4 6.1 3.5 5.6 7-0.4 3.4-3.5 5.9-7.1 5.6-3.5-0.4-6-3.5-5.6-7z"/>
				</g>
			</g>
			<g id="&lt;Group&gt;">
				<g id="&lt;Group&gt;">
					<g id="&lt;Group&gt;">
						<path id="&lt;Compound Path&gt;" class="s7" d="m302.4 180.9q-2.5 0.7-4.9 1.9 0.2 0.2 0.4 0.4c1.5 2 1.1 4.8-0.9 6.4-2 1.5-4.9 1.1-6.4-0.9q-0.1-0.2-0.2-0.5-1.9 2-3.3 4.2 0.2 0.1 0.5 0.2c2.3 0.9 3.3 3.6 2.4 5.9-1 2.3-3.7 3.4-6 2.4q-0.2-0.1-0.5-0.2-0.6 2.6-0.8 5.3 0.3-0.1 0.6-0.1c2.5-0.3 4.7 1.4 5 3.9 0.3 2.5-1.4 4.8-3.9 5.1q-0.3 0-0.6 0 0.7 2.7 2 5.1 0.2-0.3 0.4-0.5c2-1.5 4.9-1.1 6.4 0.9 1.5 2 1.1 4.9-0.9 6.4q-0.3 0.2-0.6 0.4 1.9 1.9 4.3 3.3 0-0.3 0.2-0.6c0.9-2.3 3.6-3.4 5.9-2.4 2.3 0.9 3.4 3.6 2.4 5.9q-0.2 0.4-0.4 0.7 2.7 0.6 5.4 0.8-0.1-0.4-0.1-0.7c-0.3-2.5 1.4-4.8 3.9-5.1 2.5-0.3 4.8 1.5 5.1 3.9q0 0.4 0 0.8 2.7-0.8 5.1-2.1-0.3-0.2-0.5-0.5c-1.5-2-1.1-4.8 0.9-6.4 2-1.5 4.8-1.1 6.3 0.9q0.2 0.3 0.4 0.7 1.9-2 3.3-4.4-0.3 0-0.6-0.2c-2.3-0.9-3.4-3.6-2.4-5.9 0.9-2.3 3.6-3.4 5.9-2.4q0.3 0.1 0.6 0.3 0.6-2.6 0.7-5.4-0.3 0.1-0.6 0.1c-2.4 0.3-4.7-1.4-5-3.9-0.3-2.5 1.4-4.8 3.9-5.1q0.3 0 0.6 0-0.8-2.6-2-5-0.2 0.2-0.4 0.4c-2 1.5-4.8 1.1-6.3-0.9-1.5-2-1.1-4.9 0.8-6.4q0.3-0.1 0.5-0.3-1.9-1.8-4.2-3.2 0 0.2-0.1 0.4c-1 2.3-3.7 3.4-6 2.4-2.3-0.9-3.3-3.6-2.4-5.9q0.1-0.3 0.3-0.5-2.6-0.6-5.3-0.7 0.1 0.2 0.1 0.4c0.3 2.5-1.4 4.8-3.9 5.1-2.5 0.3-4.7-1.4-5-3.9q-0.1-0.3-0.1-0.5zm5.6 9.3c9.4-1.1 18 5.6 19.1 15 1.2 9.5-5.5 18.1-14.9 19.2-9.4 1.2-17.9-5.5-19.1-14.9-1.2-9.5 5.5-18.1 14.9-19.3z"/>
					</g>
					<path id="&lt;Compound Path&gt;" class="s19" d="m307.8 228.3c11.5 1.3 21.9-7.1 23.2-18.6 1.2-11.6-7.1-22-18.5-23.3-11.5-1.3-21.9 7-23.2 18.6-1.3 11.5 7 22 18.5 23.3zm-11.7-22.5c0.9-7.8 7.9-13.4 15.6-12.5 7.7 0.8 13.3 7.8 12.4 15.6-0.8 7.8-7.8 13.4-15.5 12.5-7.8-0.9-13.3-7.9-12.5-15.6z"/>
				</g>
			</g>
		</g>
		<g id="&lt;Group&gt;">
			<path id="&lt;Path&gt;" class="s20" d="m213.3 66.8c2.2-2.5 5.9-2.7 8.4-0.6 2.5 2.2 2.8 6 0.6 8.5"/>
			<path id="&lt;Path&gt;" class="s20" d="m235.9 91.4c0 3.1-2.5 5.7-5.7 5.7-3.1 0-5.7-2.6-5.7-5.7 0-3.2 2.6-5.7 5.7-5.7 3.2 0 5.7 2.5 5.7 5.7z"/>
		</g>
		<g id="&lt;Group&gt;">
			<path id="&lt;Path&gt;" class="s16" d="m377.3 111.4c-0.1-8.2 7-14.6 14.7-14.2 2.7 0.1 5.2 1 7.2 2.4 3.3-3.7 8.1-5.9 13.4-5.7 7.2 0.4 14.2 5.3 14.8 12 7.1 2.1 12.4 8.7 12 16.4-0.2 4.8-2.4 9-5.8 11.8 0.8 2.4 0.8 5.3-0.8 8.2-0.8 1.5-2.2 2.8-3.7 3.5-2.9 1.4-5.6 1.3-7.9 0.4l-0.2 13.3c0 0.8-1.1 1.1-1.5 0.5l-7-10.1c-6.4 2.7-12.2-1.3-12.6-7.2-1.8 0.8-3.7 1.3-5.8 1.2-5.9-0.3-10.6-5-11-10.8-3.2 2-7.5 2.4-11.7 0.3-2.3-1.2-4.1-3.2-5-5.7-3.3-8.6 3-16.4 10.9-16.3z"/>
			<path id="&lt;Path&gt;" class="s20" d="m425 127.7c3.9 0.2 7 2.6 8.4 5.9"/>
			<path id="&lt;Path&gt;" class="s20" d="m383.2 132.2c0.3-6.5 5.8-11.5 12.2-11.2"/>
			<path id="&lt;Path&gt;" class="s20" d="m376.3 111.4c2.5-0.2 4.8 0.4 6.7 1.5"/>
			<path id="&lt;Path&gt;" class="s20" d="m389.6 102.4c5.1 0.3 9.1 4.7 8.9 9.9"/>
			<path id="&lt;Path&gt;" class="s20" d="m397.8 138.2c-4.6 0.4-8.6-3-9.1-7.5"/>
			<path id="&lt;Path&gt;" class="s20" d="m371.7 126c-1.4-3.9 0.7-8.2 4.6-9.6"/>
			<path id="&lt;Path&gt;" class="s20" d="m428.6 137c-1 2.9-4.1 4.6-7.1 3.6"/>
			<path id="&lt;Path&gt;" class="s20" d="m415 108.2c3.4-2.3 7.8-3.2 12.2-2.3"/>
			<path id="&lt;Path&gt;" class="s20" d="m429.8 113.1c2.3 1.7 3.8 4.5 3.9 7.6"/>
			<path id="&lt;Path&gt;" class="s20" d="m404.8 116.7c2.9-0.6 6.1 0.8 7.6 3.3 1.5 2.5 1.4 6-0.4 8.3"/>
			<path id="&lt;Path&gt;" class="s20" d="m403.8 130.9c-1 1-1.5 2.4-1.3 3.7 0.2 1.4 1.1 2.6 2.3 3.2"/>
		</g>
		<g id="&lt;Group&gt;">
			<g id="&lt;Group&gt;">
				<path id="&lt;Path&gt;" class="s3" d="m330.5 67.7l0.4 42.2h-8.8l-0.4-42.2z"/>
				<path id="&lt;Path&gt;" class="s7" d="m311 74.7l0.3 35.3h-8.8l-0.3-35.3z"/>
				<path id="&lt;Path&gt;" class="s3" d="m282.6 80l0.3 30.1h8.8l-0.3-30.1z"/>
				<path id="&lt;Path&gt;" class="s7" d="m273.3 94l0.2 16.2h-8.8l-0.2-16.2z"/>
			</g>
			<path id="&lt;Path&gt;" class="s21" d="m338.3 109.9l-77.3 0.5"/>
			<path id="&lt;Path&gt;" class="s20" d="m303.8 77.2v9.7"/>
			<path id="&lt;Path&gt;" class="s20" d="m323.7 92.1v12.2"/>
			<path id="&lt;Path&gt;" class="s20" d="m265.8 98.5v4"/>
			<path id="&lt;Path&gt;" class="s20" d="m284.4 90.9q0 0.8 0 1.7"/>
		</g>
		<path id="&lt;Path&gt;" class="s10" d="m158.8 258c0.1-1.6 0-3.2-0.4-4.7"/>
		<g id="&lt;Group&gt;">
			<path id="&lt;Path&gt;" class="s1" d="m374.3 146.1l-20 20h-79.1l-24.6 25.2"/>
			<path id="&lt;Path&gt;" class="s1" d="m374.9 154.7l-17.8 17.9h-69.9l-27.1 27.2"/>
			<path id="&lt;Path&gt;" class="s1" d="m355.9 117.2h-121.6"/>
			<path id="&lt;Path&gt;" class="s1" d="m352.3 136.2h-97.6l-20.5 20.6"/>
			<path id="&lt;Path&gt;" class="s1" d="m317.3 148l-10.9 11h-49.5l-13.9 13.9"/>
			<path id="&lt;Path&gt;" class="s1" d="m262.2 147.6h40.1"/>
			<path id="&lt;Path&gt;" class="s1" d="m340 126.2h-70.1"/>
			<path id="&lt;Path&gt;" class="s1" d="m326 152.4h25.6"/>
			<path id="&lt;Path&gt;" class="s3" d="m359.3 117c0 1.8-1.5 3.4-3.4 3.4-1.9 0-3.4-1.6-3.4-3.4 0-1.9 1.5-3.4 3.4-3.4 1.9 0 3.4 1.5 3.4 3.4z"/>
			<path id="&lt;Path&gt;" class="s3" d="m237.7 117c0 1.8-1.5 3.4-3.4 3.4-1.8 0-3.4-1.6-3.4-3.4 0-1.9 1.6-3.4 3.4-3.4 1.9 0 3.4 1.5 3.4 3.4z"/>
			<path id="&lt;Path&gt;" class="s3" d="m354 152.9c0 1.9-1.5 3.4-3.4 3.4-1.9 0-3.4-1.5-3.4-3.4 0-1.9 1.5-3.4 3.4-3.4 1.9 0 3.4 1.5 3.4 3.4z"/>
			<path id="&lt;Path&gt;" class="s3" d="m305.7 147.6c0 1.8-1.5 3.4-3.4 3.4-1.9 0-3.4-1.6-3.4-3.4 0-1.9 1.5-3.4 3.4-3.4 1.9 0 3.4 1.5 3.4 3.4z"/>
			<path id="&lt;Path&gt;" class="s3" d="m319.2 147.6c0 1.8-1.5 3.4-3.4 3.4-1.9 0-3.4-1.6-3.4-3.4 0-1.9 1.5-3.4 3.4-3.4 1.9 0 3.4 1.5 3.4 3.4z"/>
			<path id="&lt;Path&gt;" class="s3" d="m267.5 147.1c0 1.9-1.5 3.4-3.4 3.4-1.8 0-3.4-1.5-3.4-3.4 0-1.9 1.6-3.4 3.4-3.4 1.9 0 3.4 1.5 3.4 3.4z"/>
			<path id="&lt;Path&gt;" class="s3" d="m254.9 189.8c0 1.9-1.5 3.4-3.3 3.4-1.9 0-3.4-1.5-3.4-3.4 0-1.9 1.5-3.4 3.4-3.4 1.8 0 3.3 1.5 3.3 3.4z"/>
			<path id="&lt;Path&gt;" class="s3" d="m263.7 199.7c0 1.9-1.6 3.4-3.4 3.4-1.9 0-3.4-1.5-3.4-3.4 0-1.9 1.5-3.4 3.4-3.4 1.8 0 3.4 1.5 3.4 3.4z"/>
			<path id="&lt;Path&gt;" class="s3" d="m247.7 170.9c0 1.9-1.5 3.4-3.4 3.4-1.8 0-3.4-1.5-3.4-3.4 0-1.9 1.6-3.4 3.4-3.4 1.9 0 3.4 1.5 3.4 3.4z"/>
			<path id="&lt;Path&gt;" class="s3" d="m332.2 152.9c0 1.9-1.5 3.4-3.3 3.4-1.9 0-3.4-1.5-3.4-3.4 0-1.9 1.5-3.4 3.4-3.4 1.8 0 3.3 1.5 3.3 3.4z"/>
			<path id="&lt;Path&gt;" class="s3" d="m355.7 136.2c0 1.8-1.5 3.4-3.4 3.4-1.9 0-3.4-1.6-3.4-3.4 0-1.9 1.5-3.4 3.4-3.4 1.9 0 3.4 1.5 3.4 3.4z"/>
			<path id="&lt;Path&gt;" class="s3" d="m378.3 154.7c0 1.9-1.5 3.4-3.4 3.4-1.9 0-3.4-1.5-3.4-3.4 0-1.9 1.5-3.4 3.4-3.4 1.9 0 3.4 1.5 3.4 3.4z"/>
			<path id="&lt;Path&gt;" class="s3" d="m377.4 145.9c0 1.8-1.5 3.4-3.4 3.4-1.8 0-3.4-1.6-3.4-3.4 0-1.9 1.6-3.4 3.4-3.4 1.9 0 3.4 1.5 3.4 3.4z"/>
			<path id="&lt;Path&gt;" class="s3" d="m343.4 126.2c0 1.9-1.6 3.4-3.4 3.4-1.9 0-3.4-1.5-3.4-3.4 0-1.9 1.5-3.4 3.4-3.4 1.8 0 3.4 1.5 3.4 3.4z"/>
			<path id="&lt;Path&gt;" class="s3" d="m273.3 126.2c0 1.9-1.5 3.4-3.4 3.4-1.8 0-3.4-1.5-3.4-3.4 0-1.9 1.6-3.4 3.4-3.4 1.9 0 3.4 1.5 3.4 3.4z"/>
			<path id="&lt;Path&gt;" class="s3" d="m239 155.8c0 1.9-1.5 3.4-3.4 3.4-1.8 0-3.4-1.5-3.4-3.4 0-1.9 1.6-3.4 3.4-3.4 1.9 0 3.4 1.5 3.4 3.4z"/>
		</g>
		<g id="&lt;Group&gt;">
			<g id="&lt;Group&gt;">
				<g id="&lt;Group&gt;">
					<path id="&lt;Path&gt;" class="s22" d="m77.6 118.2c0 1.1 0.8 1.9 1.8 1.9h35.8c1 0 1.9-0.8 1.9-1.9 0-1-0.9-1.8-1.9-1.8h-35.8c-1 0-1.8 0.8-1.8 1.8z"/>
					<path id="&lt;Path&gt;" class="s22" d="m134.6 116.4h-11.4c-1.1 0-1.9 0.8-1.9 1.8 0 1.1 0.8 1.9 1.9 1.9h11.4c1 0 1.8-0.8 1.8-1.9 0-1-0.8-1.8-1.8-1.8z"/>
					<path id="&lt;Path&gt;" class="s22" d="m123.2 125.6h-32.6c-1 0-1.8 0.8-1.8 1.8 0 1.1 0.8 1.9 1.8 1.9h32.6c1 0 1.8-0.8 1.8-1.9 0-1-0.8-1.8-1.8-1.8z"/>
					<path id="&lt;Path&gt;" class="s22" d="m128.2 127.4c0 1.1 0.8 1.9 1.8 1.9h7c1 0 1.8-0.8 1.8-1.9 0-1-0.8-1.8-1.8-1.8h-7c-1 0-1.8 0.8-1.8 1.8z"/>
					<path id="&lt;Path&gt;" class="s22" d="m83.5 125.6h-4.1c-1 0-1.8 0.8-1.8 1.8 0 1.1 0.8 1.9 1.8 1.9h4.1c1.1 0 1.9-0.8 1.9-1.9 0-1-0.8-1.8-1.9-1.8z"/>
					<path id="&lt;Path&gt;" class="s22" d="m71.4 125.6h-16.4c-1.1 0-1.9 0.8-1.9 1.8 0 1.1 0.8 1.9 1.9 1.9h16.4c0.6 0 1.1-0.5 1.1-1.1v-1.5c0-0.6-0.5-1.1-1.1-1.1z"/>
					<path id="&lt;Path&gt;" class="s22" d="m93.9 136c0 1 0.8 1.9 1.9 1.9h40.5c1 0 1.8-0.9 1.8-1.9 0-1-0.8-1.9-1.8-1.9h-40.5c-1.1 0-1.9 0.9-1.9 1.9z"/>
					<path id="&lt;Path&gt;" class="s22" d="m65.1 136c0 1 0.8 1.9 1.9 1.9h18.8c1.1 0 1.9-0.9 1.9-1.9 0-1-0.8-1.9-1.9-1.9h-18.8c-1.1 0-1.9 0.9-1.9 1.9z"/>
					<path id="&lt;Path&gt;" class="s22" d="m51.2 145.2c0 1 0.8 1.9 1.9 1.9h2.4c1.1 0 1.9-0.9 1.9-1.9 0-1-0.8-1.9-1.9-1.9h-2.4c-1.1 0-1.9 0.9-1.9 1.9z"/>
					<path id="&lt;Path&gt;" class="s22" d="m59.9 145.2c0 1 0.8 1.9 1.8 1.9h24.4c1 0 1.8-0.9 1.8-1.9 0-1-0.8-1.9-1.8-1.9h-24.4c-1 0-1.8 0.9-1.8 1.9z"/>
					<path id="&lt;Path&gt;" class="s22" d="m91.9 145.2c0 1 0.9 1.9 1.9 1.9h8.9c1.1 0 1.9-0.9 1.9-1.9 0-1-0.8-1.9-1.9-1.9h-8.9c-1 0-1.9 0.9-1.9 1.9z"/>
					<path id="&lt;Path&gt;" class="s22" d="m110.1 145.2c0 1 0.8 1.9 1.8 1.9h9.2c1 0 1.9-0.9 1.9-1.9 0-1-0.9-1.9-1.9-1.9h-9.2c-1 0-1.8 0.9-1.8 1.9z"/>
					<path id="&lt;Path&gt;" class="s22" d="m129.4 145.2c0 1 0.9 1.9 1.9 1.9h5c1 0 1.8-0.9 1.8-1.9 0-1-0.8-1.9-1.8-1.9h-5c-1 0-1.9 0.9-1.9 1.9z"/>
					<path id="&lt;Path&gt;" class="s22" d="m71.8 154.4c0 1 0.8 1.9 1.9 1.9h3.4c1.1 0 1.9-0.9 1.9-1.9 0-1-0.8-1.9-1.9-1.9h-3.4c-1.1 0-1.9 0.9-1.9 1.9z"/>
					<path id="&lt;Path&gt;" class="s22" d="m86.4 154.4c0 1 0.8 1.9 1.8 1.9h17.5c1 0 1.9-0.9 1.9-1.9 0-1-0.9-1.9-1.9-1.9h-17.5c-1 0-1.8 0.9-1.8 1.9z"/>
					<path id="&lt;Path&gt;" class="s22" d="m111.3 154.4c0 1 0.9 1.9 1.9 1.9h13.7c1 0 1.8-0.9 1.8-1.9 0-1-0.8-1.9-1.8-1.9h-13.7c-1 0-1.9 0.9-1.9 1.9z"/>
					<path id="&lt;Path&gt;" class="s22" d="m94.4 91.7c0 1 0.8 1.9 1.8 1.9h40.5c1.1 0 1.9-0.9 1.9-1.9 0-1-0.8-1.9-1.9-1.9h-40.5c-1 0-1.8 0.9-1.8 1.9z"/>
					<path id="&lt;Path&gt;" class="s22" d="m109.2 81.9h-5c-1 0-1.8 0.8-1.8 1.8 0 1.1 0.8 1.9 1.8 1.9h5c1 0 1.8-0.8 1.8-1.9 0-1-0.8-1.8-1.8-1.8z"/>
					<path id="&lt;Path&gt;" class="s22" d="m96.7 81.9h-16.8c-1 0-1.9 0.8-1.9 1.8 0 1.1 0.9 1.9 1.9 1.9h16.8c1 0 1.9-0.8 1.9-1.9 0-1-0.9-1.8-1.9-1.8z"/>
					<path id="&lt;Path&gt;" class="s22" d="m113.9 83.7c0 1.1 0.9 1.9 1.9 1.9h20.9c1.1 0 1.9-0.8 1.9-1.9 0-1-0.8-1.8-1.9-1.8h-20.9c-1 0-1.9 0.8-1.9 1.8z"/>
					<path id="&lt;Path&gt;" class="s22" d="m92.4 100.9c0 1 0.8 1.9 1.9 1.9h8.9c1 0 1.9-0.9 1.9-1.9 0-1-0.9-1.9-1.9-1.9h-8.9c-1.1 0-1.9 0.9-1.9 1.9z"/>
					<path id="&lt;Path&gt;" class="s22" d="m110.5 100.9c0 1 0.9 1.9 1.9 1.9h9.2c1 0 1.8-0.9 1.8-1.9 0-1-0.8-1.9-1.8-1.9h-9.2c-1 0-1.9 0.9-1.9 1.9z"/>
					<path id="&lt;Path&gt;" class="s22" d="m128.8 100.9c0 1 0.9 1.9 1.9 1.9h6.8c1 0 1.8-0.9 1.8-1.9 0-1-0.8-1.9-1.8-1.9h-6.8c-1 0-1.9 0.9-1.9 1.9z"/>
					<path id="&lt;Path&gt;" class="s22" d="m100.9 110.1c0 1 0.8 1.9 1.9 1.9h10.4c1 0 1.9-0.9 1.9-1.9 0-1-0.9-1.9-1.9-1.9h-10.4c-1.1 0-1.9 0.9-1.9 1.9z"/>
					<path id="&lt;Path&gt;" class="s22" d="m72.3 110.1c0 1 0.8 1.9 1.8 1.9h3.5c1 0 1.9-0.9 1.9-1.9 0-1-0.9-1.9-1.9-1.9h-3.5c-1 0-1.8 0.9-1.8 1.9z"/>
					<path id="&lt;Path&gt;" class="s22" d="m83 110.1c0 1 0.8 1.9 1.8 1.9h7.7c1 0 1.9-0.9 1.9-1.9 0-1-0.9-1.9-1.9-1.9h-7.7c-1 0-1.8 0.9-1.8 1.9z"/>
					<path id="&lt;Path&gt;" class="s22" d="m121.9 110.1c0 1 0.9 1.9 1.9 1.9h13.7c1 0 1.8-0.9 1.8-1.9 0-1-0.8-1.9-1.8-1.9h-13.7c-1 0-1.9 0.9-1.9 1.9z"/>
				</g>
				<g id="&lt;Group&gt;">
					<path id="&lt;Path&gt;" class="s22" d="m71.5 88q-0.3 0-0.6-0.2l-4.4-4.1 4.4-4.6c0.3-0.3 0.9-0.3 1.2 0 0.4 0.3 0.4 0.9 0 1.3l-3.1 3.2 3.1 2.9c0.4 0.3 0.4 0.9 0.1 1.2q-0.3 0.3-0.7 0.3z"/>
				</g>
				<g id="&lt;Group&gt;">
					<path id="&lt;Path&gt;" class="s22" d="m76.8 88q-0.3 0-0.6-0.2l-4.4-4.1 4.4-4.6c0.4-0.3 0.9-0.3 1.3 0 0.3 0.3 0.3 0.9 0 1.3l-3.2 3.2 3.1 2.9c0.4 0.3 0.4 0.9 0.1 1.2q-0.3 0.3-0.7 0.3z"/>
				</g>
				<g id="&lt;Group&gt;">
					<path id="&lt;Path&gt;" class="s22" d="m136.9 159.2q-0.4 0-0.7-0.2c-0.3-0.4-0.3-1 0.1-1.3l3.1-2.9-3.2-3.2c-0.3-0.4-0.3-0.9 0.1-1.3 0.3-0.3 0.9-0.3 1.2 0l4.4 4.6-4.4 4.1q-0.3 0.2-0.6 0.2z"/>
				</g>
				<g id="&lt;Group&gt;">
					<path id="&lt;Path&gt;" class="s22" d="m131.5 159.2q-0.3 0-0.6-0.2c-0.3-0.4-0.3-1 0-1.3l3.1-2.9-3.1-3.2c-0.3-0.4-0.3-0.9 0-1.3 0.4-0.3 0.9-0.3 1.3 0l4.4 4.6-4.5 4.1q-0.2 0.2-0.6 0.2z"/>
				</g>
			</g>
			<g id="&lt;Group&gt;">
				<path id="&lt;Path&gt;" class="s16" d="m206.8 167.6h-1.1c-3 0-5.4-2.5-5.4-5.5v-39.7c0-3.1 2.4-5.5 5.4-5.5h1.1c3 0 5.4 2.4 5.4 5.5v39.7c0 3-2.4 5.5-5.4 5.5z"/>
				<path id="&lt;Path&gt;" class="s16" d="m226.1 204.2l-1 0.6c-2.3 1.2-5.2 0.4-6.5-2l-15.4-28.5c-1.2-2.3-0.3-5.2 2-6.5l1-0.6c2.4-1.2 5.2-0.4 6.5 1.9l15.4 28.6c1.2 2.3 0.3 5.2-2 6.5z"/>
				<path id="&lt;Path&gt;" class="s23" d="m222.7 221.6c-3.4-6.6-1.8-14.2 3.5-16.9 5.3-2.6 12.3 0.5 15.6 7.1"/>
				<path id="&lt;Path&gt;" class="s8" d="m208.6 162.5c0 1.1-0.9 1.9-1.9 1.9-1.1 0-2-0.8-2-1.9 0-1.1 0.9-1.9 2-1.9 1 0 1.9 0.8 1.9 1.9z"/>
				<path id="&lt;Path&gt;" class="s8" d="m210.2 171.6c0 1.1-0.8 2-1.9 2-1.1 0-1.9-0.9-1.9-2 0-1 0.8-1.9 1.9-1.9 1.1 0 1.9 0.9 1.9 1.9z"/>
				<path id="&lt;Path&gt;" class="s20" d="m218.9 119.3c0 6.6-5.4 12-12 12-6.6 0-11.9-5.4-11.9-12 0-6.7 5.3-12.1 11.9-12.1 6.6 0 12 5.4 12 12.1z"/>
				<path id="&lt;Path&gt;" class="s5" d="m215.1 119.3c0 4.5-3.7 8.1-8.2 8.1-4.5 0-8.1-3.6-8.1-8.1 0-4.6 3.6-8.2 8.1-8.2 4.5 0 8.2 3.6 8.2 8.2z"/>
				<path id="&lt;Path&gt;" class="s20" d="m222.7 221.6c-3.4-6.6-1.8-14.2 3.5-16.9 5.3-2.6 12.3 0.5 15.6 7.1"/>
			</g>
			<path id="&lt;Path&gt;" class="s1" d="m207.2 116.9v-15.5c0-6.1-5-11.1-11.1-11.1h-54.3"/>
			<path id="&lt;Path&gt;" class="s1" d="m141.8 114.3h24.3c5.1 0 9.9 2 13.5 5.6l23.1 23.2"/>
			<path id="&lt;Path&gt;" class="s1" d="m141.8 122.3h19.3c5 0 9.9 2 13.4 5.6l27.8 27.9"/>
		</g>
		<path id="&lt;Path&gt;" class="s18" d="m202.2 317.7l7.1-42.7c0.2-1.3-0.8-2.4-2-2.4h-31.3"/>
		<g id="&lt;Group&gt;">
			<path id="&lt;Path&gt;" class="s16" d="m416.5 460.9h-121.7v-112.3h121.7z"/>
			<path id="&lt;Path&gt;" class="s10" d="m416.5 370.7h-121.7"/>
			<path id="&lt;Path&gt;" class="s10" d="m416.5 392.9h-121.7"/>
			<path id="&lt;Path&gt;" class="s10" d="m416.5 415.1h-121.7"/>
			<path id="&lt;Path&gt;" class="s10" d="m416.5 437.2h-121.7"/>
			<path id="&lt;Path&gt;" class="s3" d="m326.4 445.3h-23.1v6.5h23.1z"/>
			<path id="&lt;Path&gt;" class="s3" d="m337.9 445.3v6.5h68.1v-6.5z"/>
			<path id="&lt;Path&gt;" class="s3" d="m326.4 423.6h-23.1v6.6h23.1z"/>
			<path id="&lt;Path&gt;" class="s3" d="m337.9 423.6v6.6h68.1v-6.6z"/>
			<path id="&lt;Path&gt;" class="s3" d="m326.4 402h-23.1v6.5h23.1z"/>
			<path id="&lt;Path&gt;" class="s3" d="m337.9 402v6.5h68.1v-6.5z"/>
			<path id="&lt;Path&gt;" class="s3" d="m326.4 380.3h-23.1v6.6h23.1z"/>
			<path id="&lt;Path&gt;" class="s3" d="m337.9 380.3v6.6h68.1v-6.6z"/>
			<path id="&lt;Path&gt;" class="s3" d="m326.4 358.7h-23.1v6.5h23.1z"/>
			<path id="&lt;Path&gt;" class="s3" d="m337.9 358.7v6.5h68.1v-6.5z"/>
		</g>
		<g id="&lt;Group&gt;">
			<path id="&lt;Path&gt;" class="s3" d="m384.6 167.4c0 1.8-1.5 3.4-3.4 3.4-1.9 0-3.4-1.6-3.4-3.4 0-1.9 1.5-3.4 3.4-3.4 1.9 0 3.4 1.5 3.4 3.4z"/>
			<path id="&lt;Path&gt;" class="s3" d="m409.7 161.5c0 1.9-1.5 3.4-3.4 3.4-1.8 0-3.3-1.5-3.3-3.4 0-1.9 1.5-3.4 3.3-3.4 1.9 0 3.4 1.5 3.4 3.4z"/>
			<path id="&lt;Path&gt;" class="s3" d="m402 157c0 1.8-1.6 3.4-3.4 3.4-1.9 0-3.4-1.6-3.4-3.4 0-1.9 1.5-3.4 3.4-3.4 1.8 0 3.4 1.5 3.4 3.4z"/>
			<path id="&lt;Path&gt;" class="s3" d="m395 149.7c0 1.9-1.5 3.4-3.4 3.4-1.9 0-3.4-1.5-3.4-3.4 0-1.9 1.5-3.4 3.4-3.4 1.9 0 3.4 1.5 3.4 3.4z"/>
			<path id="&lt;Path&gt;" class="s1" d="m406.4 159.8l0.8 165.4 32.7 32.8v50.3l-19.8 19.8"/>
			<path id="&lt;Path&gt;" class="s1" d="m391.7 148.5v166.1l-28.9 29.1"/>
			<path id="&lt;Path&gt;" class="s1" d="m398.8 156.7v182.8"/>
			<path id="&lt;Path&gt;" class="s1" d="m381.2 167.4v142.7l-32.7 32.8"/>
			<path id="&lt;Path&gt;" class="s3" d="m351.9 342.9c0 1.9-1.5 3.4-3.4 3.4-1.9 0-3.4-1.5-3.4-3.4 0-1.9 1.5-3.4 3.4-3.4 1.9 0 3.4 1.5 3.4 3.4z"/>
			<path id="&lt;Path&gt;" class="s3" d="m402.5 342.4c0 1.9-1.5 3.4-3.3 3.4-1.9 0-3.4-1.5-3.4-3.4 0-1.9 1.5-3.4 3.4-3.4 1.8 0 3.3 1.5 3.3 3.4z"/>
			<path id="&lt;Path&gt;" class="s3" d="m422.9 429c0 1.9-1.5 3.4-3.4 3.4-1.8 0-3.4-1.5-3.4-3.4 0-1.9 1.6-3.4 3.4-3.4 1.9 0 3.4 1.5 3.4 3.4z"/>
			<path id="&lt;Path&gt;" class="s3" d="m366.2 342.9c0 1.9-1.5 3.4-3.4 3.4-1.9 0-3.4-1.5-3.4-3.4 0-1.9 1.5-3.4 3.4-3.4 1.9 0 3.4 1.5 3.4 3.4z"/>
		</g>
	</g>
</svg>