<svg version="1.2" xmlns="http://www.w3.org/2000/svg" viewBox="0 0 1000 1000" width="1000" height="1000">
	<title>4611402</title>
	<style>
		.s0 { fill: #f5f5f5 } 
		.s1 { fill: #ebebeb } 
		.s2 { fill: #ba68c8 } 
		.s3 { opacity: .5;fill: #ffffff } 
		.s4 { fill: #ffffff } 
		.s5 { opacity: .65;fill: #ffffff } 
		.s6 { opacity: .3;fill: #ffffff } 
		.s7 { opacity: .1;fill: #000000 } 
		.s8 { fill: #455a64 } 
		.s9 { fill: #37474f } 
		.s10 { opacity: .8;fill: #ba68c8 } 
		.s11 { fill: #263238 } 
		.s12 { opacity: .2;fill: #000000 } 
		.s13 { opacity: .05;fill: #000000 } 
		.s14 { opacity: .7;fill: #ffffff } 
		.s15 { opacity: .6;fill: #ffffff } 
		.s16 { fill: #ffa8a7 } 
		.s17 { fill: #fafafa } 
		.s18 { fill: #f0f0f0 } 
		.s19 { fill: #f28f8f } 
		.s20 { fill: #b16668 } 
		.s21 { fill: #000000 } 
		.s22 { opacity: .3;fill: #000000 } 
	</style>
	<g id="Floor">
		<path id="Floor 3 " class="s0" d="m160.5 904.5c-187.5-108.2-187.5-283.7 0-392 187.5-108.2 491.5-108.2 679 0 187.5 108.3 187.5 283.8 0 392-187.5 108.3-491.5 108.3-679 0z"/>
	</g>
	<g id="Shadows">
		<path id="Shadow 10 " class="s1" d="m55 761l181.1-104.5c3.1-1.8 8.2-1.8 11.2 0l167.5 96.6c3.1 1.8 3.1 4.7 0 6.5l-181.1 104.6c-3.1 1.7-8.1 1.7-11.2 0l-167.5-96.7c-3.1-1.8-3.1-4.7 0-6.5z"/>
		<path id="Shadow 7 " class="s1" d="m868.6 754c43.6 25.2 43.6 66.1 0 91.3-43.7 25.2-114.4 25.2-158 0-43.7-25.2-43.7-66.1 0-91.3 43.6-25.1 114.3-25.1 158 0z"/>
	</g>
	<g id="Plants">
		<g id="Plants 6 ">
			<g id="&lt;Group&gt;">
				<path id="&lt;Path&gt;" class="s2" d="m839.8 772.2c0 0-4.1-56.6 21-109.3 14-29.4 35.4-41.5 47.8-41.7 13.8-0.1 26.5 14.2 12.3 33.1-13.4 18-36.5 23.6-54.5 72.1-11.8 32-12.6 53.9-12.6 53.9z"/>
				<path id="&lt;Path&gt;" class="s3" d="m839.8 772.2c0 0-4.1-56.6 21-109.3 14-29.4 35.4-41.5 47.8-41.7 13.8-0.1 26.5 14.2 12.3 33.1-13.4 18-36.5 23.6-54.5 72.1-11.8 32-12.6 53.9-12.6 53.9z"/>
				<g id="&lt;Group&gt;">
					<path id="&lt;Path&gt;" class="s4" d="m849.7 758.9c0.5 0 0.8-0.4 0.8-0.8 0-61.6 34.4-109.7 58.7-124.2 0.4-0.2 0.6-0.8 0.3-1.2-0.2-0.4-0.8-0.5-1.2-0.3-24.7 14.8-59.5 63.5-59.5 125.7 0 0.4 0.4 0.8 0.9 0.8z"/>
				</g>
			</g>
			<g id="&lt;Group&gt;">
				<path id="&lt;Path&gt;" class="s2" d="m853.8 780.3c3.4-13.8 12.6-27.5 30.7-41.1 18.1-13.6 42.3-25.3 40.3-39.2-2-13.9-20.3-12.9-33.7-6.8-13.5 6.1-44.9 32.8-44.3 83z"/>
				<path id="&lt;Path&gt;" class="s5" d="m853.8 780.3c3.4-13.8 12.6-27.5 30.7-41.1 18.1-13.6 42.3-25.3 40.3-39.2-2-13.9-20.3-12.9-33.7-6.8-13.5 6.1-44.9 32.8-44.3 83z"/>
				<g id="&lt;Group&gt;">
					<path id="&lt;Path&gt;" class="s4" d="m851.9 764.3c0.4 0 0.8-0.3 0.8-0.8 5.4-29.3 43.3-62.9 59.6-67 0.5-0.1 0.8-0.6 0.6-1.1-0.1-0.4-0.5-0.7-1-0.6-17.1 4.3-55.3 37.9-60.9 68.4 0 0.5 0.3 1 0.7 1q0.1 0.1 0.2 0.1z"/>
				</g>
			</g>
		</g>
	</g>
	<g id="Gears">
		<g id="Gears 4 ">
			<g id="Gears 5 ">
				<g id="&lt;Group&gt;">
					<path id="&lt;Compound Path&gt;" fill-rule="evenodd" class="s2" d="m520.8 479.5l-5.6 6.7c0 0.9-0.6 2-1.3 2.5l-15 6.3c-0.7 0.5-1.3 1.7-1.2 2.6 0.1 3.4-0.2 8.1-1.2 11.8-0.3 0.8 0 2 0.7 2.5l4.3 3.8c0.7 0.5 0.9 1.6 0.4 2.4l-9.4 16.3c-0.4 0.8-1.5 1.1-2.3 0.8l-5-1.7c-0.9-0.3-2 0-2.6 0.7-2.6 2.7-6.3 5.4-9.9 6.9-0.8 0.4-1.6 1.3-1.7 2.2l2.1 16.1c-0.1 0.9-0.8 2-1.5 2.4l-7.6 11.1-9.6-5.5c-0.3-0.2-0.5-0.5-0.5-0.9l-1.3-12.4c-0.1-0.9-0.8-1.4-1.7-1.2q-3.2 0.7-6.1 0.6c-0.9 0-2 0.5-2.5 1.2l-6.2 16.2c-0.4 0.7-1.5 0.9-2.2 0.5l-11.6-6.7c-0.8-0.4-1.1-1.4-0.7-2.2l7.6-15.3c0.4-0.8 0.3-2-0.2-2.8q-0.6-1-1.1-2.1l-6.1 6.3-9.6-5.5c-0.3-0.2-0.4-0.5-0.4-1v-14.8c0-0.9 0.5-2 1.3-2.5l11.7-8.2c0.7-0.5 1.4-1.7 1.6-2.5q1.1-5 3-9.9c0.3-0.9 0-2-0.7-2.6l-6.6-5.7c-0.6-0.5-0.8-1.6-0.4-2.4l9.4-16.3c0.5-0.8 1.5-1.1 2.3-0.8l8.3 2.8c0.8 0.3 1.9 0 2.5-0.7q3.3-4.1 7.1-7.5c0.6-0.6 1.2-1.8 1.3-2.7l1.3-14.2c0.1-0.9 0.8-2 1.5-2.4l12.8-7.4c0.4-0.2 0.8-0.2 1.1-0.1l9.6 5.5-3.3 8.6q1.7-0.2 3.3-0.2c0.9 0 2-0.5 2.5-1.2l9.4-14.3c0.5-0.7 1.5-0.9 2.3-0.5l11.6 6.7c0.7 0.4 1 1.4 0.7 2.2l-7.6 15.3c-0.4 0.8-0.3 2 0.1 2.8 1.1 1.6-1.4 1.6-0.8 3.7 0.3 0.9 1.1 1.3 1.9 0.9l11.4-5.1c0.4-0.2 0.8-0.2 1-0.1l9.7 5.6zm-34.1 15.7c0-13.8-7.2-18.8-19.1-11.9-12 6.9-21.9 23.8-21.9 37.6 0 13.8 7.5 18.7 19.4 11.8 12-6.9 21.6-23.7 21.6-37.5z"/>
					<path id="&lt;Compound Path&gt;" fill-rule="evenodd" class="s6" d="m520.8 479.5l-5.6 6.7c0 0.9-0.6 2-1.3 2.5l-15 6.3c-0.7 0.5-1.3 1.7-1.2 2.6 0.1 3.4-0.2 8.1-1.2 11.8-0.3 0.8 0 2 0.7 2.5l4.3 3.8c0.7 0.5 0.9 1.6 0.4 2.4l-9.4 16.3c-0.4 0.8-1.5 1.1-2.3 0.8l-5-1.7c-0.9-0.3-2 0-2.6 0.7-2.6 2.7-6.3 5.4-9.9 6.9-0.8 0.4-1.6 1.3-1.7 2.2l2.1 16.1c-0.1 0.9-0.8 2-1.5 2.4l-7.6 11.1-9.6-5.5c-0.3-0.2-0.5-0.5-0.5-0.9l-1.3-12.4c-0.1-0.9-0.8-1.4-1.7-1.2q-3.2 0.7-6.1 0.6c-0.9 0-2 0.5-2.5 1.2l-6.2 16.2c-0.4 0.7-1.5 0.9-2.2 0.5l-11.6-6.7c-0.8-0.4-1.1-1.4-0.7-2.2l7.6-15.3c0.4-0.8 0.3-2-0.2-2.8q-0.6-1-1.1-2.1l-6.1 6.3-9.6-5.5c-0.3-0.2-0.4-0.5-0.4-1v-14.8c0-0.9 0.5-2 1.3-2.5l11.7-8.2c0.7-0.5 1.4-1.7 1.6-2.5q1.1-5 3-9.9c0.3-0.9 0-2-0.7-2.6l-6.6-5.7c-0.6-0.5-0.8-1.6-0.4-2.4l9.4-16.3c0.5-0.8 1.5-1.1 2.3-0.8l8.3 2.8c0.8 0.3 1.9 0 2.5-0.7q3.3-4.1 7.1-7.5c0.6-0.6 1.2-1.8 1.3-2.7l1.3-14.2c0.1-0.9 0.8-2 1.5-2.4l12.8-7.4c0.4-0.2 0.8-0.2 1.1-0.1l9.6 5.5-3.3 8.6q1.7-0.2 3.3-0.2c0.9 0 2-0.5 2.5-1.2l9.4-14.3c0.5-0.7 1.5-0.9 2.3-0.5l11.6 6.7c0.7 0.4 1 1.4 0.7 2.2l-7.6 15.3c-0.4 0.8-0.3 2 0.1 2.8 1.1 1.6-1.4 1.6-0.8 3.7 0.3 0.9 1.1 1.3 1.9 0.9l11.4-5.1c0.4-0.2 0.8-0.2 1-0.1l9.7 5.6zm-34.1 15.7c0-13.8-7.2-18.8-19.1-11.9-12 6.9-21.9 23.8-21.9 37.6 0 13.8 7.5 18.7 19.4 11.8 12-6.9 21.6-23.7 21.6-37.5z"/>
					<path id="&lt;Path&gt;" class="s7" d="m466 551.3l-18.7-7.8-15.9-8.2-6.7 11.9 3.2-4.9q0.5 1.1 1.1 2.1c0.5 0.8 0.6 2 0.2 2.8l-7.6 15.3c-0.4 0.8-0.1 1.8 0.7 2.2l11.6 6.7c0.7 0.4 1.8 0.2 2.2-0.5l6.2-16.2c0.5-0.7 1.6-1.2 2.5-1.2q2.9 0.1 6.1-0.6c0.9-0.2 1.6 0.3 1.7 1.2l1.3 12.4c0 0.4 0.2 0.7 0.5 0.9l9.6 5.5 3.6-5.2z"/>
					<path id="&lt;Path&gt;" class="s7" d="m495.7 506v-24.7l-10.4-8.8-4.9 8.3c4.1 1.7 6.4 6.6 6.4 14.4 0 13.8-9.7 30.6-21.6 37.5-7 4-12.5 4-15.8 0.5l-3.6 6.1c0 0 17.6 5.4 25.7 2 8-3.4 24.2-35.3 24.2-35.3z"/>
					<g id="&lt;Group&gt;">
						<path id="&lt;Path&gt;" class="s2" d="m502.8 456l2.6-5c0.3-0.8 0-1.8-0.7-2.2l-11.6-6.7c-0.8-0.4-1.8-0.2-2.3 0.5l-9.4 14.3q-0.3 0.3-0.7 0.6l14 8z"/>
						<path id="&lt;Path&gt;" class="s2" d="m425.7 515.6c-0.3 0.4-0.6 0.7-0.9 1l-11.7 8.2c-0.3 0.2-0.6 0.5-0.8 0.9l10.5 6 15.5-8.8z"/>
						<path id="&lt;Path&gt;" class="s2" d="m432.8 476.3c-0.7 0-1.3 0.3-1.7 0.9l-9.4 16.3c-0.2 0.4-0.2 0.8-0.2 1.2l11.4 6.6 12.9-17.4z"/>
						<path id="&lt;Path&gt;" class="s2" d="m454.1 453.2l13.4 7.7 11.4-6.6v-4.6l-9.6-5.5c-0.3-0.1-0.7-0.1-1.1 0.1l-12.8 7.4c-0.5 0.3-1 0.9-1.3 1.5z"/>
						<path id="&lt;Path&gt;" class="s2" d="m521.1 474.1c-0.3-0.2-0.6-0.2-1 0l-11.4 5.1c-0.8 0.4-1.7 0-1.9-0.9-0.5-1.4-3.2-5.2-3-6.8l6.6-2.9c0.4-0.2 0.8-0.2 1-0.1z"/>
					</g>
					<g id="&lt;Group&gt;" style="opacity: .7">
						<g id="&lt;Group&gt;">
							<path id="&lt;Path&gt;" class="s4" d="m502.8 456l2.6-5c0.3-0.8 0-1.8-0.7-2.2l-11.6-6.7c-0.8-0.4-1.8-0.2-2.3 0.5l-9.4 14.3q-0.3 0.3-0.7 0.6l14 8z"/>
							<path id="&lt;Compound Path&gt;" class="s4" d="m481.8 457.4l12.7 7.3 7.8-9 2.5-5c0.2-0.5 0-1.1-0.4-1.4l-11.6-6.7c-0.5-0.2-1.1-0.1-1.4 0.4l-9.5 14.2q-0.1 0.1-0.1 0.2z"/>
						</g>
						<g id="&lt;Group&gt;">
							<path id="&lt;Path&gt;" class="s4" d="m425.7 515.6c-0.3 0.4-0.6 0.7-0.9 1l-11.7 8.2c-0.3 0.2-0.6 0.5-0.8 0.9l10.5 6 15.5-8.8z"/>
							<path id="&lt;Compound Path&gt;" class="s4" d="m413.2 525.5l9.6 5.5 14.2-8.1-11.2-6.5q-0.3 0.4-0.7 0.7l-11.7 8.2q-0.1 0.1-0.2 0.2z"/>
						</g>
						<g id="&lt;Group&gt;">
							<path id="&lt;Path&gt;" class="s4" d="m432.8 476.3c-0.7 0-1.3 0.3-1.7 0.9l-9.4 16.3c-0.2 0.4-0.2 0.8-0.2 1.2l11.4 6.6 12.9-17.4z"/>
						</g>
						<g id="&lt;Group&gt;">
							<path id="&lt;Path&gt;" class="s4" d="m454.1 453.2l13.4 7.7 11.4-6.6v-4.6l-9.6-5.5c-0.3-0.1-0.7-0.1-1.1 0.1l-12.8 7.4c-0.5 0.3-1 0.9-1.3 1.5z"/>
							<path id="&lt;Compound Path&gt;" class="s4" d="m455 453l12.5 7.2 10.8-6.2v-3.9l-9.4-5.4c0 0-0.2 0-0.4 0.1l-12.8 7.4c-0.2 0.2-0.5 0.5-0.7 0.8z"/>
						</g>
						<g id="&lt;Group&gt;">
							<path id="&lt;Path&gt;" class="s4" d="m521.1 474.1c-0.3-0.2-0.6-0.2-1 0l-11.4 5.1c-0.8 0.4-1.7 0-1.9-0.9-0.5-1.4-3.2-5.4-3-6.8l6.6-2.9c0.4-0.2 0.8-0.2 1-0.1z"/>
							<path id="&lt;Compound Path&gt;" class="s4" d="m504.5 471.9c0.1 0.9 1.1 2.7 1.7 3.8 0.5 1 1 1.9 1.2 2.5q0.1 0.3 0.4 0.5 0.3 0.1 0.6-0.1l10.9-4.8-7.2-4.2-1-0.5c-0.1 0-0.2-0.1-0.4 0z"/>
						</g>
					</g>
					<path id="&lt;Compound Path&gt;" fill-rule="evenodd" class="s2" d="m520.2 492.3l-11.7 8.3c-0.7 0.5-1.4 1.6-1.6 2.4q-1.1 5-3 10c-0.3 0.8 0 1.9 0.7 2.5l6.6 5.7c0.6 0.6 0.8 1.6 0.4 2.4l-9.5 16.3c-0.4 0.8-1.4 1.2-2.3 0.9l-8.2-2.9c-0.8-0.3-1.9 0-2.5 0.7-2.2 2.7-4.6 5.3-7.1 7.5-0.7 0.6-1.3 1.8-1.3 2.7l-1.3 14.3c-0.1 0.8-0.8 1.9-1.5 2.3l-12.8 7.4c-0.8 0.5-1.5 0.1-1.6-0.8l-1.2-12.4c-0.1-0.9-0.9-1.4-1.8-1.2q-3.2 0.7-6.1 0.6c-0.9 0-2 0.5-2.5 1.3l-9.5 14.2c-0.5 0.7-1.5 1-2.2 0.5l-8.3-4.7c-0.7-0.5-1-1.5-0.6-2.3l7.5-15.3c0.4-0.8 0.3-2-0.1-2.7q-1.6-2.6-2.6-5.7c-0.2-0.8-1.1-1.2-1.9-0.9l-11.4 5.2c-0.8 0.3-1.4-0.1-1.4-1v-14.8c0-0.8 0.6-2 1.3-2.5l11.7-8.2c0.7-0.5 1.4-1.6 1.6-2.5q1.1-5 3-9.9c0.3-0.8 0-2-0.7-2.6l-6.5-5.6c-0.7-0.6-0.9-1.7-0.5-2.5l9.5-16.3c0.4-0.7 1.4-1.1 2.3-0.8l8.2 2.8c0.8 0.3 1.9 0 2.5-0.7q3.4-4 7.1-7.5c0.7-0.6 1.3-1.8 1.3-2.7l1.3-14.2c0.1-0.9 0.8-2 1.6-2.4l12.8-7.4c0.7-0.4 1.4-0.1 1.5 0.8l1.2 12.4c0.1 0.9 0.9 1.4 1.8 1.2q3.2-0.7 6.1-0.6c0.9 0 2-0.5 2.5-1.2l9.5-14.2c0.5-0.8 1.5-1 2.2-0.6l8.3 4.8c0.7 0.4 1 1.4 0.7 2.2l-7.6 15.3c-0.4 0.8-0.3 2 0.1 2.8q1.6 2.5 2.6 5.6c0.2 0.9 1.1 1.3 1.9 0.9l11.4-5.1c0.8-0.4 1.4 0 1.4 0.9v14.8c0 0.9-0.6 2-1.3 2.5zm-27.1 6.5c0-13.8-9.7-19.3-21.6-12.5-12 6.9-21.7 23.7-21.7 37.5 0 13.8 9.7 19.4 21.7 12.5 11.9-6.9 21.6-23.7 21.6-37.5z"/>
					<g id="&lt;Group&gt;" style="opacity: .55">
						<path id="&lt;Compound Path&gt;" fill-rule="evenodd" class="s4" d="m520.2 492.3l-11.7 8.3c-0.7 0.5-1.4 1.6-1.6 2.4q-1.1 5-3 10c-0.3 0.8 0 1.9 0.7 2.5l6.6 5.7c0.6 0.6 0.8 1.6 0.4 2.4l-9.5 16.3c-0.4 0.8-1.4 1.2-2.3 0.9l-8.2-2.9c-0.8-0.3-1.9 0-2.5 0.7-2.2 2.7-4.6 5.3-7.1 7.5-0.7 0.6-1.3 1.8-1.3 2.7l-1.3 14.3c-0.1 0.8-0.8 1.9-1.5 2.3l-12.8 7.4c-0.8 0.5-1.5 0.1-1.6-0.8l-1.2-12.4c-0.1-0.9-0.9-1.4-1.8-1.2q-3.2 0.7-6.1 0.6c-0.9 0-2 0.5-2.5 1.3l-9.5 14.2c-0.5 0.7-1.5 1-2.2 0.5l-8.3-4.7c-0.7-0.5-1-1.5-0.6-2.3l7.5-15.3c0.4-0.8 0.3-2-0.1-2.7q-1.6-2.6-2.6-5.7c-0.2-0.8-1.1-1.2-1.9-0.9l-11.4 5.2c-0.8 0.3-1.4-0.1-1.4-1v-14.8c0-0.8 0.6-2 1.3-2.5l11.7-8.2c0.7-0.5 1.4-1.6 1.6-2.5q1.1-5 3-9.9c0.3-0.8 0-2-0.7-2.6l-6.5-5.6c-0.7-0.6-0.9-1.7-0.5-2.5l9.5-16.3c0.4-0.7 1.4-1.1 2.3-0.8l8.2 2.8c0.8 0.3 1.9 0 2.5-0.7q3.4-4 7.1-7.5c0.7-0.6 1.3-1.8 1.3-2.7l1.3-14.2c0.1-0.9 0.8-2 1.6-2.4l12.8-7.4c0.7-0.4 1.4-0.1 1.5 0.8l1.2 12.4c0.1 0.9 0.9 1.4 1.8 1.2q3.2-0.7 6.1-0.6c0.9 0 2-0.5 2.5-1.2l9.5-14.2c0.5-0.8 1.5-1 2.2-0.6l8.3 4.8c0.7 0.4 1 1.4 0.7 2.2l-7.6 15.3c-0.4 0.8-0.3 2 0.1 2.8q1.6 2.5 2.6 5.6c0.2 0.9 1.1 1.3 1.9 0.9l11.4-5.1c0.8-0.4 1.4 0 1.4 0.9v14.8c0 0.9-0.6 2-1.3 2.5zm-27.1 6.5c0-13.8-9.7-19.3-21.6-12.5-12 6.9-21.7 23.7-21.7 37.5 0 13.8 9.7 19.4 21.7 12.5 11.9-6.9 21.6-23.7 21.6-37.5z"/>
					</g>
					<g id="&lt;Group&gt;" style="opacity: .2">
						<path id="&lt;Compound Path&gt;" fill-rule="evenodd" class="s4" d="m461.8 539.9c-2.2 0-4.2-0.5-6-1.5-4.2-2.5-6.6-7.7-6.6-14.6 0-14 9.8-31 21.9-38 6-3.4 11.7-4 16-1.5 4.2 2.5 6.6 7.6 6.6 14.5 0 14-9.8 31.1-21.9 38-3.5 2.1-6.9 3.1-10 3.1zm9.7-3.6c11.9-6.9 21.6-23.7 21.6-37.5 0-13.8-9.7-19.3-21.6-12.5-12 6.9-21.7 23.7-21.7 37.5 0 13.8 9.7 19.4 21.7 12.5z"/>
						<path id="&lt;Compound Path&gt;" fill-rule="evenodd" class="s4" d="m431.3 568l7.5-15.3c0.4-0.8 0.3-2-0.1-2.7q-1.6-2.6-2.6-5.7c-0.2-0.8-1.1-1.2-1.9-0.9l-11.4 5.2c-0.8 0.3-1.4-0.1-1.4-1v-14.8c0-0.8 0.6-2 1.3-2.5l11.7-8.2c0.7-0.5 1.4-1.6 1.6-2.5 0.8-3.3 1.8-6.6 3-9.9 0.3-0.8 0-2-0.7-2.6l-6.5-5.6c-0.7-0.6-0.9-1.7-0.5-2.5l9.5-16.3c0.4-0.7 1.4-1.1 2.3-0.8l8.2 2.8c0.8 0.3 1.9 0 2.5-0.7q3.4-4 7.1-7.5c0.7-0.6 1.3-1.8 1.3-2.7l1.3-14.2c0.1-0.9 0.8-2 1.6-2.4l12.8-7.4c0.7-0.4 1.4-0.1 1.5 0.8l1.2 12.4c0.1 0.9 0.9 1.4 1.8 1.2q3.2-0.7 6.1-0.6c0.9 0 2-0.5 2.5-1.2l9.5-14.2c0.5-0.8 1.5-1 2.2-0.6l8.3 4.8c0.7 0.4 1 1.4 0.7 2.2l-7.6 15.3c-0.4 0.8-0.3 2 0.1 2.8q1.6 2.5 2.6 5.6c0.2 0.9 1.1 1.3 1.9 0.9l11.4-5.1c0.8-0.4 1.4 0 1.4 0.9v14.8c0 0.9-0.6 2-1.3 2.5l-11.7 8.3c-0.7 0.5-1.4 1.6-1.6 2.4q-1.1 5-3 10c-0.3 0.8 0 1.9 0.7 2.5l6.6 5.7c0.6 0.6 0.8 1.6 0.4 2.4l-9.5 16.3c-0.4 0.8-1.4 1.2-2.3 0.9l-8.2-2.9c-0.8-0.3-1.9 0-2.5 0.7-2.2 2.7-4.6 5.3-7.1 7.5-0.7 0.6-1.3 1.8-1.3 2.7l-1.3 14.3c-0.1 0.8-0.8 1.9-1.5 2.3l-12.8 7.4c-0.8 0.5-1.5 0.1-1.6-0.8l-1.2-12.4c-0.1-0.9-0.9-1.4-1.8-1.2q-3.2 0.7-6.1 0.6c-0.9 0-2 0.5-2.5 1.3l-9.5 14.2c-0.5 0.7-1.5 1-2.2 0.5l-8.3-4.7c-0.7-0.5-1-1.5-0.6-2.3zm0.9 1.7l8.3 4.8c0.5 0.3 1.1 0.1 1.4-0.4l9.5-14.2c0.6-0.9 1.9-1.5 3-1.5 1.9 0 3.9-0.2 6-0.6 0.6-0.1 1.2 0 1.7 0.3 0.4 0.3 0.7 0.8 0.8 1.4l1.2 12.5q0.1 0.3 0.2 0.4 0.2 0 0.4-0.1l12.8-7.4c0.6-0.3 1.2-1.2 1.3-1.9l1.2-14.3c0.1-1 0.8-2.3 1.6-3 2.4-2.3 4.8-4.8 7-7.5 0.8-0.9 2.2-1.3 3.2-0.9l8.2 2.9c0.6 0.2 1.3-0.1 1.6-0.6l9.4-16.3c0.3-0.5 0.2-1.3-0.3-1.6l-6.6-5.7c-0.8-0.8-1.2-2.2-0.8-3.3 1.3-3.3 2.2-6.6 3-9.8 0.2-1 1-2.3 1.9-2.9l11.7-8.2c0.5-0.4 1-1.3 1-2v-14.8q0-0.3-0.1-0.4-0.2-0.1-0.5 0.1l-11.4 5.1c-0.5 0.2-1.1 0.2-1.6 0-0.5-0.2-0.9-0.7-1.1-1.3q-1-3-2.5-5.5c-0.6-0.9-0.7-2.4-0.2-3.3l7.6-15.4c0.2-0.5 0-1.1-0.4-1.4l-8.3-4.7c-0.5-0.3-1.1-0.2-1.4 0.3l-9.5 14.2c-0.6 0.9-1.8 1.6-3 1.6q-2.9-0.1-6 0.6c-0.6 0.1-1.2 0-1.7-0.4-0.4-0.3-0.7-0.8-0.8-1.4l-1.2-12.4q-0.1-0.3-0.2-0.4-0.2-0.1-0.4 0.1l-12.8 7.4c-0.6 0.3-1.2 1.2-1.3 1.9l-1.2 14.2c-0.1 1-0.8 2.3-1.6 3.1-2.4 2.2-4.8 4.7-7 7.4-0.7 0.9-2.2 1.3-3.2 0.9l-8.2-2.8c-0.6-0.2-1.3 0-1.6 0.5l-9.4 16.4c-0.3 0.5-0.2 1.2 0.3 1.6l6.6 5.7c0.8 0.7 1.2 2.1 0.8 3.2-1.2 3.3-2.2 6.6-3 9.8-0.2 1.1-1 2.3-1.9 2.9l-11.6 8.2c-0.6 0.4-1.1 1.4-1.1 2v14.8q0 0.3 0.2 0.4 0.1 0.1 0.4 0l11.4-5.1q0.4-0.2 0.8-0.2 0.4 0 0.8 0.1c0.6 0.3 0.9 0.7 1.1 1.3q1 3.1 2.5 5.5c0.6 1 0.7 2.4 0.2 3.4l-7.6 15.3c-0.2 0.5 0 1.1 0.4 1.4z"/>
					</g>
				</g>
				<g id="&lt;Group&gt;">
					<path id="&lt;Compound Path&gt;" fill-rule="evenodd" class="s2" d="m600.5 384.1l-6.5 5.1c-0.2 1-0.6 1.9-1.2 2.5l-7.2 6.6c-0.9 0.8-1.7 2.4-1.8 3.6q-0.3 2.6-0.9 5.3c-0.3 1.1 0.3 2.4 1.4 2.9l4.3 1.8c1 0.5 1.5 1.7 1.1 2.8l-5 11c-0.4 1.1-1.8 1.9-3 1.9l-5.2-0.3c-1.2 0-1.9 1.5-2.6 2.5-1.2 1.7-3.2 2.6-4.5 4.2-0.8 0.9-1.3 2.6-1.3 3.7l0.5 7.8c0.1 1.2-0.6 2.7-1.5 3.5l-2.7 2 1.5 9.6-8.6-5q-0.5-0.3-0.7-1l-1.8-6.1c-0.4-1.1-1.5-1.6-2.6-1.1q-1.7 0.6-3.3 1.1c-1.2 0.3-2.6 1.2-3.1 2.3l-3.3 8.2-2.4 6.4-8.6-4.9c-0.7-0.5-1-1.4-0.7-2.2l3.7-10c0.4-1.1 0-2.6-0.9-3.4q-0.7-0.8-1.4-1.7c-0.6-1-1.9-1.3-2.9-0.7l-0.1 9.9-8.6-5c-0.3-0.2-0.5-0.6-0.6-1.1l-1.4-7.9c-0.2-1.1 0.4-2.7 1.2-3.5l7.2-6.6c0.9-0.8 1.7-2.4 1.8-3.6q0.3-2.6 0.9-5.3c0.1-0.5 0.1-1-0.1-1.5l-5.8-3.3c-0.9-0.6-1.3-1.7-0.9-2.7l5-11c0.4-1.1 1.8-1.9 3-1.9l5.2 0.3c1.2 0 2.7-0.7 3.3-1.7q1.8-2.6 3.8-5c0.8-0.9 1.3-2.6 1.3-3.8l-0.5-7.7c-0.1-1.2 0.6-2.7 1.5-3.5l8.2-6.4c0.5-0.4 1.1-0.5 1.6-0.2l8.6 5c0 0-0.2 1.3-0.5 2.2q0.2 0 0.3-0.1c1.2-0.3 2.6-1.3 3.1-2.3l5.1-9.7c0.6-1.1 2-1.7 3.1-1.5l5.5 1.3q0.3 0 0.5 0.2l8.6 4.9-11.5 7.3c-0.4 1.1 0 2.6 0.9 3.4q0.7 0.8 1.4 1.7c0.6 1 1.9 1.3 2.9 0.7l7.2-4.8c0.5-0.3 1.1-0.3 1.5-0.1zm-28.3 16.6c-1.6-9.3-8.7-9.8-17.5-2.9-8.8 7-16 18.8-14.4 28 1.6 9.3 10 11.2 18.8 4.3 8.9-7 14.7-20.1 13.1-29.4z"/>
					<path id="&lt;Compound Path&gt;" fill-rule="evenodd" class="s6" d="m600.5 384.1l-6.5 5.1c-0.2 1-0.6 1.9-1.2 2.5l-7.2 6.6c-0.9 0.8-1.7 2.4-1.8 3.6q-0.3 2.6-0.9 5.3c-0.3 1.1 0.3 2.4 1.4 2.9l4.3 1.8c1 0.5 1.5 1.7 1.1 2.8l-5 11c-0.4 1.1-1.8 1.9-3 1.9l-5.2-0.3c-1.2 0-1.9 1.5-2.6 2.5-1.2 1.7-3.2 2.6-4.5 4.2-0.8 0.9-1.3 2.6-1.3 3.7l0.5 7.8c0.1 1.2-0.6 2.7-1.5 3.5l-2.7 2 1.5 9.6-8.6-5q-0.5-0.3-0.7-1l-1.8-6.1c-0.4-1.1-1.5-1.6-2.6-1.1q-1.7 0.6-3.3 1.1c-1.2 0.3-2.6 1.2-3.1 2.3l-3.3 8.2-2.4 6.4-8.6-4.9c-0.7-0.5-1-1.4-0.7-2.2l3.7-10c0.4-1.1 0-2.6-0.9-3.4q-0.7-0.8-1.4-1.7c-0.6-1-1.9-1.3-2.9-0.7l-0.1 9.9-8.6-5c-0.3-0.2-0.5-0.6-0.6-1.1l-1.4-7.9c-0.2-1.1 0.4-2.7 1.2-3.5l7.2-6.6c0.9-0.8 1.7-2.4 1.8-3.6q0.3-2.6 0.9-5.3c0.1-0.5 0.1-1-0.1-1.5l-5.8-3.3c-0.9-0.6-1.3-1.7-0.9-2.7l5-11c0.4-1.1 1.8-1.9 3-1.9l5.2 0.3c1.2 0 2.7-0.7 3.3-1.7q1.8-2.6 3.8-5c0.8-0.9 1.3-2.6 1.3-3.8l-0.5-7.7c-0.1-1.2 0.6-2.7 1.5-3.5l8.2-6.4c0.5-0.4 1.1-0.5 1.6-0.2l8.6 5c0 0-0.2 1.3-0.5 2.2q0.2 0 0.3-0.1c1.2-0.3 2.6-1.3 3.1-2.3l5.1-9.7c0.6-1.1 2-1.7 3.1-1.5l5.5 1.3q0.3 0 0.5 0.2l8.6 4.9-11.5 7.3c-0.4 1.1 0 2.6 0.9 3.4q0.7 0.8 1.4 1.7c0.6 1 1.9 1.3 2.9 0.7l7.2-4.8c0.5-0.3 1.1-0.3 1.5-0.1zm-28.3 16.6c-1.6-9.3-8.7-9.8-17.5-2.9-8.8 7-16 18.8-14.4 28 1.6 9.3 10 11.2 18.8 4.3 8.9-7 14.7-20.1 13.1-29.4z"/>
					<path id="&lt;Path&gt;" class="s7" d="m582.1 395.5l-10.7-5.2-2.4 4c1.6 1.2 2.8 3.3 3.3 6.4 1.6 9.3-4.3 22.4-13.1 29.4-5.3 4.1-10.4 5.1-14.1 3.2l-0.9 1.6c0 0 6.1 9.2 13.6 7.5 3.1-0.7 6.9-2.7 10.4-5.3 0.1-1.1 0.6-2.4 1.2-3.1 1.3-1.6 3.3-2.5 4.5-4.2 0.7-1 1.4-2.5 2.6-2.5l0.8 0.1c0.9-1.4 1.6-2.9 2.2-4.3 3.5-9.2 2.6-27.6 2.6-27.6z"/>
					<g id="&lt;Group&gt;">
						<path id="&lt;Path&gt;" class="s2" d="m527 428.3l-7.2 6.6c-0.5 0.5-0.9 1.3-1.1 2.1l10.6 6.1v-0.6c1-0.6 2.3-0.3 2.9 0.7q0 0 0 0l10.3-5.9z"/>
						<path id="&lt;Path&gt;" class="s2" d="m545.2 408.5q1.2-1.9 2.6-3.7l-10.2-5.8c-0.5 0.2-1 0.3-1.5 0.3l-5.2-0.3c-0.8 0-1.6 0.3-2.2 0.8l15.7 9z"/>
						<path id="&lt;Path&gt;" class="s2" d="m600.5 384.1c-0.4-0.2-0.9-0.2-1.4 0.2l-7.3 4.7c-0.9 0.7-2.2 0.3-2.9-0.6q-0.6-1-1.4-1.7c-0.8-0.9-1.2-2.4-0.8-3.5l0.7-1.8 3.1-2.1c0.5-0.3 1.1-0.3 1.5-0.1z"/>
						<path id="&lt;Path&gt;" class="s2" d="m579.2 382q-0.1-0.1-0.2-0.3c-0.9-0.8-1.3-2.3-0.9-3.4l11.5-7.3-8.6-4.9q-0.2-0.2-0.5-0.2l-5.5-1.3c-1.1-0.2-2.5 0.4-3.1 1.5l-5.1 9.7c-0.2 0.5-0.7 0.9-1.1 1.3l11.5 6.7z"/>
						<path id="&lt;Path&gt;" class="s2" d="m544.2 379.8l10.6 6.1 8.7-8c0.3-0.9 0.4-1.9 0.4-1.9l-8.6-5c-0.5-0.3-1.1-0.2-1.6 0.2l-8.2 6.4c-0.6 0.5-1 1.3-1.3 2.2z"/>
					</g>
					<g id="&lt;Group&gt;" style="opacity: .7">
						<g id="&lt;Group&gt;">
							<path id="&lt;Path&gt;" class="s4" d="m527 428.3l-7.2 6.6c-0.5 0.5-0.9 1.3-1.1 2.1l10.6 6.1v-0.6c1-0.6 2.3-0.3 2.9 0.7q0 0 0 0l10.3-5.9z"/>
							<path id="&lt;Compound Path&gt;" class="s4" d="m530.4 441.3c0.7 0 1.4 0.3 2 0.8l8.4-4.8-13.7-7.9-6.7 6.1c-0.3 0.3-0.5 0.6-0.7 1.1l9.1 5.2h0.1q0.7-0.5 1.5-0.5z"/>
						</g>
						<g id="&lt;Group&gt;">
							<path id="&lt;Path&gt;" class="s4" d="m545.2 408.5q1.2-1.9 2.6-3.7l-10.2-5.8c-0.5 0.2-1 0.3-1.5 0.3l-5.2-0.3c-0.8 0-1.6 0.3-2.2 0.8l15.7 9z"/>
							<path id="&lt;Compound Path&gt;" class="s4" d="m530.5 399.9l13.9 8 0.2-0.1q0.9-1.4 1.9-2.7l-9-5.2q-0.8 0.3-1.4 0.2l-5.3-0.2q-0.1 0-0.3 0z"/>
						</g>
						<g id="&lt;Group&gt;">
							<path id="&lt;Path&gt;" class="s4" d="m600.5 384.1c-0.4-0.2-0.9-0.2-1.4 0.2l-7.3 4.7c-0.9 0.7-2.2 0.3-2.9-0.6q-0.6-1-1.4-1.7c-0.8-0.9-1.2-2.4-0.8-3.5l0.7-1.8 3.1-2.1c0.5-0.3 1.1-0.3 1.5-0.1z"/>
							<path id="&lt;Compound Path&gt;" class="s4" d="m588.1 381.9l-0.6 1.6c-0.3 0.7 0 1.9 0.6 2.6q0.8 0.7 1.5 1.8c0.4 0.5 1.1 0.8 1.8 0.4l6.9-4.5-5.5-3.2v0.1l-1.3-0.8c-0.1-0.1-0.3 0-0.6 0.1z"/>
						</g>
						<g id="&lt;Group&gt;">
							<path id="&lt;Path&gt;" class="s4" d="m579.2 382q-0.1-0.1-0.2-0.3c-0.9-0.8-1.3-2.3-0.9-3.4l11.5-7.3-8.6-4.9q-0.2-0.2-0.5-0.2l-5.5-1.3c-1.1-0.2-2.5 0.4-3.1 1.5l-5.1 9.7c-0.2 0.5-0.7 0.9-1.1 1.3l11.5 6.7z"/>
							<path id="&lt;Compound Path&gt;" class="s4" d="m567 376.9l10.1 5.8 0.9-0.8c-0.8-1.2-1.1-2.7-0.7-3.9l0.1-0.3 10.6-6.7-7.4-4.2q-0.2-0.1-0.3-0.1l-5.5-1.2c-0.7-0.2-1.8 0.2-2.1 1l-5.1 9.7q-0.2 0.4-0.6 0.7z"/>
						</g>
						<g id="&lt;Group&gt;">
							<path id="&lt;Path&gt;" class="s4" d="m544.2 379.8l10.6 6.1 8.7-8c0.3-0.9 0.4-1.9 0.4-1.9l-8.6-5c-0.5-0.3-1.1-0.2-1.6 0.2l-8.2 6.4c-0.6 0.5-1 1.3-1.3 2.2z"/>
							<path id="&lt;Compound Path&gt;" class="s4" d="m545.2 379.4l9.5 5.5 8.1-7.4c0.1-0.4 0.1-0.8 0.2-1.1l-6.4-3.7-1.7-1c-0.3-0.1-0.6 0.1-0.7 0.2l-8.1 6.4c-0.3 0.2-0.6 0.6-0.9 1.1z"/>
						</g>
					</g>
					<path id="&lt;Compound Path&gt;" fill-rule="evenodd" class="s2" d="m601.3 396.6l-7.2 6.7c-0.8 0.8-1.6 2.4-1.7 3.6q-0.3 2.6-0.9 5.2c-0.3 1.2 0.3 2.5 1.4 2.9l4.2 1.8c1.1 0.5 1.6 1.8 1.1 2.8l-4.9 11.1c-0.5 1-1.8 1.9-3 1.8l-5.2-0.2c-1.2-0.1-2.7 0.7-3.3 1.6q-1.8 2.6-3.8 5c-0.8 1-1.4 2.6-1.3 3.8l0.5 7.7c0.1 1.2-0.6 2.8-1.6 3.5l-8.1 6.4c-0.9 0.7-2 0.4-2.3-0.7l-1.8-6.1c-0.4-1.2-1.5-1.6-2.6-1.2q-1.7 0.7-3.4 1.1c-1.1 0.3-2.5 1.3-3 2.3l-5.2 9.8c-0.5 1-1.9 1.7-3 1.4l-5.5-1.2c-1.1-0.3-1.7-1.4-1.3-2.5l3.7-9.9c0.4-1.1-0.1-2.6-0.9-3.5q-0.7-0.8-1.4-1.7c-0.7-1-1.9-1.3-2.9-0.6l-7.2 4.7c-1 0.7-1.9 0.2-2.1-0.9l-1.4-7.9c-0.2-1.2 0.3-2.8 1.2-3.6l7.2-6.6c0.9-0.8 1.7-2.4 1.8-3.6q0.3-2.6 0.9-5.2c0.3-1.2-0.4-2.5-1.5-3l-4.2-1.8c-1.1-0.4-1.6-1.7-1.1-2.7l4.9-11.1c0.5-1.1 1.9-1.9 3-1.8l5.3 0.2c1.2 0.1 2.6-0.7 3.3-1.7q1.8-2.6 3.8-5c0.7-0.9 1.3-2.5 1.2-3.7l-0.4-7.8c-0.1-1.1 0.6-2.7 1.5-3.4l8.2-6.4c0.9-0.8 1.9-0.4 2.3 0.7l1.8 6.1c0.3 1.1 1.5 1.6 2.6 1.2q1.7-0.7 3.3-1.1c1.2-0.3 2.5-1.3 3.1-2.3l5.1-9.8c0.6-1 1.9-1.7 3.1-1.4l5.4 1.2c1.2 0.3 1.8 1.4 1.4 2.5l-3.7 9.9c-0.4 1.1 0 2.6 0.8 3.5q0.8 0.7 1.4 1.7c0.7 0.9 2 1.3 2.9 0.6l7.2-4.7c1-0.7 2-0.2 2.2 0.9l1.4 7.9c0.2 1.2-0.4 2.7-1.3 3.5zm-20.4 9.1c-1.6-9.3-10.1-11.2-18.9-4.2-8.8 6.9-14.7 20-13.1 29.3 1.6 9.3 10 11.2 18.9 4.2 8.8-6.9 14.7-20.1 13.1-29.3z"/>
					<g id="&lt;Group&gt;" style="opacity: .55">
						<path id="&lt;Compound Path&gt;" fill-rule="evenodd" class="s4" d="m601.3 396.6l-7.2 6.7c-0.8 0.8-1.6 2.4-1.7 3.6q-0.3 2.6-0.9 5.2c-0.3 1.2 0.3 2.5 1.4 2.9l4.2 1.8c1.1 0.5 1.6 1.8 1.1 2.8l-4.9 11.1c-0.5 1-1.8 1.9-3 1.8l-5.2-0.2c-1.2-0.1-2.7 0.7-3.3 1.6q-1.8 2.6-3.8 5c-0.8 1-1.4 2.6-1.3 3.8l0.5 7.7c0.1 1.2-0.6 2.8-1.6 3.5l-8.1 6.4c-0.9 0.7-2 0.4-2.3-0.7l-1.8-6.1c-0.4-1.2-1.5-1.6-2.6-1.2q-1.7 0.7-3.4 1.1c-1.1 0.3-2.5 1.3-3 2.3l-5.2 9.8c-0.5 1-1.9 1.7-3 1.4l-5.5-1.2c-1.1-0.3-1.7-1.4-1.3-2.5l3.7-9.9c0.4-1.1-0.1-2.6-0.9-3.5q-0.7-0.8-1.4-1.7c-0.7-1-1.9-1.3-2.9-0.6l-7.2 4.7c-1 0.7-1.9 0.2-2.1-0.9l-1.4-7.9c-0.2-1.2 0.3-2.8 1.2-3.6l7.2-6.6c0.9-0.8 1.7-2.4 1.8-3.6q0.3-2.6 0.9-5.2c0.3-1.2-0.4-2.5-1.5-3l-4.2-1.8c-1.1-0.4-1.6-1.7-1.1-2.7l4.9-11.1c0.5-1.1 1.9-1.9 3-1.8l5.3 0.2c1.2 0.1 2.6-0.7 3.3-1.7q1.8-2.6 3.8-5c0.7-0.9 1.3-2.5 1.2-3.7l-0.4-7.8c-0.1-1.1 0.6-2.7 1.5-3.4l8.2-6.4c0.9-0.8 1.9-0.4 2.3 0.7l1.8 6.1c0.3 1.1 1.5 1.6 2.6 1.2q1.7-0.7 3.3-1.1c1.2-0.3 2.5-1.3 3.1-2.3l5.1-9.8c0.6-1 1.9-1.7 3.1-1.4l5.4 1.2c1.2 0.3 1.8 1.4 1.4 2.5l-3.7 9.9c-0.4 1.1 0 2.6 0.8 3.5q0.8 0.7 1.4 1.7c0.7 0.9 2 1.3 2.9 0.6l7.2-4.7c1-0.7 2-0.2 2.2 0.9l1.4 7.9c0.2 1.2-0.4 2.7-1.3 3.5zm-20.4 9.1c-1.6-9.3-10.1-11.2-18.9-4.2-8.8 6.9-14.7 20-13.1 29.3 1.6 9.3 10 11.2 18.9 4.2 8.8-6.9 14.7-20.1 13.1-29.3z"/>
					</g>
					<g id="&lt;Group&gt;" style="opacity: .2">
						<path id="&lt;Compound Path&gt;" fill-rule="evenodd" class="s4" d="m554.2 439.4c-3.2-1.2-5.4-4.2-6.1-8.4-1.7-9.6 4.3-23.1 13.4-30.2 4.9-3.9 10.1-5.3 14.1-3.8 3.2 1.3 5.4 4.3 6.1 8.5 1.6 9.6-4.4 23.1-13.4 30.2-3.7 2.9-7.4 4.4-10.7 4.4q-1.8 0-3.4-0.7zm13.6-4.4c8.8-6.9 14.7-20.1 13.1-29.3-1.6-9.3-10.1-11.2-18.9-4.2-8.8 6.9-14.7 20-13.1 29.3 1.6 9.3 10 11.2 18.9 4.2z"/>
						<path id="&lt;Compound Path&gt;" fill-rule="evenodd" class="s4" d="m540.7 465.7c-1.1-0.3-1.7-1.4-1.3-2.5l3.7-9.9c0.4-1.1-0.1-2.6-0.9-3.5q-0.7-0.8-1.4-1.7c-0.7-1-1.9-1.3-2.9-0.6l-7.2 4.7c-1 0.7-1.9 0.2-2.1-0.9l-1.4-7.9c-0.2-1.2 0.3-2.8 1.2-3.6l7.2-6.6c0.9-0.8 1.7-2.4 1.8-3.6q0.3-2.6 0.9-5.2c0.3-1.2-0.4-2.5-1.5-3l-4.2-1.8c-1.1-0.4-1.6-1.7-1.1-2.7l4.9-11.1c0.5-1.1 1.9-1.9 3-1.8l5.3 0.2c1.2 0.1 2.6-0.7 3.3-1.7q1.8-2.6 3.8-5c0.7-0.9 1.3-2.5 1.2-3.7l-0.4-7.8c-0.1-1.1 0.6-2.7 1.5-3.4l8.2-6.4c0.9-0.8 1.9-0.4 2.3 0.7l1.8 6.1c0.3 1.1 1.5 1.6 2.6 1.2q1.7-0.7 3.3-1.1c1.2-0.3 2.5-1.3 3.1-2.3l5.1-9.8c0.6-1 1.9-1.7 3.1-1.4l5.4 1.2c1.2 0.3 1.8 1.4 1.4 2.5l-3.7 9.9c-0.4 1.1 0 2.6 0.8 3.5q0.8 0.7 1.4 1.7c0.7 0.9 2 1.3 2.9 0.6l7.2-4.7c1-0.7 2-0.2 2.2 0.9l1.4 7.9c0.2 1.2-0.4 2.7-1.3 3.5l-7.2 6.7c-0.8 0.8-1.6 2.4-1.7 3.6q-0.3 2.6-0.9 5.2c-0.3 1.2 0.3 2.5 1.4 2.9l4.2 1.8c1.1 0.5 1.6 1.8 1.1 2.8l-4.9 11.1c-0.5 1-1.8 1.9-3 1.8l-5.2-0.2c-1.2-0.1-2.7 0.7-3.3 1.6q-1.8 2.6-3.8 5c-0.8 1-1.4 2.6-1.3 3.8l0.5 7.7c0.1 1.2-0.6 2.8-1.6 3.5l-8.1 6.4c-0.9 0.7-2 0.4-2.3-0.7l-1.8-6.1c-0.4-1.2-1.5-1.6-2.6-1.2q-1.7 0.7-3.4 1.1c-1.1 0.3-2.5 1.3-3 2.3l-5.2 9.8c-0.5 1-1.9 1.7-3 1.4zm0.1-0.8l5.5 1.2c0.8 0.2 1.8-0.3 2.1-1l5.1-9.7c0.7-1.2 2.2-2.4 3.7-2.8q1.6-0.4 3.2-1.1c0.8-0.3 1.6-0.3 2.3 0.1 0.7 0.3 1.2 0.9 1.4 1.7l1.8 6.1q0.2 0.4 0.4 0.5 0.3 0 0.6-0.2l8.2-6.4c0.7-0.6 1.2-1.9 1.2-2.8l-0.5-7.7c-0.1-1.4 0.5-3.3 1.5-4.4q1.9-2.3 3.7-4.9c0.8-1.3 2.6-2.1 4-2.1l5.3 0.3c0.8 0.1 1.8-0.6 2.2-1.4l4.9-11q0.2-0.5 0-1c-0.1-0.3-0.3-0.5-0.7-0.7l-4.2-1.8c-1.4-0.6-2.3-2.3-1.9-3.9q0.6-2.6 0.9-5.1c0.1-1.4 1-3.2 2-4.1l7.2-6.7c0.7-0.6 1.1-1.9 1-2.8l-1.4-7.8c0-0.3-0.1-0.5-0.3-0.5-0.1-0.1-0.3 0-0.6 0.1l-7.2 4.7c-1.3 0.9-3 0.6-4-0.8q-0.6-0.9-1.3-1.6c-1.1-1.2-1.6-3-1.1-4.4l3.7-9.9q0.2-0.5 0-0.9-0.2-0.3-0.7-0.5l-5.5-1.2c-0.7-0.2-1.7 0.3-2.1 1l-5.1 9.8c-0.7 1.2-2.2 2.3-3.6 2.7q-1.6 0.4-3.3 1.1c-0.8 0.3-1.6 0.3-2.3-0.1-0.7-0.3-1.2-0.9-1.4-1.6l-1.8-6.1q-0.1-0.5-0.4-0.5-0.2-0.1-0.6 0.2l-8.1 6.4c-0.7 0.5-1.3 1.8-1.3 2.7l0.5 7.8c0.1 1.3-0.5 3.2-1.4 4.3q-2 2.3-3.8 4.9c-0.8 1.3-2.5 2.1-4 2.1l-5.3-0.3c-0.8-0.1-1.8 0.6-2.2 1.4l-4.9 11q-0.2 0.5 0 1c0.1 0.3 0.4 0.6 0.7 0.7l4.2 1.8c1.5 0.6 2.3 2.3 1.9 3.9q-0.5 2.6-0.8 5.1c-0.2 1.5-1.1 3.2-2.1 4.1l-7.2 6.7c-0.6 0.6-1.1 1.9-0.9 2.8l1.3 7.8c0.1 0.3 0.2 0.5 0.3 0.6 0.1 0 0.3 0 0.6-0.2l7.2-4.7q0.7-0.5 1.6-0.5c0.9 0 1.8 0.5 2.4 1.3q0.6 0.9 1.4 1.7c1 1.1 1.5 2.9 1 4.3l-3.7 9.9q-0.2 0.5 0 0.9 0.3 0.4 0.7 0.5z"/>
					</g>
				</g>
			</g>
		</g>
	</g>
	<g id="Clouds">
		<g id="Clouds">
			<g id="&lt;Group&gt;" style="opacity: .7">
				<g id="&lt;Group&gt;">
					<path id="&lt;Compound Path&gt;" fill-rule="evenodd" class="s2" d="m307.2 224.5c-1.8 0-3.6-0.5-5.1-1.4-4.4-2.5-6.9-8.3-6.9-15.8 0-13.7 8.4-29.7 18.7-35.7l1.4-0.8q-0.4-3.2-0.4-6.6c0-21.4 13.1-46.4 29.2-55.7 7.1-4.1 14-4.6 19.5-1.6 5.8 3.3 9.5 10.4 10.4 19.7 4-6.3 8.9-11.3 13.9-14.2 5.8-3.4 11.4-3.8 15.8-1.2 5.3 3 8.4 10 8.4 19.1q0 2.3-0.3 4.6c2.8-1.5 5.4-1.6 7.6-0.3 2.7 1.5 4.2 5.1 4.2 9.6 0 8.4-5.1 18.1-11.4 21.8l-97.4 56.2c-2.6 1.5-5.2 2.3-7.6 2.3zm48.8-117.7c-3.5 0-7.2 1.1-11 3.3-15.6 9-28.3 33.3-28.3 54.1q0 3.6 0.5 6.9c0.1 0.4-0.1 0.7-0.4 0.9l-2 1.2c-9.8 5.6-17.8 21-17.8 34.1 0 6.9 2.2 12 6 14.2 3 1.8 6.9 1.4 10.9-0.9l97.4-56.2c5.8-3.4 10.5-12.4 10.5-20.2 0-3.9-1.2-6.8-3.3-8-1.7-1-4-0.8-6.3 0.5l-1 0.6c-0.3 0.2-0.7 0.2-1 0-0.3-0.2-0.5-0.5-0.4-0.9q0.4-3.1 0.4-6.1c0-8.4-2.7-14.8-7.4-17.5-3.8-2.3-8.8-1.8-13.9 1.2-5.5 3.1-10.8 8.8-14.9 16.1-0.2 0.3-0.6 0.5-1 0.4-0.4-0.1-0.7-0.4-0.7-0.8-0.3-10.2-3.8-17.9-9.6-21.2-2-1.1-4.3-1.7-6.7-1.7zm55.7 29.1h0.1z"/>
				</g>
			</g>
			<g id="&lt;Group&gt;" style="opacity: .3">
				<g id="&lt;Group&gt;">
					<path id="&lt;Compound Path&gt;" fill-rule="evenodd" class="s2" d="m397 212.8q-1.9 0-3.4-0.9c-2.9-1.7-4.6-5.5-4.6-10.4 0-8.8 5.4-19.1 12.1-22.9l0.7-0.4q-0.3-1.9-0.3-4c0-13.6 8.4-29.6 18.7-35.6 4.6-2.6 9.1-3 12.7-1 3.6 2 5.9 6.2 6.6 11.8 2.5-3.7 5.5-6.6 8.5-8.3 3.8-2.2 7.4-2.5 10.3-0.8 3.5 2 5.5 6.5 5.5 12.5q0 1.1-0.1 2.3c1.6-0.7 3.2-0.7 4.6 0 1.8 1.1 2.8 3.4 2.8 6.5 0 5.4-3.2 11.6-7.4 14l-61.7 35.7c-1.7 1-3.4 1.5-5 1.5zm30.9-74.6c-2.1 0-4.4 0.7-6.8 2-9.8 5.7-17.7 20.9-17.7 34q0 2.3 0.3 4.3c0 0.4-0.1 0.8-0.5 1l-1.2 0.7c-6.2 3.5-11.2 13.1-11.2 21.3 0 4.3 1.4 7.4 3.7 8.8 1.8 1 4.1 0.8 6.6-0.6l61.7-35.7c3.6-2 6.5-7.6 6.5-12.4 0-2.4-0.7-4.2-2-4.9-0.9-0.5-2.2-0.4-3.6 0.4l-0.6 0.4c-0.4 0.2-0.7 0.1-1-0.1-0.3-0.2-0.5-0.5-0.4-0.8q0.3-2 0.3-3.8c0-5.3-1.7-9.3-4.6-10.9-2.3-1.4-5.3-1.1-8.5 0.7-3.4 2-6.7 5.6-9.3 10.2-0.2 0.3-0.6 0.5-1 0.4-0.4-0.1-0.7-0.5-0.7-0.9-0.1-6.3-2.3-11.1-5.9-13.1q-1.9-1-4.1-1z"/>
				</g>
			</g>
		</g>
	</g>
	<g id="Big Cloud">
		<g id="Conection">
			<g id="&lt;Group&gt;">
				<path id="&lt;Path&gt;" class="s2" d="m379.5 433.2l-2.8-4.7 210.4-121.5c3.2-1.8 5.3-5.3 5.3-9.1v-17.9h5.5v17.9c0 5.7-3.1 11.1-8 13.9z"/>
			</g>
			<g id="&lt;Group&gt;">
				<g id="&lt;Group&gt;">
					<path id="&lt;Path&gt;" class="s8" d="m601.7 266.6c-0.1-1-0.7-1.9-2-2.7-2.5-1.4-6.7-1.4-9.2 0-1.3 0.8-1.9 1.7-1.9 2.7v17.2c0 1 0.6 1.9 1.9 2.7 2.5 1.5 6.7 1.5 9.2 0 1.3-0.8 1.9-1.7 2-2.7z"/>
					<path id="&lt;Path&gt;" class="s9" d="m605.6 249.4c0-1.5-1-3.1-3-4.3-4.2-2.4-10.8-2.4-14.9 0-2.1 1.2-3.1 2.8-3.1 4.3v16.9c-0.1 1.7 0.9 3.4 3.1 4.6 4.1 2.4 10.7 2.4 14.9 0 2.1-1.2 3.1-2.9 3-4.6z"/>
				</g>
			</g>
		</g>
		<g id="Cloud 2 ">
			<g id="Cloud 5 ">
				<path id="&lt;Path&gt;" class="s10" d="m698.2 154.1v-0.1l-0.6-0.3q-0.2-0.1-0.4-0.2l-13.2-7.7q0-0.5 0-0.9c0-16.3-5.5-27.7-14.1-32.5l-25.5-14.8v0.1c-7-4.1-16.2-3.7-26.2 2.1-4.4 2.5-8.6 5.9-12.6 10q-2.5-2.6-5.5-4.4l-24.6-14.2v0.1c-9-6-21.1-5.9-34.4 1.8-27.9 16.1-50.6 59.3-50.6 96.5q0.1 6.6 1 12.4l-3.5 2c-17.8 10.2-32.2 37.7-32.2 61.4 0 13.1 4.4 22.4 11.4 26.4h-0.1l25.8 14.9c5.7 3.2 12.9 3 20.8-1.6l46.8-27 124.6-71.9c10.6-6.2 19.2-22.7 19.2-36.9 0-7.4-2.3-12.7-6.1-15.2z"/>
				<g id="&lt;Group&gt;" style="opacity: .2">
					<path id="&lt;Path&gt;" class="s4" d="m698.2 154.1v-0.1l-0.6-0.3q-0.2-0.1-0.4-0.2l-13.2-7.7q0-0.5 0-0.9c0-16.3-5.5-27.7-14.1-32.5l-25.5-14.8v0.1c-7-4.1-16.2-3.7-26.2 2.1-4.4 2.5-8.6 5.9-12.6 10q-2.5-2.6-5.5-4.4l-24.6-14.2v0.1c-9-6-21.1-5.9-34.4 1.8-27.9 16.1-50.6 59.3-50.6 96.5q0.1 6.6 1 12.4l-3.5 2c-17.8 10.2-32.2 37.7-32.2 61.4 0 13.1 4.4 22.4 11.4 26.4h-0.1l25.8 14.9c5.7 3.2 12.9 3 20.8-1.6l46.8-27 124.6-71.9c10.6-6.2 19.2-22.7 19.2-36.9 0-7.4-2.3-12.7-6.1-15.2z"/>
				</g>
				<g id="&lt;Group&gt;" style="opacity: .35">
					<path id="&lt;Path&gt;" class="s4" d="m669.9 112.4c-7-3.9-16.1-3.5-25.9 2.2-4.7 2.7-9.1 6.4-13.3 10.7l-23.3-13.6-2.3-1.3q0.3-0.3 0.5-0.6c4-4.1 8.2-7.5 12.6-10 10-5.8 19.2-6.2 26.2-2.1v-0.1z"/>
				</g>
				<g id="&lt;Group&gt;" style="opacity: .8">
					<path id="&lt;Path&gt;" class="s4" d="m605.6 109.8q0.9 0.9 1.8 1.9l-2.3-1.3q0.3-0.3 0.5-0.6z"/>
				</g>
				<g id="&lt;Group&gt;" style="opacity: .35">
					<path id="&lt;Path&gt;" class="s4" d="m599.5 105v0.1c-8.8-4.9-20.2-4.4-32.7 2.8-12.7 7.3-24.2 20.2-33.1 35.6l-25.7-14.8c8.9-15.4 20.4-28.3 33.1-35.6 13.3-7.7 25.4-7.8 34.4-1.8v-0.1z"/>
				</g>
				<g id="&lt;Group&gt;" style="opacity: .35">
					<path id="&lt;Path&gt;" class="s4" d="m517.2 216.8l-3.5 2c-12 7-22.5 21.9-28 38.1l-25.7-14.9c4.3-12.9 11.9-25 20.9-32.9l10.6-7.1z"/>
				</g>
				<path id="&lt;Path&gt;" class="s2" d="m685.1 154.7l-1.9 1.1q0.8-5.5 0.8-10.9c0-29.5-17.9-43-40-30.3-10.3 6-19.6 16.5-26.7 29-1-35.4-23.2-51.4-50.5-35.7-27.9 16.1-50.5 59.4-50.5 96.6q0 6.6 0.9 12.3l-3.5 2c-17.7 10.3-32.1 37.8-32.1 61.5 0 23.6 14.4 35 32.1 24.8l46.8-27 124.6-71.9c10.6-6.2 19.2-22.7 19.2-36.9 0-14.2-8.6-20.7-19.2-14.6z"/>
				<g id="&lt;Group&gt;" style="opacity: .7">
					<path id="&lt;Path&gt;" class="s4" d="m685.1 154.7l-1.9 1.1q0.8-5.5 0.8-10.9c0-29.5-17.9-43-40-30.3-10.3 6-19.6 16.5-26.7 29-1-35.4-23.2-51.4-50.5-35.7-27.9 16.1-50.5 59.4-50.5 96.6q0 6.6 0.9 12.3l-3.5 2c-17.7 10.3-32.1 37.8-32.1 61.5 0 23.6 14.4 35 32.1 24.8l46.8-27 124.6-71.9c10.6-6.2 19.2-22.7 19.2-36.9 0-14.2-8.6-20.7-19.2-14.6z"/>
				</g>
				<g id="&lt;Group&gt;" style="opacity: .7">
					<path id="&lt;Path&gt;" class="s4" d="m501.2 302.3c-7.9 0-13-8.7-13-22 0-21.2 13.2-46.7 28.8-55.8l3.5-2c2.4-1.3 3.6-4 3.2-6.7-0.6-3.6-0.8-7.4-0.8-11.3 0-35.1 21.2-75.8 47.2-90.9 6-3.4 11.6-5.2 16.8-5.2 14.1 0 23.2 13.6 23.8 35.4 0.2 6.7 9.1 8.9 12.3 3.1 6.8-12 15.4-21.4 24.3-26.6 4.5-2.6 8.7-3.9 12.6-3.9 10.6 0 17.5 11.2 17.5 28.5 0 3.2-0.2 6.6-0.7 10-0.8 5.4 5.1 9.3 9.8 6.6l1.8-1.1c1.7-0.9 3.2-1.4 4.4-1.4 3.5 0 5.1 5.2 5.1 10.3 0 11.9-7.4 26.2-16 31.2l-171.4 98.9c-3.3 1.9-6.4 2.9-9.2 2.9q0 0 0 0z"/>
				</g>
			</g>
		</g>
	</g>
	<g id="Server">
		<g id="Server 2 ">
			<g id="&lt;Group&gt;">
				<path id="&lt;Path&gt;" class="s2" d="m245.3 216.3l139.8 80.7c2.6 1.5 4.7 5.1 4.7 8.1v444.4c0 2.9-2.1 6.6-4.7 8.1l-151.2 87.3c-2.6 1.5-6.8 1.5-9.4 0l-139.8-80.7c-2.6-1.5-4.7-5.2-4.7-8.1v-444.4c0-3 2.1-6.6 4.7-8.1l151.2-87.3c2.6-1.5 6.8-1.5 9.4 0z"/>
				<g id="&lt;Group&gt;" style="opacity: .7">
					<path id="&lt;Path&gt;" class="s4" d="m245.3 216.3l139.8 80.7c2.6 1.5 4.7 5.1 4.7 8.1v444.4c0 2.9-2.1 6.6-4.7 8.1l-151.2 87.3c-2.6 1.5-6.8 1.5-9.4 0l-139.8-80.7c-2.6-1.5-4.7-5.2-4.7-8.1v-444.4c0-3 2.1-6.6 4.7-8.1l151.2-87.3c2.6-1.5 6.8-1.5 9.4 0z"/>
				</g>
				<g id="&lt;Group&gt;">
					<path id="&lt;Path&gt;" class="s2" d="m80 311.7v444.3c0 3 2.1 6.7 4.7 8.2l139.8 80.7c1.3 0.8 3 1.1 4.7 1.1v-455.1c-1.7 0-3.4-0.4-4.7-1.1l-139.8-80.8-1.3-1-1.7-1.4c-1 1.6-1.7 3.4-1.7 5.1z"/>
					<g id="&lt;Group&gt;" style="opacity: .5">
						<path id="&lt;Path&gt;" class="s4" d="m80 311.7v444.3c0 3 2.1 6.7 4.7 8.2l139.8 80.7c1.3 0.8 3 1.1 4.7 1.1v-455.1c-1.7 0-3.4-0.4-4.7-1.1l-139.8-80.8-1.3-1-1.7-1.4c-1 1.6-1.7 3.4-1.7 5.1z"/>
					</g>
				</g>
				<g id="&lt;Group&gt;">
					<path id="&lt;Path&gt;" class="s2" d="m84.7 303.6l151.2-87.3c2.6-1.5 6.8-1.5 9.4 0l139.8 80.7c2.6 1.5 2.6 3.9 0 5.4l-151.2 87.4c-2.6 1.5-6.8 1.5-9.4 0l-139.8-80.8c-2.6-1.5-2.6-3.9 0-5.4z"/>
					<g id="&lt;Group&gt;" style="opacity: .8">
						<path id="&lt;Path&gt;" class="s4" d="m84.7 303.6l151.2-87.3c2.6-1.5 6.8-1.5 9.4 0l139.8 80.7c2.6 1.5 2.6 3.9 0 5.4l-151.2 87.4c-2.6 1.5-6.8 1.5-9.4 0l-139.8-80.8c-2.6-1.5-2.6-3.9 0-5.4z"/>
					</g>
				</g>
			</g>
			<g id="&lt;Group&gt;">
				<g id="&lt;Group&gt;">
					<path id="&lt;Compound Path&gt;" fill-rule="evenodd" class="s8" d="m250.1 620.8q-0.9 0-1.7-0.4c-1.2-0.7-1.8-2.1-1.8-3.9v-39.8c0-3.4 2.2-7.3 5.1-8.9l116.2-67.1c1.5-0.9 3-1 4.2-0.3 1.2 0.7 1.8 2 1.8 3.8v39.9c0 3.3-2.2 7.2-5.1 8.9l-116.2 67q-1.3 0.8-2.5 0.8zm118.7-118.5l-116.2 67.1c-2.2 1.3-4.2 4.6-4.2 7.3v39.8c0 1.1 0.4 1.9 0.9 2.3 0.6 0.3 1.5 0.2 2.4-0.3l116.2-67.1c2.3-1.3 4.2-4.7 4.2-7.3v-39.9c0-1.1-0.3-1.9-0.9-2.2-0.6-0.4-1.5-0.2-2.4 0.3z"/>
				</g>
				<path id="&lt;Path&gt;" class="s2" d="m364.2 519.1c0 2.8-2.1 6.3-4.6 7.7l-98.6 57c-2.6 1.5-4.7 0.4-4.7-2.4 0-2.8 2.1-6.3 4.7-7.8l98.6-56.9c2.5-1.5 4.6-0.4 4.6 2.4z"/>
				<path id="&lt;Path&gt;" class="s11" d="m364.2 539.3c0 2.8-2.1 6.3-4.6 7.8l-98.6 56.9c-2.6 1.5-4.7 0.5-4.7-2.3 0-2.8 2.1-6.3 4.7-7.8l98.6-56.9c2.5-1.5 4.6-0.5 4.6 2.3z"/>
				<path id="&lt;Path&gt;" class="s2" d="m359.6 537l-41.9 24.1v10.2l41.9-24.2c2.5-1.5 4.6-5 4.6-7.8 0-2.8-2.1-3.8-4.6-2.3z"/>
			</g>
			<g id="&lt;Group&gt;">
				<path id="&lt;Path&gt;" class="s2" d="m207.3 398.3c-4.9-2.9-8.8-0.3-8.8 5.7v235.1c0 6 3.9 13.1 8.8 15.9 4.8 2.8 8.7 0.3 8.7-5.7v-235.2c0-5.9-3.9-13-8.7-15.9z"/>
				<path id="&lt;Path&gt;" class="s9" d="m207.3 649.9c-2.5-1.4-4.4-5-4.4-7.9v-235.9c0-2.9 1.9-4.2 4.4-2.8 2.4 1.4 4.4 4.9 4.4 7.9v235.8c0 3-2 4.3-4.4 2.9z"/>
				<path id="&lt;Path&gt;" class="s2" d="m207.3 649.9c-2.5-1.4-4.4-5-4.4-7.9v-125.8l8.8 5v125.8c0 3-2 4.3-4.4 2.9z"/>
				<g id="&lt;Group&gt;" style="opacity: .3">
					<path id="&lt;Path&gt;" class="s4" d="m207.3 649.9c-2.5-1.4-4.4-5-4.4-7.9v-125.8l8.8 5v125.8c0 3-2 4.3-4.4 2.9z"/>
				</g>
				<path id="&lt;Path&gt;" class="s2" d="m180.9 383c-4.8-2.8-8.7-0.2-8.7 5.8v235.1c0 6 3.9 13.1 8.7 15.9 4.9 2.8 8.8 0.3 8.8-5.7v-235.2c0-5.9-3.9-13-8.8-15.9z"/>
				<path id="&lt;Path&gt;" class="s2" d="m180.9 634.7c-2.4-1.4-4.4-5-4.4-7.9v-235.9c0-2.9 2-4.2 4.4-2.8 2.5 1.4 4.4 4.9 4.4 7.9v235.8c0 3-1.9 4.3-4.4 2.9z"/>
				<g id="&lt;Group&gt;" style="opacity: .3">
					<path id="&lt;Path&gt;" class="s4" d="m180.9 634.7c-2.4-1.4-4.4-5-4.4-7.9v-235.9c0-2.9 2-4.2 4.4-2.8 2.5 1.4 4.4 4.9 4.4 7.9v235.8c0 3-1.9 4.3-4.4 2.9z"/>
				</g>
				<path id="&lt;Path&gt;" class="s2" d="m154.6 367.8c-4.8-2.8-8.8-0.2-8.8 5.8v235.1c0 6 4 13.1 8.8 15.9 4.8 2.8 8.8 0.3 8.8-5.7v-235.2c0-5.9-3.9-13-8.8-15.9z"/>
				<path id="&lt;Path&gt;" class="s9" d="m154.6 619.5c-2.4-1.4-4.4-5-4.4-7.9v-235.9c0-2.9 2-4.2 4.4-2.8 2.4 1.4 4.4 4.9 4.4 7.9v235.8c0 3-2 4.3-4.4 2.9z"/>
				<path id="&lt;Path&gt;" class="s2" d="m154.6 619.5c-2.4-1.4-4.4-5-4.4-7.9v-176.9l8.8 5v176.9c0 3-2 4.3-4.4 2.9z"/>
				<g id="&lt;Group&gt;" style="opacity: .3">
					<path id="&lt;Path&gt;" class="s4" d="m154.6 619.5c-2.4-1.4-4.4-5-4.4-7.9v-176.9l8.8 5v176.9c0 3-2 4.3-4.4 2.9z"/>
				</g>
				<path id="&lt;Path&gt;" class="s2" d="m128.3 352.6c-4.9-2.8-8.8-0.2-8.8 5.8v235.1c0 6 3.9 13.1 8.8 15.9 4.8 2.8 8.7 0.3 8.7-5.7l0.1-235.2c0-5.9-4-13-8.8-15.9z"/>
				<path id="&lt;Path&gt;" class="s9" d="m128.3 604.3c-2.5-1.4-4.4-5-4.4-7.9v-235.9c0-2.9 2-4.2 4.4-2.8 2.4 1.4 4.4 4.9 4.4 7.9v235.8c0 3-2 4.3-4.4 2.9z"/>
				<path id="&lt;Path&gt;" class="s2" d="m128.3 604.3c-2.5-1.4-4.4-5-4.4-7.9v-50.6l8.8 5.1v50.5c0 3-2 4.3-4.4 2.9z"/>
				<g id="&lt;Group&gt;" style="opacity: .3">
					<path id="&lt;Path&gt;" class="s4" d="m128.3 604.3c-2.5-1.4-4.4-5-4.4-7.9v-50.6l8.8 5.1v50.5c0 3-2 4.3-4.4 2.9z"/>
				</g>
				<path id="&lt;Path&gt;" class="s2" d="m101.9 337.4c-4.8-2.8-8.7-0.2-8.7 5.8v235.1c0 6 3.9 13.1 8.7 15.9 4.9 2.8 8.8 0.3 8.8-5.7v-235.2c0-5.9-3.9-13-8.8-15.9z"/>
				<path id="&lt;Path&gt;" class="s9" d="m101.9 589.1c-2.4-1.4-4.3-5-4.3-7.9v-235.9c0-2.9 1.9-4.2 4.3-2.8 2.5 1.4 4.4 4.9 4.4 7.9v235.8c0 3-1.9 4.3-4.4 2.9z"/>
				<path id="&lt;Path&gt;" class="s2" d="m101.9 589.1c-2.4-1.4-4.3-5-4.3-7.9v-136l8.7 5.1v135.9c0 3-1.9 4.3-4.4 2.9z"/>
				<g id="&lt;Group&gt;" style="opacity: .3">
					<path id="&lt;Path&gt;" class="s4" d="m101.9 589.1c-2.4-1.4-4.3-5-4.3-7.9v-136l8.7 5.1v135.9c0 3-1.9 4.3-4.4 2.9z"/>
				</g>
			</g>
			<g id="&lt;Group&gt;">
				<g id="&lt;Group&gt;">
					<path id="&lt;Path&gt;" class="s8" d="m368.3 330.4l-116.1 67.1c-2.6 1.5-4.7 5.1-4.7 8.1v133.6c0 3 2.1 4.2 4.7 2.7l116.1-67.1c2.6-1.5 4.7-5.1 4.7-8.1v-133.6c0-3-2.1-4.2-4.7-2.7z"/>
				</g>
				<path id="&lt;Path&gt;" class="s11" d="m248.8 401.2c-0.8 1.4-1.3 2.9-1.3 4.4v133.6c0 3 2.1 4.2 4.7 2.7l116.1-67.1c1.4-0.8 2.6-2.1 3.4-3.7z"/>
				<path id="&lt;Path&gt;" class="s9" d="m252.2 397.5c-2.6 1.5-4.7 5.1-4.7 8.1v128.4l111.7-64.5c2.6-1.5 4.7-5.1 4.7-8.1v-128.4z"/>
			</g>
			<g id="Server">
				<g id="&lt;Group&gt;">
					<path id="&lt;Path&gt;" class="s9" d="m112.5 764.6c1.1 0.7 2 2.3 2 3.6 0 1.3-0.9 1.9-2 1.2-1.2-0.6-2.1-2.2-2.1-3.6 0-1.3 0.9-1.8 2.1-1.2z"/>
					<path id="&lt;Path&gt;" class="s9" d="m129.7 774.6c1.1 0.7 2.1 2.3 2.1 3.6 0 1.3-1 1.8-2.1 1.2-1.1-0.7-2.1-2.3-2.1-3.6 0-1.3 1-1.8 2.1-1.2z"/>
					<path id="&lt;Path&gt;" class="s9" d="m146.7 784.4c1.1 0.7 2 2.2 2 3.6 0 1.3-0.9 1.8-2 1.1-1.2-0.6-2.1-2.2-2.1-3.5 0-1.3 0.9-1.9 2.1-1.2z"/>
					<path id="&lt;Path&gt;" class="s9" d="m163.8 794.3c1.1 0.6 2 2.2 2 3.5 0 1.3-0.9 1.9-2 1.2-1.2-0.6-2.1-2.2-2.1-3.5 0-1.3 0.9-1.9 2.1-1.2z"/>
				</g>
				<g id="&lt;Group&gt;">
					<g id="&lt;Group&gt;">
						<path id="&lt;Path&gt;" class="s0" d="m92.3 663.2l17.6 10.1c2.7 1.6 4.9 5.4 4.9 8.6v10c0 3.2-2.2 4.5-4.9 2.9l-17.6-10.1c-2.7-1.5-4.9-5.4-4.9-8.6v-10c0-3.2 2.2-4.5 4.9-2.9z"/>
						<g id="&lt;Group&gt;">
							<g id="&lt;Group&gt;">
								<path id="&lt;Path&gt;" class="s2" d="m97.1 674.5l2.2-1.3h0.1c0.7-0.4 1.8-0.4 3 0.3 2.4 1.4 4.3 4.8 4.3 7.5 0 1.4-0.5 2.4-1.3 2.8l-2.1 1.2-0.4-0.6q-0.5-0.1-1.2-0.5c-2.4-1.4-4.3-4.7-4.3-7.5q0-0.6 0.1-1.1z"/>
								<path id="&lt;Path&gt;" class="s12" d="m97.1 674.5l2.2-1.3h0.1c0.7-0.4 1.8-0.4 3 0.3 2.4 1.4 4.3 4.8 4.3 7.5 0 1.4-0.5 2.4-1.3 2.8l-2.1 1.2-0.4-0.6q-0.5-0.1-1.2-0.5c-2.4-1.4-4.3-4.7-4.3-7.5q0-0.6 0.1-1.1z"/>
								<path id="&lt;Path&gt;" class="s2" d="m100.2 674.8c2.4 1.4 4.3 4.7 4.3 7.5 0 2.7-1.9 3.8-4.3 2.5-2.4-1.4-4.3-4.8-4.3-7.5 0-2.8 1.9-3.9 4.3-2.5z"/>
							</g>
						</g>
					</g>
					<g id="&lt;Group&gt;">
						<path id="&lt;Path&gt;" class="s9" d="m128.9 680.5l85 49.1c1.6 0.9 2.8 3 2.8 4.7v23.5c0 1.8-1.3 2.5-2.8 1.6l-85-49c-1.5-0.9-2.7-3-2.7-4.8v-23.5c0-1.7 1.2-2.4 2.7-1.6z"/>
						<path id="&lt;Path&gt;" class="s2" d="m131.3 690.9c0 1.6 1.3 3.7 2.8 4.6l74.7 43c1.5 0.9 2.7 0.3 2.7-1.4 0-1.6-1.2-3.7-2.7-4.5l-74.7-43.1c-1.5-0.9-2.8-0.3-2.8 1.4z"/>
						<path id="&lt;Path&gt;" class="s11" d="m131.3 702.8c0 1.7 1.3 3.7 2.8 4.6l74.7 43.1c1.5 0.8 2.7 0.2 2.7-1.4 0-1.7-1.2-3.7-2.7-4.6l-74.7-43.1c-1.5-0.9-2.8-0.2-2.8 1.4z"/>
						<path id="&lt;Path&gt;" class="s2" d="m134.1 701.4l51.6 29.8v5.9l-51.6-29.7c-1.5-0.9-2.8-2.9-2.8-4.6 0-1.6 1.3-2.3 2.8-1.4z"/>
					</g>
				</g>
				<g id="&lt;Group&gt;">
					<g id="&lt;Group&gt;">
						<g id="&lt;Group&gt;">
							<path id="&lt;Compound Path&gt;" fill-rule="evenodd" class="s8" d="m283.9 640.1q-1 0-1.9-0.5c-1.3-0.8-2-2.3-2-4.3v-11.1c0-3.8 2.6-8.3 5.9-10.2l81.2-46.9c1.8-1 3.4-1.2 4.8-0.4 1.3 0.8 2 2.3 2 4.3v11.1c0 3.8-2.6 8.3-5.9 10.2l-81.2 46.9q-1.5 0.9-2.9 0.9zm86.1-72.1q-0.9 0-2 0.7l-81.2 46.9c-2.7 1.5-5 5.5-5 8.6v11.1c0 1.3 0.4 2.3 1.1 2.7 0.8 0.4 1.8 0.3 3-0.4l81.2-46.9c2.7-1.5 5-5.5 5-8.6v-11.1c0-1.3-0.4-2.3-1.1-2.7q-0.5-0.3-1-0.3z"/>
						</g>
						<g id="&lt;Group&gt;">
							<path id="&lt;Path&gt;" class="s2" d="m367.3 577.2v5.4c0 0.7-0.5 1.5-1.1 1.9l-1.3 0.7c-0.6 0.3-1.1 0-1.1-0.7v-5.3c0-0.7 0.5-1.6 1.1-1.9l1.3-0.7c0.6-0.4 1.1-0.1 1.1 0.6z"/>
							<path id="&lt;Path&gt;" class="s2" d="m361.7 580.4v5.4c0 0.7-0.4 1.5-1 1.8l-1.3 0.8c-0.6 0.3-1.1 0-1.1-0.7v-5.3c0-0.7 0.5-1.6 1.1-1.9l1.3-0.7c0.6-0.4 1-0.1 1 0.6z"/>
							<path id="&lt;Path&gt;" class="s2" d="m356.2 583.6v5.3c0 0.7-0.5 1.6-1.1 1.9l-1.2 0.7c-0.6 0.4-1.1 0.1-1.1-0.6v-5.4c0-0.6 0.5-1.5 1.1-1.8l1.2-0.8c0.6-0.3 1.1 0 1.1 0.7z"/>
							<path id="&lt;Path&gt;" class="s2" d="m350.7 586.8v5.3c0 0.7-0.5 1.6-1.1 1.9l-1.2 0.7c-0.6 0.4-1.1 0.1-1.1-0.6v-5.4c0-0.7 0.5-1.5 1.1-1.9l1.2-0.7c0.6-0.3 1.1 0 1.1 0.7z"/>
							<path id="&lt;Path&gt;" class="s9" d="m345.2 589.9v5.4c0 0.7-0.5 1.5-1.1 1.9l-1.2 0.7c-0.6 0.3-1.1 0.1-1.1-0.6v-5.4c0-0.7 0.5-1.5 1.1-1.9l1.2-0.7c0.6-0.3 1.1-0.1 1.1 0.6z"/>
							<path id="&lt;Path&gt;" class="s9" d="m339.7 593.1v5.4c0 0.7-0.5 1.5-1.1 1.9l-1.2 0.7c-0.6 0.3-1.1 0-1.1-0.7v-5.3c0-0.7 0.5-1.6 1.1-1.9l1.2-0.7c0.6-0.4 1.1-0.1 1.1 0.6z"/>
							<path id="&lt;Path&gt;" class="s2" d="m334.2 596.3v5.4c0 0.6-0.5 1.5-1.1 1.8l-1.3 0.8c-0.6 0.3-1 0-1-0.7v-5.3c0-0.7 0.4-1.6 1-1.9l1.3-0.7c0.6-0.4 1.1-0.1 1.1 0.6z"/>
							<path id="&lt;Path&gt;" class="s2" d="m328.6 599.5v5.3c0 0.7-0.4 1.6-1 1.9l-1.3 0.7c-0.6 0.4-1.1 0.1-1.1-0.6v-5.4c0-0.7 0.5-1.5 1.1-1.8l1.3-0.8c0.6-0.3 1 0 1 0.7z"/>
							<path id="&lt;Path&gt;" class="s2" d="m323.1 602.7v5.3c0 0.7-0.5 1.6-1.1 1.9l-1.2 0.7c-0.6 0.4-1.1 0.1-1.1-0.6v-5.4c0-0.7 0.5-1.5 1.1-1.9l1.2-0.7c0.6-0.3 1.1 0 1.1 0.7z"/>
							<path id="&lt;Path&gt;" class="s9" d="m317.6 605.8v5.4c0 0.7-0.5 1.5-1.1 1.9l-1.2 0.7c-0.6 0.3-1.1 0.1-1.1-0.6v-5.4c0-0.7 0.5-1.5 1.1-1.9l1.2-0.7c0.6-0.3 1.1-0.1 1.1 0.6z"/>
							<path id="&lt;Path&gt;" class="s2" d="m312.1 609v5.4c0 0.7-0.5 1.5-1.1 1.9l-1.2 0.7c-0.6 0.3-1.1 0-1.1-0.7v-5.3c0-0.7 0.5-1.6 1.1-1.9l1.2-0.7c0.6-0.4 1.1-0.1 1.1 0.6z"/>
							<path id="&lt;Path&gt;" class="s2" d="m306.6 612.2v5.4c0 0.6-0.5 1.5-1.1 1.8l-1.2 0.8c-0.6 0.3-1.1 0-1.1-0.7v-5.3c0-0.7 0.5-1.6 1.1-1.9l1.2-0.7c0.6-0.4 1.1-0.1 1.1 0.6z"/>
							<path id="&lt;Path&gt;" class="s9" d="m301.1 615.4v5.3c0 0.7-0.5 1.6-1.1 1.9l-1.2 0.7c-0.7 0.4-1.1 0.1-1.1-0.6v-5.4c0-0.7 0.4-1.5 1.1-1.8l1.2-0.8c0.6-0.3 1.1 0 1.1 0.7z"/>
							<path id="&lt;Path&gt;" class="s2" d="m295.6 618.6v5.3c0 0.7-0.5 1.6-1.1 1.9l-1.3 0.7c-0.6 0.4-1.1 0.1-1.1-0.6v-5.4c0-0.7 0.5-1.5 1.1-1.9l1.3-0.7c0.6-0.3 1.1 0 1.1 0.7z"/>
							<path id="&lt;Path&gt;" class="s9" d="m290 621.7v5.4c0 0.7-0.4 1.5-1.1 1.9l-1.2 0.7c-0.6 0.3-1.1 0.1-1.1-0.6v-5.4c0-0.7 0.5-1.5 1.1-1.9l1.2-0.7c0.7-0.3 1.1-0.1 1.1 0.6z"/>
						</g>
					</g>
				</g>
				<g id="&lt;Group&gt;">
					<g id="&lt;Group&gt;">
						<g id="&lt;Group&gt;">
							<path id="&lt;Path&gt;" class="s9" d="m272.7 632.5l-2.3-1.3v-0.1c-0.8-0.4-1.9-0.3-3.1 0.4-2.4 1.3-4.3 4.7-4.3 7.4 0 1.4 0.5 2.4 1.3 2.8l2.1 1.2 0.4-0.6q0.6-0.1 1.2-0.5c2.4-1.4 4.3-4.7 4.3-7.5q0-0.6-0.1-1.1z"/>
							<path id="&lt;Path&gt;" class="s8" d="m269.5 632.7c-2.4 1.4-4.3 4.7-4.3 7.5 0 2.8 1.9 3.9 4.3 2.5 2.4-1.4 4.3-4.7 4.3-7.5 0-2.7-1.9-3.9-4.3-2.5z"/>
						</g>
						<g id="&lt;Group&gt;">
							<path id="&lt;Path&gt;" class="s9" d="m253.9 643.3l-2.3-1.3c-0.8-0.5-1.8-0.4-3 0.3-2.4 1.4-4.3 4.7-4.3 7.5 0 1.3 0.4 2.3 1.2 2.8l2.1 1.2 0.4-0.7q0.6-0.1 1.3-0.5c2.3-1.3 4.3-4.7 4.3-7.4q0-0.6-0.2-1.1z"/>
							<path id="&lt;Path&gt;" class="s8" d="m250.8 643.5c-2.4 1.4-4.4 4.8-4.4 7.5 0 2.8 2 3.9 4.4 2.5 2.4-1.4 4.3-4.7 4.3-7.5 0-2.7-1.9-3.8-4.3-2.5z"/>
						</g>
					</g>
				</g>
				<g id="&lt;Group&gt;">
					<g id="&lt;Group&gt;">
						<path id="&lt;Path&gt;" class="s8" d="m128.9 632l85 49c1.6 0.9 2.8 3 2.8 4.8v23.5c0 1.7-1.3 2.4-2.8 1.6l-85-49.1c-1.5-0.9-2.7-3-2.7-4.8v-23.4c0-1.8 1.2-2.5 2.7-1.6z"/>
						<path id="&lt;Path&gt;" class="s2" d="m131.3 642.3c0 1.7 1.3 3.7 2.8 4.6l74.7 43.1c1.5 0.8 2.7 0.2 2.7-1.4 0-1.7-1.2-3.7-2.7-4.6l-74.7-43.1c-1.5-0.9-2.8-0.2-2.8 1.4z"/>
						<path id="&lt;Path&gt;" class="s11" d="m131.3 654.3c0 1.6 1.3 3.7 2.8 4.5l74.7 43.1c1.5 0.9 2.7 0.3 2.7-1.4 0-1.6-1.2-3.7-2.7-4.6l-74.7-43c-1.5-0.9-2.8-0.3-2.8 1.4z"/>
						<path id="&lt;Path&gt;" class="s2" d="m134.1 652.9l41.2 23.7v6l-41.2-23.8c-1.5-0.8-2.8-2.9-2.8-4.5 0-1.7 1.3-2.3 2.8-1.4z"/>
					</g>
					<g id="&lt;Group&gt;">
						<path id="&lt;Path&gt;" class="s0" d="m92.3 614.8l17.6 10.1c2.7 1.5 4.9 5.4 4.9 8.6v10c0 3.2-2.2 4.5-4.9 2.9l-17.6-10.1c-2.7-1.6-4.9-5.4-4.9-8.6v-10.1c0-3.1 2.2-4.4 4.9-2.8z"/>
						<g id="&lt;Group&gt;">
							<g id="&lt;Group&gt;">
								<path id="&lt;Path&gt;" class="s2" d="m97.1 626.1l2.2-1.3h0.1c0.7-0.4 1.8-0.4 3 0.3 2.4 1.4 4.3 4.7 4.3 7.5 0 1.4-0.5 2.3-1.3 2.8l-2.1 1.2-0.4-0.6q-0.5-0.2-1.2-0.5c-2.4-1.4-4.3-4.7-4.3-7.5q0-0.6 0.1-1.1z"/>
								<path id="&lt;Path&gt;" class="s12" d="m97.1 626.1l2.2-1.3h0.1c0.7-0.4 1.8-0.4 3 0.3 2.4 1.4 4.3 4.7 4.3 7.5 0 1.4-0.5 2.3-1.3 2.8l-2.1 1.2-0.4-0.6q-0.5-0.2-1.2-0.5c-2.4-1.4-4.3-4.7-4.3-7.5q0-0.6 0.1-1.1z"/>
								<path id="&lt;Path&gt;" class="s2" d="m100.2 626.4c2.4 1.3 4.3 4.7 4.3 7.5 0 2.7-1.9 3.8-4.3 2.4-2.4-1.3-4.3-4.7-4.3-7.4 0-2.8 1.9-3.9 4.3-2.5z"/>
							</g>
						</g>
					</g>
					<g id="&lt;Group&gt;">
						<path id="&lt;Path&gt;" class="s9" d="m128.9 632l85 49c1.6 0.9 2.8 3 2.8 4.8v23.5c0 1.7-1.3 2.4-2.8 1.6l-85-49.1c-1.5-0.9-2.7-3-2.7-4.8v-23.4c0-1.8 1.2-2.5 2.7-1.6z"/>
						<path id="&lt;Path&gt;" class="s2" d="m131.3 642.3c0 1.7 1.3 3.7 2.8 4.6l74.7 43.1c1.5 0.8 2.7 0.2 2.7-1.4 0-1.7-1.2-3.7-2.7-4.6l-74.7-43.1c-1.5-0.9-2.8-0.2-2.8 1.4z"/>
						<path id="&lt;Path&gt;" class="s11" d="m131.3 654.3c0 1.6 1.3 3.7 2.8 4.5l74.7 43.1c1.5 0.9 2.7 0.3 2.7-1.4 0-1.6-1.2-3.7-2.7-4.6l-74.7-43c-1.5-0.9-2.8-0.3-2.8 1.4z"/>
						<path id="&lt;Path&gt;" class="s2" d="m134.1 652.9l41.2 23.7v6l-41.2-23.8c-1.5-0.8-2.8-2.9-2.8-4.5 0-1.7 1.3-2.3 2.8-1.4z"/>
					</g>
				</g>
				<g id="&lt;Group&gt;">
					<path id="&lt;Path&gt;" class="s0" d="m92.3 711.9l17.6 10.1c2.7 1.6 4.9 5.4 4.9 8.6v10c0 3.2-2.2 4.5-4.9 2.9l-17.6-10.1c-2.7-1.5-4.9-5.4-4.9-8.6v-10c0-3.2 2.2-4.5 4.9-2.9z"/>
					<g id="&lt;Group&gt;">
						<g id="&lt;Group&gt;">
							<path id="&lt;Path&gt;" class="s2" d="m97.1 723.3l2.2-1.4h0.1c0.7-0.4 1.8-0.3 3 0.3 2.4 1.4 4.3 4.8 4.3 7.5 0 1.4-0.5 2.4-1.3 2.8l-2.1 1.2-0.4-0.6q-0.5-0.1-1.2-0.5c-2.4-1.4-4.3-4.7-4.3-7.5q0-0.6 0.1-1.1z"/>
							<path id="&lt;Path&gt;" class="s12" d="m97.1 723.3l2.2-1.4h0.1c0.7-0.4 1.8-0.3 3 0.3 2.4 1.4 4.3 4.8 4.3 7.5 0 1.4-0.5 2.4-1.3 2.8l-2.1 1.2-0.4-0.6q-0.5-0.1-1.2-0.5c-2.4-1.4-4.3-4.7-4.3-7.5q0-0.6 0.1-1.1z"/>
							<path id="&lt;Path&gt;" class="s2" d="m100.2 723.5c2.4 1.4 4.3 4.7 4.3 7.5 0 2.7-1.9 3.9-4.3 2.5-2.4-1.4-4.3-4.8-4.3-7.5 0-2.8 1.9-3.9 4.3-2.5z"/>
						</g>
					</g>
				</g>
				<g id="&lt;Group&gt;">
					<path id="&lt;Path&gt;" class="s9" d="m128.9 729.1l85 49c1.6 0.9 2.8 3.1 2.8 4.8v23.5c0 1.8-1.3 2.5-2.8 1.6l-85-49.1c-1.5-0.8-2.7-3-2.7-4.7v-23.5c0-1.8 1.2-2.5 2.7-1.6z"/>
					<path id="&lt;Path&gt;" class="s2" d="m131.3 739.5c0 1.6 1.3 3.6 2.8 4.5l74.7 43.1c1.5 0.9 2.7 0.3 2.7-1.4 0-1.6-1.2-3.7-2.7-4.6l-74.7-43c-1.5-0.9-2.8-0.3-2.8 1.4z"/>
					<path id="&lt;Path&gt;" class="s11" d="m131.3 751.4c0 1.6 1.3 3.7 2.8 4.6l74.7 43c1.5 0.9 2.7 0.3 2.7-1.4 0-1.6-1.2-3.7-2.7-4.5l-74.7-43.1c-1.5-0.9-2.8-0.3-2.8 1.4z"/>
					<path id="&lt;Path&gt;" class="s2" d="m134.1 750l41.2 23.8v5.9l-41.2-23.7c-1.5-0.9-2.8-3-2.8-4.6 0-1.7 1.3-2.3 2.8-1.4z"/>
				</g>
			</g>
			<g id="&lt;Group&gt;">
				<path id="&lt;Path&gt;" class="s7" d="m349.9 307.1l-113.4 65.5c-1.6 0.9-4.2 0.9-5.9 0l-113.3-65.5c-1.7-0.9-1.7-2.4 0-3.4l113.3-63.2c1.7-0.9 4.3-0.9 5.9 0l113.4 63.2c1.6 1 1.6 2.5 0 3.4z"/>
				<path id="&lt;Path&gt;" class="s2" d="m236.4 369l108.5-62.7c1.5-0.9 2.8-3 2.8-4.8v-3.7c0-1.8-1.3-3.9-2.8-4.8l-108.5-62.7c-1.6-0.9-4.1-0.9-5.6 0l-108.5 62.7c-1.6 0.9-2.8 3-2.8 4.8v3.7c0 1.8 1.2 3.9 2.8 4.8l108.5 62.7c1.5 0.9 4 0.9 5.6 0z"/>
				<path id="&lt;Path&gt;" class="s3" d="m236.4 369l108.5-62.7c1.5-0.9 2.8-3 2.8-4.8v-3.7c0-1.8-1.3-3.9-2.8-4.8l-108.5-62.7c-1.6-0.9-4.1-0.9-5.6 0l-108.5 62.7c-1.6 0.9-2.8 3-2.8 4.8v3.7c0 1.8 1.2 3.9 2.8 4.8l108.5 62.7c1.5 0.9 4 0.9 5.6 0z"/>
				<path id="&lt;Path&gt;" class="s13" d="m236.4 369l108.5-62.7c1.5-0.9 2.8-3 2.8-4.8v-3.7c0-1.8-1.3-3.9-2.8-4.8l-108.5-62.7c-1.6-0.9-4.1-0.9-5.6 0l-108.5 62.7c-1.6 0.9-2.8 3-2.8 4.8v3.7c0 1.8 1.2 3.9 2.8 4.8l108.5 62.7c1.5 0.9 4 0.9 5.6 0z"/>
				<path id="&lt;Path&gt;" class="s2" d="m344.9 296.2l-108.5 62.6c-1.6 0.9-4.1 0.9-5.6 0l-108.5-62.6c-1.6-0.9-1.6-2.3 0-3.2l108.5-60.5c1.5-0.9 4-0.9 5.6 0l108.5 60.5c1.5 0.9 1.5 2.3 0 3.2z"/>
				<path id="&lt;Path&gt;" class="s14" d="m344.9 296.2l-108.5 62.6c-1.6 0.9-4.1 0.9-5.6 0l-108.5-62.6c-1.6-0.9-1.6-2.3 0-3.2l108.5-60.5c1.5-0.9 4-0.9 5.6 0l108.5 60.5c1.5 0.9 1.5 2.3 0 3.2z"/>
				<path id="&lt;Path&gt;" class="s2" d="m233.6 359.5v10.1c1 0 2-0.2 2.8-0.6l108.5-62.7c1.5-0.9 2.8-3 2.8-4.8v-3.7c0-1.6-1-3.4-2.3-4.5 1 0.9 0.8 2.1-0.5 2.9l-108.5 62.6c-0.8 0.5-1.8 0.7-2.8 0.7z"/>
				<path id="&lt;Path&gt;" class="s15" d="m233.6 359.5v10.1c1 0 2-0.2 2.8-0.6l108.5-62.7c1.5-0.9 2.8-3 2.8-4.8v-3.7c0-1.6-1-3.4-2.3-4.5 1 0.9 0.8 2.1-0.5 2.9l-108.5 62.6c-0.8 0.5-1.8 0.7-2.8 0.7z"/>
			</g>
			<g id="&lt;Group&gt;">
				<path id="&lt;Path&gt;" class="s11" d="m236.4 338.6l73.3-42.4c1.6-0.9 2.9-3.1 2.9-4.9v-3.6c0-1.8-1.3-4-2.9-4.9l-47-27.1c-1.5-0.9-3.7-2.8-4.7-4.3l-22.5-30.2c-1.1-1.5-3.2-1.9-4.7-1l-73.4 42.4c-1.6 0.9-2.8 3-2.8 4.8v23.9c0 1.8 1.2 4 2.8 4.9l73.4 42.4c1.5 0.9 4 0.9 5.6 0z"/>
				<path id="&lt;Path&gt;" class="s8" d="m230.8 328.4l-47.1-27.1c-0.7-0.5-1.6-1.1-2.4-1.8-0.9-0.8-1.8-1.7-2.3-2.4l-22.5-30.3c-1.1-1.5-0.7-3.3 0.9-4.2l73.4-42.4c1.5-0.9 3.6-0.5 4.7 1l22.5 30.2c1 1.5 2.8 3.5 4.3 4.4l47.4 27c1.6 0.9 1.6 2.4 0 3.3l-73.3 42.3c-1.6 0.9-4.1 0.9-5.6 0z"/>
				<path id="&lt;Path&gt;" class="s9" d="m157.4 262.6l73.4-42.4c1.5-0.9 3.6-0.5 4.7 1l22.5 30.2c0.5 0.8 1.4 1.7 2.3 2.4 0 0-79 45.7-79 45.6-0.9-0.7-1.8-1.6-2.3-2.3l-22.5-30.3c-1.1-1.5-0.7-3.3 0.9-4.2z"/>
				<g id="&lt;Group&gt;">
					<path id="&lt;Path&gt;" class="s2" d="m291.9 283.6c-1.8-1.1-4.7-1.1-6.5 0-1.9 1-1.9 2.7 0 3.8 1.8 1 4.7 1 6.5 0 1.9-1.1 1.9-2.8 0-3.8z"/>
					<path id="&lt;Path&gt;" class="s2" d="m278.8 291.2c-1.8-1.1-4.8-1.1-6.6 0-1.8 1-1.8 2.7 0 3.8 1.8 1 4.8 1 6.6 0 1.8-1.1 1.8-2.8 0-3.8z"/>
					<path id="&lt;Path&gt;" class="s11" d="m265.6 298.8c-1.8-1.1-4.8-1.1-6.6 0-1.8 1-1.8 2.7 0 3.8 1.8 1 4.8 1 6.6 0 1.8-1.1 1.8-2.8 0-3.8z"/>
					<path id="&lt;Path&gt;" class="s11" d="m252.4 306.4c-1.8-1.1-4.7-1.1-6.5 0-1.9 1-1.9 2.7 0 3.8 1.8 1 4.7 1 6.5 0 1.9-1.1 1.9-2.8 0-3.8z"/>
					<path id="&lt;Path&gt;" class="s2" d="m282.1 277.9c-1.8-1.1-4.8-1.1-6.6 0-1.8 1-1.8 2.7 0 3.8 1.8 1 4.8 1 6.6 0 1.8-1.1 1.8-2.8 0-3.8z"/>
					<path id="&lt;Path&gt;" class="s11" d="m268.9 285.5c-1.8-1.1-4.8-1.1-6.6 0-1.8 1-1.8 2.7 0 3.8 1.8 1 4.8 1 6.6 0 1.8-1.1 1.8-2.8 0-3.8z"/>
					<path id="&lt;Path&gt;" class="s2" d="m255.7 293.1c-1.8-1.1-4.7-1.1-6.5 0-1.9 1-1.9 2.7 0 3.8 1.8 1 4.7 1 6.5 0 1.9-1.1 1.9-2.8 0-3.8z"/>
					<path id="&lt;Path&gt;" class="s11" d="m242.6 300.7c-1.8-1.1-4.8-1.1-6.6 0-1.8 1-1.8 2.7 0 3.8 1.8 1 4.8 1 6.6 0 1.8-1.1 1.8-2.8 0-3.8z"/>
					<path id="&lt;Path&gt;" class="s11" d="m272.2 272.2c-1.8-1.1-4.8-1.1-6.6 0-1.8 1-1.8 2.7 0 3.8 1.8 1 4.8 1 6.6 0 1.8-1.1 1.8-2.8 0-3.8z"/>
					<path id="&lt;Path&gt;" class="s2" d="m259 279.8c-1.8-1.1-4.7-1.1-6.6 0-1.8 1-1.8 2.7 0 3.8 1.9 1 4.8 1 6.6 0 1.8-1.1 1.8-2.8 0-3.8z"/>
					<path id="&lt;Path&gt;" class="s11" d="m245.9 287.4c-1.8-1.1-4.8-1.1-6.6 0-1.8 1-1.8 2.7 0 3.8 1.8 1 4.8 1 6.6 0 1.8-1.1 1.8-2.8 0-3.8z"/>
					<path id="&lt;Path&gt;" class="s2" d="m239.2 313.8c-1.8-1-4.8-1-6.6 0-1.8 1.1-1.8 2.8 0 3.8 1.8 1.1 4.8 1.1 6.6 0 1.8-1 1.8-2.7 0-3.8z"/>
					<path id="&lt;Path&gt;" class="s11" d="m229.3 308.1c-1.8-1-4.7-1-6.5 0-1.9 1.1-1.9 2.8 0 3.8 1.8 1.1 4.7 1.1 6.5 0 1.9-1 1.9-2.7 0-3.8z"/>
					<path id="&lt;Path&gt;" class="s11" d="m232.7 295c-1.8-1.1-4.8-1.1-6.6 0-1.8 1-1.8 2.7 0 3.8 1.8 1 4.8 1 6.6 0 1.8-1.1 1.8-2.8 0-3.8z"/>
					<path id="&lt;Path&gt;" class="s2" d="m262.3 266.5c-1.8-1.1-4.7-1.1-6.6 0-1.8 1-1.8 2.7 0 3.8 1.9 1 4.8 1 6.6 0 1.8-1.1 1.8-2.8 0-3.8z"/>
					<path id="&lt;Path&gt;" class="s11" d="m249.2 274.1c-1.9-1.1-4.8-1.1-6.6 0-1.8 1-1.8 2.7 0 3.8 1.8 1 4.7 1 6.6 0 1.8-1.1 1.8-2.8 0-3.8z"/>
					<path id="&lt;Path&gt;" class="s2" d="m236 281.7c-1.8-1.1-4.8-1.1-6.6 0-1.8 1-1.8 2.7 0 3.8 1.8 1 4.8 1 6.6 0 1.8-1.1 1.8-2.8 0-3.8z"/>
					<path id="&lt;Path&gt;" class="s11" d="m222.8 289.3c-1.8-1.1-4.7-1.1-6.6 0-1.8 1-1.8 2.7 0 3.8 1.9 1 4.8 1 6.6 0 1.8-1.1 1.8-2.8 0-3.8z"/>
					<path id="&lt;Path&gt;" class="s2" d="m219.5 302.4c-1.9-1-4.8-1-6.6 0-1.8 1.1-1.8 2.8 0 3.8 1.8 1.1 4.7 1.1 6.6 0 1.8-1 1.8-2.7 0-3.8z"/>
					<path id="&lt;Path&gt;" class="s11" d="m209.6 296.7c-1.8-1-4.8-1-6.6 0-1.8 1.1-1.8 2.8 0 3.8 1.8 1.1 4.8 1.1 6.6 0 1.8-1 1.8-2.7 0-3.8z"/>
				</g>
				<path id="&lt;Path&gt;" class="s9" d="m233.4 329.1v10.1c1.1 0 2.1-0.2 3-0.6l73.3-42.4c1.6-0.9 2.9-3.1 2.9-4.9v-3.6c0-1.6-1-3.5-2.3-4.5 1 0.9 0.8 2.1-0.6 2.9l-73.3 42.3c-0.9 0.5-1.9 0.7-3 0.7z"/>
				<g id="&lt;Group&gt;">
					<path id="&lt;Path&gt;" class="s11" d="m248.3 250.2l-0.1-0.1c-0.7-1-2.1-1.3-3.2-0.7l-63.8 36.9c-1 0.6-1.3 1.9-0.6 2.8l0.1 0.1c0.7 1 2.1 1.3 3.1 0.7l63.9-36.9c1-0.6 1.3-1.9 0.6-2.8z"/>
					<path id="&lt;Path&gt;" class="s2" d="m248.3 250.2l-0.1-0.1c-0.7-1-2.1-1.3-3.2-0.7l-47.4 27.4 2.6 3.6 47.5-27.4c1-0.6 1.3-1.9 0.6-2.8z"/>
					<path id="&lt;Path&gt;" class="s11" d="m243 243.1l-0.1-0.1c-0.7-0.9-2.1-1.2-3.1-0.6l-63.9 36.8c-1 0.6-1.3 1.9-0.6 2.8l0.1 0.1c0.7 1 2.1 1.3 3.2 0.7l63.8-36.9c1-0.6 1.3-1.8 0.6-2.8z"/>
					<path id="&lt;Path&gt;" class="s2" d="m243 243.1l-0.1-0.1c-0.7-0.9-2.1-1.2-3.1-0.6l-15.9 9.1 2.6 3.6 15.9-9.2c1-0.6 1.3-1.8 0.6-2.8z"/>
					<path id="&lt;Path&gt;" class="s11" d="m237.7 236l-0.1-0.1c-0.7-0.9-2.1-1.2-3.1-0.6l-63.9 36.8c-1 0.6-1.3 1.9-0.6 2.8l0.1 0.1c0.7 1 2.1 1.3 3.2 0.7l63.8-36.9c1-0.6 1.3-1.8 0.6-2.8z"/>
					<path id="&lt;Path&gt;" class="s2" d="m237.7 236l-0.1-0.1c-0.7-0.9-2.1-1.2-3.1-0.6l-33.3 19.1 2.7 3.6 33.2-19.2c1-0.6 1.3-1.8 0.6-2.8z"/>
					<path id="&lt;Path&gt;" class="s11" d="m232.4 228.9v-0.1c-0.8-0.9-2.2-1.2-3.2-0.6l-63.9 36.9c-1 0.5-1.2 1.8-0.5 2.8v0.1c0.7 0.9 2.2 1.2 3.2 0.6l63.8-36.9c1.1-0.5 1.3-1.8 0.6-2.8z"/>
					<path id="&lt;Path&gt;" class="s2" d="m232.4 228.9v-0.1c-0.8-0.9-2.2-1.2-3.2-0.6l-58 33.4 2.7 3.6 57.9-33.5c1.1-0.5 1.3-1.8 0.6-2.8z"/>
				</g>
			</g>
			<g id="&lt;Group&gt;">
				<g id="&lt;Group&gt;">
					<path id="&lt;Path&gt;" class="s4" d="m244 807.6v-17c0-1.8 1.2-3.9 2.8-4.8l20.3-11.7c1.5-0.9 2.8-0.2 2.8 1.5v17.1c0 1.8-1.2 3.9-2.8 4.8l-20.3 11.7c-1.5 0.9-2.8 0.2-2.8-1.6z"/>
					<g id="&lt;Group&gt;">
						<g id="&lt;Group&gt;">
							<g id="&lt;Group&gt;">
								<path id="&lt;Path&gt;" class="s2" d="m256.5 797.2l-2.3-1.3c-0.8-0.5-1.3-1.5-1.3-2.8 0-2.8 1.9-6.1 4.3-7.5 1.2-0.7 2.3-0.8 3.1-0.3l2.1 1.2-0.4 0.7q0.2 0.5 0.2 1.3c0 2.7-1.9 6.1-4.3 7.5q-0.5 0.3-1 0.4z"/>
								<path id="&lt;Path&gt;" class="s12" d="m256.5 797.2l-2.3-1.3c-0.8-0.5-1.3-1.5-1.3-2.8 0-2.8 1.9-6.1 4.3-7.5 1.2-0.7 2.3-0.8 3.1-0.3l2.1 1.2-0.4 0.7q0.2 0.5 0.2 1.3c0 2.7-1.9 6.1-4.3 7.5q-0.5 0.3-1 0.4z"/>
								<path id="&lt;Path&gt;" class="s2" d="m255.1 794.3c0-2.7 1.9-6.1 4.3-7.4 2.4-1.4 4.3-0.3 4.3 2.4 0 2.8-1.9 6.2-4.3 7.5-2.4 1.4-4.3 0.3-4.3-2.5z"/>
							</g>
						</g>
					</g>
				</g>
				<g id="&lt;Group&gt;">
					<path id="&lt;Path&gt;" class="s8" d="m244 775.6v-85.8c0-1.7 1.2-3.9 2.8-4.7l20.3-11.8c1.5-0.9 2.8-0.1 2.8 1.6v85.8c0 1.8-1.2 3.9-2.8 4.8l-20.3 11.7c-1.5 0.9-2.8 0.2-2.8-1.6z"/>
					<path id="&lt;Path&gt;" class="s2" d="m251.8 768.4c1.4-0.9 2.6-2.9 2.6-4.7l-0.1-73.9c0-1.7-1.1-2.5-2.5-1.7-1.5 0.9-2.6 3-2.6 4.7v73.9c0 1.7 1.2 2.5 2.6 1.7z"/>
					<path id="&lt;Path&gt;" class="s11" d="m262.1 762.4c1.5-0.8 2.6-2.9 2.6-4.7v-73.8c0-1.8-1.2-2.6-2.6-1.7-1.4 0.8-2.6 2.9-2.6 4.6l0.1 73.9c0 1.8 1.1 2.5 2.5 1.7z"/>
					<path id="&lt;Path&gt;" class="s2" d="m259.6 760.7l-0.1-52.7 5.2-3v52.7c0 1.8-1.1 3.9-2.6 4.7-1.4 0.8-2.5 0.1-2.5-1.7z"/>
				</g>
			</g>
			<g id="&lt;Group&gt;">
				<g id="&lt;Group&gt;">
					<path id="&lt;Path&gt;" class="s4" d="m279 787.5v-17.1c0-1.7 1.2-3.9 2.7-4.8l20.3-11.7c1.6-0.9 2.8-0.2 2.8 1.6v17c0 1.8-1.2 3.9-2.7 4.8l-20.3 11.8c-1.6 0.8-2.8 0.1-2.8-1.6z"/>
					<g id="&lt;Group&gt;">
						<g id="&lt;Group&gt;">
							<g id="&lt;Group&gt;">
								<path id="&lt;Path&gt;" class="s2" d="m291.4 777l-2.3-1.3c-0.8-0.4-1.2-1.4-1.2-2.8 0-2.7 1.9-6.1 4.3-7.5 1.2-0.6 2.2-0.7 3-0.3l2.1 1.3-0.3 0.6q0.2 0.6 0.2 1.3c0 2.8-2 6.1-4.3 7.5q-0.6 0.3-1.1 0.5z"/>
								<path id="&lt;Path&gt;" class="s12" d="m291.4 777l-2.3-1.3c-0.8-0.4-1.2-1.4-1.2-2.8 0-2.7 1.9-6.1 4.3-7.5 1.2-0.6 2.2-0.7 3-0.3l2.1 1.3-0.3 0.6q0.2 0.6 0.2 1.3c0 2.8-2 6.1-4.3 7.5q-0.6 0.3-1.1 0.5z"/>
								<path id="&lt;Path&gt;" class="s2" d="m290 774.2c0-2.8 2-6.1 4.4-7.5 2.3-1.4 4.3-0.3 4.3 2.5 0 2.8-2 6.1-4.3 7.5-2.4 1.4-4.4 0.2-4.4-2.5z"/>
							</g>
						</g>
					</g>
				</g>
				<g id="&lt;Group&gt;">
					<path id="&lt;Path&gt;" class="s8" d="m279 755.5v-85.8c0-1.8 1.2-3.9 2.7-4.8l20.3-11.7c1.6-0.9 2.8-0.2 2.8 1.6v85.8c0 1.7-1.2 3.9-2.7 4.7l-20.3 11.8c-1.6 0.9-2.8 0.1-2.8-1.6z"/>
					<path id="&lt;Path&gt;" class="s11" d="m289.3 669.7c0-1.8-1.2-2.5-2.6-1.7-1.4 0.8-2.6 2.9-2.6 4.7l0.1 73.8c0 1.8 1.1 2.5 2.5 1.7 1.5-0.8 2.6-2.9 2.6-4.6z"/>
					<path id="&lt;Path&gt;" class="s2" d="m289.3 727.2l-5.2 3 0.1 16.3c0 1.8 1.1 2.5 2.5 1.7 1.5-0.8 2.6-2.9 2.6-4.6z"/>
					<path id="&lt;Path&gt;" class="s11" d="m297.1 742.3c1.4-0.9 2.6-3 2.6-4.7l-0.1-73.9c0-1.7-1.1-2.5-2.6-1.7-1.4 0.9-2.5 2.9-2.5 4.7v73.9c0 1.7 1.2 2.5 2.6 1.7z"/>
					<path id="&lt;Path&gt;" class="s2" d="m294.5 740.6v-52.7l5.1-3 0.1 52.7c0 1.7-1.2 3.8-2.6 4.7-1.4 0.8-2.6 0-2.6-1.7z"/>
				</g>
			</g>
			<g id="&lt;Group&gt;">
				<g id="&lt;Group&gt;">
					<path id="&lt;Path&gt;" class="s4" d="m313.9 767.3v-17.1c0-1.7 1.2-3.9 2.8-4.7l20.3-11.8c1.5-0.8 2.7-0.1 2.7 1.6l0.1 17.1c0 1.7-1.2 3.9-2.8 4.7l-20.3 11.8c-1.5 0.9-2.8 0.1-2.8-1.6z"/>
					<g id="&lt;Group&gt;">
						<g id="&lt;Group&gt;">
							<g id="&lt;Group&gt;">
								<path id="&lt;Path&gt;" class="s2" d="m326.3 756.9l-2.2-1.4c-0.8-0.4-1.3-1.4-1.3-2.8 0-2.7 1.9-6.1 4.3-7.4 1.2-0.7 2.3-0.8 3.1-0.3l2.1 1.2-0.4 0.6q0.2 0.6 0.2 1.4c0 2.7-1.9 6.1-4.3 7.4q-0.5 0.3-1 0.5z"/>
								<path id="&lt;Path&gt;" class="s12" d="m326.3 756.9l-2.2-1.4c-0.8-0.4-1.3-1.4-1.3-2.8 0-2.7 1.9-6.1 4.3-7.4 1.2-0.7 2.3-0.8 3.1-0.3l2.1 1.2-0.4 0.6q0.2 0.6 0.2 1.4c0 2.7-1.9 6.1-4.3 7.4q-0.5 0.3-1 0.5z"/>
								<path id="&lt;Path&gt;" class="s2" d="m325 754c0-2.7 1.9-6.1 4.3-7.5 2.4-1.3 4.3-0.2 4.3 2.5 0 2.8-1.9 6.1-4.3 7.5-2.4 1.4-4.3 0.3-4.3-2.5z"/>
							</g>
						</g>
					</g>
				</g>
				<g id="&lt;Group&gt;">
					<path id="&lt;Path&gt;" class="s8" d="m313.9 735.3v-85.8c0-1.8 1.2-3.9 2.8-4.8l20.3-11.7c1.5-0.9 2.7-0.2 2.7 1.6l0.1 85.8c0 1.7-1.2 3.9-2.8 4.8l-20.3 11.7c-1.5 0.9-2.8 0.2-2.8-1.6z"/>
					<path id="&lt;Path&gt;" class="s2" d="m321.7 728c1.4-0.8 2.6-2.9 2.6-4.6l-0.1-73.9c0-1.8-1.1-2.5-2.5-1.7-1.5 0.8-2.6 2.9-2.6 4.7v73.9c0 1.7 1.2 2.5 2.6 1.6z"/>
					<path id="&lt;Path&gt;" class="s11" d="m332 722.1c1.5-0.8 2.6-2.9 2.6-4.7v-73.9c0-1.7-1.2-2.5-2.6-1.7-1.4 0.9-2.6 3-2.6 4.7v73.9c0 1.7 1.2 2.5 2.6 1.7z"/>
					<path id="&lt;Path&gt;" class="s2" d="m329.4 720.4v-52.7l5.2-3v52.7c0 1.8-1.1 3.9-2.6 4.7-1.4 0.8-2.6 0-2.6-1.7z"/>
				</g>
			</g>
			<g id="&lt;Group&gt;">
				<g id="&lt;Group&gt;">
					<path id="&lt;Path&gt;" class="s4" d="m348.9 747.1v-17c0-1.8 1.2-3.9 2.7-4.8l20.3-11.7c1.6-0.9 2.8-0.2 2.8 1.5v17.1c0 1.8-1.2 3.9-2.7 4.8l-20.4 11.7c-1.5 0.9-2.7 0.2-2.7-1.6z"/>
					<g id="&lt;Group&gt;">
						<g id="&lt;Group&gt;">
							<g id="&lt;Group&gt;">
								<path id="&lt;Path&gt;" class="s2" d="m361.3 736.7l-2.3-1.3c-0.8-0.5-1.2-1.5-1.2-2.8 0-2.8 1.9-6.1 4.3-7.5 1.2-0.7 2.2-0.8 3-0.3l2.1 1.2-0.3 0.7q0.2 0.5 0.2 1.3c0 2.7-2 6.1-4.3 7.5q-0.6 0.3-1.1 0.4z"/>
								<path id="&lt;Path&gt;" class="s12" d="m361.3 736.7l-2.3-1.3c-0.8-0.5-1.2-1.5-1.2-2.8 0-2.8 1.9-6.1 4.3-7.5 1.2-0.7 2.2-0.8 3-0.3l2.1 1.2-0.3 0.7q0.2 0.5 0.2 1.3c0 2.7-2 6.1-4.3 7.5q-0.6 0.3-1.1 0.4z"/>
								<path id="&lt;Path&gt;" class="s2" d="m359.9 733.8c0-2.7 2-6.1 4.4-7.4 2.3-1.4 4.3-0.3 4.3 2.5 0 2.7-2 6.1-4.3 7.4-2.4 1.4-4.4 0.3-4.4-2.5z"/>
							</g>
						</g>
					</g>
				</g>
				<g id="&lt;Group&gt;">
					<path id="&lt;Path&gt;" class="s8" d="m348.9 715.1v-85.8c0-1.7 1.2-3.9 2.7-4.7l20.3-11.8c1.6-0.9 2.8-0.1 2.8 1.6v85.8c0 1.8-1.2 3.9-2.7 4.8l-20.4 11.7c-1.5 0.9-2.7 0.2-2.7-1.6z"/>
					<path id="&lt;Path&gt;" class="s2" d="m356.6 707.9c1.5-0.8 2.6-2.9 2.6-4.7v-73.9c0-1.7-1.2-2.5-2.6-1.7-1.4 0.9-2.6 3-2.6 4.7l0.1 73.9c0 1.7 1.1 2.5 2.5 1.7z"/>
					<path id="&lt;Path&gt;" class="s11" d="m367 701.9c1.4-0.8 2.6-2.9 2.6-4.7l-0.1-73.8c0-1.8-1.1-2.5-2.6-1.7-1.4 0.8-2.5 2.9-2.5 4.6v73.9c0 1.8 1.2 2.5 2.6 1.7z"/>
					<path id="&lt;Path&gt;" class="s2" d="m364.4 700.2v-25.9l5.1-3 0.1 25.9c0 1.8-1.2 3.9-2.6 4.7-1.4 0.8-2.6 0.1-2.6-1.7z"/>
				</g>
			</g>
			<g id="&lt;Group&gt;">
				<path id="&lt;Path&gt;" class="s9" d="m345.9 764.6c-1.1 0.7-2 2.3-2 3.6 0 1.3 0.9 1.9 2 1.2 1.2-0.6 2.1-2.2 2.1-3.6 0-1.3-0.9-1.8-2.1-1.2z"/>
				<path id="&lt;Path&gt;" class="s9" d="m328.7 774.6c-1.1 0.7-2.1 2.3-2.1 3.6 0 1.3 1 1.8 2.1 1.2 1.1-0.7 2.1-2.3 2.1-3.6 0-1.3-1-1.8-2.1-1.2z"/>
				<path id="&lt;Path&gt;" class="s9" d="m311.7 784.4c-1.1 0.7-2 2.2-2 3.6 0 1.3 0.9 1.8 2 1.1 1.2-0.6 2.1-2.2 2.1-3.5 0-1.3-0.9-1.9-2.1-1.2z"/>
				<path id="&lt;Path&gt;" class="s9" d="m294.6 794.3c-1.1 0.6-2 2.2-2 3.5 0 1.3 0.9 1.9 2 1.2 1.2-0.6 2.1-2.2 2.1-3.5 0-1.3-0.9-1.9-2.1-1.2z"/>
			</g>
			<g id="&lt;Group&gt;">
				<g id="&lt;Group&gt;">
					<g id="&lt;Group&gt;">
						<g id="&lt;Group&gt;">
							<path id="&lt;Path&gt;" class="s2" d="m278.5 488.9q-0.7 0-1.3-0.3c-0.7-0.4-1.2-1.2-1.2-2.1v-18.3c0-1.3 1.1-2.4 2.5-2.4 1.3 0 2.4 1.1 2.4 2.4v14l54.8-31.6v-16.8c0-1.4 1.1-2.5 2.5-2.5 1.3 0 2.4 1.1 2.4 2.5v18.2c0 0.9-0.4 1.7-1.2 2.1l-59.7 34.5q-0.6 0.3-1.2 0.3z"/>
						</g>
					</g>
					<g id="&lt;Group&gt;">
						<path id="&lt;Path&gt;" class="s2" d="m289.5 445.1q-0.5 0-0.9-0.2c-1.3-0.4-1.9-1.9-1.4-3.1l17.9-46.5c0.3-0.8 1.1-1.4 2-1.6 0.9-0.1 1.8 0.3 2.3 1.1l17.9 25.8c0.8 1.1 0.5 2.6-0.6 3.4-1.1 0.8-2.7 0.5-3.4-0.6l-15.3-22-16.2 42.1c-0.4 1-1.3 1.6-2.3 1.6z"/>
					</g>
					<g id="&lt;Group&gt;">
						<path id="&lt;Path&gt;" class="s2" d="m307.4 457.8c-1.4 0-2.5-1.1-2.5-2.5v-53.7c0-1.4 1.1-2.5 2.5-2.5 1.3 0 2.5 1.1 2.5 2.5v53.7c0 1.4-1.2 2.5-2.5 2.5z"/>
					</g>
				</g>
				<g id="&lt;Group&gt;" style="opacity: .2">
					<g id="&lt;Group&gt;">
						<g id="&lt;Group&gt;">
							<path id="&lt;Path&gt;" class="s4" d="m278.5 488.9q-0.7 0-1.3-0.3c-0.7-0.4-1.2-1.2-1.2-2.1v-18.3c0-1.3 1.1-2.4 2.5-2.4 1.3 0 2.4 1.1 2.4 2.4v14l54.8-31.6v-16.8c0-1.4 1.1-2.5 2.5-2.5 1.3 0 2.4 1.1 2.4 2.5v18.2c0 0.9-0.4 1.7-1.2 2.1l-59.7 34.5q-0.6 0.3-1.2 0.3z"/>
						</g>
					</g>
					<g id="&lt;Group&gt;">
						<path id="&lt;Path&gt;" class="s4" d="m289.5 445.1q-0.5 0-0.9-0.2c-1.3-0.4-1.9-1.9-1.4-3.1l17.9-46.5c0.3-0.8 1.1-1.4 2-1.6 0.9-0.1 1.8 0.3 2.3 1.1l17.9 25.8c0.8 1.1 0.5 2.6-0.6 3.4-1.1 0.8-2.7 0.5-3.4-0.6l-15.3-22-16.2 42.1c-0.4 1-1.3 1.6-2.3 1.6z"/>
					</g>
					<g id="&lt;Group&gt;">
						<path id="&lt;Path&gt;" class="s4" d="m307.4 457.8c-1.4 0-2.5-1.1-2.5-2.5v-53.7c0-1.4 1.1-2.5 2.5-2.5 1.3 0 2.5 1.1 2.5 2.5v53.7c0 1.4-1.2 2.5-2.5 2.5z"/>
					</g>
				</g>
			</g>
		</g>
	</g>
	<g id="Folders">
		<g id="Folder 2 ">
			<path id="&lt;Compound Path&gt;" fill-rule="evenodd" class="s2" d="m438.5 770.7q-0.8 0-1.5-0.4c-0.9-0.5-1.5-1.5-1.5-2.6v-145.8c0-1.2 0.4-2.6 1.2-3.9 0.7-1.3 1.7-2.3 2.8-3l43.6-25.1c1.3-0.8 2.8-0.9 4-0.2 1 0.6 1.7 1.5 2 2.5l3.5 11.8c0.3 0.8 0.7 1.3 1.4 1.6 0.6 0.2 1.3 0.2 2-0.3l102.6-59.1c1.1-0.7 2.2-0.8 3.1-0.4l0.4 0.2c0.9 0.6 1.4 1.6 1.4 3v122.3c0 2.6-1.7 5.7-4 6.9l-159.5 92.1q-0.7 0.4-1.5 0.4zm46.8-179.7q-0.7 0-1.3 0.4l-43.6 25.2c-0.8 0.4-1.6 1.3-2.2 2.3-0.6 1-0.9 2.1-0.9 3v145.8c0 0.5 0.2 0.9 0.6 1.1 0.4 0.2 0.8 0.2 1.2 0l159.5-92.1c1.7-1 3.1-3.4 3.1-5.4v-122.3c0-0.7-0.2-1.2-0.5-1.5l-0.2-0.1c-0.3-0.1-0.9 0-1.5 0.3l-102.6 59.2c-1.1 0.7-2.4 0.8-3.6 0.4-1.1-0.5-2-1.5-2.4-2.8l-3.5-11.8c-0.2-0.6-0.6-1.1-1.1-1.4q-0.5-0.3-1-0.3z"/>
		</g>
		<g id="Folder">
			<g id="&lt;Group&gt;">
				<path id="&lt;Path&gt;" class="s2" d="m624.6 562.1c0-1.1-0.4-1.9-1-2.2v-0.1q0 0-0.1 0l-6.6-3.8q0 0 0 0c-0.7-0.4-1.5-0.4-2.5 0.2l-101.4 58.5-2.8-9.1c-0.3-0.9-0.8-1.6-1.5-2h0.1l-6.7-3.8c-0.9-0.5-2.1-0.6-3.3 0.1l-43.5 25.2c-2 1.1-3.6 3.8-3.6 6.1v145.4c0 1.1 0.4 1.8 1 2.2v0.1q0.1 0 0.1 0l6.6 3.8q0 0 0 0h0.1c0.6 0.4 1.5 0.3 2.4-0.2l159.1-91.9c2-1.2 3.6-3.9 3.6-6.2z"/>
				<g id="&lt;Group&gt;" style="opacity: .5">
					<path id="&lt;Path&gt;" class="s4" d="m508.7 603.6c-0.9-0.5-2.1-0.5-3.2 0.1l-43.6 25.2c-1 0.6-1.8 1.5-2.5 2.7l-6.6-3.9c0.6-1.1 1.5-2.1 2.5-2.6l43.5-25.2c1.2-0.7 2.4-0.6 3.3-0.1z"/>
					<path id="&lt;Path&gt;" class="s4" d="m623.4 559.7c-0.7-0.3-1.5-0.2-2.4 0.4l-102.5 59.1c-2 1.2-4.1 0.3-4.8-1.9l-0.7-2.6 101.4-58.5q0.8-0.5 1.6-0.5 0.5 0 0.9 0.3z"/>
				</g>
				<path id="&lt;Path&gt;" class="s12" d="m458.9 782.2q0.1 0.2 0.3 0.4l-6.4-3.7q0 0-0.1 0v-0.1q-0.4-0.2-0.6-0.7-0.1-0.2-0.2-0.4-0.2-0.5-0.2-1.1v-145.4q0-0.2 0-0.4 0.1-0.5 0.2-0.9 0-0.2 0.1-0.5 0.2-0.6 0.5-1.3 0.1-0.2 0.3-0.4l6.6 3.9c-0.6 1.1-1 2.3-1 3.4v145.4q0 0.3 0 0.6 0 0.2 0.1 0.4 0 0.1 0 0.2 0.1 0.1 0.1 0.2 0.1 0.2 0.3 0.4z"/>
			</g>
		</g>
		<g id="Folder 1 ">
			<path id="&lt;Compound Path&gt;" class="s9" d="m566.1 758.3c-1.3 0-2.5-1.1-2.5-2.5v-3.3c0-0.5 0.4-0.9 0.9-0.9 0.5 0 1 0.4 1 0.9v3.3c0 0.6 0.6 0.8 1 0.6l2-1.2c0.4-0.2 1-0.1 1.3 0.4 0.2 0.4 0.1 1-0.4 1.2l-2 1.2q-0.6 0.3-1.3 0.3zm7.6-4.1c-0.3 0-0.7-0.1-0.8-0.4-0.3-0.5-0.1-1 0.3-1.3l7.8-4.5c0.5-0.3 1-0.1 1.3 0.3 0.3 0.5 0.1 1-0.3 1.3l-7.9 4.5q-0.2 0.1-0.4 0.1zm-9.2-6.2c-0.5 0-0.9-0.4-0.9-1v-9c0-0.5 0.4-0.9 0.9-0.9 0.5 0 1 0.4 1 0.9v9c0 0.6-0.5 1-1 1zm21.7-1c-0.3 0-0.6-0.2-0.8-0.5-0.2-0.4-0.1-1 0.3-1.2l7.9-4.5c0.4-0.3 1-0.1 1.2 0.3 0.3 0.4 0.1 1-0.3 1.3l-7.8 4.5q-0.3 0.1-0.5 0.1zm12.5-7.2c-0.3 0-0.6-0.2-0.8-0.5-0.2-0.4-0.1-1 0.4-1.2l7.8-4.6c0.5-0.2 1-0.1 1.3 0.4 0.2 0.4 0.1 1-0.4 1.2l-7.8 4.5q-0.2 0.2-0.5 0.2zm-34.2-6.3c-0.5 0-0.9-0.4-0.9-0.9v-9.1c0-0.5 0.4-0.9 0.9-0.9 0.5 0 1 0.4 1 0.9v9.1c0 0.5-0.5 0.9-1 0.9zm46.8-1c-0.3 0-0.6-0.1-0.8-0.4-0.3-0.5-0.1-1 0.3-1.3l7.9-4.5c0.4-0.3 0.9-0.1 1.2 0.3 0.3 0.5 0.1 1-0.3 1.3l-7.9 4.5q-0.2 0.1-0.4 0.1zm12.5-7.2c-0.3 0-0.6-0.2-0.8-0.5-0.2-0.4-0.1-1 0.4-1.2l7.8-4.5c0.4-0.3 1-0.1 1.2 0.3 0.3 0.4 0.1 1-0.3 1.2l-7.8 4.6q-0.3 0.1-0.5 0.1zm-59.3-6.3c-0.5 0-0.9-0.4-0.9-0.9v-9c0-0.6 0.4-1 0.9-1 0.5 0 1 0.4 1 1v9c0 0.5-0.5 0.9-1 0.9zm71.8-0.9c-0.3 0-0.6-0.2-0.7-0.5-0.3-0.4-0.2-1 0.3-1.3l7.8-4.5c0.5-0.2 1-0.1 1.3 0.4 0.2 0.4 0.1 1-0.4 1.2l-7.8 4.5q-0.2 0.2-0.5 0.2zm12.6-7.3c-0.3 0-0.6-0.1-0.8-0.4-0.3-0.5-0.1-1 0.3-1.3l7.9-4.5c0.4-0.3 1-0.1 1.2 0.3 0.3 0.5 0.1 1-0.3 1.3l-7.9 4.5q-0.2 0.1-0.4 0.1zm-84.4-6.3c-0.5 0-0.9-0.4-0.9-0.9v-9c0-0.5 0.4-0.9 0.9-0.9 0.5 0 1 0.4 1 0.9v9c0 0.5-0.5 0.9-1 0.9zm96.9-0.9c-0.3 0-0.6-0.2-0.8-0.5-0.2-0.4-0.1-1 0.4-1.2l7.8-4.5c0.4-0.3 1-0.2 1.2 0.3 0.3 0.4 0.1 1-0.3 1.2l-7.8 4.6q-0.2 0.1-0.5 0.1zm12.5-7.2c-0.3 0-0.6-0.2-0.7-0.5-0.3-0.4-0.1-1 0.3-1.3l7.8-4.5c0.5-0.2 1-0.1 1.3 0.4 0.2 0.4 0.1 1-0.4 1.2l-7.8 4.5q-0.2 0.2-0.5 0.2zm-109.4-6.3c-0.5 0-0.9-0.4-0.9-0.9v-9.1c0-0.5 0.4-0.9 0.9-0.9 0.5 0 1 0.4 1 0.9v9.1c0 0.5-0.5 0.9-1 0.9zm122-1c-0.3 0-0.6-0.2-0.8-0.4-0.3-0.5-0.1-1 0.3-1.3l1.2-0.7c1.1-0.6 2.2-2.4 2.2-3.8v-2.2c0-0.5 0.4-0.9 0.9-0.9 0.5 0 0.9 0.4 0.9 0.9v2.2c0 2-1.4 4.4-3.1 5.4l-1.2 0.7q-0.2 0.1-0.4 0.1zm3.8-12.9c-0.5 0-0.9-0.4-0.9-0.9v-9c0-0.5 0.4-1 0.9-1 0.5 0 0.9 0.5 0.9 1v9c0 0.5-0.4 0.9-0.9 0.9zm-125.8-0.6c-0.5 0-0.9-0.4-0.9-0.9v-9.1c0-0.5 0.4-0.9 0.9-0.9 0.5 0 1 0.4 1 0.9v9.1c0 0.5-0.5 0.9-1 0.9zm125.8-13.8c-0.5 0-0.9-0.5-0.9-1v-9c0-0.5 0.4-0.9 0.9-0.9 0.5 0 0.9 0.4 0.9 0.9v9c0 0.5-0.4 1-0.9 1zm-125.8-0.7c-0.5 0-0.9-0.4-0.9-0.9v-9c0-0.5 0.4-1 0.9-1 0.5 0 1 0.5 1 1v9c0 0.5-0.5 0.9-1 0.9zm125.8-13.8c-0.5 0-0.9-0.4-0.9-0.9v-9.1c0-0.5 0.4-0.9 0.9-0.9 0.5 0 0.9 0.4 0.9 0.9v9.1c0 0.5-0.4 0.9-0.9 0.9zm-125.8-0.7c-0.5 0-0.9-0.4-0.9-0.9v-0.2c0-1 0.3-2.1 0.9-3.1 0.6-1 1.4-1.8 2.3-2.3l2.8-1.6c0.4-0.3 1-0.1 1.2 0.3 0.3 0.4 0.1 1-0.3 1.2l-2.8 1.7c-0.6 0.3-1.2 0.9-1.6 1.6-0.4 0.8-0.6 1.6-0.6 2.2v0.2c0 0.5-0.5 0.9-1 0.9zm10.2-9.1c-0.3 0-0.6-0.2-0.7-0.5-0.3-0.4-0.1-1 0.3-1.3l7.8-4.5c0.5-0.2 1-0.1 1.3 0.4 0.2 0.4 0.1 1-0.4 1.2l-7.8 4.5q-0.2 0.2-0.5 0.2zm34-2.6c-1.4 0-2.5-0.9-3-2.2-0.2-0.4 0-1 0.5-1.2 0.5-0.1 1 0.1 1.2 0.6 0.3 0.9 1.3 1.2 2.2 0.7l4.1-2.4c0.5-0.3 1-0.1 1.3 0.3 0.2 0.4 0.1 1-0.4 1.2l-4.1 2.5c-0.6 0.3-1.2 0.5-1.8 0.5zm81.6-2.1c-0.5 0-0.9-0.4-0.9-0.9v-9.1c0-0.5 0.4-0.9 0.9-0.9 0.5 0 0.9 0.4 0.9 0.9v9.1c0 0.5-0.4 0.9-0.9 0.9zm-103-2.6c-0.3 0-0.6-0.1-0.8-0.4-0.3-0.5-0.1-1 0.3-1.3l7.9-4.5c0.4-0.3 1-0.1 1.2 0.3 0.3 0.5 0.1 1-0.3 1.3l-7.9 4.5q-0.2 0.1-0.4 0.1zm31.6-0.8c-0.3 0-0.6-0.2-0.8-0.5-0.3-0.4-0.1-1 0.3-1.3l7.9-4.5c0.4-0.2 1-0.1 1.2 0.4 0.3 0.4 0.1 1-0.3 1.2l-7.9 4.5q-0.2 0.2-0.4 0.2zm-13.9-1.3c-0.4 0-0.8-0.2-0.9-0.6l-1.2-4c-0.1-0.4-0.4-0.8-0.7-0.9-0.5-0.3-1-0.3-1.5 0l-0.4 0.3c-0.5 0.2-1 0.1-1.3-0.4-0.2-0.4-0.1-1 0.4-1.2l0.3-0.3c1.1-0.6 2.4-0.6 3.3-0.1 0.8 0.5 1.4 1.2 1.7 2.1l1.1 3.9c0.2 0.5-0.1 1-0.6 1.2q-0.1 0-0.2 0zm26.4-6c-0.3 0-0.6-0.1-0.8-0.4-0.2-0.5-0.1-1 0.4-1.3l7.8-4.5c0.4-0.3 1-0.1 1.3 0.3 0.2 0.5 0.1 1-0.4 1.3l-7.8 4.5q-0.2 0.1-0.5 0.1zm58.9-3.8c-0.5 0-0.9-0.4-0.9-0.9v-9c0-0.5 0.4-0.9 0.9-0.9 0.5 0 0.9 0.4 0.9 0.9v9c0 0.5-0.4 0.9-0.9 0.9zm-46.3-3.4c-0.4 0-0.7-0.2-0.8-0.5-0.3-0.4-0.1-1 0.3-1.2l7.8-4.5c0.5-0.3 1-0.1 1.3 0.3 0.2 0.4 0.1 1-0.3 1.2l-7.9 4.6q-0.2 0.1-0.4 0.1zm12.5-7.2c-0.3 0-0.6-0.2-0.8-0.5-0.2-0.4-0.1-1 0.3-1.3l7.9-4.5c0.4-0.2 1-0.1 1.2 0.4 0.3 0.4 0.1 1-0.3 1.2l-7.8 4.5q-0.3 0.2-0.5 0.2zm33.8-3.8c-0.5 0-0.9-0.4-0.9-1v-9c0-0.5 0.4-0.9 0.9-0.9 0.5 0 0.9 0.4 0.9 0.9v9c0 0.6-0.4 1-0.9 1zm-21.3-3.5c-0.3 0-0.6-0.1-0.8-0.4-0.2-0.5-0.1-1 0.4-1.3l7.8-4.5c0.5-0.3 1-0.1 1.3 0.3 0.2 0.5 0.1 1-0.4 1.3l-7.8 4.5q-0.2 0.1-0.5 0.1zm12.6-7.2c-0.3 0-0.7-0.2-0.8-0.5-0.3-0.4-0.1-1 0.3-1.2l6.1-3.5c0.9-0.5 1.8-0.6 2.5-0.3l0.3 0.1c0 0.1 0.1 0.1 0.2 0.1 0.4 0.3 0.5 0.9 0.2 1.3-0.3 0.4-0.9 0.5-1.3 0.2l-0.2-0.1c0.1 0 0 0-0.1 0q-0.3 0-0.7 0.3l-6.1 3.5q-0.2 0.1-0.4 0.1z"/>
		</g>
	</g>
	<g id="Character">
		<g id="Character 9 ">
			<g id="Botom 2 ">
				<g id="&lt;Group&gt;">
					<g id="&lt;Group&gt;">
						<g id="&lt;Group&gt;">
							<g id="&lt;Group&gt;">
								<path id="&lt;Path&gt;" class="s16" d="m752.1 742.3c-0.3-8.1-3.5-83.5-3.5-83.5l37.6 22.9c-6 46.5-8.6 60.7-9 68.4 0 0.2 0.2 0.9 0.1 2-0.4 9.2-10.9 13.8-19.3 19.7-3.3 2.3-12.9 9.1-22.5 13.5-6 2.7-18 2.5-19.3-1.3 10.1-7.2 21.9-15 30.1-23.3 3.9-4 6.2-8.7 5.8-18.4z"/>
							</g>
							<g id="&lt;Group&gt;">
								<path id="&lt;Path&gt;" class="s11" d="m704.3 793.4c-0.4 0-1.4 5.5 1.1 8 2.9 2.8 11.4 7.6 23 6.5 11.6-1.2 17.9-4.7 22.7-8.7 4.8-3.9 11.4-9.5 16.7-10.5 4.9-1 10.2-3.1 11.8-4.7 1.6-1.5 1.6-8.6 1.6-8.6z"/>
								<path id="&lt;Path&gt;" class="s8" d="m777.3 747.9c0 0 1.3 0 1.5 1.6 0.3 2 0.7 7.7 1.3 11 0.9 4.5 1.6 13.7 0.8 17.3-0.7 3.6-8.7 5.9-13.8 7.7-5.2 1.9-11.3 6-16.7 10.4-5.6 4.6-17.2 8.9-24.7 8.8-11.4-0.3-18.7-3.9-20.9-8.3-2.6-5.6-1.6-9.4 11.8-15.4 2.5-1.2 11.4-6.2 15-8.7 8-5.5 13.2-11.5 17.3-21 0.5-1.1 1-2.3 2-2.8 0.8-0.4 1.7-0.3 2.5-0.2 2.2 0.4 8.5 1.5 10.5 2.6 1.7 1 4.2 2.1 4.1 4.5-0.1 0.9-0.3 1.7-0.6 2.5-0.2 0.5-0.3 1.1 0.1 1.4 0.3 0.3 0.9 0 1.2-0.3 1.4-1.3 2.5-2.9 3.7-4.4 0.7-0.8 1.4-1.6 2.2-2.2 0.7-0.6 1.6-0.8 2.3-1.5 0 0 0.4-1.9 0.4-3z"/>
								<path id="&lt;Path&gt;" class="s17" d="m716.2 780.9c16.6 1.9 23.5 13.3 21.4 21.6-4.2 1.4-8.4 2.3-11.9 2.2-11.4-0.3-19.2-3.9-21.3-8.4-2.5-5.2-0.1-11 11.8-15.4z"/>
								<g id="&lt;Group&gt;">
									<g id="&lt;Group&gt;">
										<path id="&lt;Path&gt;" class="s18" d="m738.8 783.5q0.2 0 0.5-0.2c0.3-0.3 0.4-0.8 0.1-1.2-2.2-3.1-8.7-7.4-14.7-6.9-0.5 0-0.8 0.4-0.8 0.9 0 0.5 0.4 0.9 0.9 0.8 5.6-0.4 11.6 3.8 13.3 6.2 0.2 0.2 0.4 0.4 0.7 0.4z"/>
									</g>
									<g id="&lt;Group&gt;">
										<path id="&lt;Path&gt;" class="s18" d="m745.4 779.2q0.3 0 0.6-0.1c0.3-0.3 0.4-0.9 0.1-1.3-2.2-3.1-8.7-7.3-14.7-6.8-0.5 0-0.8 0.4-0.8 0.9 0 0.5 0.4 0.8 0.9 0.8 5.6-0.4 11.6 3.7 13.3 6.2 0.2 0.2 0.4 0.3 0.6 0.3z"/>
									</g>
									<g id="&lt;Group&gt;">
										<path id="&lt;Path&gt;" class="s18" d="m752 773.8q0.3 0 0.6-0.2c0.3-0.3 0.4-0.8 0.1-1.2-2.2-3.1-8.7-7.3-14.7-6.9-0.5 0.1-0.8 0.5-0.8 1 0 0.4 0.4 0.8 0.9 0.8 5.6-0.5 11.6 3.7 13.3 6.2 0.2 0.2 0.4 0.3 0.6 0.3z"/>
									</g>
									<g id="&lt;Group&gt;">
										<path id="&lt;Path&gt;" class="s18" d="m758.6 768.4q0.2 0 0.5-0.2c0.3-0.3 0.4-0.8 0.2-1.2-3.1-4.4-10.1-7.5-16.2-7-0.4 0-0.8 0.4-0.7 0.9 0 0.5 0.4 0.8 0.8 0.8 5.5-0.4 12.1 2.4 14.7 6.3 0.2 0.2 0.4 0.3 0.7 0.4z"/>
									</g>
								</g>
							</g>
						</g>
						<g id="&lt;Group&gt;">
							<g id="&lt;Group&gt;">
								<path id="&lt;Path&gt;" class="s16" d="m818.8 677.8l41-7.2c0.6 25.5-1.2 59.6-2 83.1-0.1 4.5 1.7 35 0.3 44.3-2.1 14-20 12.7-21.4 4.4-1.3-8.3-1.9-43.7-2.1-47.3-0.5-15.4-8.4-41.3-13.7-68.7-0.2-1.3-1.8-7.3-2.1-8.6z"/>
							</g>
							<g id="&lt;Group&gt;">
								<path id="&lt;Path&gt;" class="s11" d="m830.3 808.4c0 8.2 1 13.7 3.8 18.6 2.9 5 8.7 6.9 14.7 5.8 6.1-1 14-4.3 16.1-11.2 2.2-6.9 2.1-11.8 1.3-19.4z"/>
								<path id="&lt;Path&gt;" class="s8" d="m857.9 751.1c2.5 0.3 2.4 11 3.1 22 0.8 11.9 4.3 17 5 26.7 0.9 11.1-0.1 16-4.7 22.4-4.6 6.4-19.7 12-26.4 2.1-5.4-8.2-5.1-16.8-3.9-27.8 1.3-11.3 2.3-19.3 2.3-27.9 0.1-8.3-1.1-16 1.1-16.8 0.1 1.2 0.1 2.7 0.2 3.9 0.1 1 0.1 5.4 1.4 5.6 0.2-1.1 0.3-2.1 0.3-3.1-0.1-1 0.1-2 0.8-2.7 0.7-0.6 2.9-1.1 3.9-1.2 2.5-0.3 4.9-0.6 7.4-0.6q1.8-0.1 3.7 0.1c1 0 2.1 0.2 3.1 0.6 0.5 0.2 1.1 0.6 1.2 1.2 0.2 0.4 0.1 0.8 0.1 1.2q-0.1 1.2 0.1 2.3c0.1 0.3 0.3 0.7 0.7 0.7 0.3-0.1 0.4-0.4 0.4-0.7 0.1-1.3 0-2.3 0-3.8 0.1-0.7 0.1-1.4 0.1-2.1 0.1-0.7 0.1-1.4 0.1-2.1z"/>
								<path id="&lt;Path&gt;" class="s17" d="m866.3 806.2c0 6.9-0.7 11.5-4.3 16.6-4.6 6.4-21 11.9-27.6 2-3.4-5-4-10.7-4.1-16.4 4.8-7.1 29.5-8.9 36-2.2z"/>
								<g id="&lt;Group&gt;">
									<g id="&lt;Group&gt;">
										<path id="&lt;Path&gt;" class="s18" d="m837.4 796.8q0.1 0 0.3-0.1c0.1 0 10.4-3.8 21.3-0.7 0.5 0.1 1-0.1 1.2-0.6 0.1-0.4-0.2-0.9-0.7-1-11.5-3.2-22.1 0.6-22.5 0.8-0.5 0.1-0.7 0.6-0.5 1.1 0.1 0.3 0.5 0.5 0.9 0.5z"/>
									</g>
									<g id="&lt;Group&gt;">
										<path id="&lt;Path&gt;" class="s18" d="m858.9 787.7c0.4 0 0.7-0.2 0.9-0.5 0.1-0.4-0.1-0.9-0.5-1.1-10.9-4.1-22.1 0.4-22.6 0.6-0.4 0.2-0.6 0.7-0.4 1.1 0.2 0.5 0.7 0.6 1.2 0.5 0.1-0.1 11-4.5 21.1-0.6q0.2 0.1 0.3 0z"/>
									</g>
									<g id="&lt;Group&gt;">
										<path id="&lt;Path&gt;" class="s18" d="m858.8 780c0.3 0 0.7-0.2 0.8-0.5 0.2-0.5 0-1-0.5-1.2-11.9-4.7-22.5 0.3-22.9 0.6-0.5 0.2-0.7 0.7-0.4 1.1 0.2 0.4 0.8 0.6 1.2 0.4 0.1-0.1 10.3-4.9 21.4-0.5q0.2 0.1 0.4 0.1z"/>
									</g>
									<g id="&lt;Group&gt;">
										<path id="&lt;Path&gt;" class="s1" d="m858.6 771.2c0.3 0 0.7-0.2 0.8-0.5 0.2-0.4 0-0.9-0.5-1.1-11.1-4.6-22.6 0.5-23.1 0.7-0.5 0.3-0.6 0.8-0.4 1.2 0.2 0.4 0.8 0.6 1.2 0.4 0.1-0.1 11.3-5 21.6-0.7q0.2 0 0.4 0z"/>
									</g>
								</g>
							</g>
						</g>
						<path id="&lt;Path&gt;" class="s8" d="m845.5 479.9c0 46.3 6.1 139.2 6.1 139.2 0.5 5.7 7.7 30.9 8.2 51.5 0.8 33.1-0.4 56-0.4 56 0 0-17.4 6.8-29.9 1.6 0 0-16-66.5-20.2-88.1-5-25.6-11.3-53.4-11.3-53.4l-8.5 53.8c0 0 1.5 15.3-1.1 35.2-1.8 13.6-7.1 51-7.1 51 0 0-18.1 6.6-31.5-1.5 0 0-3.6-86.6-3.8-99.2-0.3-16.8 0.7-63 1.5-143.5z"/>
						<path id="&lt;Path&gt;" class="s9" d="m798 586.7l-12.5-66.4c0 0-13.3-0.2-23.4-10.6 0 0 1.1 10.2 19.7 16.7l11.9 58.9-4.2 55.2z"/>
					</g>
				</g>
			</g>
			<g id="Top 2 ">
				<g id="&lt;Group&gt;">
					<g id="&lt;Group&gt;">
						<path id="&lt;Path&gt;" class="s16" d="m749.5 357.4c-13.3 7.5-44.3 26.2-53.6 32.1 0 0-28.9-17.4-39.5-24.8-4.7-3.2-5.7-5-6.2-7.2-0.8-3.7-1.2-5.7-2.5-8.6-1.5-3.2-2.3-4.2-4-8.2-1.7-4-3.2-12-2.6-15.6-1-1.6-5.2-1.6-6.8 2.8-1.6 4.3-0.8 9.1-0.6 11.3 0.2 2.5 0.7 5.1-0.1 5.5-0.7 0.4-4.3-1.2-7.8-1.9-3.6-0.8-6.8-2.2-10.6-0.8-3.9 1.3-3.5 4.9-3 6.2 0.6 1.3 2.2 2.3 2.2 2.3 0 0-2.1-0.3-3.7 1.3-1.7 1.5-1.5 5.4 0.1 6.8 0 0-2.5 0-2.9 2.8-0.3 2.3 0 4.6 2.4 5.4 0 0-1.9 0.5-2 1.7-0.1 1.1 0 3.8 2 5 1.9 1.2 6.6 1.3 6.6 1.3 0 0 0.4 0.8 2.7 1.9 0.7 0.4 2.6 1.3 5.7 2.5 3.5 1.4 5.6 1.9 8.3 2.3 2.8 0.4 4.4-0.1 12.2 6.9 4.9 4.4 25.1 21 35 27.7 16.5 11.2 18.5 10.6 35.4 2.3 16.7-8.2 41.6-20.6 41.6-20.6l12.9-44.9c0 0-11.2-1.1-21.2 4.5z"/>
						<path id="&lt;Path&gt;" class="s19" d="m622.3 344.7q0.7 0.5 1.4 1.1c0.4 0.5 0.8 0.9 1 1.5l-0.1-0.1c2.5 0.5 5.1 1.5 6.8 3.6 0.5 0.5 0.8 1.1 1.1 1.7 0.2 0.7 0.3 1.5 0 2.2-0.2 0.3-0.4 0.7-0.8 0.9-0.4 0.3-0.8 0.3-1.1 0.3-0.7-0.1-1.3-0.2-2-0.3-1.2-0.1-2.5-0.1-3.8-0.3-1.3-0.1-2.6-0.5-3.8-1-2.3-1-4.6-2.2-6.6-3.8 1 0.7 2.2 1.2 3.4 1.7 1.1 0.6 2.3 1.1 3.5 1.6q1.7 0.6 3.6 0.8c1.2 0.1 2.5 0.1 3.8 0.2 0.7 0.1 1.3 0.2 1.9 0.2 0.6 0.1 0.8-0.1 1.1-0.6 0.4-1-0.1-2.2-0.9-3.1-1.5-2-3.9-3.1-6.3-3.8h-0.1v-0.1c-0.2-0.5-0.5-1-0.9-1.4q-0.6-0.7-1.2-1.3z"/>
						<path id="&lt;Path&gt;" class="s19" d="m628.1 355.1c1.1 0 2.2 0.8 2.5 2 0.4 1.2-0.3 2.5-1.2 3.2-1.6 1.4-3.7 2.6-6.1 2.8-1.2 0-2.3-0.3-3.3-0.7q-1.6-0.5-3.1-1.2c-2.1-0.8-4.1-1.7-6.1-2.6 2.1 0.6 4.2 1.3 6.3 2 2.1 0.6 4.2 1.7 6.2 1.7 1 0 2-0.5 3-0.9 1-0.4 1.9-1 2.7-1.6 0.9-0.6 1.5-1.6 1.3-2.6-0.2-1-1.1-1.9-2.2-2.1z"/>
						<path id="&lt;Path&gt;" class="s19" d="m624.6 362.5c1-0.1 2.1 0.1 2.9 0.9 0.4 0.4 0.6 1 0.5 1.6-0.1 0.5-0.2 1-0.5 1.5-0.6 1-1.6 1.4-2.5 1.9-0.9 0.4-1.8 0.9-3 0.9-1.2 0-2.1-0.5-3-0.8-0.9-0.3-1.9-0.4-2.8-0.6-2-0.4-4-0.7-5.9-1.1q3 0.1 6 0.4 1.4 0.2 2.9 0.5c1.1 0.3 1.9 0.8 2.8 0.8 0.9 0 1.8-0.4 2.7-0.8 0.8-0.5 1.8-0.9 2.3-1.6 0.2-0.3 0.4-0.8 0.5-1.2 0.1-0.4-0.1-0.9-0.3-1.2-0.6-0.8-1.6-1.1-2.6-1.2z"/>
						<path id="&lt;Path&gt;" class="s19" d="m622.9 368.8c0.3 0.2 0.5 0.7 0.6 1.1 0 0.5-0.1 0.9-0.3 1.3-0.5 0.8-1 1.4-1.6 2q-0.5 0.4-1 0.8c-0.3 0.3-0.8 0.5-1.2 0.5q-1.2 0.3-2.5 0.3l2.3-0.9c0.4-0.2 0.7-0.3 0.9-0.5q0.5-0.4 0.9-0.8c0.6-0.5 1.2-1.2 1.6-1.7 0.4-0.6 0.7-1.4 0.3-2.1z"/>
						<path id="&lt;Path&gt;" class="s19" d="m632.1 354.6c-1.3 2.1-2.2 8.7 0.8 13 3 4.2 6 5.3 6 5.3 0 0-3.8-1-6.8-4.1-2.9-3-3.4-5.4-3.4-5.4l-1 1.4c-0.2-1-0.2-1.8-2.5-2.3 0 0 2.6-1.2 3.7-2.3 1.1-1 2.8-2.7 0.5-4.9 0 0 0.9 0.2 1.8 0.1 0.9 0 0.9-0.8 0.9-0.8z"/>
					</g>
					<path id="&lt;Path&gt;" class="s8" d="m776.9 348.8c-16.2-0.7-22.4 1.8-35.5 10.1-14.1 8.9-31.7 21.4-31.7 21.4 0 0 11.5 9 16 34.1l33.7-15.8z"/>
					<path id="&lt;Path&gt;" class="s19" d="m695.9 389.5c8.7 6.2 11.2 13.7 11.2 13.7 0 0 0.7-10.5-8-15.7z"/>
				</g>
				<path id="&lt;Path&gt;" class="s2" d="m747.7 389.7c4-29.3 16.2-38 21.9-39.5 5.7-1.4 15.6-3.2 34.9-1.3 19.4 2 32.7 7 32.7 7 10.1 2.9 9.9 23.6 9.4 41-0.4 15-0.8 37-1 55.7-0.2 12 0.5 24.3 0.7 33.6-21.2 14-76.3 20.2-99.1 7 0 0-0.8-17.1-1-31.7-0.5-30.6 0.3-62.4 1.5-71.8z"/>
				<g id="&lt;Group&gt;">
					<g id="&lt;Group&gt;">
						<path id="&lt;Path&gt;" class="s11" d="m760.4 294.2c-2.6-2-4.9-4.2-6.1-7.8-1.4-3.9-1.8-7-1.5-11 0.1-1 0.6-3.1 1-3.8 0.9-1.5 2.7-1.9 4.3-2.1q1.5-0.2 3-0.4c-1.8-1.9-3.7-4-4.6-6.5-0.7-1.9-0.8-4-0.3-6 0.1-0.5 0.3-1.1 0.7-1.4 0.8-0.9 2.2-0.8 3.4-0.5 9.5 2.7 18.6 2 21.8 1.8 5.8-0.3 8.7-1 16.7-1.7 7.9-0.7 22.1 3 24.5 18 10.6 1.9 11.9 19.1 8.8 26.3-5.6 13.3-11 22.1-13.9 31.7-0.6-0.4-36.2-21.2-44.3-27q-4.6-3.3-9.2-6.6c-1.5-1-3-2-4.3-3z"/>
						<path id="&lt;Path&gt;" class="s16" d="m828.6 321c-6.4 4.7-10.5 0.2-10.5 0.2l0.1 32.4c-13.2 17-48.3 14.3-33.1-3l-0.3-7.7c0 0-5.3 0.3-9.7-0.5-2-0.3-4.2-1.1-5.7-2.1-3.6-2.2-6.2-5.3-7.7-10.4-1.8-6.1-2.9-14.2-3-23.2 0-9.4 1-21.6 4.1-27.9 5.6-4.9 22.4-5.4 36.5-1.4 0.2 3.5-0.1 6.6 2.7 10.5 1.3 1.9 3.5 3.3 5.4 4.2 0.3 6.9 0.6 8.7 1.9 11.7 0.7 1.8 2.1 4.4 5.6 3.1 1.6-0.6 2.8-4.2 4.5-6.6 2.3-3.3 9.5-4.8 12.9 2.2 3.6 7.2 0.6 15.2-3.7 18.5z"/>
						<path id="&lt;Path&gt;" class="s19" d="m784.8 342.9c7.1-0.8 19.8-3.4 23.5-7.8 3.6-4.3 6.5-14.4 6.5-14.4 0 0-1.4 11.3-4.2 16.2-2.8 4.9-8.9 6.9-13.4 8.2-4.5 1.4-12.2 2.1-12.2 2.1z"/>
					</g>
					<g id="&lt;Group&gt;">
						<path id="&lt;Path&gt;" class="s11" d="m789.6 293.3l6.8 3c0.8-2-0.1-4.2-2-5-1.9-0.9-4 0.1-4.8 2z"/>
						<path id="&lt;Path&gt;" class="s11" d="m769.9 292.9l-6.6 3.5c-0.9-1.9-0.2-4.2 1.6-5.2 1.8-0.9 4-0.2 5 1.7z"/>
						<path id="&lt;Path&gt;" class="s20" d="m791.8 319.3l-12.3 4.8c1.4 3.4 5.3 5.1 8.7 3.8 3.5-1.3 5.1-5.1 3.6-8.6z"/>
						<path id="&lt;Path&gt;" class="s19" d="m791.4 321.9c-3.5 0-6.4 2.9-6.4 6.4 1.1 0.1 2.2 0 3.2-0.4 2.6-0.9 4.1-3.3 4.1-5.9q-0.4-0.1-0.9-0.1z"/>
						<path id="&lt;Path&gt;" class="s19" d="m781.7 295.6l-2.2 22.2-11.6-4.8z"/>
						<path id="&lt;Path&gt;" class="s11" d="m793.8 301.5c0 1.7-1.3 3.1-3 3.1-1.7 0-3.1-1.3-3.1-3 0-1.6 1.3-3 3-3.1 1.7 0 3 1.4 3.1 3z"/>
						<path id="&lt;Path&gt;" class="s11" d="m770.9 301.5c0 1.7-1.3 3.1-3 3.1-1.7 0-3-1.3-3.1-3 0-1.6 1.4-3 3-3.1 1.7 0 3.1 1.4 3.1 3z"/>
					</g>
				</g>
				<g id="&lt;Group&gt;">
					<g id="&lt;Group&gt;">
						<path id="&lt;Path&gt;" class="s16" d="m839.2 356.5c14.5 2.5 22.1 6.5 25.8 17.8 5.3 16.2 16.1 56.8 20.2 75.3 2.2 10 4.4 16.7-3.6 23.9-8.6 7.7-27.9 23.1-44.8 34.3-3.3 2.3-12 10.4-15.2 12.1-19.3 10-41.5 7.4-41.5 7.4l21.1-12.8 3.8-7.1 45.2-47.6-16.7-64c0 0-5.3-32.3 5.7-39.3z"/>
						<path id="&lt;Path&gt;" class="s19" d="m850.2 459.8c6-6.1 14.8-6.1 14.8-6.1 0 0-6.1-3.2-15.9 1.9z"/>
						<path id="&lt;Path&gt;" class="s8" d="m837.2 355.9c6.6 1.3 13.9 2 20.7 6.3 6.7 4.2 7.9 9.4 13.1 25.3 5.1 15.9 10.3 42.3 10.3 42.3 0 0-16.1 9.2-37.8 9.5 0 0-7-26.2-10.3-36.6-2.1-6.9-8-29.2 4-46.8z"/>
					</g>
					<g id="&lt;Group&gt;">
						<g id="&lt;Group&gt;">
							<g id="&lt;Group&gt;">
								<path id="&lt;Path&gt;" class="s2" d="m820.5 497.6v2c0.1 2-1 3.8-2.7 4.9l-52.6 31.8c-0.9 0.6-1.8 0.8-2.8 0.9-1 0-2-0.2-2.8-0.7l-99.1-54.4c-1.8-0.9-2.9-2.7-2.9-4.7v-1.4l104.7 57.4z"/>
							</g>
							<g id="&lt;Group&gt;" style="opacity: .5">
								<path id="&lt;Path&gt;" class="s4" d="m820.5 497.6v2c0.1 2-1 3.8-2.7 4.9l-52.6 31.8c-0.9 0.6-1.8 0.8-2.8 0.9-1 0-2-0.2-2.8-0.7l-99.1-54.4c-1.8-0.9-2.9-2.7-2.9-4.7v-1.4l104.7 57.4z"/>
							</g>
							<g id="&lt;Group&gt;" style="opacity: .1">
								<path id="&lt;Path&gt;" class="s21" d="m820.5 497.6v2c0.1 2-1 3.8-2.7 4.9l-52.6 31.8c-0.9 0.6-1.8 0.8-2.8 0.9-1 0-2-0.2-2.8-0.7l-99.1-54.4c-1.8-0.9-2.9-2.7-2.9-4.7v-1.4l104.7 57.4z"/>
							</g>
							<g id="&lt;Group&gt;">
								<path id="&lt;Path&gt;" class="s2" d="m657.6 476l57.2-34.8c1-0.6 2.3-0.6 3.4 0l101.9 55.8c0.5 0.3 0.5 1 0 1.3l-57.8 35.1z"/>
							</g>
							<g id="&lt;Group&gt;" style="opacity: .85">
								<path id="&lt;Path&gt;" class="s4" d="m657.6 476l57.2-34.8c1-0.6 2.3-0.6 3.4 0l101.9 55.8c0.5 0.3 0.5 1 0 1.3l-57.8 35.1z"/>
							</g>
							<g id="&lt;Group&gt;">
								<path id="&lt;Path&gt;" class="s2" d="m761.8 528l30.9-18.8-91.7-50.2-31.1 18.6z"/>
							</g>
							<g id="&lt;Group&gt;" style="opacity: .6">
								<path id="&lt;Path&gt;" class="s4" d="m761.8 528l30.9-18.8-91.7-50.2-31.1 18.6z"/>
							</g>
							<g id="&lt;Group&gt;">
								<path id="&lt;Path&gt;" class="s2" d="m777 478l-0.6 0.3-15.1 9.2-27.6-15.1-0.6-0.4 15.7-9.5z"/>
							</g>
							<g id="&lt;Group&gt;">
								<path id="&lt;Path&gt;" class="s2" d="m776.4 478.3l-15.1 9.2-27.6-15.1 15.1-9.2z"/>
							</g>
							<g id="&lt;Group&gt;" style="opacity: .6">
								<path id="&lt;Path&gt;" class="s4" d="m776.4 478.3l-15.1 9.2-27.6-15.1 15.1-9.2z"/>
							</g>
							<g id="&lt;Group&gt;">
								<path id="&lt;Path&gt;" class="s2" d="m762.3 533.4l0.1 3.8c-1 0-2-0.2-2.8-0.7l-99.1-54.4c-1.8-0.9-2.9-2.7-2.9-4.7v-1.4z"/>
							</g>
							<g id="&lt;Group&gt;" style="opacity: .03">
								<path id="&lt;Path&gt;" class="s4" d="m762.3 533.4l0.1 3.8c-1 0-2-0.2-2.8-0.7l-99.1-54.4c-1.8-0.9-2.9-2.7-2.9-4.7v-1.4z"/>
							</g>
							<g id="&lt;Group&gt;" style="opacity: .2">
								<path id="&lt;Path&gt;" class="s21" d="m762.3 533.4l0.1 3.8c-1 0-2-0.2-2.8-0.7l-99.1-54.4c-1.8-0.9-2.9-2.7-2.9-4.7v-1.4z"/>
							</g>
							<g id="&lt;Group&gt;">
								<path id="&lt;Path&gt;" class="s2" d="m760.7 534.3c-1.8 0.7-3.9 0.7-5.7-0.3l-98.6-54.1c-1.8-1-3-2.6-3.3-4.6l-12.1-63.3q-0.1-0.6-0.1-1.1c-0.1-1.8 0.6-3.5 1.8-4.8l102.5 56.2c1.3 0.8 2.2 2 2.5 3.4z"/>
							</g>
							<g id="&lt;Group&gt;" style="opacity: .4">
								<path id="&lt;Path&gt;" class="s4" d="m760.7 534.3c-1.8 0.7-3.9 0.7-5.7-0.3l-98.6-54.1c-1.8-1-3-2.6-3.3-4.6l-12.1-63.3q-0.1-0.6-0.1-1.1c-0.1-1.8 0.6-3.5 1.8-4.8l102.5 56.2c1.3 0.8 2.2 2 2.5 3.4z"/>
							</g>
							<g id="&lt;Group&gt;">
								<path id="&lt;Path&gt;" class="s2" d="m762.3 533.4l-0.7 0.4q-0.4 0.3-0.9 0.5l-13-68.6c-0.3-1.4-1.2-2.6-2.5-3.4l-102.5-56.2q0.6-0.6 1.4-1l102.7 56.3c1.3 0.7 2.2 1.9 2.4 3.4z"/>
							</g>
							<g id="&lt;Group&gt;" style="opacity: .6">
								<path id="&lt;Path&gt;" class="s4" d="m762.3 533.4l-0.7 0.4q-0.4 0.3-0.9 0.5l-13-68.6c-0.3-1.4-1.2-2.6-2.5-3.4l-102.5-56.2q0.6-0.6 1.4-1l102.7 56.3c1.3 0.7 2.2 1.9 2.4 3.4z"/>
							</g>
							<path id="&lt;Path&gt;" class="s2" d="m746.7 463.6l1.6-0.9c0.5 0.6 0.8 1.3 0.9 2.1l13.1 68.6-0.7 0.4q-0.4 0.3-0.9 0.5l-13-68.6c-0.1-0.7-0.5-1.5-1-2.1z"/>
							<path id="&lt;Path&gt;" class="s3" d="m746.7 463.6l1.6-0.9c0.5 0.6 0.8 1.3 0.9 2.1l13.1 68.6-0.7 0.4q-0.4 0.3-0.9 0.5l-13-68.6c-0.1-0.7-0.5-1.5-1-2.1z"/>
							<path id="&lt;Path&gt;" class="s7" d="m746.7 463.6l1.6-0.9c0.5 0.6 0.8 1.3 0.9 2.1l13.1 68.6-0.7 0.4q-0.4 0.3-0.9 0.5l-13-68.6c-0.1-0.7-0.5-1.5-1-2.1z"/>
							<g id="&lt;Group&gt;">
								<path id="&lt;Path&gt;" class="s8" d="m704.6 476.8c-0.8-4.2-5.3-9.8-10.1-12.4-4.8-2.6-8-1.3-7.2 2.9 0.8 4.3 5.3 9.8 10.1 12.4 4.8 2.7 8 1.3 7.2-2.9z"/>
							</g>
						</g>
					</g>
					<path id="&lt;Path&gt;" class="s16" d="m822.4 492c-5.5 3.8-13 0.7-20.3 1.6-7.3 0.9-13.6 2.7-19.5 2.5-5.8-0.2-8.7 1-4.6 5.8 4.1 4.7 15.9 1.9 19.1 3.4 3.2 1.4 5.2 6.5 1.5 10.8-3.5 4 19.6-3.7 22.7-8.5 3.1-4.7 5.3-15 1.1-15.6z"/>
				</g>
			</g>
		</g>
	</g>
	<g id="Speech Bubble">
		<g id="Speech Bubble 5 ">
			<g id="Speech Bubble 6 ">
				<g id="&lt;Group&gt;">
					<path id="&lt;Path&gt;" class="s2" d="m785.3 225.8l5.7-10.7-4.6-13.1v-8.1l14 8.1v8l-6 10.4q-0.2 0.3-0.4 0.4z"/>
					<path id="&lt;Path&gt;" class="s22" d="m785.3 225.8l5.7-10.7-4.6-13.1v-8.1l14 8.1v8l-6 10.4q-0.2 0.3-0.4 0.4z"/>
					<path id="&lt;Path&gt;" class="s2" d="m759.2 137.1c0-2.6 1.9-5.9 4.2-7.2l3.4-2c2.3-1.3 6.1-1.3 8.4 0l48.9 28.2c2.3 1.3 4.2 4.6 4.2 7.2v54.5c0 2.7-1.9 5.9-4.2 7.3l-3.4 1.9c-2.3 1.4-6 1.4-8.4 0l-20.7-11.9-6 10.4c-0.4 0.7-1.3 0.6-1.6-0.2l-6.3-18.2-14.3-8.2c-2.3-1.4-4.2-4.6-4.2-7.3z"/>
					<path id="&lt;Path&gt;" class="s22" d="m828.3 217.8c0 2.7-1.9 5.9-4.2 7.3l-3.4 1.9c-2.1 1.2-5.3 1.3-7.6 0.4 1.9 0.7 3.4-0.4 3.4-2.8v-54.5c0-1.3-0.4-2.8-1.2-4.1l11.8-6.8c0.7 1.3 1.2 2.8 1.2 4.1z"/>
					<path id="&lt;Path&gt;" class="s6" d="m759.4 135.9c0.5-1.7 2.1-2.3 4-1.2l48.9 28.2c1.2 0.6 2.3 1.8 3 3.1l11.8-6.8c-0.8-1.3-1.8-2.5-3-3.1l-48.9-28.2c-2.3-1.3-6.1-1.3-8.4 0l-3.4 2c-2 1.1-3.6 3.7-4 6z"/>
				</g>
			</g>
			<g id="&lt;Group&gt;">
				<g id="&lt;Group&gt;">
					<g id="&lt;Group&gt;">
						<path id="&lt;Path&gt;" class="s4" d="m767.6 175.4l2.8-1.4c-4.2-13.7 0.1-18.3 7.5-18.9-2.9 1.8-4.4 9.3-2 16.3l2.9-1.3c0.6-0.3 1.5 0.7 1.5 1.6l0.2 13.3c0.1 0.6-0.4 0.8-0.9 0.4l-11.5-7.9c-0.8-0.6-1.1-1.8-0.5-2.1z"/>
					</g>
					<g id="&lt;Group&gt;" style="opacity: .8">
						<path id="&lt;Path&gt;" class="s4" d="m776.3 164.2c0-4.3 1.3-7.9 3.2-9.1 0 0 7.9 0.7 15.4 11.8 0 0-10.7-8.9-18.6-2.7z"/>
					</g>
				</g>
				<g id="&lt;Group&gt;">
					<g id="&lt;Group&gt;">
						<path id="&lt;Path&gt;" class="s4" d="m808.2 185.4l-2.9 1.4c4.2 13.8 0 18.3-7.5 18.9 3-1.8 4.4-9.2 2-16.3l-2.8 1.4c-0.6 0.2-1.5-0.7-1.5-1.6l-0.3-13.3c0-0.6 0.5-0.8 1-0.5l11.5 8c0.7 0.5 1.1 1.8 0.5 2z"/>
					</g>
					<g id="&lt;Group&gt;" style="opacity: .8">
						<path id="&lt;Path&gt;" class="s4" d="m799.4 196.7c0 4.3-1.3 7.8-3.2 9 0 0-7.8-0.7-15.3-11.7 0 0 10.7 8.8 18.5 2.7z"/>
					</g>
				</g>
			</g>
		</g>
	</g>
</svg>