<svg version="1.2" xmlns="http://www.w3.org/2000/svg" viewBox="0 0 2816 2800" width="2816" height="2800"><defs><linearGradient id="P" gradientUnits="userSpaceOnUse"/><linearGradient id="g1" x2="1" href="#P" gradientTransform="matrix(52.81,-927.956,927.519,52.785,78.216,1108.276)"><stop stop-color="#ffc444"/><stop offset="1" stop-color="#f36f56"/></linearGradient><linearGradient id="g2" x2="1" href="#P" gradientTransform="matrix(53.923,-862.35,863.479,53.993,94.879,1057.179)"><stop stop-color="#ffc444"/><stop offset="1" stop-color="#f36f56"/></linearGradient><linearGradient id="g3" x2="1" href="#P" gradientTransform="matrix(-411.622,1010.346,-1010.477,-411.675,859.958,48.974)"><stop stop-color="#fcb148"/><stop offset=".32" stop-color="#ffc444"/><stop offset=".87" stop-color="#f8924f"/><stop offset="1" stop-color="#f8924f"/></linearGradient><linearGradient id="g4" x2="1" href="#P" gradientTransform="matrix(325.361,0,0,362.799,186.174,265.222)"><stop stop-color="#fcb148"/><stop offset=".32" stop-color="#ffc444"/><stop offset=".87" stop-color="#f8924f"/><stop offset="1" stop-color="#f8924f"/></linearGradient><linearGradient id="g5" x2="1" href="#P" gradientTransform="matrix(-198.057,83.184,-37.063,-88.246,1257.274,2731.313)"><stop stop-color="#40447e"/><stop offset="1" stop-color="#3c3b6b"/></linearGradient><linearGradient id="g6" x2="1" href="#P" gradientTransform="matrix(-202.384,85.001,-72.376,-172.325,1262.339,2543.967)"><stop stop-color="#40447e"/><stop offset="1" stop-color="#3c3b6b"/></linearGradient><linearGradient id="g7" x2="1" href="#P" gradientTransform="matrix(1817.343,0,0,1432.617,56.151,1010.638)"><stop stop-color="#40447e"/><stop offset="1" stop-color="#3c3b6b"/></linearGradient><linearGradient id="g8" x2="1" href="#P" gradientTransform="matrix(2737.753,0,0,284.473,56.151,2306.569)"><stop stop-color="#40447e"/><stop offset="1" stop-color="#3c3b6b"/></linearGradient><linearGradient id="g9" x2="1" href="#P" gradientTransform="matrix(2005.934,0,0,189.019,324.633,2331.657)"><stop stop-color="#40447e"/><stop offset="1" stop-color="#3c3b6b"/></linearGradient><linearGradient id="g10" x2="1" href="#P" gradientTransform="matrix(-1608.697,3217.388,-3259.574,-1629.791,2819.881,479.733)"><stop offset="0" stop-color="#e38ddd"/><stop offset="1" stop-color="#9571f6"/></linearGradient><linearGradient id="g11" x2="1" href="#P" gradientTransform="matrix(275.255,1101.022,-3101.412,775.351,1227.441,-44.619)"><stop offset="0" stop-color="#e38ddd"/><stop offset="1" stop-color="#9571f6"/></linearGradient><linearGradient id="g12" x2="1" href="#P" gradientTransform="matrix(-454.301,2178.146,-2909.013,-606.739,1064.98,957.759)"><stop stop-color="#ff9085"/><stop offset="1" stop-color="#fb6fbb"/></linearGradient><linearGradient id="g13" x2="1" href="#P" gradientTransform="matrix(-98.835,2.857,-1.4,-48.439,706.705,2672.639)"><stop stop-color="#444b8c"/><stop offset="1" stop-color="#26264f"/></linearGradient><linearGradient id="g14" x2="1" href="#P" gradientTransform="matrix(-101.286,27.848,-14.633,-53.222,1021.028,2643.032)"><stop stop-color="#444b8c"/><stop offset="1" stop-color="#26264f"/></linearGradient><linearGradient id="g15" x2="1" href="#P" gradientTransform="matrix(-296.348,-668.039,246.041,-109.146,-314.456,3084.725)"><stop stop-color="#aa80f9"/><stop offset="1" stop-color="#6165d7"/></linearGradient><linearGradient id="g16" x2="1" href="#P" gradientTransform="matrix(-401.909,-669.983,438.563,-263.085,-654.279,3505.857)"><stop stop-color="#aa80f9"/><stop offset="1" stop-color="#6165d7"/></linearGradient><linearGradient id="g17" x2="1" href="#P" gradientTransform="matrix(-342.944,1644.248,-1087.021,-226.722,1358.345,1103.827)"><stop stop-color="#ff9085"/><stop offset="1" stop-color="#fb6fbb"/></linearGradient><linearGradient id="g18" x2="1" href="#P" gradientTransform="matrix(143.244,-680.409,561.193,118.146,-6.619,2324.479)"><stop stop-color="#ff9085"/><stop offset="1" stop-color="#fb6fbb"/></linearGradient><linearGradient id="g19" x2="1" href="#P" gradientTransform="matrix(-371.787,1782.534,-1470.396,-306.684,895.56,975.939)"><stop stop-color="#ff9085"/><stop offset="1" stop-color="#fb6fbb"/></linearGradient><linearGradient id="g20" x2="1" href="#P" gradientTransform="matrix(-59.36,-168.186,385.513,-136.063,818.833,1887.189)"><stop stop-color="#311944"/><stop offset="1" stop-color="#893976"/></linearGradient><linearGradient id="g21" x2="1" href="#P" gradientTransform="matrix(19.907,137.538,-193.109,27.95,622.287,1626.367)"><stop stop-color="#311944"/><stop offset="1" stop-color="#893976"/></linearGradient><linearGradient id="g22" x2="1" href="#P" gradientTransform="matrix(110.711,0,0,68.913,593.879,1619.118)"><stop stop-color="#ffc444"/><stop offset="1" stop-color="#f36f56"/></linearGradient><linearGradient id="g23" x2="1" href="#P" gradientTransform="matrix(-124.673,-177.036,223.803,-157.608,853.746,1773.813)"><stop stop-color="#444b8c"/><stop offset="1" stop-color="#26264f"/></linearGradient><linearGradient id="g24" x2="1" href="#P" gradientTransform="matrix(232.663,-472.596,482.517,237.547,642.634,1827.691)"><stop stop-color="#311944"/><stop offset="1" stop-color="#893976"/></linearGradient><linearGradient id="g25" x2="1" href="#P" gradientTransform="matrix(500.761,0,0,316.434,671.807,1433.568)"><stop stop-color="#311944"/><stop offset="1" stop-color="#893976"/></linearGradient><linearGradient id="g26" x2="1" href="#P" gradientTransform="matrix(74.675,0,0,53.443,1105.671,1683.484)"><stop stop-color="#ffc444"/><stop offset="1" stop-color="#f36f56"/></linearGradient><linearGradient id="g27" x2="1" href="#P" gradientTransform="matrix(-95.934,610.304,-727.251,-114.318,729.79,1022.131)"><stop stop-color="#ffc444"/><stop offset="1" stop-color="#f36f56"/></linearGradient><linearGradient id="g28" x2="1" href="#P" gradientTransform="matrix(110.372,0,0,123.097,589.484,1051.067)"><stop stop-color="#40447e"/><stop offset="1" stop-color="#3c3b6b"/></linearGradient><linearGradient id="g29" x2="1" href="#P" gradientTransform="matrix(1.749,141.648,-154.976,1.913,689.338,1106.965)"><stop stop-color="#ffc444"/><stop offset="1" stop-color="#f36f56"/></linearGradient><linearGradient id="g30" x2="1" href="#P" gradientTransform="matrix(95.341,0,0,86.822,602.694,1105.849)"><stop stop-color="#40447e"/><stop offset="1" stop-color="#3c3b6b"/></linearGradient><linearGradient id="g31" x2="1" href="#P" gradientTransform="matrix(21.052,0,0,7.59,666.819,1154.592)"><stop stop-color="#ffc444"/><stop offset="1" stop-color="#f36f56"/></linearGradient><linearGradient id="g32" x2="1" href="#P" gradientTransform="matrix(6.368,110.805,-53.304,3.063,1916.823,1474.674)"><stop stop-color="#311944"/><stop offset="1" stop-color="#a03976"/></linearGradient><linearGradient id="g33" x2="1" href="#P" gradientTransform="matrix(17.394,302.666,-398.74,22.916,2036.951,1461.149)"><stop stop-color="#aa80f9"/><stop offset="1" stop-color="#6165d7"/></linearGradient><linearGradient id="g34" x2="1" href="#P" gradientTransform="matrix(213.176,108.379,-41.332,81.299,2461.399,2049.712)"><stop offset="0" stop-color="#e38ddd"/><stop offset="1" stop-color="#9571f6"/></linearGradient><linearGradient id="g35" x2="1" href="#P" gradientTransform="matrix(59.103,14.247,-17.361,72.023,2481.994,2057.835)"><stop stop-color="#311944"/><stop offset="1" stop-color="#a03976"/></linearGradient><linearGradient id="g36" x2="1" href="#P" gradientTransform="matrix(-209.492,273.604,-201.379,-154.191,2424.828,2280.471)"><stop offset="0" stop-color="#e38ddd"/><stop offset="1" stop-color="#9571f6"/></linearGradient><linearGradient id="g37" x2="1" href="#P" gradientTransform="matrix(-142.66,30.875,-36.331,-167.874,2567.674,2365.842)"><stop stop-color="#311944"/><stop offset="1" stop-color="#a03976"/></linearGradient><linearGradient id="g38" x2="1" href="#P" gradientTransform="matrix(99.356,513.813,-485.869,93.952,2036.575,1777.624)"><stop stop-color="#ffc444"/><stop offset="1" stop-color="#f36f56"/></linearGradient><linearGradient id="g39" x2="1" href="#P" gradientTransform="matrix(240.797,361.094,-243.889,162.638,2287.889,1484.167)"><stop stop-color="#ffc444"/><stop offset="1" stop-color="#f36f56"/></linearGradient><linearGradient id="g40" x2="1" href="#P" gradientTransform="matrix(-192.685,622.522,-342.54,-106.024,1588.389,1496.015)"><stop stop-color="#ffc444"/><stop offset="1" stop-color="#f36f56"/></linearGradient><linearGradient id="g41" x2="1" href="#P" gradientTransform="matrix(-84.37,712.843,-502.486,-59.473,2046.63,1314.745)"><stop stop-color="#aa80f9"/><stop offset="1" stop-color="#6165d7"/></linearGradient><linearGradient id="g42" x2="1" href="#P" gradientTransform="matrix(-67.641,-338.988,393.161,-78.451,2300.238,1675.53)"><stop stop-color="#311944"/><stop offset="1" stop-color="#6b3976"/></linearGradient><linearGradient id="g43" x2="1" href="#P" gradientTransform="matrix(-50.671,219.099,-459.927,-106.368,2389.538,1337.123)"><stop stop-color="#311944"/><stop offset="1" stop-color="#a03976"/></linearGradient><linearGradient id="g44" x2="1" href="#P" gradientTransform="matrix(-120.313,68.078,-66.241,-117.066,2521.98,1392.375)"><stop stop-color="#311944"/><stop offset="1" stop-color="#a03976"/></linearGradient><linearGradient id="g45" x2="1" href="#P" gradientTransform="matrix(-366.715,3098.356,-2551.556,-301.997,2479.339,-1171.367)"><stop stop-color="#aa80f9"/><stop offset="1" stop-color="#6165d7"/></linearGradient><linearGradient id="g46" x2="1" href="#P" gradientTransform="matrix(-620.509,-236.854,267.23,-700.089,2979.637,2051.526)"><stop stop-color="#311944"/><stop offset="1" stop-color="#a03976"/></linearGradient><linearGradient id="g47" x2="1" href="#P" gradientTransform="matrix(-80.884,683.383,-411.577,-48.713,2209.061,1342.013)"><stop stop-color="#aa80f9"/><stop offset="1" stop-color="#6165d7"/></linearGradient><linearGradient id="g48" x2="1" href="#P" gradientTransform="matrix(5.349,105.636,-284.118,14.386,1651.656,2226.551)"><stop stop-color="#aa80f9"/><stop offset="1" stop-color="#6165d7"/></linearGradient><linearGradient id="g49" x2="1" href="#P" gradientTransform="matrix(-29.428,229.976,-274.563,-35.134,1483.837,2136.873)"><stop stop-color="#ffc444"/><stop offset="1" stop-color="#f36f56"/></linearGradient><linearGradient id="g50" x2="1" href="#P" gradientTransform="matrix(-485.193,0,0,-271.224,1930.337,2047.801)"><stop stop-color="#ffc444"/><stop offset=".1" stop-color="#febc46"/><stop offset="1" stop-color="#f36f56"/></linearGradient><linearGradient id="g51" x2="1" href="#P" gradientTransform="matrix(295.987,309.598,-310.15,296.515,1354.521,1711.636)"><stop stop-color="#444b8c"/><stop offset="1" stop-color="#26264f"/></linearGradient><linearGradient id="g52" x2="1" href="#P" gradientTransform="matrix(27.895,217.997,-156.381,20.011,2003.585,2129.825)"><stop stop-color="#ffc444"/><stop offset=".1" stop-color="#febc46"/><stop offset="1" stop-color="#f36f56"/></linearGradient><linearGradient id="g53" x2="1" href="#P" gradientTransform="matrix(-29.08,227.252,-156.477,-20.023,1319.875,2137.806)"><stop stop-color="#ffc444"/><stop offset=".1" stop-color="#febc46"/><stop offset="1" stop-color="#f36f56"/></linearGradient><linearGradient id="g54" x2="1" href="#P" gradientTransform="matrix(-2.736,129.983,-229.432,-4.83,1658.714,1804.129)"><stop stop-color="#311944"/><stop offset="1" stop-color="#a03976"/></linearGradient><linearGradient id="g55" x2="1" href="#P" gradientTransform="matrix(-311.518,146.105,-159.75,-340.61,1973.858,1789.438)"><stop stop-color="#311944"/><stop offset="1" stop-color="#a03976"/></linearGradient><linearGradient id="g56" x2="1" href="#P" gradientTransform="matrix(-291.221,0,0,-171.069,1671.656,2227.561)"><stop stop-color="#aa80f9"/><stop offset="1" stop-color="#6165d7"/></linearGradient><linearGradient id="g57" x2="1" href="#P" gradientTransform="matrix(-291.22,0,0,-172.577,1671.656,2228.916)"><stop stop-color="#aa80f9"/><stop offset="1" stop-color="#6165d7"/></linearGradient><linearGradient id="g58" x2="1" href="#P" gradientTransform="matrix(66.62,-82.905,73.608,59.15,1597.001,2457.762)"><stop stop-color="#311944"/><stop offset="1" stop-color="#6b3976"/></linearGradient><linearGradient id="g59" x2="1" href="#P" gradientTransform="matrix(85.755,-107.886,88.183,70.094,1632.927,2437.26)"><stop stop-color="#311944"/><stop offset="1" stop-color="#a03976"/></linearGradient><linearGradient id="g60" x2="1" href="#P" gradientTransform="matrix(-28.43,-145.065,192.588,-37.743,1742.049,2162.192)"><stop stop-color="#311944"/><stop offset="1" stop-color="#a03976"/></linearGradient><linearGradient id="g61" x2="1" href="#P" gradientTransform="matrix(47.313,-134.054,347.058,122.491,1599.129,2430.191)"><stop stop-color="#311944"/><stop offset="1" stop-color="#893976"/></linearGradient><linearGradient id="g62" x2="1" href="#P" gradientTransform="matrix(-12.489,86.286,-128.978,-18.668,1769.804,2239.113)"><stop stop-color="#311944"/><stop offset="1" stop-color="#893976"/></linearGradient><linearGradient id="g63" x2="1" href="#P" gradientTransform="matrix(82.412,-117.024,147.938,104.182,1618.259,2331.982)"><stop stop-color="#444b8c"/><stop offset="1" stop-color="#26264f"/></linearGradient><linearGradient id="g64" x2="1" href="#P" gradientTransform="matrix(-153.795,-312.396,318.953,-157.023,1757.809,2367.597)"><stop stop-color="#311944"/><stop offset="1" stop-color="#893976"/></linearGradient><linearGradient id="g65" x2="1" href="#P" gradientTransform="matrix(-331.013,0,0,-209.169,1738.525,2107.074)"><stop stop-color="#311944"/><stop offset="1" stop-color="#893976"/></linearGradient><linearGradient id="g66" x2="1" href="#P" gradientTransform="matrix(257.766,332.669,-991.218,768.035,1663.913,2278.857)"><stop stop-color="#aa80f9"/><stop offset="1" stop-color="#6165d7"/></linearGradient><linearGradient id="g67" x2="1" href="#P" gradientTransform="matrix(501.573,1006.536,-1088.812,542.572,1758.51,369.693)"><stop stop-color="#311944"/><stop offset="1" stop-color="#a03976"/></linearGradient><linearGradient id="g68" x2="1" href="#P" gradientTransform="matrix(488.245,905.55,-965.334,520.479,1922.089,762.416)"><stop stop-color="#ff9085"/><stop offset="1" stop-color="#fb6fbb"/></linearGradient><linearGradient id="g69" x2="1" href="#P" gradientTransform="matrix(365.981,734.436,-427.824,213.191,1841.249,866.745)"><stop stop-color="#ff9085"/><stop offset="1" stop-color="#fb6fbb"/></linearGradient><linearGradient id="g70" x2="1" href="#P" gradientTransform="matrix(540.762,1085.18,-1160.578,578.334,2230.075,-48.876)"><stop stop-color="#311944"/><stop offset="1" stop-color="#a03976"/></linearGradient><linearGradient id="g71" x2="1" href="#P" gradientTransform="matrix(528.786,980.741,-1033.575,557.272,2404.067,387.853)"><stop stop-color="#ffc444"/><stop offset="1" stop-color="#f36f56"/></linearGradient><linearGradient id="g72" x2="1" href="#P" gradientTransform="matrix(408.06,818.879,-486.984,242.672,2324.135,485.157)"><stop stop-color="#ffc444"/><stop offset="1" stop-color="#f36f56"/></linearGradient><linearGradient id="g73" x2="1" href="#P" gradientTransform="matrix(484.093,971.458,-1040.178,518.337,1586.761,-611.085)"><stop stop-color="#444b8c"/><stop offset="1" stop-color="#26264f"/></linearGradient><linearGradient id="g74" x2="1" href="#P" gradientTransform="matrix(474.291,879.67,-934.825,504.029,1646.911,-407.68)"><stop stop-color="#aa80f9"/><stop offset="1" stop-color="#6165d7"/></linearGradient><linearGradient id="g75" x2="1" href="#P" gradientTransform="matrix(360.852,724.144,-434.632,216.584,1798.177,118.167)"><stop stop-color="#aa80f9"/><stop offset="1" stop-color="#6165d7"/></linearGradient></defs><style>.a{fill:#f4f7fa}.b{fill:url(#g1)}.c{fill:url(#g2)}.d{fill:url(#g3)}.e{opacity:.2;mix-blend-mode:multiply;fill:url(#g4)}.f{opacity:.3;mix-blend-mode:soft-light;fill:#fff}.g{fill:url(#g5)}.h{fill:url(#g6)}.i{fill:url(#g7)}.j{fill:#fff}.k{opacity:.2;mix-blend-mode:multiply;fill:#b7c0ce}.l{fill:url(#g8)}.m{opacity:.3;mix-blend-mode:multiply;fill:url(#g9)}.n{fill:#d8dee8}.o{fill:url(#g10)}.p{opacity:.74;mix-blend-mode:soft-light;fill:#fff}.q{fill:url(#g11)}.r{fill:url(#g12)}.s{fill:url(#g13)}.t{fill:url(#g14)}.u{fill:url(#g15)}.v{fill:url(#g16)}.w{fill:url(#g17)}.x{fill:url(#g18)}.y{fill:url(#g19)}.z{fill:url(#g20)}.A{fill:url(#g21)}.B{fill:url(#g22)}.C{fill:url(#g23)}.D{fill:url(#g24)}.E{opacity:.3;mix-blend-mode:multiply;fill:url(#g25)}.F{fill:url(#g26)}.G{fill:url(#g27)}.H{fill:url(#g28)}.I{fill:url(#g29)}.J{fill:url(#g30)}.K{fill:url(#g31)}.L{fill:url(#g32)}.M{fill:url(#g33)}.N{fill:url(#g34)}.O{fill:url(#g35)}.P{fill:url(#g36)}.Q{fill:url(#g37)}.R{fill:url(#g38)}.S{opacity:.3;mix-blend-mode:multiply;fill:url(#g39)}.T{fill:url(#g40)}.U{fill:url(#g41)}.V{fill:url(#g42)}.W{fill:url(#g43)}.X{fill:url(#g44)}.Y{opacity:.3;mix-blend-mode:multiply;fill:url(#g45)}.Z{fill:url(#g46)}.a0{fill:url(#g47)}.a1{fill:url(#g48)}.a2{fill:url(#g49)}.a3{opacity:.5;mix-blend-mode:multiply;fill:url(#g50)}.a4{fill:url(#g51)}.a5{fill:url(#g52)}.a6{fill:url(#g53)}.a7{fill:url(#g54)}.a8{fill:url(#g55)}.a9{fill:url(#g56)}.aa{opacity:.3;mix-blend-mode:multiply;fill:url(#g57)}.ab{fill:url(#g58)}.ac{fill:url(#g59)}.ad{fill:url(#g60)}.ae{fill:url(#g61)}.af{fill:url(#g62)}.ag{fill:url(#g63)}.ah{fill:url(#g64)}.ai{opacity:.3;mix-blend-mode:multiply;fill:url(#g65)}.aj{fill:url(#g66)}.ak{fill:url(#g67)}.al{fill:url(#g68)}.am{fill:url(#g69)}.an{fill:url(#g70)}.ao{fill:url(#g71)}.ap{fill:url(#g72)}.aq{fill:url(#g73)}.ar{fill:url(#g74)}.as{fill:url(#g75)}</style><path class="a" d="m2774.4 1196c-76.3-499.6-389.2-1113.3-1007.4-1177.5 0 0-469.3-57.1-932 29.4-274.6 51.4-515.4 204.2-667.7 423.9-152.4 219.7-203.3 487.6-141.5 743 40.1 165.9 67.2 337.6 59.8 508.1-13 296.7-5.5 573.6 282.4 750.5 257.1 158 580.6 297.3 889.2 321.7 209.8 16.6 445-10.2 647.2-64.8 1030.3-278.3 946.4-1034.8 870-1534.3z"/><path class="b" d="m405.1 189.4l28.7-53.4 17 58.2 39.2-46.2 4.5 60.4 47.9-37.1-8.2 60.1 54.6-26.4-20.5 57.1 58.9-14.4-31.9 51.6 60.6-1.9-41.9 43.8 59.7 10.8-50.1 34.1 56.1 23-56.1 22.9 50.1 34.2-59.7 10.8 41.9 43.8-60.6-1.9 31.9 51.6-58.9-14.4 20.5 57-54.6-26.3 8.2 60.1-47.9-37.2-4.5 60.5-39.2-46.3-17 58.2-28.7-53.4-28.7 53.4-17-58.2-39.1 46.3-4.5-60.5-48 37.2 8.2-60.1-54.6 26.3 20.5-57-58.9 14.4 31.9-51.6-60.6 1.9 41.9-43.8-59.7-10.8 50.2-34.2-56.2-22.9 56.2-23-50.2-34.1 59.7-10.8-41.9-43.8 60.6 1.9-31.9-51.6 58.9 14.4-20.5-57.1 54.6 26.4-8.2-60.1 48 37.1 4.5-60.4 39.1 46.2 17-58.2z"/><path class="c" d="m604 450.9l53.8-15.9-49.5-26.4 49.3-26.7-53.8-15.5 42.7-36.4-56-4 34.3-44.4-55.6 7.7 24.3-50.6-52.8 19.1 13.2-54.6-47.6 29.7 1.6-56.1-40.5 38.9-10.1-55.2-31.4 46.5-21.4-51.9-21.1 52-31.7-46.3-9.8 55.2-40.6-38.7 1.8 56.1-47.8-29.4 13.5 54.4-52.8-18.8 24.4 50.4-55.6-7.4 34.5 44.3-55.9 4.3 42.9 36.1-53.8 15.8 49.4 26.5-49.3 26.6 53.9 15.6-42.8 36.3 56 4.1-34.2 44.4 55.5-7.7-24.2 50.6 52.7-19.1-13.2 54.5 47.6-29.6-1.5 56.1 40.4-38.9 10.1 55.1 31.5-46.4 21.3 51.9 21.1-52 31.7 46.3 9.9-55.2 40.6 38.7-1.9-56.1 47.8 29.4-13.5-54.4 52.9 18.8-24.5-50.5 55.6 7.5-34.5-44.3 56-4.3z"/><path class="d" d="m624.1 409.1c0 112-84.2 204.4-192.7 217.4q-12.9 1.5-26.3 1.5c-120.9 0-218.9-98-218.9-218.9 0-55.1 20.3-105.4 53.9-143.9 40.1-46 99.2-75.1 165-75.1 120.9 0 219 98.1 219 219z"/><path class="e" d="m505.6 538.2c-11.1 30.9-37.1 61.2-74.2 88.3q-12.9 1.5-26.3 1.5c-120.9 0-218.9-98-218.9-218.9 0-55.1 20.3-105.4 53.9-143.9 1.7 16 9.9 33.7 29.7 52 20.2 18.6 52.6 37.7 102.8 55.9 119.7 43.4 154.4 105.2 133 165.1z"/><path class="f" d="m568.7 409.1c0 90.3-73.2 163.6-163.6 163.6-90.3 0-163.6-73.3-163.6-163.6 0-90.4 73.3-163.6 163.6-163.6 90.4 0 163.6 73.2 163.6 163.6z"/><path class="g" d="m2793.9 2428.3l-2737.7-24.1v71.2c0 19.3 11.9 35.8 28.1 38.7l774.1 140.2c9.2 1.7 18.5 2.1 27.8 1.3l1878-159.8c16.7-1.5 29.7-18 29.7-37.8z"/><path class="h" d="m1800.4 2312.9l-1715.9 130.2c-30.7 2.3-55.7-22.4-55.7-55.3v-1317.6c0-32.9 25-59.6 55.7-59.6h1715.9c25.3 0 45.7 24.1 45.7 53.9v1191.1c0 29.7-20.4 55.3-45.7 57.3z"/><path class="i" d="m1827.7 2312.9l-1715.9 130.2c-30.7 2.3-55.6-22.4-55.6-55.3v-1317.6c0-32.9 24.9-59.6 55.6-59.6h1715.9c25.3 0 45.8 24.1 45.8 53.9v1191.1c0 29.7-20.5 55.3-45.8 57.3z"/><path class="j" d="m1774.3 2228.9l-1598.2 113.1c-25 1.8-45.3-18.5-45.3-45.4v-1153.5c0-26.9 20.3-48.7 45.3-48.9l1598.2-7.1c20.9-0.1 37.7 19.7 37.7 44.1v1050.7c0 24.5-16.8 45.5-37.7 47z"/><path class="j" d="m1030.4 1046.7c0 12.2-8.8 22.2-19.8 22.2-10.9 0-19.7-9.9-19.7-22.1 0-12.3 8.8-22.3 19.7-22.3 11 0 19.8 9.9 19.8 22.2z"/><path class="k" d="m1414.3 1951.5c-132.3-76.5-236.3 20.4-336.7-75.2-60.8-57.9-30.9-101.1-105.8-187.7-83-95.9-137-63.7-220.3-150-105.4-109.2-52.7-194.1-143.5-272.4-110.1-95.1-228.9-7.1-333.7-98.3-45.2-39.3-70-96.5-83-157.3h-102.6c-18 0-32.5 15.7-32.5 35v1365.8c0 19.3 14.5 33.8 32.5 32.5l1748.8-133.4c8.6-0.6 16.2-6 21.1-13.8-128-5-206.7-51.1-256.9-98.8-98.4-93.2-81.3-185.1-187.4-246.4z"/><path class="l" d="m1896.1 2307l-1839.9 137.1 802.2 145.2c9.2 1.7 18.5 2.2 27.8 1.4l1907.7-162.4-868.5-120.4c-9.7-1.4-19.5-1.7-29.3-0.9z"/><path class="m" d="m324.6 2447.5l1531.9-115.8 474.1 65.1-1518.7 123.9z"/><path class="n" d="m456.9 1184.8l-176 0.6v-56.9h176z"/><path class="n" d="m1379 1181.6l-810.3 2.8v-55.9h810.3z"/><path class="n" d="m738.5 1278.4l-169.8 1.6v-55.9l169.8-1.1z"/><path class="n" d="m1629.6 1270l-783.2 7.4v-55l783.2-4.7z"/><path class="n" d="m738.5 1373l-169.8 2.6v-56l169.8-2z"/><path class="n" d="m1629.6 1359.2l-783.2 12.1v-55l783.2-9.3z"/><path class="n" d="m456.9 1473.5l-176 3.8v-57l176-3.1z"/><path class="n" d="m1379 1453.8l-810.3 17.3v-55.9l810.3-14.5z"/><path class="n" d="m738.5 1562.1l-169.8 4.6v-55.9l169.8-4.1z"/><path class="n" d="m1629.6 1537.7l-783.2 21.4v-55l783.2-18.7z"/><path class="n" d="m738.5 1656.6l-169.8 5.7v-56l169.8-5z"/><path class="n" d="m1629.6 1626.9l-783.2 26.1v-55l783.2-23.3z"/><path class="n" d="m738.5 1751.2l-169.8 6.6v-55.9l169.8-6.1z"/><path class="n" d="m1629.6 1716.2l-783.2 30.7v-54.9l783.2-28.1z"/><path class="n" d="m1013 1833.3l-164 7.4v-54.9l164-6.9z"/><path class="n" d="m1749.2 1800l-631.9 28.6v-54l631.9-26.4z"/><path class="n" d="m456.9 1954.7l-176 9v-56.9l176-8.4z"/><path class="n" d="m1379 1907.5l-810.3 41.5v-56l810.3-38.6z"/><path class="n" d="m738.5 2034.8l-169.8 9.7v-55.9l169.8-9.1z"/><path class="n" d="m1629.6 1983.9l-783.2 44.8v-55l783.2-42z"/><path class="n" d="m738.5 2129.4l-169.8 10.7v-55.9l169.8-10.2z"/><path class="n" d="m1629.6 2073.1l-783.2 49.5v-55l783.2-46.7z"/><path class="n" d="m456.9 2243.4l-176 12.2v-57l176-11.5z"/><path class="n" d="m1379 2179.7l-810.3 56v-56l810.3-53.1z"/><path class="o" d="m2041.6 446.6l-1415.9-46.6c-47.5-1.5-86.1 35.9-86.1 83.7v1380c0 47.8 38.6 84.8 86.1 82.8l1415.9-60.4c41-1.8 74-39 74-83.1v-1274.1c0-44.1-33-81-74-82.3z"/><path class="p" d="m625.7 1919c-32.3 1.3-58.5-23.9-58.5-56.4v-1378.1c0-32.5 26.2-58 58.5-57l1415.9 44.7c27.9 0.8 50.5 25.9 50.5 56v1275.7c0 30.1-22.6 55.4-50.5 56.6z"/><path class="q" d="m2041.6 446.6l-1415.9-46.6c-47.5-1.5-86.1 35.9-86.1 83.7v62l1576 40.4v-57.2c0-44.1-33-81-74-82.3z"/><path class="j" d="m692.7 479.8c0 15.5-12.5 27.7-27.9 27.3-15.5-0.4-28-13.4-28-29 0-15.5 12.5-27.7 28-27.3 15.4 0.5 27.9 13.5 27.9 29z"/><path class="j" d="m790.2 482.6c0 15.4-12.4 27.6-27.7 27.2-15.3-0.4-27.7-13.3-27.7-28.8 0-15.5 12.4-27.7 27.7-27.2 15.3 0.5 27.7 13.4 27.7 28.8z"/><path class="j" d="m886.8 485.4c0 15.4-12.3 27.5-27.4 27.1-15.2-0.4-27.5-13.3-27.5-28.7 0-15.4 12.3-27.5 27.5-27.1 15.1 0.5 27.4 13.3 27.4 28.7z"/><path class="j" d="m1387.8 718.4l-747.8-13.4v43.9l747.8 11.9z"/><path class="j" d="m1950.1 728.5v41.2l79.1 1.2v-41z"/><g style="mix-blend-mode:soft-light"><path class="j" d="m798.1 856.5l-158.1-1.7v-45.3l158.1 2z"/><path class="j" d="m1642.7 865.5l-743.7-7.9v-44.8l743.7 9.6z"/><path class="j" d="m1053.2 935.1l-154.2-1v-44.8l154.2 1.4z"/><path class="j" d="m1877.2 940.8l-725.6-5v-44.2l725.6 6.6z"/><path class="j" d="m1053.2 1011l-154.2-0.5v-44.7l154.2 0.8z"/><path class="j" d="m1877.2 1013.5l-725.6-2.2v-44.2l725.6 3.8z"/><path class="j" d="m798.1 1087.1l-158.1 0.1v-45.4l158.1 0.3z"/><path class="j" d="m1642.7 1086.5l-743.7 0.5v-44.8l743.7 1.2z"/><path class="j" d="m1053.2 1162.8l-154.2 0.7v-44.8l154.2-0.3z"/><path class="j" d="m1877.2 1159.1l-725.6 3.2v-44.2l725.6-1.6z"/><path class="j" d="m1053.2 1238.7l-154.2 1.3v-44.8l154.2-1z"/><path class="j" d="m1877.2 1231.8l-725.6 6.1v-44.2l725.6-4.5z"/><path class="j" d="m1053.2 1314.6l-154.2 1.8v-44.7l154.2-1.6z"/><path class="j" d="m1877.2 1304.6l-725.6 8.8v-44.2l725.6-7.2z"/><path class="j" d="m1304.2 1386.5l-150.2 2.4v-44.2l150.2-2.1z"/><path class="j" d="m1989.7 1375.6l-589.5 9.4v-43.7l589.5-8.1z"/><path class="j" d="m798.1 1471.4l-158.1 3.1v-45.4l158.1-2.7z"/><path class="j" d="m1642.7 1454.8l-743.7 14.6v-44.8l743.7-13z"/><path class="j" d="m1053.2 1542.2l-154.2 3.7v-44.8l154.2-3.3z"/><path class="j" d="m1877.2 1522.9l-725.6 17v-44.2l725.6-15.4z"/><path class="j" d="m1053.2 1618.1l-154.2 4.2v-44.7l154.2-3.9z"/><path class="j" d="m1877.2 1595.7l-725.6 19.8v-44.3l725.6-18.1z"/><path class="j" d="m798.1 1701.9l-158.1 4.9v-45.3l158.1-4.6z"/><path class="j" d="m1642.7 1675.7l-743.7 23.1v-44.8l743.7-21.4z"/><path class="j" d="m1053.2 1769.9l-154.2 5.4v-44.8l154.2-5z"/><path class="j" d="m1877.2 1741.2l-725.6 25.3v-44.2l725.6-23.7z"/></g><g style="opacity:.5;mix-blend-mode:soft-light"><path class="j" d="m1491.2 977.1c-165.3-240.7-451.6-164.1-632.7-430-32.6-47.9-54.8-96.7-70-141.7l-162.8-5.4c-47.5-1.5-86.1 35.9-86.1 83.7v1380c0 47.8 38.6 84.8 86.1 82.8l1364-58.2c-31.2-45.1-303.4-212-373.7-468.3-64.3-234.4-25-297.7-124.8-442.9z"/></g><path class="r" d="m960.9 1492.7c28.7-30.6-50.8-145.9-93.4-196.3-37.1-44.1-75.4-89.5-122.3-83.7-41.2 5-81.3 48.5-83.7 90.1-6.4 112 258.6 233.5 299.4 189.9z"/><path class="s" d="m616 2676.6c-5.4 4.4-6.4 15.4-7 22.6-0.3 3.2-0.5 4.8-0.1 5.9 2.6 8.3 18.6 9.1 43.7 11.7 39.7 4.1 51.5 7.2 54.6 1.3 2.9-5.6-4.1-14.6-4.9-15.6-4.3-5.4-9.5-7.3-19.6-10.7-18.7-6.1-31.4-9.5-35.2-10.5-23.9-6.4-27.9-7.6-31.5-4.7z"/><path class="n" d="m639.6 2640.4l4 45.2c-1.1 2.2-14.6 8.7-25.3 3.1l-10.2-44.4z"/><path class="t" d="m930.7 2670.8c-6.5 7.2-7.9 20.4-2.3 26.8 5.5 6.4 13.9 1.6 37.5 2.3 25.3 0.8 31.9 6.8 49.1 2 6.9-1.9 19.2-6.5 19-11.5-0.2-3.5-6.4-5.3-27.3-12.3-29.6-9.9-29.5-10.4-35.8-11.5-15.8-2.6-31.6-5.2-40.2 4.2z"/><path class="n" d="m946.9 2629.6l12.7 42.2c-0.9 2.2-13.8 9.8-24.9 5l-18.8-41z"/><path class="u" d="m834.2 1705c1.8 141.9 11.5 301.4 34.7 474.7 23 171.3 55.1 326 90.2 462.1q-24.3 6.6-48.5 13.1c-41.1-38.3-92.9-98.6-117.9-183.8-15.6-52.9-10.4-80.1-20.2-145.1-15.7-103.6-47.5-157.8-80.3-241.4-29.5-75-64.3-185.2-83-332.4q112.5-23.6 225-47.2z"/><path class="v" d="m688 1691.5c-9.9 180.4-18 364.2-24.2 551.2-4.7 140.4-8.1 279-10.3 415.7q-24.8 3.1-49.6 6.2c-16-29.8-37.2-75.3-51.8-133.6-17.6-70.8-13.6-112.9-21.3-186.2-8.7-82.4-21.3-100.3-43.7-204.1-45.4-210.8-68.1-316.2-17.4-381.7 16.4-21.3 67.9-74.7 218.3-67.5z"/><path class="w" d="m447 1238c38.7-10.9 95.5-23.7 165-27.6 99.2-5.6 148.7-8.4 183.9 15.2 81.1 54.5 18.3 180.4 51.5 492.4 4.7 44.6 5.8 89.5 9.2 134.2 5.7 73.9 7 78 1.9 85.5-32.3 47-152.7-23.9-329.2 4.1-98.8 15.7-143.6 51.8-170.6 25.7-31.6-30.4-4.5-112.1 18.8-182.5 26.7-80.7 43.2-81.8 58.4-142.6 15.9-63.6 6.3-96.3 3.8-196.6-1.2-47.9-0.9-119.3 7.3-207.8z"/><g style="opacity:.3;mix-blend-mode:multiply"><path class="x" d="m687 1823.8c-46.1-3.7-76.1 22.4-115.9 2.1-54.6-27.9-72.1-114.6-68.7-176 5.3-93.2 58.6-117.8 49.4-178.1-5-32.6-28.2-75.9-111.8-120.1-1.1 37.2-0.9 68.9-0.3 94.1 2.5 100.3 12.1 133-3.8 196.6-15.2 60.8-31.7 61.9-58.4 142.6-23.3 70.4-50.4 152.1-18.8 182.5 27 26.1 71.8-10 170.6-25.7 152.1-24.2 262.4 25.1 310.7 9.1-58.3-96.4-111.3-123.9-153-127.1z"/></g><path class="y" d="m509.9 1244.4c-32.9-27.1-99.2 3.5-116.9 11.7-98.8 45.7-187.4 168.8-165.5 298.9 3.3 19.5 18.6 110.8 95.9 155 69.7 39.9 163.9 29.6 239.3-26.9q15.4-13.7 30.9-27.4 15.2-16.5 30.4-32.9c-15.9-13.3-43-32.4-81-44.7-50.2-16.2-86.7 12.9-110-9.2-16-15.2-16.1-42.2-12.1-58.5 8-32.8 37-42.1 61.2-65.4 56.8-54.8 67.2-168.2 27.8-200.6z"/><path class="z" d="m983.4 1669.1l-441.6-6.6 117.4 56.6 325.3-21.3z"/><path class="A" d="m526.2 1674.2c0 8.3 5.2 15.6 12.9 18.5l141.1 55.3 0.7-38.4-139.1-47.1c-7.8-2.3-15.6 3.6-15.6 11.7z"/><path class="B" d="m594.2 1648.1c-2.7-0.6 13.2-32.3 25.7-28.7 12.5 3.7 73.6 39.1 79.1 53.7 5.6 14.5 5.6 14.5 5.6 14.5 0 0-26.7 2.1-43.2-3.4-16.5-5.6-45.2-31.2-67.2-36.1z"/><path class="C" d="m692.6 1440.5l-31.1 283.5c-1.1 9.8 12.6 24.3 22.4 23.9l456.7-28.1c7.5-0.3 13.7-5.9 15-13.3l57.3-273.7c1.7-10-16.2-20.3-26.3-20l-478.5 13.5c-8 0.2-14.6 6.3-15.5 14.2z"/><path class="D" d="m703 1448.8l-31.1 283.4c-1.1 9.8 6.8 18.2 16.7 17.8l462.4-21.9c7.5-0.4 13.8-5.9 15-13.3l47.3-275c1.7-10-6.1-19-16.2-18.7l-478.6 13.4c-8 0.3-14.6 6.4-15.5 14.3z"/><path class="E" d="m974.6 1661.7c-40.4-17.1-26.1-49.8-73.8-90.4-62.9-53.7-127-30.4-149.5-72-7-13-10.3-33.1 1.9-65.7l-34.7 0.9c-8 0.3-14.6 6.4-15.5 14.3l-31.1 283.4c-1.1 9.8 6.8 18.2 16.7 17.8l462.4-21.9c7.5-0.4 13.8-5.9 15-13.3l6.6-37.9c-14.1-7.8-30.8-14.9-50.4-18.9-67.8-13.8-101.1 23.4-147.6 3.7z"/><path class="F" d="m1180.2 1688.4c0.7-2.2-0.9-4.6-3.3-4.7-9.8-0.5-32.4-0.7-44.9 7-16.3 9.9-37.3 28.1-19.6 37.2l16.5 8.6c0.8 0.4 1.6 0.5 2.4 0.3 5.9-1.2 30.6-6.7 33.3-8.1 2.5-1.2 11.9-29.2 15.6-40.3z"/><path class="G" d="m619.4 1102.1c0.2 29.4-3 52.7-6.1 68.6-3.6 18.3-6.2 23.1-9.4 26.9-4.9 5.8-12.4 10.6-54.5 21.1-22.9 5.6-25.9 5.5-26.4 7.8-2.5 11.1 60 48.9 124.6 39.8 39.5-5.6 75.5-28.2 73.3-40-2.2-11.9-41.7-5.5-53.5-27.1-8.2-15 1-36.3 11.9-53.9-10.5-19.7-49.4-23.6-59.9-43.2z"/><path class="H" d="m692.8 1113.7c9.3-12.4 9.9-34-0.9-47.7-9.2-11.8-23.8-13.5-32.5-14.5-25.3-2.9-57.1 7.7-68.2 30.9-6.6 13.8 7.6 42.4 9.9 47.5 2.5 5.9 7 7.8 11.3 12.2 5.8 6.1 15 15.8 30 32.1 1.1-4.8 2.9-10.7 5.7-17.2 1.1-2.4 5.4-12.1 12-20.1 13.1-16 23.8-11.5 32.7-23.2z"/><path class="I" d="m621 1160.5c0 0 16.6 27.3 49.7 25.1 29.6-1.9 33.9-68.3 15-82.4-6.3-4.7-18.9-6.6-29.2-3.7-6.1 1.7-8.1 4.2-18.1 6.8-9.2 2.4-11.8 1.3-14.6 3.7-3.4 2.9-6 10.1-0.2 29.5-5.6-5.8-12.4-8-17.2-5.7-0.8 0.4-2.8 1.8-3.9 3.8-4.2 7.6 2.7 17.3 18.5 22.9z"/><path class="J" d="m622.5 1106c1.4 1.1-2.9 6.4-3.3 13.9-0.6 14.7 14.2 32.2 29.3 33.7 8.9 0.9 11.4-4.5 26.2-6.1 9.1-0.9 16.7 0.2 21.5 1.3 4.6 16 0.3 32-10.5 39.4-11.5 8-26.2 3.2-32.4 1.2-4.1-1.4-17.3-5.7-24.3-17.8-7.2-12.7-0.1-20.3-8.3-28.8-4.2-4.3-9.7-6.2-15-14.5-1.5-2.3-2.4-4.3-3-5.7 7.6-8 17.7-18.1 19.8-16.6z"/><path class="K" d="m685.5 1154.7c0 0-6.4 3.4-17.5 2.7-0.5 0-1.1 0.2-1.2 0.5-0.2 1 6.9 5.7 13.4 3.9 4.6-1.3 8.2-5.7 7.6-6.8-0.3-0.5-1.3-0.5-2.3-0.3z"/><path class="L" d="m2003.8 1507.2c0 0-11.6-11.4-10.4-22.2 1.2-10.8 21.2 19.8 28.1 25.9 6.8 6.1 8.6 6.1 6 21.8-2.5 15.7 1.2 32.4 1.2 32.4 5.7 0.2-21.6 2.5-21.6 2.5 0 0-0.8-12.7-3.7-16.5-3-3.7-13.9-6.4-15.5-22.1-1.6-15.7 15.9-21.8 15.9-21.8z"/><path class="M" d="m2247.1 1496.5c0 0-69.6 23.8-111.2 118.1-41.6 94.2-102.9-59.1-102.9-59.1l-34.5 4.9c0 0 13.9 155.2 118 158.3 91.3 2.8 140.8-75.9 163.9-189.7z"/><path class="N" d="m2516.2 2068.1c0 0 5.7-12.3 12.3-11.7 6.7 0.5 13.6 1.1 29.1 11.3 15.5 10.2 22.9 11.8 22.2 18.3-0.8 6.5-49.6 5.2-63.6-17.9z"/><path class="O" d="m2498 2076.1c1.2-0.4 14.4-8.3 21.9-12.8 3-1.8 6.9-1.4 9.5 1.1 3.8 3.5 4.2 9.4 0.8 13.4-5.6 6.7-14.1 16.5-20.1 22z"/><path class="P" d="m2390.9 2399c0 0.3 0 0.9 0.1 1.7 0.4 3.8 1 12.7-6.1 19.4-8.7 8.3-30.5 10.2-56.9 11.5-26.3 1.4-5.4-15.6-1.6-17.5 3.7-2 55.1-24.6 55.1-24.6z"/><path class="Q" d="m2371.1 2375.2l4.3 30.5c0 0 6.2 3.7 10.8-4.9l11.5-21.5z"/><path class="R" d="m2267.6 1781.2c-36-2.2-51 38.1-71.3 73.5-40.1 69.7-99.3 218.7-42.7 294.5 47.7 63.9 186.9 33.1 227.7 19.8 85.7-27.9 82.2-36.6 142-74.7-10.5-8.4-13.8-18.7-22.5-27.7-21.4-2.1-61.7-2.8-80.2-3.1-27.3-0.5-76.1 1.7-90.9 2.8-23.5 1.8-68.3 13.6-76.1 3.1-17.2-23 32.1-140.3 32.9-178.5 0.3-16.1 14-107.7-18.9-109.7z"/><path class="S" d="m2196.9 1853c-9.4 14.6-18.7 39-26.3 55.7 7.5 5.1 18 11 20.7 19.5 12.4 39-14.2 74.1-11.6 123.1 0.7 12.5 5.8 57.6 29.8 68.6 28.7 13.2 84.1-6.3 121.9-1.5 19.6 2.5 38.3 16.4 58.4 14.1 31.8-3.5 52-26.6 84.2-31.2 8.5-1.2 23.4 1.8 32.4 5.4 5.4-3.8 10.3-7.9 15.4-12-7.1-9.4-13.2-18.8-21-28.1-21.5-2.1-61.7-2.7-80.2-3.1-27.3-0.6-76.1 1.7-90.9 2.8-23.4 1.7-68.4 13.7-76.1 3.1-17.1-23.5 31.8-139.5 33-178.8 0.5-16.5 12.8-104.8-18.7-110.1-34.5-5.9-55 47.8-71 72.5z"/><path class="T" d="m2248.6 1878.7c-3.8 64.3 35.9 153 31 227.2-0.6 8.4 2.5 43.9 5.8 53.9 10.9 32.5 75.5 224.2 77.1 226.1 12.1-2.5 24.5-4 36.7-6.7 16-29.1 28.9-69.6 36.3-100.5 9.9-41.6-10.2-90.4-14.9-118.1-5.4-31.9-5-84-8.2-94.9-24.1-80.8 5.9-111.6-5.6-177.7-5.9-34.3-27.7-51-52.7-71.6-35.4 35.8-75.4 22.8-105.5 62.3z"/><path class="U" d="m2194.6 1851.4c7.3 30.7 44.3 45.6 82.4 60.9 25.4 10.2 104.2 41.9 150 6.3 19.2-15 21.3-33.1 35.1-99.6 10-48.3 18.2-83.9 24.5-111.1 15.9-68.1 19.8-83 9.3-109.2-22.7-56.6-79.8-83.3-99.1-91.3-2.1-0.8-3.8-1.4-5-1.9-49.1-18.7-140.2-28.2-176.9 10-39.7 41.6 25.9 96.6-2.7 221-8.7 37.6-18.2 60.8-20.1 84.1-0.7 9.8-0.1 19.7 2.5 30.8z"/><path class="V" d="m2259.3 1390.3c-2.1-11-10.1-11.3-11.9-21.4-2.2-12.8 7.9-28.1 20.3-34.6 12.1-6.4 17.6 0.3 44.1 0 28.4-0.3 32.9-8.1 56-4.8 6.1 0.9 17.3 2.6 29.8 9.6 10 5.5 29.7 16.5 32.2 36.9 2.7 22.3-17.2 39-19.1 40.5 7.5 25.9 4.3 36.9-1.2 41.8 0 0-5.8 5.1-35.7 4.7 0 0-8.5 10.5-13.4 14-5.6 4-16.4 6-39.9-5.2-0.4-5-1.2-12.2-3.1-20.6-3.4-15.9-5.2-23.9-9.6-25.4-11.1-3.8-25.9 35-40.9 32.2-9.6-1.8-17.2-20.5-15.9-35.5 1.3-15 10.7-19.7 8.3-32.2z"/><path class="W" d="m2299 1480.1c2.2 10.8-4.6 20.1-14.6 20.5-11.8 0.5-25.5 1.4-31.3 3.6-10.2 3.9 33 6.3 78.2 15 31.4 6.1 57.1 8.2 72.5 8.9 4.2 0.2 5.4-4.6 1.6-6.5-13.7-6.9-35.4-17-53.3-22.5-21.2-6.4-39.3-55.2-39.3-55.2l-18.3 13.9z"/><path class="X" d="m2339.8 1466.3c0 0-24 27.2-60.5 18.3-32.7-8-24.5-83.1-0.6-95.1 8-4 22.5-3.7 33.4 1.6 6.5 3 8.3 6.3 18.9 11.1 9.8 4.5 12.9 3.9 15.6 7 3.3 4 4.7 12.5-5.6 33 7.4-5.2 15.4-6.4 20.4-2.9 0.7 0.6 2.8 2.5 3.6 5.1 3.1 9.3-6.5 18.8-25.2 21.9z"/><path class="Y" d="m2194.6 1851.4c7.3 30.7 44.3 45.6 82.4 60.9 25.4 10.2 104.2 41.9 150 6.3 19.2-15 21.3-33.1 35.1-99.6 10-48.3 18.2-83.9 24.5-111.1l-53.1-105.8c0.6 2.7 18.8 96.3-23.7 110-43.1 14-74.5 15.1-80.7 67.9-6.1 51.1 7.6 129.1-137 40.6-0.7 9.8-0.1 19.7 2.5 30.8z"/><path class="Z" d="m2397.7 1896.9c-2.4 5.4-7.1 13.3-15.7 19.3-18.3 13-46.1 11.2-49.5 2.6-3-7.7 13.8-21.2 21.2-26.3 16.3-11 33.4-12.7 42.5-12.8z"/><path class="a0" d="m2457.8 1545.4c0 0 237.2 235.1 104.2 308.4-133 73.3-169.6 55.5-169.6 55.5l-6.3-29.6c0 0 155.7-67.8 111.9-116-43.8-48.1-176.8-124.6-40.2-218.3z"/><path class="a1" d="m1711.2 2300.4l-232.4-58.2-11.6 56.5 212.7 98.2 168.5-41.6 59.3-113.1z"/><path class="a2" d="m1445.1 2249.4c-0.8 12.6 30.8 24.8 38.7 27.9 47 18 70.5 1.8 122.4 10.8 44.5 7.6 37.1 21.3 81.5 28.9 28.6 4.9 58.4 0.4 118.1-8.5 22.4-3.4 42.6-7.2 58.4-10.6q0 0 0.1 0c20.1-4.5 32.7-8.5 32.4-10.7 0-0.3-0.3-0.4-0.3-0.8-1.3-5.6 34.7-13 34.9-22q0-1.3-1-2.6c-4.6-5.6-25.2-9.8-56.2-21.3-30.1-11.1-45.1-16.6-58.6-27.6-25.8-20.7-34.5-49.4-40.2-68.2-6.4-21.2-18.6-57.3-2.6-96.9 0.3-0.8 0.7-1.7 1.1-2.6 18.2-41.9 55.1-64 68.4-71.3-16.3-14.6-59.6-49.4-129.2-61.7-21.4-3.7-62.6-11.5-111.3 2.4-67 19.2-120.5 71.1-112.7 90.1 7.4 17.8 67.1 1 89.1 38.6 1.2 2 2.1 3.4 3.1 6.4 18.3 50.6 0.1 97.1-4.2 106.1-3.4 7-13.1 25.4-33.1 43.1-20.5 18.2-42.5 29.2-60.4 32.6-21.8 3.5-37.7 9.3-38.4 17.9z"/><path class="a3" d="m1445.1 2249.4c-0.8 12.6 30.8 24.8 38.7 27.9 47 18 70.5 1.8 122.4 10.8 44.5 7.6 37.1 21.3 81.5 28.9 28.6 4.9 58.4 0.4 118.1-8.5 22.4-3.4 42.6-7.2 58.4-10.6l0.1-0.1 66-36c-4.6-5.6-25.2-9.8-56.2-21.3-30.1-11.1-45.1-16.6-58.6-27.6-25.8-20.7-34.5-49.4-40.2-68.2-6.4-21.2-18.6-57.3-2.6-96.9-9.1 0.7-36.8 6.3-33.6 51.9 3.8 54.5 42.4 90.9-30.5 100.9-72.8 10 28.7 71.7-20.4 74.5-49.1 2.9-72.4-47-204.7-43.6-21.8 3.5-37.7 9.3-38.4 17.9z"/><path class="a4" d="m1569 1870.2c-7.2-2.8-27.7-18-29.5-38.6-1.2-13.9 7.6-19.4 5.2-34-2.8-16.5-15.5-17.2-23.3-34.4-9.2-20-5.2-48.3 9.1-64.2 11.5-12.8 20.4-7.1 40.4-23.4 17.7-14.4 15.1-22.5 26.8-29.2 22.7-13.2 42.7 11.4 78 11.3 49-0.1 58.8-47.8 96.2-42.5 34.3 4.9 67.6 51.1 65.9 87.9-0.8 14.7-6.5 21.3-2.5 35.3 6.1 21.4 25.8 20.5 36.5 42.9 8 16.9 8.6 42.2-3.7 54.5-14.6 14.3-35.7-0.4-50.2 13.6-15.7 15.1 1.1 39.6-14.2 55.8-14.6 15.3-44.9 10.6-62.1 5.9-20.6-5.8-39.5-16.4-59.4-24.4-36.9-14.9-76.9-2.3-113.2-16.5z"/><path class="a5" d="m1717.1 2085.7c-11.2 21.6 28.1 84.3 82.8 89.6 29.7 2.9 58.9-11.5 76.5-33.3 27-33.6 18.7-75.4 15.7-90-17.3-86.4-118.8-122.4-128.2-125.6-24.7 38.3-24.3 62.5-19.1 77.6 4.3 12.5 15.6 25.8 38.1 52.5 20.1 23.7 30 32.1 27 39.4-3.5 8.6-22.7 9.2-34.9 6.7-22.5-4.6-34.8-22.7-38.1-27.8-6.2 1-15.9 3.5-19.8 10.9z"/><path class="a6" d="m1623.7 2097.3c11.2 21.6-28.1 84.2-82.8 89.6-29.6 2.9-58.9-11.5-76.5-33.3-27-33.6-18.7-75.4-15.7-90.1 17.3-86.4 112-133.9 121.3-137.1 24.7 38.3 31.2 74.1 26 89.2-4.3 12.5-21.3 11.9-43.8 38.6-20.1 23.7-24.3 46-21.3 53.2 3.5 8.6 22.7 9.3 34.9 6.8 22.5-4.6 34.9-22.7 38.1-27.8 6.2 1 16 3.5 19.8 10.9z"/><path class="a7" d="m1684.5 1858.7c0 0 4.4 35.5 17.5 43.6 13.1 8.1 34.2 18.7 36.6 21.6 2.3 2.9-81.1 11.9-122.5-9 13.6-2.9 17.3-3.9 17.3-3.9 3.7-1 10.6-3 17.6-6.9 4.7-2.7 12.3-8 19.2-17.8l-0.1-19.7z"/><path class="a8" d="m1694.8 1871.5c0 0-19.8 32-55.4 22-31.9-9-19.5-90.5 4.5-101.5 7.9-3.7 23.1-3.5 33.7 2 7.4 3.9 28.1 26 19.3 53.1 7.6-2.8 14.7-1.3 16.7 2.5 2.6 4.7-3.6 11.9-4.9 13.6-4.9 5.6-11 7.6-13.9 8.3z"/><path class="a9" d="m1671.7 2378.5c-46.2-24.7-80.4-50-103.5-69-45.6-37.6-66.5-65.9-112.6-77-8.3-2-55.2-13.4-70.4 7.4-16.8 23.1 15.8 71.4 19.8 77.3 58.9 87.2 209 83.2 256.1 80.3q5.3-9.5 10.6-19z"/><path class="aa" d="m1385.2 2239.9c4.4-6.1 11.6-9.4 19.7-11-2.7 9.4-2.9 18.1 0.4 25.8 9.2 20.9 36.5 14.4 55.7 39 18.8 24.1 5.8 47.3 22.4 57.3 19.1 11.4 42.7-15.2 63.1-2.5 13.9 8.7 9.6 25.1 25.7 34 11.2 6.2 22.2 3.3 34.9 1.7 14.6-1.8 34.6-2.2 59.7 3q-2.8 5.2-5.7 10.3c-47.1 2.9-197.2 6.9-256.1-80.3-4-5.9-36.6-54.2-19.8-77.3z"/><path class="ab" d="m1640.6 2409.9c0 0-8.5-6-20.7-1.9-12.3 4.1-31.8 7.5-31.8 13.5 0 6 19.5 9.7 33 7.3 12.9-2.4 23.1-13.6 19.5-18.9z"/><path class="ac" d="m1653 2399.7l-22.6 7.2c0 0-3.7 6.2 1.3 10 5 3.9 22.2-4.3 22.2-4.3z"/><path class="ad" d="m1743.1 2097.3c0 0-7.7-40.8-37.7-34.1-29.9 6.7-45.6 22.9-28 27.4 17.5 4.5 38.6 5.7 42.7 13.4 4.2 7.6 26.5 12 23-6.7z"/><path class="ae" d="m1467 2251.7l354.9 10.2-77.3 33.9-278.8-21.1z"/><path class="af" d="m1831.6 2269.5c0.1 5.1-3 9.5-7.8 11.1l-94 34.2-0.8-25.6 92.9-27.3c4.8-1.2 9.6 2.6 9.7 7.6z"/><path class="ag" d="m1724.8 2111.7l20.6 187.3c0.7 6.5-8.4 16.1-14.9 15.8l-301.8-18.5c-5-0.2-9.1-3.9-10-8.8l-37.9-180.9c-1.1-6.6 10.7-13.4 17.4-13.2l316.4 8.9c5.2 0.1 9.6 4.1 10.2 9.4z"/><path class="ah" d="m1717.9 2117.1l20.6 187.4c0.7 6.5-4.6 12-11.1 11.7l-305.6-14.4c-5-0.3-9.1-3.9-10-8.8l-31.2-181.8c-1.1-6.6 4-12.6 10.7-12.4l316.4 8.9c5.2 0.2 9.6 4.2 10.2 9.4z"/><path class="ai" d="m1538.4 2257.9c26.7-11.4 17.3-32.9 48.8-59.8 41.6-35.5 83.9-20.1 98.8-47.6 4.6-8.5 6.8-21.9-1.2-43.4l22.9 0.6c5.2 0.2 9.6 4.2 10.2 9.4l20.6 187.4c0.7 6.5-4.6 12-11.1 11.7l-305.6-14.4c-5-0.3-9.1-3.9-10-8.8l-4.3-25.1c9.3-5.2 20.4-9.9 33.3-12.5 44.8-9.1 66.9 15.5 97.6 2.5z"/><path class="aj" d="m1933.3 2242.2c14.7 36.6-57.1 95-73.9 108.4-34.1 27.4-103.7 58.2-212.7 70.8q-4.9-12.3-9.8-24.7c13.1-7.8 32.3-20.2 54.1-37.3 37-29.3 49.6-47.2 99.7-94.3 55.3-52.1 72.8-61 92.8-60.3 17.1 0.6 43 20.4 49.8 37.4z"/><path class="ak" d="m2105.7 1142.3c0.3-131.8-132.1-232.6-281.6-225.5-81.4 3.9-150 39.3-191.8 89.7q0 0 0 0-0.4 0.5-0.7 0.9-1.1 1.4-2.2 2.7-1.9 2.4-3.7 4.9-1.1 1.4-2.1 2.9-1.8 2.4-3.5 4.9-1 1.5-1.9 2.9-1.9 2.9-3.6 5.8-0.7 1.1-1.3 2.1-2.4 4-4.5 8.1-0.6 1.1-1.1 2.2-1.6 3-3 6.1-0.7 1.5-1.4 3-1.2 2.8-2.3 5.6-0.7 1.6-1.3 3.2-1.1 2.8-2.1 5.7-0.6 1.5-1.1 3-1.2 3.6-2.2 7.3-0.2 0.8-0.5 1.5-1.2 4.5-2.2 9-0.3 1.3-0.5 2.7-0.7 3.2-1.3 6.4-0.3 1.7-0.5 3.4-0.5 3-0.8 6-0.2 1.8-0.4 3.5-0.3 3.2-0.5 6.4-0.1 1.5-0.2 3-0.3 4.8-0.2 9.6c0.2 76.1 47.3 145.8 119.5 186.7q10.1 5.7 20.9 10.6 5.4 2.5 10.9 4.8c26.2 10.8 55.1 18.2 85.8 21.2q6.4 0.6 12.7 0.9c1.5 0.1 2.9 0.2 4.3 0.2 2.8 0.1 5.6 0.3 8.4 0.3 1.7 0 3.4 0 5.1 0 2.5 0 5 0 7.5-0.1q2.7-0.1 5.5-0.2 3.5-0.1 7-0.4 2.8-0.2 5.6-0.4 3.4-0.3 6.8-0.7 2.9-0.3 5.7-0.6 3.3-0.5 6.6-0.9 2.9-0.5 5.7-1 3.3-0.5 6.5-1.2 2.8-0.5 5.6-1.1c0.7-0.1 1.4-0.2 2.1-0.4q-0.1 0-0.1 0c106.1-23.6 186.1-103.3 186.4-204.7z"/><path class="al" d="m2075.6 1140.2c-0.3 130.3-130.3 223-276.7 208.8-133.3-13-233.2-111.5-233.6-221.4-0.4-110.2 99.3-204.5 233.3-211 147.1-7 277.3 92.9 277 223.6z"/><path class="j" d="m1711.2 1089q-13.5-0.1-20.8 10.9-7.3 11.1-7.2 31c0 27.6 9.4 41.7 28.2 42.4q11.9 0.5 29.1-5.5v22.5q-14.1 5.8-31.3 5c-16.4-0.8-28.7-6.8-37.3-18.1-8.5-11.2-12.7-26.8-12.7-47.1q-0.1-19.1 6.1-33.5 6.2-14.3 17.9-22 11.8-7.7 28-7.7 16.5 0 33.5 9l-7.9 21.7q-6.4-3.4-12.9-6-6.5-2.6-12.7-2.6z"/><path class="j" d="m1844.8 1163.6q0 17.7-12 27.3c-7.9 6.4-18.9 9.3-32.9 8.6q-19.1-0.9-33.6-9.2l-0.1-25.1q12 6.2 20.3 8.9 8.4 2.7 15.4 3 8.4 0.3 12.9-3 4.5-3.2 4.5-10.1 0-3.8-2-6.8-2-3-5.8-5.9-3.9-2.9-15.7-9.2-10.9-5.8-16.4-11-5.4-5.2-8.6-12-3.3-6.8-3.3-15.8 0-16.9 10.6-26.5 10.7-9.7 29.8-9.7 9.4 0.1 18.1 2.5 8.7 2.4 18.2 6.9l-8.4 21.4q-9.9-4.4-16.2-6.1-6.4-1.8-12.5-1.8-7.3-0.1-11.1 3.4-3.9 3.6-3.9 9.4 0 3.6 1.6 6.3 1.5 2.7 4.9 5.3 3.4 2.6 16.3 9.4 17.1 9.1 23.5 18 6.4 9 6.4 21.8z"/><path class="j" d="m1952.7 1167.3q0 18.3-12.9 28.3c-8.5 6.6-20.3 9.5-35.3 8.8q-20.5-0.9-36-9.6v-25.9q12.8 6.4 21.7 9.2 9 2.8 16.4 3.1 9.1 0.4 13.9-3 4.9-3.4 4.9-10.5 0-3.9-2.2-7.1-2.1-3.1-6.2-6.1-4.2-2.9-16.8-9.5-11.7-6-17.5-11.4-5.8-5.4-9.3-12.5-3.4-7-3.4-16.3 0-17.5 11.3-27.4c7.7-6.7 18.3-10 31.9-10q10.2 0 19.4 2.5 9.3 2.6 19.6 7.1l-9.1 22.3q-10.5-4.6-17.4-6.4-6.8-1.8-13.4-1.9-7.7-0.1-11.9 3.6-4.1 3.7-4.1 9.7 0 3.8 1.7 6.6 1.6 2.8 5.3 5.4 3.6 2.7 17.4 9.7c12.2 6.3 20.6 12.6 25.2 18.7q6.8 9.3 6.8 22.6z"/><g style="opacity:.2;mix-blend-mode:multiply"><path class="am" d="m1861.6 1299.1c-31.5-66.8 0.3-125.8-42.2-168.9-42-42.7-94.8-5.1-149.6-39-20.7-12.8-43.3-36.8-60.1-85.5-28.2 34.3-44.6 76.4-44.4 121.9 0.4 109.9 100.3 208.4 233.6 221.4 32.3 3.1 63.9 1 93.6-5.7-14.7-15.2-24.4-30.3-30.9-44.2z"/></g><path class="an" d="m2619.3 801.3c0-134-134.2-245-293.5-247.8-90.5-1.6-169 32.3-218.1 85.5q0-0.1 0-0.1-0.4 0.5-0.9 1-1.2 1.4-2.5 2.8-2.2 2.6-4.4 5.2-1.3 1.6-2.6 3.2-2.1 2.6-4.1 5.3-1.1 1.5-2.2 3.1-2.3 3.1-4.4 6.3c-0.5 0.7-1 1.5-1.5 2.3q-2.8 4.3-5.4 8.7c-0.4 0.8-0.8 1.6-1.3 2.4q-1.8 3.3-3.6 6.7-0.8 1.6-1.6 3.3-1.5 3-2.9 6.1-0.8 1.7-1.5 3.5-1.3 3.1-2.5 6.3-0.7 1.7-1.3 3.3-1.5 4-2.7 8.1c-0.2 0.6-0.4 1.1-0.6 1.7q-1.5 4.9-2.7 9.9c-0.2 1-0.4 2-0.6 3q-0.9 3.6-1.6 7.2-0.3 1.9-0.6 3.7-0.6 3.4-1 6.8-0.3 1.9-0.5 3.8-0.4 3.6-0.6 7.3c-0.1 1.1-0.2 2.2-0.3 3.3q-0.3 5.3-0.3 10.7c0 85.5 56 163.8 140 208.6q11.6 6.2 24 11.5 6.1 2.7 12.4 5.1c29.7 11.4 62 18.9 95.9 21.6q7.1 0.6 14 0.8c1.6 0.1 3.1 0.1 4.7 0.1 3.1 0.1 6.1 0.2 9.2 0.2 1.8 0 3.7-0.1 5.5-0.1 2.8-0.1 5.5-0.1 8.2-0.2 2-0.1 3.9-0.2 5.9-0.4q3.8-0.2 7.6-0.5 3.1-0.2 6.1-0.5 3.7-0.4 7.3-0.9 3.1-0.3 6.1-0.8 3.6-0.5 7.1-1.1 3-0.5 6-1 3.5-0.7 7-1.4 3-0.6 5.9-1.3c0.8-0.2 1.5-0.3 2.2-0.5q0 0 0 0c110.4-26.1 190.7-108.5 190.7-211.8z"/><path class="ao" d="m2579.8 800.1c0 133.3-132.9 230.9-290.6 218.4-151.4-12-269.8-121.8-269.8-245.6 0-123.7 118.4-222 269.8-219.4 157.7 2.8 290.6 113.3 290.6 246.6z"/><path class="j" d="m2172.7 831.2l-20.2-1.1v-43.8l-37.6-1.8v43.5l-20-1.1v-100.6l20 0.8v39.6l37.6 1.7v-39.7l20.2 0.8z"/><path class="j" d="m2241.2 835l-20.6-1.1v-84.3l-26.3-1.2v-18l73.5 3.1v18.2l-26.6-1.2z"/><path class="j" d="m2332.1 840l-24.1-82.5h-0.6q1.3 24.8 1.3 33.1v48.1l-18.8-1v-103.3l28.7 1.2 23.7 80.5h0.4l25.2-78.4 29.3 1.2v104.7l-20.1-1.1v-49.4q0-3.5 0.1-8.1 0.2-4.6 1-24.3h-0.6l-26.1 80.4z"/><path class="j" d="m2430.1 845.4v-105.1l21.8 0.9v87l42.1 2.2v18.6z"/><g style="opacity:.3;mix-blend-mode:multiply"><path class="ap" d="m2357.7 964.2c-34.2-71.4 0.4-134-45.8-181-46.3-47.2-105.7-8.2-168.6-47.2-24-14.9-50.5-42.4-70.1-97.4-33.8 36.8-53.8 83.2-53.8 134.3 0 123.8 118.4 233.6 269.8 245.6 35.6 2.8 69.9 0 101.8-7.6-15.8-16-26.2-31.9-33.3-46.7z"/></g><path class="aq" d="m2022.3 382.4c0-123.4-113.8-219.6-249.3-215.2-77.1 2.5-144.3 37.3-186.2 88.6q0 0 0 0-0.4 0.5-0.8 0.9-1 1.4-2.1 2.8-1.9 2.4-3.8 5-1.1 1.5-2.2 3-1.8 2.5-3.5 5.1-1 1.5-1.9 3-2 2.9-3.8 6-0.6 1.1-1.3 2.2-2.4 4.1-4.6 8.3c-0.3 0.7-0.7 1.5-1.1 2.2q-1.6 3.2-3.1 6.4-0.7 1.6-1.4 3.2-1.2 2.8-2.4 5.7-0.7 1.7-1.3 3.4-1.2 2.9-2.2 5.9-0.6 1.6-1.1 3.1-1.2 3.8-2.3 7.6-0.3 0.8-0.5 1.6-1.3 4.6-2.3 9.3c-0.2 0.9-0.4 1.9-0.6 2.8q-0.7 3.4-1.3 6.8-0.3 1.7-0.5 3.4-0.5 3.2-0.9 6.3-0.2 1.8-0.4 3.6-0.3 3.4-0.5 6.7-0.2 1.6-0.3 3.2-0.2 4.9-0.2 9.9c0 79.1 47.9 148.9 119.8 186.3q9.9 5.2 20.4 9.5 5.3 2.1 10.7 4.1c25.3 9.1 52.8 14.5 81.7 15.3q6 0.2 11.9 0.1c1.4 0 2.7-0.1 4-0.1 2.6-0.1 5.3-0.2 7.9-0.4 1.5 0 3.1-0.2 4.7-0.3q3.5-0.3 6.9-0.6 2.5-0.3 5-0.6 3.3-0.4 6.5-0.8 2.6-0.4 5.2-0.8 3.1-0.6 6.2-1.1 2.6-0.5 5.2-1.1 3-0.6 6-1.3 2.6-0.7 5.2-1.3 3-0.8 5.9-1.6 2.5-0.7 5.1-1.5c0.6-0.2 1.2-0.3 1.8-0.5q0-0.1 0-0.1c93.7-29.3 161.8-108.9 161.8-204z"/><path class="ar" d="m2003.7 382.4c0 123-113.2 219.4-248 215.5-129.8-3.8-231.5-99.9-231.5-214.7 0-114.8 101.7-211.2 231.5-215.5 134.8-4.3 248 91.7 248 214.7z"/><path class="j" d="m1694.9 442l-96.3-49v-15.8l96.3-55.7v26.8l-66.6 35.6 66.6 31.4z"/><path class="j" d="m1797.2 299.8l-54.7 165.4-27.5-0.3 54.3-164.8z"/><path class="j" d="m1817.6 415.6l70.3-32.1-70.3-36v-27.3l102.6 56.2v16.5l-102.6 49.9z"/><g style="opacity:.3;mix-blend-mode:multiply"><path class="as" d="m1814.3 544.4c-29.2-64.4 0.3-124-39.2-165.3-39.6-41.5-90.5-2.7-144.5-35.9-20.6-12.7-43.4-37-60.2-87.1-29.1 35.7-46.2 79.7-46.2 127.1 0 114.8 101.7 210.9 231.5 214.7 30.4 0.9 59.8-3.4 87-11.9-13.4-14-22.3-28.3-28.4-41.6z"/></g><path class="j" d="m598.1 251.8c0 0 62.3-120.8 169.2-74 106.8 46.9 96.9 22.3 171.1 31.6 74.3 9.3 166.1 60.8 106.3 71.2-59.7 10.3-527.8 22.2-527.8 22.2 0 0 6.9-44.7 81.2-51z"/></svg>