<svg version="1.2" xmlns="http://www.w3.org/2000/svg" viewBox="0 0 1200 800" width="1200" height="800">
	<title>19198937</title>
	<defs>
		<linearGradient id="g1" x2="1" gradientUnits="userSpaceOnUse" gradientTransform="matrix(980.328,-1284.018,771.389,588.944,-346.323,1052.398)">
			<stop offset="0" stop-color="#b37cff"/>
			<stop offset="1" stop-color="#f895e7"/>
		</linearGradient>
		<linearGradient id="g2" x2="1" gradientUnits="userSpaceOnUse" gradientTransform="matrix(909.426,-1191.15,734.83,561.032,-284.455,1019.333)">
			<stop offset="0" stop-color="#b37cff"/>
			<stop offset="1" stop-color="#f895e7"/>
		</linearGradient>
		<linearGradient id="g3" x2="1" gradientUnits="userSpaceOnUse" gradientTransform="matrix(163.486,475.607,-500.469,172.032,346.411,28.177)">
			<stop offset="0" stop-color="#cb236d"/>
			<stop offset="1" stop-color="#4c246d"/>
		</linearGradient>
		<linearGradient id="g4" x2="1" gradientUnits="userSpaceOnUse" gradientTransform="matrix(275.622,0,0,262.587,55.08,471.299)">
			<stop offset="0" stop-color="#a737d5"/>
			<stop offset="1" stop-color="#ef497a"/>
		</linearGradient>
		<linearGradient id="g5" x2="1" gradientUnits="userSpaceOnUse" gradientTransform="matrix(5.947,0,0,172.489,123.099,563.378)">
			<stop offset="0" stop-color="#b37cff"/>
			<stop offset="1" stop-color="#f895e7"/>
		</linearGradient>
		<linearGradient id="g6" x2="1" gradientUnits="userSpaceOnUse" gradientTransform="matrix(5.947,0,0,113.207,133.036,622.659)">
			<stop offset="0" stop-color="#b37cff"/>
			<stop offset="1" stop-color="#f895e7"/>
		</linearGradient>
		<linearGradient id="g7" x2="1" gradientUnits="userSpaceOnUse" gradientTransform="matrix(5.947,0,0,259.718,142.973,476.149)">
			<stop offset="0" stop-color="#b37cff"/>
			<stop offset="1" stop-color="#f895e7"/>
		</linearGradient>
		<linearGradient id="g8" x2="1" gradientUnits="userSpaceOnUse" gradientTransform="matrix(5.947,0,0,62.394,152.91,673.473)">
			<stop offset="0" stop-color="#b37cff"/>
			<stop offset="1" stop-color="#f895e7"/>
		</linearGradient>
		<linearGradient id="g9" x2="1" gradientUnits="userSpaceOnUse" gradientTransform="matrix(5.947,0,0,224.996,162.847,510.871)">
			<stop offset="0" stop-color="#b37cff"/>
			<stop offset="1" stop-color="#f895e7"/>
		</linearGradient>
		<linearGradient id="g10" x2="1" gradientUnits="userSpaceOnUse" gradientTransform="matrix(5.947,0,0,186.039,172.784,549.827)">
			<stop offset="0" stop-color="#b37cff"/>
			<stop offset="1" stop-color="#f895e7"/>
		</linearGradient>
		<linearGradient id="g11" x2="1" gradientUnits="userSpaceOnUse" gradientTransform="matrix(5.947,0,0,143.695,182.721,592.172)">
			<stop offset="0" stop-color="#b37cff"/>
			<stop offset="1" stop-color="#f895e7"/>
		</linearGradient>
		<linearGradient id="g12" x2="1" gradientUnits="userSpaceOnUse" gradientTransform="matrix(5.947,0,0,312.225,192.658,423.642)">
			<stop offset="0" stop-color="#b37cff"/>
			<stop offset="1" stop-color="#f895e7"/>
		</linearGradient>
		<linearGradient id="g13" x2="1" gradientUnits="userSpaceOnUse" gradientTransform="matrix(5.947,0,0,279.197,202.595,456.67)">
			<stop offset="0" stop-color="#b37cff"/>
			<stop offset="1" stop-color="#f895e7"/>
		</linearGradient>
		<linearGradient id="g14" x2="1" gradientUnits="userSpaceOnUse" gradientTransform="matrix(5.947,0,0,229.23,212.533,506.636)">
			<stop offset="0" stop-color="#b37cff"/>
			<stop offset="1" stop-color="#f895e7"/>
		</linearGradient>
		<linearGradient id="g15" x2="1" gradientUnits="userSpaceOnUse" gradientTransform="matrix(5.947,0,0,56.604,222.469,679.263)">
			<stop offset="0" stop-color="#b37cff"/>
			<stop offset="1" stop-color="#f895e7"/>
		</linearGradient>
		<linearGradient id="g16" x2="1" gradientUnits="userSpaceOnUse" gradientTransform="matrix(5.947,0,0,166.561,232.407,569.306)">
			<stop offset="0" stop-color="#b37cff"/>
			<stop offset="1" stop-color="#f895e7"/>
		</linearGradient>
		<linearGradient id="g17" x2="1" gradientUnits="userSpaceOnUse" gradientTransform="matrix(152.634,518.553,-1737.932,511.553,1924.589,-246.19)">
			<stop offset="0" stop-color="#cb236d"/>
			<stop offset="1" stop-color="#4c246d"/>
		</linearGradient>
		<linearGradient id="g18" x2="1" gradientUnits="userSpaceOnUse" gradientTransform="matrix(-99.726,-331.634,820.535,-246.745,-94.838,555.928)">
			<stop offset="0" stop-color="#cb236d"/>
			<stop offset="1" stop-color="#4c246d"/>
		</linearGradient>
		<linearGradient id="g19" x2="1" gradientUnits="userSpaceOnUse" gradientTransform="matrix(-221.682,-30.964,-13.34,95.503,333.432,99.346)">
			<stop offset="0" stop-color="#b37cff"/>
			<stop offset="1" stop-color="#f895e7"/>
		</linearGradient>
		<linearGradient id="g20" x2="1" gradientUnits="userSpaceOnUse" gradientTransform="matrix(-652.551,496.857,-325.058,-426.918,1147.813,475.059)">
			<stop offset="0" stop-color="#2b3582"/>
			<stop offset="1" stop-color="#150e42"/>
		</linearGradient>
		<linearGradient id="g21" x2="1" gradientUnits="userSpaceOnUse" gradientTransform="matrix(743.824,-887.978,567.522,475.391,93.075,692.89)">
			<stop offset="0" stop-color="#fdf53f"/>
			<stop offset="1" stop-color="#d93c65"/>
		</linearGradient>
		<linearGradient id="g22" x2="1" gradientUnits="userSpaceOnUse" gradientTransform="matrix(188.055,-670.397,68.19,19.128,555.855,498.847)">
			<stop offset="0" stop-color="#2b3582"/>
			<stop offset="1" stop-color="#150e42"/>
		</linearGradient>
		<linearGradient id="g23" x2="1" gradientUnits="userSpaceOnUse" gradientTransform="matrix(240.194,343.682,-99.359,69.441,632.009,555.167)">
			<stop offset="0" stop-color="#53d8ff"/>
			<stop offset="1" stop-color="#3840f7"/>
		</linearGradient>
		<linearGradient id="g24" x2="1" gradientUnits="userSpaceOnUse" gradientTransform="matrix(-240.194,343.682,99.359,69.441,680.769,445.883)">
			<stop offset="0" stop-color="#53d8ff"/>
			<stop offset="1" stop-color="#3840f7"/>
		</linearGradient>
		<linearGradient id="g25" x2="1" gradientUnits="userSpaceOnUse" gradientTransform="matrix(236.846,338.891,-123.286,86.162,602.542,52.373)">
			<stop offset="0" stop-color="#53d8ff"/>
			<stop offset="1" stop-color="#3840f7"/>
		</linearGradient>
		<linearGradient id="g26" x2="1" gradientUnits="userSpaceOnUse" gradientTransform="matrix(-309.409,479.174,-177.225,-114.436,674.969,359.961)">
			<stop offset="0" stop-color="#53d8ff"/>
			<stop offset="1" stop-color="#3840f7"/>
		</linearGradient>
		<linearGradient id="g27" x2="1" gradientUnits="userSpaceOnUse" gradientTransform="matrix(-104.744,99.405,-99.405,-104.744,635.722,387.413)">
			<stop offset="0" stop-color="#fdf53f"/>
			<stop offset="1" stop-color="#d93c65"/>
		</linearGradient>
		<linearGradient id="g28" x2="1" gradientUnits="userSpaceOnUse" gradientTransform="matrix(-91.991,87.302,-114.464,-120.612,680.035,394.777)">
			<stop offset="0" stop-color="#fdf53f"/>
			<stop offset="1" stop-color="#d93c65"/>
		</linearGradient>
		<linearGradient id="g29" x2="1" gradientUnits="userSpaceOnUse" gradientTransform="matrix(-100.005,94.907,-104.086,-109.676,735.394,389.993)">
			<stop offset="0" stop-color="#fdf53f"/>
			<stop offset="1" stop-color="#d93c65"/>
		</linearGradient>
		<linearGradient id="g30" x2="1" gradientUnits="userSpaceOnUse" gradientTransform="matrix(33.571,0,0,14.172,384.834,761.856)">
			<stop offset="0" stop-color="#2b3582"/>
			<stop offset="1" stop-color="#150e42"/>
		</linearGradient>
		<linearGradient id="g31" x2="1" gradientUnits="userSpaceOnUse" gradientTransform="matrix(33.571,0,0,5.35,384.834,772.172)">
			<stop offset="0" stop-color="#53d8ff"/>
			<stop offset="1" stop-color="#3840f7"/>
		</linearGradient>
		<linearGradient id="g32" x2="1" gradientUnits="userSpaceOnUse" gradientTransform="matrix(15.719,0,0,13.37,325.861,762.21)">
			<stop offset="0" stop-color="#2b3582"/>
			<stop offset="1" stop-color="#150e42"/>
		</linearGradient>
		<linearGradient id="g33" x2="1" gradientUnits="userSpaceOnUse" gradientTransform="matrix(15.253,0,0,1.988,325.862,775.046)">
			<stop offset="0" stop-color="#53d8ff"/>
			<stop offset="1" stop-color="#3840f7"/>
		</linearGradient>
		<linearGradient id="g34" x2="1" gradientUnits="userSpaceOnUse" gradientTransform="matrix(10.199,0,0,18.008,332.509,749.055)">
			<stop offset="0" stop-color="#f9b776"/>
			<stop offset="1" stop-color="#f47960"/>
		</linearGradient>
		<linearGradient id="g35" x2="1" gradientUnits="userSpaceOnUse" gradientTransform="matrix(8.501,0,0,13.474,386.542,750.654)">
			<stop offset="0" stop-color="#f9b776"/>
			<stop offset="1" stop-color="#f47960"/>
		</linearGradient>
		<linearGradient id="g36" x2="1" gradientUnits="userSpaceOnUse" gradientTransform="matrix(-170.853,176.264,-287.785,-278.949,530.95,699.167)">
			<stop offset="0" stop-color="#cb236d"/>
			<stop offset="1" stop-color="#4c246d"/>
		</linearGradient>
		<linearGradient id="g37" x2="1" gradientUnits="userSpaceOnUse" gradientTransform="matrix(-36.492,47.179,-48.071,-37.182,412.085,628.164)">
			<stop offset="0" stop-color="#cb236d"/>
			<stop offset="1" stop-color="#4c246d"/>
		</linearGradient>
		<linearGradient id="g38" x2="1" gradientUnits="userSpaceOnUse" gradientTransform="matrix(-196.752,300.361,-145.045,-95.012,460.788,551.298)">
			<stop offset="0" stop-color="#53d8ff"/>
			<stop offset="1" stop-color="#3840f7"/>
		</linearGradient>
		<linearGradient id="g39" x2="1" gradientUnits="userSpaceOnUse" gradientTransform="matrix(-49.907,78.37,-177.07,-112.761,552.922,510.505)">
			<stop offset="0" stop-color="#f9b776"/>
			<stop offset="1" stop-color="#f47960"/>
		</linearGradient>
		<linearGradient id="g40" x2="1" gradientUnits="userSpaceOnUse" gradientTransform="matrix(4.69,-28.92,41.177,6.677,390.421,544.302)">
			<stop offset="0" stop-color="#f9b776"/>
			<stop offset="1" stop-color="#f47960"/>
		</linearGradient>
		<linearGradient id="g41" x2="1" gradientUnits="userSpaceOnUse" gradientTransform="matrix(-246.084,369.126,-216.418,-144.279,512.782,493.83)">
			<stop offset="0" stop-color="#9cfffb"/>
			<stop offset="1" stop-color="#9bfffa"/>
		</linearGradient>
		<linearGradient id="g42" x2="1" gradientUnits="userSpaceOnUse" gradientTransform="matrix(-215.102,328.374,-439.137,-287.658,454.132,534.633)">
			<stop offset="0" stop-color="#53d8ff"/>
			<stop offset="1" stop-color="#3840f7"/>
		</linearGradient>
		<linearGradient id="g43" x2="1" gradientUnits="userSpaceOnUse" gradientTransform="matrix(24.557,0,0,57.237,347.868,585.858)">
			<stop offset="0" stop-color="#f9b776"/>
			<stop offset="1" stop-color="#f47960"/>
		</linearGradient>
		<linearGradient id="g44" x2="1" gradientUnits="userSpaceOnUse" gradientTransform="matrix(-40.536,31.016,-34.883,-45.59,438.242,517.973)">
			<stop offset="0" stop-color="#f9b776"/>
			<stop offset="1" stop-color="#f47960"/>
		</linearGradient>
		<linearGradient id="g45" x2="1" gradientUnits="userSpaceOnUse" gradientTransform="matrix(53.029,68.275,-67.358,52.317,414.744,462.839)">
			<stop offset="0" stop-color="#2b3582"/>
			<stop offset="1" stop-color="#150e42"/>
		</linearGradient>
		<linearGradient id="g46" x2="1" gradientUnits="userSpaceOnUse" gradientTransform="matrix(-55.58,42.527,-59.977,-78.386,439.607,494.819)">
			<stop offset="0" stop-color="#f9b776"/>
			<stop offset="1" stop-color="#f47960"/>
		</linearGradient>
		<linearGradient id="g47" x2="1" gradientUnits="userSpaceOnUse" gradientTransform="matrix(-99.24,155.838,-116.528,-74.207,513.711,466.601)">
			<stop offset="0" stop-color="#f9b776"/>
			<stop offset="1" stop-color="#f47960"/>
		</linearGradient>
		<linearGradient id="g48" x2="1" gradientUnits="userSpaceOnUse" gradientTransform="matrix(-58.293,0,0,279.348,869.539,502.098)">
			<stop offset="0" stop-color="#9cfffb"/>
			<stop offset="1" stop-color="#9bfffa"/>
		</linearGradient>
		<linearGradient id="g49" x2="1" gradientUnits="userSpaceOnUse" gradientTransform="matrix(-67.53,0,0,275.794,992.146,505.653)">
			<stop offset="0" stop-color="#9cfffb"/>
			<stop offset="1" stop-color="#9bfffa"/>
		</linearGradient>
		<linearGradient id="g50" x2="1" gradientUnits="userSpaceOnUse" gradientTransform="matrix(-94.906,0,0,5.932,945.567,567.194)">
			<stop offset="0" stop-color="#9cfffb"/>
			<stop offset="1" stop-color="#9bfffa"/>
		</linearGradient>
		<linearGradient id="g51" x2="1" gradientUnits="userSpaceOnUse" gradientTransform="matrix(-91.462,0,0,5.932,943.844,567.194)">
			<stop offset="0" stop-color="#9cfffb"/>
			<stop offset="1" stop-color="#9bfffa"/>
		</linearGradient>
		<linearGradient id="g52" x2="1" gradientUnits="userSpaceOnUse" gradientTransform="matrix(-94.906,0,0,5.933,945.567,616.631)">
			<stop offset="0" stop-color="#9cfffb"/>
			<stop offset="1" stop-color="#9bfffa"/>
		</linearGradient>
		<linearGradient id="g53" x2="1" gradientUnits="userSpaceOnUse" gradientTransform="matrix(-113.65,0,0,5.933,956.297,616.631)">
			<stop offset="0" stop-color="#9cfffb"/>
			<stop offset="1" stop-color="#9bfffa"/>
		</linearGradient>
		<linearGradient id="g54" x2="1" gradientUnits="userSpaceOnUse" gradientTransform="matrix(-94.906,0,0,5.932,945.567,666.069)">
			<stop offset="0" stop-color="#9cfffb"/>
			<stop offset="1" stop-color="#9bfffa"/>
		</linearGradient>
		<linearGradient id="g55" x2="1" gradientUnits="userSpaceOnUse" gradientTransform="matrix(-134.731,0,0,5.932,967.156,666.069)">
			<stop offset="0" stop-color="#9cfffb"/>
			<stop offset="1" stop-color="#9bfffa"/>
		</linearGradient>
		<linearGradient id="g56" x2="1" gradientUnits="userSpaceOnUse" gradientTransform="matrix(-126.792,0,0,5.932,977.454,715.506)">
			<stop offset="0" stop-color="#9cfffb"/>
			<stop offset="1" stop-color="#9bfffa"/>
		</linearGradient>
		<linearGradient id="g57" x2="1" gradientUnits="userSpaceOnUse" gradientTransform="matrix(-153.296,0,0,5.932,977.454,715.506)">
			<stop offset="0" stop-color="#9cfffb"/>
			<stop offset="1" stop-color="#9bfffa"/>
		</linearGradient>
		<linearGradient id="g58" x2="1" gradientUnits="userSpaceOnUse" gradientTransform="matrix(-19.385,0,0,15.423,936.088,554.59)">
			<stop offset="0" stop-color="#2b3582"/>
			<stop offset="1" stop-color="#150e42"/>
		</linearGradient>
		<linearGradient id="g59" x2="1" gradientUnits="userSpaceOnUse" gradientTransform="matrix(-7.862,0,0,10.3,934.121,548.143)">
			<stop offset="0" stop-color="#f9b776"/>
			<stop offset="1" stop-color="#f47960"/>
		</linearGradient>
		<linearGradient id="g60" x2="1" gradientUnits="userSpaceOnUse" gradientTransform="matrix(-30.414,0,0,14.803,894.862,554.59)">
			<stop offset="0" stop-color="#2b3582"/>
			<stop offset="1" stop-color="#150e42"/>
		</linearGradient>
		<linearGradient id="g61" x2="1" gradientUnits="userSpaceOnUse" gradientTransform="matrix(-7.818,0,0,15.348,894.401,542.128)">
			<stop offset="0" stop-color="#f9b776"/>
			<stop offset="1" stop-color="#f47960"/>
		</linearGradient>
		<linearGradient id="g62" x2="1" gradientUnits="userSpaceOnUse" gradientTransform="matrix(-53.299,0,0,143.367,939.004,408.766)">
			<stop offset="0" stop-color="#2b3582"/>
			<stop offset="1" stop-color="#150e42"/>
		</linearGradient>
		<linearGradient id="g63" x2="1" gradientUnits="userSpaceOnUse" gradientTransform="matrix(17.679,97.757,44.336,-8.018,839.155,253.195)">
			<stop offset="0" stop-color="#fdf53f"/>
			<stop offset="1" stop-color="#d93c65"/>
		</linearGradient>
		<linearGradient id="g64" x2="1" gradientUnits="userSpaceOnUse" gradientTransform="matrix(-29.057,0,0,54.077,842.09,293.827)">
			<stop offset="0" stop-color="#f9b776"/>
			<stop offset="1" stop-color="#f47960"/>
		</linearGradient>
		<linearGradient id="g65" x2="1" gradientUnits="userSpaceOnUse" gradientTransform="matrix(17.835,168.905,144.017,-15.207,825.534,307.404)">
			<stop offset="0" stop-color="#cb236d"/>
			<stop offset="1" stop-color="#4c246d"/>
		</linearGradient>
		<linearGradient id="g66" x2="1" gradientUnits="userSpaceOnUse" gradientTransform="matrix(70.988,88.316,79.352,-63.783,755.31,333.71)">
			<stop offset="0" stop-color="#f9b776"/>
			<stop offset="1" stop-color="#f47960"/>
		</linearGradient>
		<linearGradient id="g67" x2="1" gradientUnits="userSpaceOnUse" gradientTransform="matrix(67.444,83.906,22.7,-18.246,758.322,338.878)">
			<stop offset="0" stop-color="#f9b776"/>
			<stop offset="1" stop-color="#f47960"/>
		</linearGradient>
		<linearGradient id="g68" x2="1" gradientUnits="userSpaceOnUse" gradientTransform="matrix(92.289,169.572,208.618,-113.539,815.548,264.281)">
			<stop offset="0" stop-color="#f9b776"/>
			<stop offset="1" stop-color="#f47960"/>
		</linearGradient>
		<linearGradient id="g69" x2="1" gradientUnits="userSpaceOnUse" gradientTransform="matrix(1.784,54.688,72.293,-2.358,842.351,299.92)">
			<stop offset="0" stop-color="#f9b776"/>
			<stop offset="1" stop-color="#f47960"/>
		</linearGradient>
		<linearGradient id="g70" x2="1" gradientUnits="userSpaceOnUse" gradientTransform="matrix(3.057,113.117,-155.208,4.195,897.066,266.88)">
			<stop offset="0" stop-color="#cb236d"/>
			<stop offset="1" stop-color="#4c246d"/>
		</linearGradient>
		<linearGradient id="g71" x2="1" gradientUnits="userSpaceOnUse" gradientTransform="matrix(-6.581,-41.326,-59.568,9.486,891.834,355.758)">
			<stop offset="0" stop-color="#f9b776"/>
			<stop offset="1" stop-color="#f47960"/>
		</linearGradient>
		<linearGradient id="g72" x2="1" gradientUnits="userSpaceOnUse" gradientTransform="matrix(485.625,728.436,317.322,-211.548,437.181,74.479)">
			<stop offset="0" stop-color="#53d8ff"/>
			<stop offset="1" stop-color="#3840f7"/>
		</linearGradient>
		<linearGradient id="g73" x2="1" gradientUnits="userSpaceOnUse" gradientTransform="matrix(20.269,139.453,143.974,-20.927,277.222,356.795)">
			<stop offset="0" stop-color="#cb236d"/>
			<stop offset="1" stop-color="#4c246d"/>
		</linearGradient>
		<linearGradient id="g74" x2="1" gradientUnits="userSpaceOnUse" gradientTransform="matrix(-22.786,69.844,-124.17,-40.51,792.333,509.712)">
			<stop offset="0" stop-color="#f9b776"/>
			<stop offset="1" stop-color="#f47960"/>
		</linearGradient>
		<linearGradient id="g75" x2="1" gradientUnits="userSpaceOnUse" gradientTransform="matrix(45.228,0,0,103.682,711.403,666.814)">
			<stop offset="0" stop-color="#f9b776"/>
			<stop offset="1" stop-color="#f47960"/>
		</linearGradient>
		<linearGradient id="g76" x2="1" gradientUnits="userSpaceOnUse" gradientTransform="matrix(-23.058,149.876,-190.156,-29.255,790.417,615.494)">
			<stop offset="0" stop-color="#53d8ff"/>
			<stop offset="1" stop-color="#3840f7"/>
		</linearGradient>
		<linearGradient id="g77" x2="1" gradientUnits="userSpaceOnUse" gradientTransform="matrix(-23.586,153.309,-61.59,-9.475,729.798,601.856)">
			<stop offset="0" stop-color="#53d8ff"/>
			<stop offset="1" stop-color="#3840f7"/>
		</linearGradient>
		<linearGradient id="g78" x2="1" gradientUnits="userSpaceOnUse" gradientTransform="matrix(26.191,0,0,96.956,683.959,673.54)">
			<stop offset="0" stop-color="#f9b776"/>
			<stop offset="1" stop-color="#f47960"/>
		</linearGradient>
		<linearGradient id="g79" x2="1" gradientUnits="userSpaceOnUse" gradientTransform="matrix(51.273,0,0,101.437,627.54,474.801)">
			<stop offset="0" stop-color="#f9b776"/>
			<stop offset="1" stop-color="#f47960"/>
		</linearGradient>
		<linearGradient id="g80" x2="1" gradientUnits="userSpaceOnUse" gradientTransform="matrix(105.806,209.557,-254.972,128.736,717.497,532.803)">
			<stop offset="0" stop-color="#fdf53f"/>
			<stop offset="1" stop-color="#d93c65"/>
		</linearGradient>
		<linearGradient id="g81" x2="1" gradientUnits="userSpaceOnUse" gradientTransform="matrix(94.156,106.187,-171.719,152.264,716.46,549.124)">
			<stop offset="0" stop-color="#cb236d"/>
			<stop offset="1" stop-color="#4c246d"/>
		</linearGradient>
		<linearGradient id="g82" x2="1" gradientUnits="userSpaceOnUse" gradientTransform="matrix(16.026,0,0,19.587,691.9,540.898)">
			<stop offset="0" stop-color="#f9b776"/>
			<stop offset="1" stop-color="#f47960"/>
		</linearGradient>
		<linearGradient id="g83" x2="1" gradientUnits="userSpaceOnUse" gradientTransform="matrix(127.281,8.655,-8.523,125.342,719.624,514.737)">
			<stop offset="0" stop-color="#f9b776"/>
			<stop offset="1" stop-color="#f47960"/>
		</linearGradient>
		<linearGradient id="g84" x2="1" gradientUnits="userSpaceOnUse" gradientTransform="matrix(-52.97,105.94,-163.992,-81.996,813.142,547.215)">
			<stop offset="0" stop-color="#2b3582"/>
			<stop offset="1" stop-color="#150e42"/>
		</linearGradient>
		<linearGradient id="g85" x2="1" gradientUnits="userSpaceOnUse" gradientTransform="matrix(-164.862,-23.028,-9.921,71.025,384.094,220.133)">
			<stop offset="0" stop-color="#b37cff"/>
			<stop offset="1" stop-color="#f895e7"/>
		</linearGradient>
		<linearGradient id="g86" x2="1" gradientUnits="userSpaceOnUse" gradientTransform="matrix(239.779,-366.95,1691.816,1105.497,127.224,19.219)">
			<stop offset="0" stop-color="#a737d5"/>
			<stop offset="1" stop-color="#ef497a"/>
		</linearGradient>
		<linearGradient id="g87" x2="1" gradientUnits="userSpaceOnUse" gradientTransform="matrix(-224.734,224.072,-412.997,-414.218,1367.793,618.921)">
			<stop offset="0" stop-color="#cb236d"/>
			<stop offset="1" stop-color="#4c246d"/>
		</linearGradient>
		<linearGradient id="g88" x2="1" gradientUnits="userSpaceOnUse" gradientTransform="matrix(-20.269,139.453,-143.974,-20.927,976.492,120.196)">
			<stop offset="0" stop-color="#fdf53f"/>
			<stop offset="1" stop-color="#d93c65"/>
		</linearGradient>
		<linearGradient id="g89" x2="1" gradientUnits="userSpaceOnUse" gradientTransform="matrix(-168.282,266.141,-266.141,-168.282,1187.415,225.495)">
			<stop offset="0" stop-color="#fdf53f"/>
			<stop offset="1" stop-color="#d93c65"/>
		</linearGradient>
		<linearGradient id="g90" x2="1" gradientUnits="userSpaceOnUse" gradientTransform="matrix(-14.126,48.132,-48.132,-14.126,1007.871,320.652)">
			<stop offset="0" stop-color="#53d8ff"/>
			<stop offset="1" stop-color="#3840f7"/>
		</linearGradient>
	</defs>
	<style>
		.s0 { opacity: .5;fill: url(#g1) } 
		.s1 { opacity: .78;fill: url(#g2) } 
		.s2 { fill: url(#g3) } 
		.s3 { opacity: .5;fill: #ffffff } 
		.s4 { opacity: .82;fill: url(#g4) } 
		.s5 { fill: url(#g5) } 
		.s6 { fill: url(#g6) } 
		.s7 { fill: url(#g7) } 
		.s8 { fill: url(#g8) } 
		.s9 { fill: url(#g9) } 
		.s10 { fill: url(#g10) } 
		.s11 { fill: url(#g11) } 
		.s12 { fill: url(#g12) } 
		.s13 { fill: url(#g13) } 
		.s14 { fill: url(#g14) } 
		.s15 { fill: url(#g15) } 
		.s16 { fill: url(#g16) } 
		.s17 { fill: url(#g17) } 
		.s18 { opacity: .47;fill: #ffffff } 
		.s19 { fill: url(#g18) } 
		.s20 { opacity: .5;fill: url(#g19) } 
		.s21 { fill: url(#g20) } 
		.s22 { fill: url(#g21) } 
		.s23 { fill: url(#g22) } 
		.s24 { fill: #ffffff } 
		.s25 { fill: url(#g23) } 
		.s26 { opacity: .6;fill: #ffffff } 
		.s27 { fill: url(#g24) } 
		.s28 { fill: url(#g25) } 
		.s29 { fill: url(#g26) } 
		.s30 { opacity: .64;fill: #ffffff } 
		.s31 { fill: url(#g27) } 
		.s32 { fill: url(#g28) } 
		.s33 { fill: url(#g29) } 
		.s34 { fill: url(#g30) } 
		.s35 { fill: url(#g31) } 
		.s36 { fill: url(#g32) } 
		.s37 { fill: url(#g33) } 
		.s38 { fill: url(#g34) } 
		.s39 { fill: url(#g35) } 
		.s40 { fill: url(#g36) } 
		.s41 { fill: url(#g37) } 
		.s42 { fill: url(#g38) } 
		.s43 { fill: url(#g39) } 
		.s44 { fill: url(#g40) } 
		.s45 { fill: url(#g41) } 
		.s46 { fill: url(#g42) } 
		.s47 { fill: url(#g43) } 
		.s48 { fill: url(#g44) } 
		.s49 { fill: url(#g45) } 
		.s50 { fill: url(#g46) } 
		.s51 { fill: url(#g47) } 
		.s52 { fill: url(#g48) } 
		.s53 { fill: url(#g49) } 
		.s54 { fill: url(#g50) } 
		.s55 { fill: url(#g51) } 
		.s56 { fill: url(#g52) } 
		.s57 { fill: url(#g53) } 
		.s58 { fill: url(#g54) } 
		.s59 { fill: url(#g55) } 
		.s60 { fill: url(#g56) } 
		.s61 { fill: url(#g57) } 
		.s62 { fill: url(#g58) } 
		.s63 { fill: url(#g59) } 
		.s64 { fill: url(#g60) } 
		.s65 { fill: url(#g61) } 
		.s66 { fill: url(#g62) } 
		.s67 { fill: #666694 } 
		.s68 { fill: url(#g63) } 
		.s69 { fill: url(#g64) } 
		.s70 { fill: url(#g65) } 
		.s71 { fill: url(#g66) } 
		.s72 { fill: url(#g67) } 
		.s73 { fill: url(#g68) } 
		.s74 { fill: url(#g69) } 
		.s75 { fill: url(#g70) } 
		.s76 { fill: url(#g71) } 
		.s77 { fill: url(#g72) } 
		.s78 { fill: url(#g73) } 
		.s79 { fill: url(#g74) } 
		.s80 { fill: url(#g75) } 
		.s81 { fill: url(#g76) } 
		.s82 { fill: url(#g77) } 
		.s83 { fill: url(#g78) } 
		.s84 { fill: url(#g79) } 
		.s85 { fill: url(#g80) } 
		.s86 { fill: url(#g81) } 
		.s87 { fill: url(#g82) } 
		.s88 { fill: url(#g83) } 
		.s89 { fill: url(#g84) } 
		.s90 { opacity: .5;fill: url(#g85) } 
		.s91 { fill: url(#g86) } 
		.s92 { fill: url(#g87) } 
		.s93 { fill: url(#g88) } 
		.s94 { fill: #eac4f9 } 
		.s95 { fill: url(#g89) } 
		.s96 { fill: url(#g90) } 
		.s97 { fill: #e5c2fa } 
		.s98 { fill: #faf3fe } 
	</style>
	<g id="Layer 1">
		<g id="&lt;Group&gt;">
			<path id="&lt;Path&gt;" class="s0" d="m1125.1 485.1c-17.3-7.2-37-6.7-55.8-8.9-18.8-2.1-39.1-8.3-48.4-23.3-8.4-13.8-4.9-31.4 4.1-45 8.9-13.5 22.5-23.9 35.2-34.6 29-24.4 55.3-52.4 69.8-85.7 14.4-33.4 15.7-72.7-3.6-103.9-19.3-31.2-61.6-51.5-99.8-42.3-19.1 4.6-35.4 15.5-53.3 22.9-17.9 7.4-40.3 10.8-56.5 0.7-16-10.1-20.4-29.4-29.6-45-15.8-26.8-47.6-43.4-80.3-50.4-47.6-10.3-99.7-2.3-141 21.5-41.3 23.8-71.3 63.1-81.2 106.5l2.2-10.5c-44.2 13.4-88.1-16.9-126.8-40.4-51.4-31.2-111.4-53.4-173.2-53.1-61.9 0.2-125.4 25.4-159.2 72.3-33.7 47-30.8 115.7 13.9 154.4 16 13.8 36 23.3 51.3 37.6 15.4 14.3 25.5 36.4 15.6 54.2-13.8 24.9-52.4 23.6-82.1 31-43 10.8-75.5 49.5-75.3 89.9 0.1 40.4 32.8 79 75.9 89.5 15.6 3.8 32.3 4.4 46.6 10.9 14.3 6.6 25.6 22.6 18.5 35.6-2.9 5.5-8.5 9.5-11.7 14.8-7.6 12.9 1.7 29.6 15.6 36.9 13.9 7.3 30.8 7.6 46.9 7.8q340.4 3.2 680.8 6.5c33.7 0.3 68.3 0.5 99.8-10.4 42.2-14.6 73.3-47.3 99.6-80.5 19.6-24.7 38.1-51.6 42.3-81.8 4.2-30.2-9.8-64.4-40.3-77.2z"/>
			<path id="&lt;Path&gt;" class="s1" d="m1082.1 499.8c-15.8-6.8-33.9-6.4-51.1-8.4-17.3-2.1-35.9-7.8-44.4-22-7.7-12.9-4.5-29.6 3.7-42.3 8.2-12.7 20.7-22.5 32.4-32.6 26.5-23 50.6-49.4 63.9-80.8 13.2-31.3 14.4-68.3-3.3-97.7-17.7-29.4-56.4-48.5-91.5-39.8-17.4 4.3-32.4 14.6-48.8 21.5-16.5 7-36.9 10.2-51.8 0.7-14.7-9.5-18.7-27.7-27.1-42.4-14.5-25.2-43.7-40.8-73.7-47.5-43.6-9.6-91.4-2.1-129.3 20.3-37.8 22.4-65.3 59.4-74.4 100.3l2-9.9c-40.5 12.6-80.8-16-116.3-38.1-47.1-29.4-102-50.2-158.8-50-56.7 0.2-115 24-145.9 68.1-30.9 44.2-28.2 108.9 12.8 145.4 14.6 12.9 32.9 21.9 47 35.4 14.1 13.5 23.4 34.3 14.3 51-12.7 23.5-48.1 22.2-75.3 29.2-39.4 10.1-69.2 46.6-69 84.6 0.1 38.1 30.1 74.4 69.6 84.3 14.2 3.6 29.5 4.1 42.7 10.3 13.1 6.2 23.5 21.2 17 33.5-2.7 5.2-7.9 8.9-10.8 13.9-7 12.1 1.6 27.9 14.3 34.7 12.8 6.9 28.3 7.2 43 7.3q312.1 3.1 624.2 6.2c30.9 0.3 62.6 0.5 91.5-9.8 38.6-13.8 67.2-44.5 91.3-75.8 18-23.2 35-48.6 38.8-77 3.8-28.4-9-60.6-37-72.6z"/>
			<g id="&lt;Group&gt;">
				<path id="&lt;Path&gt;" class="s2" d="m332.6 649.4c0 0-63.8-269.4-196.1-416.4-8.8-9.9-25.1-6.1-28.6 6.7-23.5 85.8-68.6 345.8 224.7 409.7z"/>
				<path id="&lt;Path&gt;" class="s3" d="m305.8 632c0.6 0.7-0.3 1.7-1 1.1-27.2-20.2-132.4-119.6-171.2-317.8-0.2-0.6 0.8-0.9 1-0.2 13.2 45.9 67.2 215.3 171.2 316.9z"/>
			</g>
			<g id="&lt;Group&gt;">
				<path id="&lt;Path&gt;" class="s4" d="m55.8 473.9c-1.3-0.8-0.7-2.8 0.8-2.6 23.7 2.6 110 17.2 174.7 96.8 59.2 72.8 88.7 133.6 98.8 156.7 2 4.5-1.6 9.5-6.6 9.1-29.3-3-111.1-15.5-145.3-65.4-40.9-59.6-61.8-157.1-122.4-194.6z"/>
				<path id="&lt;Path&gt;" class="s3" d="m125.4 515.1c0 0 77.2 29.1 198.6 210.4 0 0-131.6-175.7-198.6-210.4z"/>
			</g>
			<g id="&lt;Group&gt;" style="opacity: .5">
				<path id="&lt;Path&gt;" class="s5" d="m129 735.9h-5.9v-172.5h5.9z"/>
				<path id="&lt;Path&gt;" class="s6" d="m139 735.9h-6v-113.2h6z"/>
				<path id="&lt;Path&gt;" class="s7" d="m148.9 735.9h-5.9v-259.8h5.9z"/>
				<path id="&lt;Path&gt;" class="s8" d="m158.9 735.9h-6v-62.4h6z"/>
				<path id="&lt;Path&gt;" class="s9" d="m168.8 735.9h-6v-225h6z"/>
				<path id="&lt;Path&gt;" class="s10" d="m178.7 735.9h-5.9v-186.1h5.9z"/>
				<path id="&lt;Path&gt;" class="s11" d="m188.7 735.9h-6v-143.7h6z"/>
				<path id="&lt;Path&gt;" class="s12" d="m198.6 735.9h-5.9v-312.3h5.9z"/>
				<path id="&lt;Path&gt;" class="s13" d="m208.5 735.9h-5.9v-279.2h5.9z"/>
				<path id="&lt;Path&gt;" class="s14" d="m218.5 735.9h-6v-229.3h6z"/>
				<path id="&lt;Path&gt;" class="s15" d="m228.4 735.9h-5.9v-56.6h5.9z"/>
				<path id="&lt;Path&gt;" class="s16" d="m238.4 735.9h-6v-166.6h6z"/>
			</g>
			<g id="&lt;Group&gt;">
				<path id="&lt;Path&gt;" class="s17" d="m909.2 51.7c-0.7-1.8-3.4-1.5-3.6 0.4-4.4 30.3-16.2 138.7 27.4 188 50.9 57.6 88 70.9 76.1 166.9-11.8 95.1-43.6 263.6-29.9 313.9 0.3 0.9 1 1.7 2 1.8 1.6 0.3 3-1 2.9-2.6-0.8-14.8-3.7-79 6.3-137.4 11.3-66.6 60.4-232.5 37.6-361.9-21.4-121.2-100.4-124-118.8-169.1z"/>
				<path id="&lt;Path&gt;" class="s18" d="m929.5 103.8c4.3 3.4 8.3 7 12.2 10.7q5.9 5.7 11.4 11.7c3.6 4 7.1 8.1 10.6 12.3 1.7 2.1 3.3 4.3 5 6.4 1.6 2.2 3.2 4.4 4.8 6.6 6.4 8.8 12.2 18 17.5 27.5l2 3.6 1.9 3.6c1.2 2.4 2.5 4.8 3.7 7.2l3.5 7.4 3.2 7.5q0.9 1.8 1.6 3.7l1.5 3.8 1.4 3.8 1.4 3.9c0.8 2.6 1.8 5.1 2.6 7.7l2.3 7.8c0.4 1.3 0.8 2.7 1.1 4l1 3.9 1 4c0.3 1.3 0.5 2.7 0.8 4 0.5 2.6 1.1 5.3 1.6 8l1.3 8c0.4 2.7 0.7 5.4 1 8.1l0.4 4.1c0.1 1.3 0.3 2.7 0.4 4 0.2 5.5 0.6 10.9 0.5 16.3 0.2 10.8-0.8 21.7-2.1 32.4 0 0.4-0.4 0.7-0.8 0.7-0.5-0.1-0.8-0.4-0.7-0.8v-0.1c1.7-21.4 1-43-2.6-64.1l-1.4-7.9c-0.6-2.6-1.2-5.2-1.7-7.8-0.3-1.3-0.6-2.6-0.9-3.9l-1.1-3.9-1-3.8c-0.4-1.3-0.7-2.6-1.1-3.9-3.1-10.2-6.8-20.3-11-30.1-8.4-19.7-19-38.3-31.2-56-1.5-2.2-3-4.4-4.6-6.5-1.6-2.2-3.1-4.4-4.7-6.5q-4.9-6.4-10-12.7c-6.7-8.3-13.9-16.3-21.5-23.9-0.2-0.2-0.2-0.6 0-0.8 0.2-0.2 0.5-0.2 0.7 0z"/>
			</g>
			<g id="&lt;Group&gt;">
				<path id="&lt;Path&gt;" class="s19" d="m299 408c0 0 25.5-193.9-25-324.1-3.4-8.7-15.1-10.3-20.6-2.7-37 50.7-132 211.1 45.6 326.8z"/>
				<path id="&lt;Path&gt;" class="s3" d="m285.7 389.8c0.2 0.6-0.6 1.1-0.9 0.5-12.9-20.2-57.5-112.2-33.4-252.8 0.1-0.4 0.8-0.3 0.7 0.1-2.8 33.7-9.6 159 33.6 252.2z"/>
			</g>
			<path id="&lt;Path&gt;" class="s20" d="m292.8 153.5c8.9-18.2 0.2-51.8-42-40.7 2.3-9.3-29.5-52.8-70.5-1.4 1.9-15.5-31.3-19.7-45.6 2.3-9.3-10.2-47.9 9.3-13.2 28.1 44.2 23.9 151.8 61.7 182.9 36.3 31.2-25.4-11.6-24.6-11.6-24.6z"/>
			<g id="&lt;Group&gt;">
				<path id="&lt;Path&gt;" class="s21" d="m275.2 235.1l702.1-11.9c28.3-0.5 51 23.8 49.3 52.7l-24.2 415.6c-1.3 22.7-19.6 40.6-41.9 40.8l-674.9 6.7c-16.7 0.1-30.4-13.3-31.1-30.4l-16.1-433.8c-0.8-21.4 15.8-39.4 36.8-39.7z"/>
				<path id="&lt;Path&gt;" class="s22" d="m285.9 245.7l683.8-11.3c27.6-0.5 49.7 22.6 48 50.1l-23.5 395.4c-1.3 21.6-19.1 38.6-40.8 38.8l-657.3 6.4c-16.2 0.1-29.7-12.7-30.3-28.9l-15.7-412.7c-0.8-20.4 15.4-37.5 35.8-37.8z"/>
				<path id="&lt;Path&gt;" class="s3" d="m298.7 259.3l651.2-10.7c26.2-0.5 47.2 21.5 45.7 47.7l-22.4 376.5c-1.3 20.6-18.2 36.7-38.9 36.9l-625.9 6.1c-15.5 0.1-28.2-12-28.8-27.5l-15-393c-0.7-19.4 14.7-35.7 34.1-36z"/>
				<path id="&lt;Path&gt;" class="s23" d="m971.3 234.1l-686.7 11.3c-20.5 0.3-36.7 17.5-35.9 38l1.1 29.1h768l1.7-28.1c1.7-27.6-20.5-50.8-48.2-50.3z"/>
				<g id="&lt;Group&gt;" style="opacity: .85">
					<path id="&lt;Path&gt;" class="s24" d="m306.2 259.5c0 3.4-2.7 6.1-6.1 6.1-3.5 0-6.2-2.7-6.2-6.1 0-3.5 2.7-6.2 6.2-6.2 3.4 0 6.1 2.7 6.1 6.2z"/>
					<path id="&lt;Path&gt;" class="s24" d="m306.2 277.6c0 3.4-2.7 6.1-6.1 6.1-3.5 0-6.2-2.7-6.2-6.1 0-3.5 2.7-6.2 6.2-6.2 3.4 0 6.1 2.7 6.1 6.2z"/>
					<path id="&lt;Path&gt;" class="s24" d="m306.2 295.6c0 3.5-2.7 6.2-6.1 6.2-3.5 0-6.2-2.7-6.2-6.2 0-3.4 2.7-6.1 6.2-6.1 3.4 0 6.1 2.7 6.1 6.1z"/>
				</g>
			</g>
			<g id="&lt;Group&gt;">
				<path id="&lt;Path&gt;" class="s25" d="m482.1 625.2l1.6 72.7c0.1 7.7 6.4 13.8 14.1 13.8h318.9c7.7 0 14-6.3 14-14.1v-66.3c0-7.6-6-13.8-13.6-14.1l-320.5-6.3c-8.1-0.3-14.7 6.3-14.5 14.3z"/>
				<path id="&lt;Path&gt;" class="s26" d="m498.1 634.8l4.2 64.8c0.2 3.4 3.1 6.2 6.6 6.1l301.5-3.1c3.6-0.1 6.4-2.9 6.4-6.4v-52.7c0-3.5-2.7-6.3-6.2-6.5l-305.7-8.9c-3.8-0.2-7 2.9-6.8 6.7z"/>
				<path id="&lt;Path&gt;" class="s26" d="m512.2 643.3v6.6c0 2.3 1.9 4.1 4.2 4.1l277.3-2.5c2.2 0 4-1.9 4-4.1 0-2.3-1.7-4.1-4-4.1l-277.3-4.1c-2.3-0.1-4.2 1.8-4.2 4.1z"/>
				<path id="&lt;Path&gt;" class="s26" d="m514.4 668v6c0 2.4 2 4.2 4.3 4.2l270.1-5.1c2.2-0.1 4-1.9 4-4.1v-1.9c0-2.3-1.9-4.1-4.2-4.1l-270.1 0.9c-2.2 0-4.1 1.9-4.1 4.1z"/>
			</g>
			<g id="&lt;Group&gt;">
				<path id="&lt;Path&gt;" class="s27" d="m830.7 515.9l-1.6 72.7c-0.2 7.7-6.4 13.8-14.1 13.8h-318.9c-7.8 0-14-6.3-14-14v-66.4c0-7.6 6-13.8 13.6-14.1l320.5-6.3c8-0.2 14.7 6.3 14.5 14.3z"/>
				<path id="&lt;Path&gt;" class="s26" d="m814.7 525.5l-4.2 64.8c-0.2 3.5-3.1 6.2-6.6 6.1l-301.6-3.1c-3.5 0-6.3-2.9-6.3-6.4v-52.7c0-3.5 2.7-6.3 6.1-6.5l305.8-8.9c3.8-0.2 7 2.9 6.8 6.7z"/>
				<path id="&lt;Path&gt;" class="s26" d="m800.6 534v6.6c0 2.3-1.9 4.1-4.2 4.1l-277.3-2.5c-2.3 0-4.1-1.8-4.1-4.1 0-2.2 1.8-4.1 4.1-4.1l277.3-4.1c2.3 0 4.2 1.8 4.2 4.1z"/>
				<path id="&lt;Path&gt;" class="s26" d="m798.3 558.7v6c0 2.4-1.9 4.3-4.2 4.2l-270.1-5.1c-2.2-0.1-4-1.9-4-4.1v-1.9c0-2.3 1.9-4.1 4.2-4.1l270 0.9c2.3 0 4.1 1.9 4.1 4.1z"/>
			</g>
			<g id="&lt;Group&gt;">
				<path id="&lt;Path&gt;" class="s28" d="m458.2 117.9l1.6 90.6c0.1 7 5.8 12.6 12.8 12.6h292.4c7.1 0 12.9-5.7 12.9-12.9v-84.7c0-6.9-5.5-12.6-12.5-12.9l-293.9-5.8c-7.3-0.2-13.4 5.8-13.3 13.1z"/>
				<path id="&lt;Path&gt;" class="s26" d="m472.9 126.8l3.9 83.2c0.2 3.2 2.8 5.7 6 5.6l276.5-2.8c3.2-0.1 5.8-2.7 5.8-5.9v-72.2c0-3.2-2.5-5.8-5.6-5.9l-280.4-8.2c-3.4-0.2-6.3 2.7-6.2 6.2z"/>
				<path id="&lt;Path&gt;" class="s26" d="m485.8 134.6v6c0 2.1 1.8 3.8 3.9 3.7l254.2-2.2c2.1-0.1 3.7-1.7 3.7-3.8 0-2.1-1.6-3.7-3.6-3.8l-254.3-3.7c-2.1-0.1-3.9 1.6-3.9 3.8z"/>
				<path id="&lt;Path&gt;" class="s26" d="m487.9 157.2v5.5c0 2.2 1.8 3.9 3.9 3.8l247.6-4.6c2.1-0.1 3.7-1.8 3.7-3.8v-1.7c0-2.1-1.7-3.8-3.8-3.8l-247.6 0.8c-2.1 0-3.8 1.7-3.8 3.8z"/>
			</g>
			<g id="&lt;Group&gt;">
				<g id="&lt;Group&gt;">
					<path id="&lt;Path&gt;" class="s29" d="m412.5 377.5l308.4-1.3c3 0 5.4 2.4 5.4 5.3l-0.7 108c0 2.9-2.5 5.3-5.4 5.2-27.2-0.8-306-4.4-311.3-4.1-5.3 0.2-2.4-85.1-1.6-108 0.1-2.8 2.4-5 5.2-5.1z"/>
					<path id="&lt;Compound Path&gt;" class="s24" d="m720.3 490.6v-0.1c-17.4-0.5-184-2.5-264-3.5-23.4-0.3-40-0.5-44.5-0.6h-0.4v-0.4c-1.9-10.7-1.9-46.4 0-103.2 0.1-0.6 0.5-1.1 1.1-1.1l308.5-1.3q0.4 0 0.8 0.3 0.3 0.3 0.3 0.8l-0.7 107.9c0 0.7-0.5 1.2-1.1 1.2zm-308-5.2c5 0.1 21.3 0.3 44 0.6 80.1 1 246.6 3 264 3.5l0.1 0.1c0 0 0-0.1 0-0.2l0.7-107.9-0.1-0.6v0.5l-308.5 1.3q0 0-0.1 0.1c-1.9 56.1-1.9 91.5-0.1 102.6z"/>
					<path id="&lt;Path&gt;" class="s30" d="m425.7 405.4c0 2.9 1 5.3 2.2 5.3h118.1c1.2 0 2.2-2.4 2.2-5.3 0-2.9-1-5.3-2.2-5.3h-118.1c-1.2 0-2.2 2.4-2.2 5.3z"/>
					<path id="&lt;Path&gt;" class="s30" d="m425.7 423.4c0 3 1 5.3 2.2 5.3h118.1c1.2 0 2.2-2.3 2.2-5.3 0-2.9-1-5.2-2.2-5.2h-118.1c-1.2 0-2.2 2.3-2.2 5.2z"/>
					<path id="&lt;Path&gt;" class="s30" d="m425.7 441.5c0 2.9 1 5.3 2.2 5.3h118.1c1.2 0 2.2-2.4 2.2-5.3 0-3-1-5.3-2.2-5.3h-118.1c-1.2 0-2.2 2.3-2.2 5.3z"/>
					<path id="&lt;Path&gt;" class="s30" d="m425.7 459.5c0 2.9 1 5.3 2.2 5.3h118.1c1.2 0 2.2-2.4 2.2-5.3 0-2.9-1-5.3-2.2-5.3h-118.1c-1.2 0-2.2 2.4-2.2 5.3z"/>
					<g id="&lt;Group&gt;">
						<path id="&lt;Path&gt;" class="s24" d="m598.7 409.2c0 11.3-9.2 20.5-20.6 20.5-11.3 0-20.5-9.2-20.5-20.5 0-11.4 9.2-20.6 20.5-20.6 11.4 0 20.6 9.2 20.6 20.6z"/>
						<path id="&lt;Path&gt;" class="s24" d="m649.8 409.2c0 11.3-9.2 20.5-20.6 20.5-11.3 0-20.5-9.2-20.5-20.5 0-11.4 9.2-20.6 20.5-20.6 11.4 0 20.6 9.2 20.6 20.6z"/>
						<path id="&lt;Path&gt;" class="s24" d="m700.8 409.8c0 11.4-9.2 20.6-20.5 20.6-11.4 0-20.6-9.2-20.6-20.6 0-11.3 9.2-20.5 20.6-20.5 11.3 0 20.5 9.2 20.5 20.5z"/>
						<g id="&lt;Group&gt;">
							<path id="&lt;Path&gt;" class="s31" d="m590.3 404.8c0.7 1.6 1 3.2 1 5 0 7.3-5.9 13.2-13.2 13.2-7.3 0-13.2-5.9-13.2-13.2 0-7.3 5.9-13.2 13.2-13.2q0.4 0 0.7 0v-3.3q-0.3 0-0.7 0c-9.1 0-16.5 7.4-16.5 16.5 0 9.2 7.4 16.6 16.5 16.6 9.2 0 16.6-7.4 16.6-16.6 0-2.2-0.5-4.4-1.3-6.3z"/>
							<path id="&lt;Path&gt;" class="s32" d="m636 421c-2 1.3-4.4 2-7 2-7.3 0-13.2-5.9-13.2-13.2 0-7.3 5.9-13.2 13.2-13.2q0.3 0 0.6 0v-3.3q-0.3 0-0.6 0c-9.2 0-16.6 7.4-16.6 16.5 0 9.2 7.4 16.6 16.6 16.6 3.2 0 6.1-0.9 8.7-2.5z"/>
							<path id="&lt;Path&gt;" class="s33" d="m691.3 417.2c-2.4 3.5-6.4 5.8-10.9 5.8-7.3 0-13.2-5.9-13.2-13.2 0-7.3 5.9-13.2 13.2-13.2q0.3 0 0.6 0v-3.3q-0.3 0-0.6 0c-9.2 0-16.6 7.4-16.6 16.5 0 9.2 7.4 16.6 16.6 16.6 5.6 0 10.6-2.9 13.6-7.2z"/>
						</g>
						<g id="&lt;Group&gt;" style="opacity: .64">
							<path id="&lt;Path&gt;" class="s24" d="m594.9 438.4h-33.5c-2.1 0-3.8 1.7-3.8 3.8 0 2.1 1.7 3.8 3.8 3.8h33.5c2.1 0 3.8-1.7 3.8-3.8 0-2.1-1.7-3.8-3.8-3.8z"/>
							<path id="&lt;Path&gt;" class="s24" d="m646 438.4h-33.5c-2.1 0-3.8 1.7-3.8 3.8 0 2.1 1.7 3.8 3.8 3.8h33.5c2.1 0 3.8-1.7 3.8-3.8 0-2.1-1.7-3.8-3.8-3.8z"/>
							<path id="&lt;Path&gt;" class="s24" d="m663.5 446h33.5c2.1 0 3.8-1.7 3.8-3.8 0-2.1-1.7-3.8-3.8-3.8h-33.5c-2.1 0-3.8 1.7-3.8 3.8 0 2.1 1.7 3.8 3.8 3.8z"/>
							<path id="&lt;Path&gt;" class="s24" d="m594.9 450.2h-33.5c-2.1 0-3.8 1.8-3.8 3.9v22.4c0 2.1 1.7 3.8 3.8 3.8h33.5c2.1 0 3.8-1.7 3.8-3.8v-22.4c0-2.1-1.7-3.9-3.8-3.9z"/>
							<path id="&lt;Path&gt;" class="s24" d="m646 450.2h-33.5c-2.1 0-3.8 1.8-3.8 3.9v22.4c0 2.1 1.7 3.8 3.8 3.8h33.5c2.1 0 3.8-1.7 3.8-3.8v-22.4c0-2.1-1.7-3.9-3.8-3.9z"/>
							<path id="&lt;Path&gt;" class="s24" d="m697 450.2h-33.5c-2.1 0-3.8 1.8-3.8 3.9v22.4c0 2.1 1.7 3.8 3.8 3.8h33.5c2.1 0 3.8-1.7 3.8-3.8v-22.4c0-2.1-1.7-3.9-3.8-3.9z"/>
						</g>
					</g>
				</g>
				<path id="&lt;Path&gt;" class="s34" d="m397.5 775.6c7.8 0.3 15.3 0.1 20.4-0.1-4.6-3.3-15.2-10.4-24.1-13.3l-6.1-0.3c0 0-2 3.1-2.8 10.3 1 1.2 4 3 12.6 3.4z"/>
				<path id="&lt;Path&gt;" class="s35" d="m418 775.5q-0.1 0-0.1 0c-5.1 0.2-12.6 0.4-20.4 0.1-8.6-0.4-11.6-2.2-12.6-3.4q0 0.5-0.1 1c-0.1 1.6 1.1 2.9 2.7 3.1 6.4 0.4 22.2 1.5 29.9 1.1 1 0 1.4-1.3 0.6-1.9z"/>
				<path id="&lt;Path&gt;" class="s36" d="m341.5 773.5c-0.5-3.7-1.4-9-2.2-10.3-1.1-2.2-4.9 0-4.9 0 0 0-2.7 1.2-3.9 3.3-0.8 1.3-2.9 5.1-4.4 7.6q-0.3 0.5-0.2 0.9l15.2 0.6c0.4-0.6 0.6-1.3 0.4-2.1z"/>
				<path id="&lt;Path&gt;" class="s37" d="m325.9 775c0 0.9 0.7 1.7 1.7 1.7l10.8 0.3c1.2 0.1 2.2-0.5 2.7-1.4z"/>
				<path id="&lt;Path&gt;" class="s38" d="m342.7 751c-0.1 0.4-2.1 10-3 14.1-0.2 1.2-1.2 2-2.4 2-0.7-0.1-1.4-0.1-2.2-0.2-1.4-0.2-2.5-1.4-2.5-2.8-0.2-3.7-0.2-10.7 1.1-13.4 1.9-3.8 9 0.3 9 0.3z"/>
				<path id="&lt;Path&gt;" class="s39" d="m386.5 753.7c0.9 0-0.3 4.4 1 8.7 0.3 0.9 1 1.7 2 1.7 0.7 0 1.5 0 2.2 0 1.2-0.1 2.2-1.1 2.3-2.3l1-11.1z"/>
				<path id="&lt;Path&gt;" class="s40" d="m410.2 634.7c-0.4 1.8-13.7 79.5-14.5 119.7 0 0.7-0.5 1.2-1.2 1.3-1.7 0.3-5 0.6-8.2 0-0.4-0.1-0.7-0.5-0.8-0.9-0.4-7.5-4.2-70.8 0.4-100.6 0 0-37.9 79.6-43.6 101.6-0.1 0.6-0.6 0.9-1.2 0.9-1.6-0.1-5-0.4-7.6-1.4-1-0.3-1.6-1.3-1.3-2.3 3.2-13.2 25.7-103.8 40.9-123.7z"/>
				<path id="&lt;Path&gt;" class="s41" d="m385.9 654.7q-0.2 0-0.3-0.2c-0.2-0.2-0.2-0.5 0-0.7l5-5.2c0.2-0.2 0.5-0.2 0.7 0 0.2 0.2 0.2 0.5 0 0.7l-5 5.2q-0.2 0.2-0.4 0.2z"/>
				<path id="&lt;Path&gt;" class="s42" d="m457.1 537.4c-8.3 2.3-17 2.2-25.2 0.1-11.1-3-32.9-7.8-47.8-5.1l-1.2 38.9 50.8 5.8 0.5-10.3c0 0 30.9-4.4 47.6-24.8-4.1-4.4-7.4-9.3-9.4-12.6-3.9 3.3-8.9 6.2-15.3 8z"/>
				<path id="&lt;Path&gt;" class="s43" d="m490.8 499l-4-1.7c0 0 0.2 19.6-14.4 32.1 2 3.3 5.3 8.2 9.4 12.6 8.2-10 13-23.9 9-43z"/>
				<path id="&lt;Path&gt;" class="s44" d="m408.4 510.8c0 0-2.9 17.6-3.3 23.1 0 0 14.2 4 18 1.9l-0.5-21.3z"/>
				<g id="&lt;Group&gt;">
					<path id="&lt;Path&gt;" class="s45" d="m327.5 563.6l125.6-0.9c2.9 0 5.2 2.4 5.2 5.2l-0.5 69.4c0 2.9-2.4 5.2-5.3 5.1l-124.3-3.7c-2.8-0.1-5-2.3-5-5.1l-0.8-64.8c-0.1-2.9 2.2-5.2 5.1-5.2z"/>
					<path id="&lt;Compound Path&gt;" class="s24" d="m452.6 638.3l-124.3-3.8c-0.5 0-0.9-0.4-0.9-0.9l-0.9-64.8q0-0.5 0.3-0.7 0.3-0.3 0.7-0.3l125.7-0.9q0.4 0 0.7 0.3 0.2 0.3 0.2 0.7l-0.5 69.4c0 0.5-0.4 1-1 1zm-124.2-4.8l124.2 3.8 0.5-69.4-125.6 0.9z"/>
					<path id="&lt;Path&gt;" class="s24" d="m334.7 575.7c0 2.2 1.3 4.1 2.9 4.1h106.9c1.6 0 2.9-1.9 2.9-4.1 0-2.2-1.3-4.1-2.9-4.1h-106.9c-1.6 0-2.9 1.9-2.9 4.1z"/>
					<path id="&lt;Path&gt;" class="s24" d="m335.3 585.8h44.9c1.6 0 2.9 1.2 2.9 2.8v37.2c0 1.6-1.3 2.9-2.9 2.9l-44.1-1.3c-1.5 0-2.8-1.2-2.8-2.8l-0.9-35.9c-0.1-1.6 1.2-2.9 2.9-2.9z"/>
					<path id="&lt;Path&gt;" class="s24" d="m392.5 586.7h50.2c1.1 0 2 1.1 2 2.4 0 1.3-0.9 2.4-2 2.4h-50.2c-1.1 0-2-1.1-2-2.4 0-1.3 0.9-2.4 2-2.4z"/>
					<path id="&lt;Path&gt;" class="s24" d="m390.5 599.5c0 1.3 0.9 2.4 2 2.4h50.2c1.1 0 2-1.1 2-2.4v-1.5c0-1.4-0.9-2.5-2-2.4l-50.2 1.5c-1.1 0-2 1.1-2 2.4z"/>
				</g>
				<path id="&lt;Path&gt;" class="s46" d="m396.6 553.4l-12.5-21c0 0-26.1 22.4-34 53.5l13.8 8.7c5.7-10.2 15.6-23.7 32.7-41.2z"/>
				<path id="&lt;Path&gt;" class="s47" d="m369.3 640.7c-1.3 0-2.5-0.8-3-2-1.5-3.1-4.2-8.9-5.7-10.8 0 0 1.6-0.8 4.5-0.1 2.8 0.6 5.2-0.5 5.3-2.1l-13.3-5.7c-0.5-1.3-2.4-8.9 6.8-25.4l-13.8-8.7c-3 11.6-3.4 24.5 1.1 37.8 0 0 2.6 15.2 7.9 18.3 5.3 3.1 13.3-1.3 13.3-1.3z"/>
				<g id="&lt;Group&gt;">
					<path id="&lt;Path&gt;" class="s48" d="m424.5 494.6c0 0 4.7 10.8 5 16.6 0.3 5.7 1.6 9.4-5 10.5-6.7 1.2-12.2-2.1-15.2-7.8 0 0-4.8-8.8-3.7-12.4 1.1-3.6 18.9-6.9 18.9-6.9z"/>
					<path id="&lt;Path&gt;" class="s49" d="m411.5 509.8h0.9c0 0-3.5-7.1-0.5-8.3 3.1-1.2 15-3.7 17.6-7.9 2.5-4.1 0.3-9.4-3-10.9-0.2-0.1-0.5 0-0.6 0.2l-0.3 0.5c-0.2 0.4-0.7 0.3-0.8-0.1-0.1-0.3-0.6-0.4-0.8-0.1-0.8 1.3-2.9 3.4-8.7 4.4-8.1 1.5-13.5 4.8-13.7 10.5 0 0.3-0.3 0.5-0.6 0.3-0.6-0.3-1.6-0.5-2.9 0.6-2.2 1.9-1.3 6.7 3.6 10.8 0.2 0.1 0.2 0.5 0 0.7-0.9 0.5-2.2 1.9 1.2 3.8 3.5 1.8 5.6 1.6 6.4 1.4 0.2 0 0.3-0.2 0.3-0.4l-0.3-5c0-0.3 0.2-0.5 0.4-0.5z"/>
					<path id="&lt;Path&gt;" class="s50" d="m411.7 510.8c0 0-1.8-6.9-4.9-5-3.1 2 1.6 7.8 4.1 8.1z"/>
				</g>
				<path id="&lt;Path&gt;" class="s51" d="m476 482.7v7.9c0 0 6.4 8.1 14.8 8.4 0 0 7.3-0.4 7.1-5.9l-11.8-2.2c0 0-4.9-1.5-6.3-2.2 0 0-1-5.7-3.8-6z"/>
			</g>
			<g id="&lt;Group&gt;">
				<g id="&lt;Group&gt;">
					<path id="&lt;Path&gt;" class="s52" d="m814.6 781.4c1.6 0 3-1 3.2-2.4l51.7-273.4c0.3-1.7-0.9-3.2-2.7-3.5-1.8-0.2-3.6 0.9-3.9 2.5l-51.6 273.4c-0.3 1.6 0.9 3.1 2.7 3.4q0.3 0 0.6 0z"/>
					<path id="&lt;Path&gt;" class="s53" d="m988.8 781.4q0.3 0 0.7 0c1.8-0.3 2.9-1.9 2.6-3.5l-60.9-269.9c-0.4-1.6-2.1-2.6-3.9-2.3-1.8 0.3-3 1.9-2.6 3.5l60.9 269.9c0.3 1.4 1.7 2.3 3.2 2.3z"/>
					<path id="&lt;Path&gt;" class="s54" d="m854 573.1h88.2c1.9 0 3.4-1.3 3.4-2.9 0-1.7-1.5-3-3.4-3h-88.2c-1.9 0-3.3 1.3-3.3 3 0 1.6 1.4 2.9 3.3 2.9z"/>
					<path id="&lt;Path&gt;" class="s55" d="m855.6 573.1h85c1.8 0 3.2-1.3 3.2-2.9 0-1.7-1.4-3-3.2-3h-85c-1.8 0-3.2 1.3-3.2 3 0 1.6 1.4 2.9 3.2 2.9z"/>
					<path id="&lt;Path&gt;" class="s56" d="m854 622.6h88.2c1.9 0 3.4-1.4 3.4-3 0-1.6-1.5-3-3.4-3h-88.2c-1.9 0-3.3 1.4-3.3 3 0 1.6 1.4 3 3.3 3z"/>
					<path id="&lt;Path&gt;" class="s57" d="m846 622.6h107c1.8 0 3.3-1.4 3.3-3 0-1.6-1.5-3-3.3-3h-107c-1.9 0-3.4 1.4-3.4 3 0 1.6 1.5 3 3.4 3z"/>
					<path id="&lt;Path&gt;" class="s58" d="m854 672h88.2c1.9 0 3.4-1.3 3.4-3 0-1.6-1.5-2.9-3.4-2.9h-88.2c-1.9 0-3.3 1.3-3.3 2.9 0 1.7 1.4 3 3.3 3z"/>
					<path id="&lt;Path&gt;" class="s59" d="m835.7 672h128.1c1.9 0 3.4-1.3 3.4-3 0-1.6-1.5-2.9-3.4-2.9h-128.1c-1.8 0-3.3 1.3-3.3 2.9 0 1.7 1.5 3 3.3 3z"/>
					<path id="&lt;Path&gt;" class="s60" d="m854 721.4h120.1c1.9 0 3.4-1.3 3.4-2.9 0-1.7-1.5-3-3.4-3h-120.1c-1.9 0-3.3 1.3-3.3 3 0 1.6 1.4 2.9 3.3 2.9z"/>
					<path id="&lt;Path&gt;" class="s61" d="m827.5 721.4h146.6c1.9 0 3.4-1.3 3.4-2.9 0-1.7-1.5-3-3.4-3h-146.6c-1.9 0-3.3 1.3-3.3 3 0 1.6 1.4 2.9 3.3 2.9z"/>
				</g>
				<g id="&lt;Group&gt;">
					<path id="&lt;Path&gt;" class="s62" d="m933.4 555.5c0 0 2.1 3.4 2.7 12.9 0 0.9-0.7 1.6-1.6 1.6h-16.8c-0.7 0-1.2-0.7-0.9-1.3 0.9-2.9 3.9-10 10.6-14.1z"/>
					<path id="&lt;Path&gt;" class="s63" d="m934.1 549l-0.9 8c-0.1 0.7-0.7 1.3-1.3 1.3-1 0.1-2.3 0.2-3.6 0-1.2-0.2-2-1.2-2-2.4v-7.8z"/>
					<path id="&lt;Path&gt;" class="s64" d="m891.7 554.6c0 0 3.2 5 3.2 11.9-0.1 1.6-1.4 2.9-3 2.9h-26.2c-1.2 0-1.7-1.6-0.7-2.3 4.9-3.5 14.7-10 21.7-12.5z"/>
					<path id="&lt;Path&gt;" class="s65" d="m894.4 546l-2 9.8c-0.3 1.1-1.3 1.9-2.4 1.6-0.7-0.1-1.5-0.4-2.3-0.9-0.8-0.5-1.2-1.5-1.1-2.4l2.1-12z"/>
					<path id="&lt;Path&gt;" class="s66" d="m930.4 408.8c0 0 7.1 6.2 8.4 13.7 1.3 7.5-3.8 129.3-3.8 129.3 0 0-7 1.2-10.7-1 0 0-4.3-79.1-7.6-97.4 0 0-17.2 82-22 96.8 0 0-6.8 0.8-9-0.5 0 0 4.5-106.2 10.2-125.1z"/>
					<path id="&lt;Path&gt;" class="s67" d="m916.9 450.9q-0.1 0-0.2-0.1c-0.4-0.1-0.6-0.5-0.5-0.9l3-11.5q0.1-0.3 0.3-0.4l6.5-4.2c0.3-0.2 0.8-0.1 1 0.2 0.3 0.4 0.1 0.8-0.2 1.1l-6.2 4-3 11.2c-0.1 0.3-0.4 0.6-0.7 0.6z"/>
					<path id="&lt;Path&gt;" class="s68" d="m860.7 338.4c29.7-2.5 37.5 3.7 37.5 3.7l-14.3 22.5c0 0-29.3-0.6-50.2-16.7 3.9-4.2 6.6-8.9 8.4-12.5 5.4 2.2 11.6 3.5 18.6 3z"/>
					<path id="&lt;Path&gt;" class="s69" d="m814.1 294.7c0-1 1.3-1.2 1.7-0.3l3.8 8.1c0.7 1.5 1 3.3 0.7 5l-1.4 4.7c-0.4 2.3 0.2 4.6 1.7 6.5 3.5 4.3 10.9 12.3 21.5 16.7-1.8 3.6-4.5 8.3-8.4 12.5-7.7-5.9-14.3-13.9-17.9-24.8-1.7-0.5-2.8-2.1-2.8-3.9z"/>
					<path id="&lt;Path&gt;" class="s70" d="m850.9 351.5c10.4-11.3 30.4-16.4 41.9-18.5 5.1-0.9 10.1 1.9 11.9 6.7 5.2 14 19.3 50.3 22 56.6 2.3 5.1 4.6 10.1 6.1 13.2 0.9 1.9 0.1 4.1-1.7 5-9.7 4.7-27.2 10-34.3 12.1-1.6 0.4-3.1-0.7-3.1-2.4 0-1.3-0.4-2.7-1.1-3.9l-26.9-44.7c-16.7 18.5-31.3 20.2-42.6 16.2q2.8-8.8 3.7-17.6c16.7-2.8 24.1-22.7 24.1-22.7z"/>
					<path id="&lt;Path&gt;" class="s71" d="m799.3 371.1l3-4c9.8 6.7 17.9 8.2 24.5 7.1q-0.9 8.8-3.7 17.6c-14.8-5.4-23.8-20.7-23.8-20.7z"/>
					<path id="&lt;Path&gt;" class="s72" d="m801.5 371.2l-17 0.6-15.5-8.7c2.2-1.4 14.9 1.5 14.9 1.5 0 0 13.2-2 16.7-2 3 0 2.6 4.2 2.4 5.7-0.1 0.3-0.1 0.5-0.1 0.5z"/>
					<path id="&lt;Path&gt;" class="s73" d="m876.9 312.3l9 21.7c0 0-10.3 7.1-18.5 6.4l-4.5-19.5z"/>
					<g id="&lt;Group&gt;">
						<path id="&lt;Path&gt;" class="s74" d="m861.9 297.4c-0.2 0.3-6.5 22.9-6.5 22.9l13 3.3 9.1-20.5c0 0-12.2-10.5-15.6-5.7z"/>
						<path id="&lt;Path&gt;" class="s75" d="m872.6 306.2l-3.9 11.1q-0.1 0.3-0.2 0.4c-0.6 0.8-2.6 3.3-5 1.1-2.2-2.1-4.2-3.9-6.1-4.2-0.9-0.2-1.7 0.3-1.9 1.2-0.6 2-1.8 6.7-2.2 10.9-0.1 0.8 0.5 1.6 1.4 1.7 2.5 0.5 7.9 1.4 12.3 1.1 0.7-0.1 1.2-0.4 1.4-1 1.3-2.7 5.1-10.9 6.5-13 1.3-2 4.5-1.9 5.9-1.8 0.4 0 0.9-0.1 1.2-0.4 1.2-1.1 3.5-3.7 0.3-6.9-0.7-0.7-0.7-1.7 0-2.4 1.4-1.3 2.8-3.6 0.6-6.4-2.3-2.8-5.4-2.4-7.3-1.7-0.7 0.3-1.6-0.1-2-0.7-0.2-0.4-0.6-0.7-1.3-0.7-1 0.1-1.8-0.7-1.8-1.6 0.1-1.9-0.6-4.2-3.8-5.2-5.6-1.8-9.2 3.7-9.5 7.8-0.4 4.1 5.9 5.6 9.6 5.4 2.7-0.3 4.8 2.5 5.7 3.9 0.2 0.4 0.3 0.9 0.1 1.4z"/>
						<path id="&lt;Path&gt;" class="s76" d="m873.4 319.6c0 0 0.9-7.1 3.9-7.5 2.9-0.3 5.8 2.1 2.8 6.1-3.6 4.9-6.7 1.4-6.7 1.4z"/>
					</g>
				</g>
				<g id="&lt;Group&gt;">
					<path id="&lt;Path&gt;" class="s77" d="m807.5 235.8l-292.3-1.4c-3.6-0.1-6.4 3.8-6.4 8.6l0.6 115.7c0.1 4.8 3 8.7 6.6 8.5l290.6-6.2c3.4-0.1 6.1-3.9 6.1-8.5l1.1-108c0-4.8-2.8-8.7-6.3-8.7z"/>
					<path id="&lt;Compound Path&gt;" class="s24" d="m515.8 359.9c-0.6 0-1.1-0.5-1.1-1.3l-0.7-115.6q0-0.5 0.3-0.9 0.3-0.4 0.8-0.4l292.3 1.4q0.5 0 0.9 0.4 0.2 0.4 0.2 0.9l-1 108c0 0.7-0.5 1.3-1 1.3zm-0.7-117.3q-0.1 0.2-0.1 0.3l0.7 115.7c0 0.2 0 0.3 0.1 0.3l290.6-6.2c0 0 0.1-0.1 0.1-0.3l1-108q0-0.2-0.1-0.3z"/>
					<g id="&lt;Group&gt;" style="opacity: .6">
						<path id="&lt;Path&gt;" class="s24" d="m541.2 349.9h-14.2v-54.4h14.2z"/>
						<path id="&lt;Path&gt;" class="s24" d="m565 349.9h-14.2v-35.7h14.2z"/>
						<path id="&lt;Path&gt;" class="s24" d="m588.8 349.9h-14.2v-81.8h14.2z"/>
						<path id="&lt;Path&gt;" class="s24" d="m612.5 349.9h-14.2v-19.7h14.2z"/>
						<path id="&lt;Path&gt;" class="s24" d="m636.3 349.9h-14.2v-70.9h14.2z"/>
						<path id="&lt;Path&gt;" class="s24" d="m660.1 349.9h-14.2v-58.6h14.2z"/>
						<path id="&lt;Path&gt;" class="s24" d="m683.9 349.9h-14.3v-45.3h14.3z"/>
						<path id="&lt;Path&gt;" class="s24" d="m707.6 349.9h-14.2v-98.4h14.2z"/>
						<path id="&lt;Path&gt;" class="s24" d="m731.4 349.9h-14.2v-88h14.2z"/>
						<path id="&lt;Path&gt;" class="s24" d="m755.2 349.9h-14.3v-72.2h14.3z"/>
						<path id="&lt;Path&gt;" class="s24" d="m778.9 349.9h-14.2v-17.8h14.2z"/>
						<path id="&lt;Path&gt;" class="s24" d="m802.7 349.9h-14.2v-52.5h14.2z"/>
					</g>
				</g>
			</g>
			<g id="&lt;Group&gt;">
				<path id="&lt;Path&gt;" class="s78" d="m374.9 501.7c0 0-99.2-49-66.8-85.1 32.5-36.1 92.9-21.6 96 16.3 3.1 38-70.5 29.1-29.2 68.8z"/>
				<g id="&lt;Group&gt;">
					<path id="&lt;Path&gt;" class="s24" d="m360.3 426.9h-43.8c-0.5 0-1-0.4-1-1 0-0.5 0.5-1 1-1h43.8c0.5 0 1 0.5 1 1 0 0.6-0.5 1-1 1z"/>
					<path id="&lt;Path&gt;" class="s24" d="m386.3 426.9h-13c-0.6 0-1-0.4-1-1 0-0.5 0.4-1 1-1h13c0.5 0 1 0.5 1 1 0 0.6-0.5 1-1 1z"/>
					<path id="&lt;Path&gt;" class="s24" d="m331.5 435.8h-16.4c-0.6 0-1-0.4-1-1 0-0.6 0.4-1 1-1h16.4c0.5 0 1 0.4 1 1 0 0.6-0.5 1-1 1z"/>
					<path id="&lt;Path&gt;" class="s24" d="m384.8 435.8h-29.2c-0.5 0-1-0.4-1-1 0-0.6 0.5-1 1-1h29.2c0.6 0 1 0.4 1 1 0 0.6-0.4 1-1 1z"/>
					<path id="&lt;Path&gt;" class="s24" d="m357.3 444.7h-43.7c-0.6 0-1-0.5-1-1 0-0.6 0.4-1 1-1h43.7c0.5 0 1 0.4 1 1 0 0.5-0.5 1-1 1z"/>
					<path id="&lt;Path&gt;" class="s24" d="m383.3 444.7h-15.1c-0.5 0-1-0.5-1-1 0-0.6 0.5-1 1-1h15.1c0.6 0 1 0.4 1 1 0 0.5-0.4 1-1 1z"/>
				</g>
			</g>
			<g id="&lt;Group&gt;">
				<path id="&lt;Path&gt;" class="s79" d="m695 489.7c0 0-29.8 38.2 4.3 77.1l12.8-1.2c0 0-24.7-39.5-13.7-71.1l18.1 1.3 10.1-6.5z"/>
				<path id="&lt;Path&gt;" class="s80" d="m711.4 676.9c0 0 24.2 52.7 36.9 74.6 0 0 2.5 13.7 0 18l-2.2 1 10.1-0.3c0 0 0.9-18.5 0.2-19.5-0.7-1.1-2.1-1-2.1-1 0 0-4.3-34.1-16.8-41.3l-12-41.6z"/>
				<path id="&lt;Path&gt;" class="s81" d="m741.9 773.1c-0.1 0.2 7.8 0.1 12.1 0 1.5 0 2.9-1.1 3.2-2.6l3.2-16.9c0.3-1.6-0.7-3.2-2.3-3.6l-1.8-0.4c0 0-2.5 3.5-1.7 6.8 0.8 3.4 1.5 11.9-0.6 12.9-2 1-7.9 1.2-7.9 1.2 0 0-4.1 0.4-4.2 2.6z"/>
				<path id="&lt;Path&gt;" class="s82" d="m688.5 773.4c-0.8 0.4-0.5 1.7 0.4 1.6 7.1 0 23.1-0.3 24.6-0.8 1.8-0.8-0.7-7.4-3.4-9.6l-14.5 4.7z"/>
				<path id="&lt;Path&gt;" class="s83" d="m684 673.5c0 0 15.6 75.7 20 90.4l-10.4 6.6c0 0 5.2-0.9 9.1-1.2 3.9-0.3 7.4-4.7 7.4-4.7l-1.2-2c0 0-3.9-75.2-3-83.8z"/>
				<path id="&lt;Path&gt;" class="s84" d="m645.1 497.1c0 0-2.1 39.4 33.7 59.5l-8.6 19.6c0 0-32.4-19.6-31.2-73.1 0-1.5-0.6-3-1.6-4.2l-6.9-8c-2.6-3-3.6-7.1-2.6-11l0.9-3.7c0.3-1.2 1.7-1.8 2.8-1.1l0.7 0.4c2.3 1.3 4.1 3.3 5.2 5.8l3.4 7.5c1.3 2.8 4.2 4.6 7.3 4.3l2-0.2z"/>
				<path id="&lt;Path&gt;" class="s85" d="m677.6 553.6c6 1.7 26.3 7 38.9 6.8l-7.7 43.9 0.6 7.2-25.4-0.1c0 0-7.1-16.6-12.8-24.9-1.6-2.4-0.4-5.2 0.5-8l-1.2-0.8c-1.3-0.9-1.9-2.5-1.4-4l6.2-18.9c0.3-0.9 1.3-1.4 2.3-1.2z"/>
				<path id="&lt;Path&gt;" class="s86" d="m682 607.6l0.5 4.4c0 0-7.2 21.4 3.6 71.6 0 0 23.2 6.6 42.4-9.2 0 0-5.4-47.3-6.9-49.5-7.3-11-12.2-13.4-12.2-13.4l-0.2-4.8c0 0-20.5 3.7-27.2 0.9z"/>
				<path id="&lt;Path&gt;" class="s87" d="m691.9 557.2c-0.1-0.2 5.3-16.3 5.3-16.3l7.7 0.7 3 18.3c0 0-12.1 2.5-16-2.7z"/>
				<path id="&lt;Path&gt;" class="s88" d="m703.1 515.4c-0.5 0.4-16.5 7-13.1 23.5 0.2 1 0.9 1.9 1.8 2.3 2.3 1 7.4 2.8 13.4 2.2 8.4-0.9 13.9-15.5 13.6-19.7-0.2-4.3-10.6-11.4-15.7-8.3z"/>
				<path id="&lt;Path&gt;" class="s89" d="m707.9 509c-0.4 0-9.2 3.1-4.8 9.5 4.3 6.4 6 10.1 3.9 12.9-1.9 2.6-6 1.1-5.7 6.5 0.1 1-0.4 2.1-1.3 2.7-3.9 2.6-13.5 10.8-4 22.5 0.8 0.9 1 2.2 0.4 3.3-2.8 5-8.7 19.6 12.5 27.7 20.9 8 28.5-5.6 30.6-11.1 0.4-1.2 1.6-1.9 2.8-1.8 2.3 0.1 5.6-0.3 5.4-3.4 0-1.8-1.2-3.5-2.6-4.9-1.3-1.3-1.1-3.6 0.6-4.5 1.2-0.8 2.3-1.9 2.8-3.6 1.3-4.7-1.3-18.7-14.7-21.1-1.1-0.2-2.3-1.3-2.5-2.4q0 0 0 0c-0.2-1.1 0.2-2.2 1.1-2.9 2.1-1.6 4.9-4.7 2.7-9.8-2-4.5-5.8-6.1-8.7-6.6-1.6-0.2-2.7-1.8-2.4-3.5 1-4.4 0.2-11.6-16.1-9.5z"/>
			</g>
			<path id="&lt;Path&gt;" class="s90" d="m353.9 260.4c6.6-13.5 0.1-38.5-31.3-30.3 1.8-6.9-21.9-39.3-52.4-1 1.4-11.5-23.3-14.7-33.9 1.7-6.9-7.6-35.6 6.9-9.8 20.9 32.9 17.8 112.9 45.9 136 27 23.2-18.9-8.6-18.3-8.6-18.3z"/>
			<g id="&lt;Group&gt;">
				<path id="&lt;Path&gt;" class="s91" d="m992.6 724.8c-1.3-0.3-2.3-1.3-2.4-2.7-1.5-14.3-8.4-93.4 13.5-135.5 24-46.3 62.8-89.4 43.8-199.7-10.7-62.5-4-96.6-0.5-108.4 0.5-1.8 2.9-2 3.7-0.3 9.9 21 50.9 109.9 57.3 137.3 7.3 31.3 12.1 92.1-37.1 119.9-48.5 27.3-92.3 96.8-74.8 185.8 0.4 2.1-1.4 3.9-3.5 3.6z"/>
				<path id="&lt;Path&gt;" class="s92" d="m1003.3 726.6c-1.5-0.2-2.6-1.3-2.9-2.7-2.7-12.7-13-73.6 28.6-110.9 43.5-38.9 75.2-41.5 83.7-65.9 0.5-1.5 2.6-1.4 3 0.1 4.8 21.9 16.8 97.4-40.9 126.5-57.4 28.9-66.4 42.1-67.3 49.9-0.3 2-2.2 3.4-4.2 3z"/>
				<path id="&lt;Path&gt;" class="s18" d="m1109.6 567.7c-0.9 4-2.4 7.9-4.1 11.6-1.7 3.8-3.6 7.4-5.9 10.9q-3.3 5.2-7.4 9.9c-2.8 3.1-5.8 6-9 8.7-3.2 2.6-6.6 5.1-10.2 7.2q-5.4 3.1-11.3 5.5l-2.9 1-2.8 1.1c-1 0.3-1.9 0.7-2.8 1-0.9 0.4-1.8 0.8-2.7 1.2-3.6 1.6-7 3.5-10.3 5.7-13.1 8.6-22.9 21.8-28.3 36.7-2.9 7.4-4.6 15.3-5.9 23.2q-0.8 5.9-1.2 12-0.4 6-0.4 12.1c0 0.3-0.3 0.6-0.6 0.6-0.4 0-0.7-0.3-0.7-0.6-0.3-4-0.5-8.1-0.5-12.2q0.1-6.1 0.6-12.3 0.6-6.1 1.8-12.2 1.2-6 3.2-11.9c2.6-7.9 6.3-15.4 11.3-22.2 4.9-6.7 11-12.7 18-17.3 3.5-2.3 7.1-4.4 11-6.1 0.9-0.5 1.9-0.9 2.8-1.3 1-0.4 1.9-0.8 2.9-1.1l5.7-2.1c7.3-2.8 14.3-6.7 20.5-11.5q4.6-3.7 8.8-7.9 4.1-4.3 7.7-9.1c4.7-6.4 8.8-13.4 11.7-20.9 0.1-0.3 0.4-0.4 0.7-0.3 0.3 0.1 0.4 0.4 0.3 0.6z"/>
			</g>
			<g id="&lt;Group&gt;">
				<path id="&lt;Path&gt;" class="s93" d="m878.8 265.1c0 0 99.2-49 66.8-85.1-32.5-36.1-92.9-21.6-96 16.3-3.1 38 70.5 29.1 29.2 68.8z"/>
				<g id="&lt;Group&gt;">
					<path id="&lt;Path&gt;" class="s24" d="m937.2 190.3h-43.8c-0.5 0-1-0.4-1-1 0-0.5 0.5-1 1-1h43.8c0.5 0 1 0.5 1 1 0 0.6-0.5 1-1 1z"/>
					<path id="&lt;Path&gt;" class="s24" d="m880.4 190.3h-13c-0.5 0-1-0.4-1-1 0-0.5 0.5-1 1-1h13c0.6 0 1 0.5 1 1 0 0.6-0.4 1-1 1z"/>
					<path id="&lt;Path&gt;" class="s24" d="m938.7 199.2h-16.5c-0.5 0-1-0.4-1-1 0-0.6 0.5-1 1-1h16.5c0.5 0 1 0.4 1 1 0 0.6-0.5 1-1 1z"/>
					<path id="&lt;Path&gt;" class="s24" d="m898.1 199.2h-29.2c-0.5 0-1-0.4-1-1 0-0.6 0.5-1 1-1h29.2c0.6 0 1 0.4 1 1 0 0.6-0.4 1-1 1z"/>
					<path id="&lt;Path&gt;" class="s24" d="m940.1 208.1h-43.7c-0.5 0-1-0.5-1-1 0-0.6 0.5-1 1-1h43.7c0.6 0 1 0.4 1 1 0 0.5-0.4 1-1 1z"/>
					<path id="&lt;Path&gt;" class="s24" d="m885.5 208.1h-15.1c-0.6 0-1-0.5-1-1 0-0.6 0.4-1 1-1h15.1c0.6 0 1 0.4 1 1 0 0.5-0.4 1-1 1z"/>
				</g>
			</g>
			<g id="&lt;Group&gt;">
				<g id="&lt;Group&gt;">
					<path id="&lt;Path&gt;" class="s94" d="m1129.1 221.5c-0.4 0-0.7-0.1-0.9-0.4q-1.1-1.7-2.2-3.3c-0.4-0.4-0.3-1 0.2-1.4 0.4-0.3 1-0.2 1.4 0.2q1.2 1.7 2.3 3.4c0.3 0.4 0.2 1-0.3 1.3q-0.2 0.2-0.5 0.2z"/>
					<path id="&lt;Compound Path&gt;" class="s94" d="m1063.2 344.5q-1.4 0-2.7 0c-0.5-0.1-1-0.5-0.9-1.1 0-0.5 0.5-1 1-0.9 2.7 0.1 5.4 0 8.1-0.2 0.6 0 1.1 0.4 1.1 0.9 0 0.6-0.4 1.1-0.9 1.1q-2.9 0.2-5.7 0.2zm18.9-2.3c-0.5 0-0.9-0.3-1-0.7-0.2-0.6 0.2-1.1 0.7-1.3q1.6-0.4 3.3-0.8 2.3-0.7 4.5-1.5c0.5-0.2 1.1 0.1 1.3 0.6 0.2 0.5-0.1 1.1-0.6 1.3q-2.3 0.8-4.7 1.5-1.6 0.5-3.3 0.9-0.1 0-0.2 0zm20-7.9c-0.3 0-0.6-0.2-0.8-0.5-0.3-0.5-0.1-1.1 0.4-1.4 2.3-1.3 4.6-2.8 6.8-4.4 0.5-0.3 1.1-0.2 1.4 0.3 0.3 0.4 0.2 1-0.2 1.3-2.3 1.7-4.6 3.2-7.1 4.5q-0.2 0.2-0.5 0.2zm17.2-13.1q-0.4 0-0.7-0.3c-0.4-0.4-0.4-1.1 0-1.4 1.9-2 3.7-4 5.4-6.1 0.4-0.5 1-0.5 1.4-0.2 0.5 0.4 0.5 1 0.2 1.4-1.7 2.2-3.6 4.3-5.6 6.3q-0.3 0.3-0.7 0.3zm13-17.3q-0.2 0-0.5-0.1c-0.5-0.3-0.6-0.9-0.4-1.4 1.3-2.4 2.6-4.8 3.6-7.3 0.2-0.5 0.8-0.8 1.3-0.5 0.5 0.2 0.8 0.8 0.6 1.3-1.1 2.5-2.4 5-3.7 7.5-0.2 0.3-0.5 0.5-0.9 0.5zm7.9-20.1q-0.2 0-0.3-0.1c-0.5-0.1-0.8-0.6-0.7-1.2 0.6-2.6 1.1-5.3 1.5-8 0-0.5 0.5-0.9 1.1-0.9 0.5 0.1 0.9 0.6 0.9 1.2-0.4 2.7-0.9 5.5-1.6 8.2-0.1 0.4-0.5 0.8-0.9 0.8zm2.1-21.6c-0.6 0-1-0.4-1-0.9-0.1-2.7-0.4-5.4-0.8-8.1-0.1-0.6 0.3-1.1 0.9-1.2 0.5 0 1 0.3 1.1 0.9 0.4 2.7 0.7 5.5 0.8 8.3 0 0.6-0.4 1-1 1q0 0 0 0zm-3.8-21.2c-0.5 0-0.9-0.3-1-0.7-0.8-2.6-1.8-5.2-2.9-7.6-0.2-0.5 0-1.1 0.5-1.4 0.5-0.2 1.1 0 1.3 0.6 1.1 2.5 2.1 5.1 3 7.8 0.2 0.5-0.1 1.1-0.6 1.2q-0.2 0.1-0.3 0.1z"/>
					<path id="&lt;Path&gt;" class="s94" d="m1047.2 342.9q-0.1 0-0.2 0-2-0.5-3.9-1c-0.6-0.1-0.9-0.7-0.8-1.2 0.2-0.5 0.7-0.8 1.3-0.7q1.9 0.5 3.8 0.9c0.5 0.1 0.9 0.6 0.8 1.2-0.1 0.4-0.5 0.8-1 0.8z"/>
				</g>
				<g id="&lt;Group&gt;">
					<path id="&lt;Path&gt;" class="s94" d="m995.9 307c-0.4 0-0.7-0.2-0.9-0.5q-1-1.7-2-3.5c-0.3-0.5-0.1-1.1 0.4-1.4 0.5-0.2 1.1 0 1.3 0.4q1 1.8 2 3.5c0.3 0.4 0.2 1-0.3 1.3q-0.2 0.2-0.5 0.2z"/>
					<path id="&lt;Compound Path&gt;" class="s94" d="m988.5 291.5c-0.4 0-0.8-0.3-0.9-0.7q-0.7-2-1.3-4-0.6-1.9-1-3.9c-0.2-0.5 0.2-1.1 0.7-1.2 0.5-0.1 1.1 0.2 1.2 0.7q0.5 1.9 1 3.8 0.6 2 1.3 3.9c0.1 0.6-0.1 1.1-0.7 1.3q-0.1 0.1-0.3 0.1zm-4.3-20.9c-0.5 0-0.9-0.4-1-0.9q-0.1-2.7-0.1-5.4 0-1.4 0-2.8c0-0.6 0.5-1 1.1-1 0.5 0 0.9 0.5 0.9 1q0 1.4 0 2.8 0 2.7 0.1 5.3c0.1 0.5-0.3 1-0.9 1q0 0-0.1 0zm1.5-21.2q-0.1 0-0.2 0c-0.5-0.1-0.9-0.6-0.8-1.2 0.6-2.7 1.3-5.3 2.1-7.9 0.2-0.6 0.7-0.9 1.2-0.7 0.6 0.2 0.9 0.7 0.7 1.3-0.8 2.5-1.5 5.1-2 7.7-0.1 0.5-0.5 0.8-1 0.8zm7.1-20q-0.3 0-0.5-0.1c-0.5-0.3-0.7-0.9-0.4-1.4 1.2-2.4 2.6-4.8 4.1-7.1 0.3-0.5 0.9-0.6 1.4-0.3 0.4 0.3 0.6 0.9 0.3 1.4-1.5 2.2-2.8 4.5-4.1 6.9-0.1 0.4-0.5 0.6-0.8 0.6zm12.1-17.5q-0.4 0-0.7-0.3c-0.4-0.3-0.4-1-0.1-1.4 1.9-2 3.9-3.9 5.9-5.7 0.4-0.4 1-0.4 1.4 0 0.4 0.4 0.3 1.1-0.1 1.4-2 1.8-3.9 3.7-5.7 5.7-0.2 0.2-0.4 0.3-0.7 0.3zm16.3-13.6c-0.3 0-0.6-0.2-0.8-0.5-0.3-0.4-0.2-1.1 0.3-1.4 2.3-1.4 4.7-2.7 7.2-3.9 0.5-0.3 1.1-0.1 1.3 0.4 0.3 0.5 0 1.1-0.4 1.4-2.4 1.1-4.8 2.4-7.1 3.8q-0.2 0.2-0.5 0.2zm19.4-8.7c-0.4 0-0.8-0.3-1-0.8-0.1-0.5 0.2-1 0.7-1.2l0.5-0.1c2.4-0.8 5-1.4 7.5-1.8 0.5-0.1 1.1 0.2 1.2 0.7 0.1 0.6-0.3 1.1-0.8 1.2-2.5 0.5-5 1.1-7.4 1.8l-0.4 0.1q-0.2 0.1-0.3 0.1zm29.1-3.1q0 0-0.1 0-4-0.3-8-0.2c-0.5-0.1-1-0.5-1-1 0-0.6 0.4-1 1-1q4.1-0.1 8.2 0.2c0.6 0.1 1 0.5 0.9 1.1 0 0.5-0.5 0.9-1 0.9z"/>
					<path id="&lt;Path&gt;" class="s94" d="m1086.6 189.8q-0.1 0-0.3 0-1.9-0.6-3.8-1.1c-0.5-0.2-0.8-0.7-0.7-1.2 0.1-0.6 0.7-0.9 1.2-0.8q2 0.5 3.9 1.1c0.5 0.2 0.8 0.8 0.7 1.3-0.2 0.4-0.6 0.7-1 0.7z"/>
				</g>
				<g id="&lt;Group&gt;">
					<path id="&lt;Compound Path&gt;" class="s95" d="m1088.4 209.1c-0.4-0.3-0.8-0.2-1.1 0l-8.8 7.5c-5.2-1.6-10.6-2.4-16.2-2.3l-6.4-9.6c-0.2-0.3-0.6-0.5-1-0.4l-13.4 3.5c-0.4 0.1-0.7 0.4-0.7 0.8l-0.9 11.5c-5 2.6-9.4 5.9-13.1 9.8l-11.3-2.3c-0.4-0.1-0.8 0.1-1 0.5l-7.1 11.9c-0.2 0.3-0.1 0.8 0.1 1.1l7.5 8.8c-1.6 5.1-2.4 10.6-2.3 16.1l-9.6 6.4c-0.4 0.2-0.5 0.6-0.4 1l3.4 13.5c0.1 0.3 0.5 0.6 0.9 0.7l11.5 0.9c2.6 4.9 5.9 9.3 9.8 13l-2.3 11.3c-0.1 0.4 0.1 0.9 0.4 1.1l12 7c0.3 0.2 0.8 0.2 1.1-0.1l8.8-7.5c5.1 1.6 10.6 2.4 16.1 2.3l6.4 9.7c0.2 0.3 0.6 0.5 1 0.4l13.4-3.5c0.4-0.1 0.7-0.4 0.7-0.8l1-11.6c4.9-2.5 9.3-5.9 13-9.8l11.3 2.4c0.4 0 0.8-0.1 1-0.5l7.1-11.9c0.2-0.4 0.2-0.8-0.1-1.1l-7.5-8.8c1.6-5.2 2.4-10.6 2.3-16.2l9.6-6.3c0.4-0.3 0.5-0.7 0.4-1.1l-3.4-13.4c-0.1-0.4-0.5-0.7-0.9-0.7l-11.5-0.9c-2.5-5-5.9-9.3-9.8-13.1l2.3-11.3c0.1-0.4-0.1-0.8-0.4-1z"/>
					<path id="&lt;Compound Path&gt;" class="s24" d="m1063.4 278.8c-4.9 0-9.7-2.6-12.2-7.2-1.7-3.3-2.1-7-1.1-10.5 1.1-3.6 3.4-6.5 6.7-8.2 3.2-1.8 6.9-2.2 10.5-1.2 3.5 1.1 6.4 3.4 8.2 6.7 3.6 6.7 1.2 15.1-5.5 18.7-2.1 1.1-4.4 1.7-6.6 1.7zm-0.1-24.6c-1.7 0-3.5 0.4-5.1 1.3-2.5 1.4-4.4 3.7-5.2 6.4-0.8 2.8-0.5 5.7 0.9 8.3 1.4 2.5 3.6 4.3 6.4 5.1 2.8 0.9 5.7 0.6 8.2-0.8 2.6-1.4 4.4-3.7 5.2-6.5 0.8-2.7 0.5-5.7-0.8-8.2-1.4-2.5-3.7-4.4-6.5-5.2q-1.5-0.4-3.1-0.4zm-5.8 0z"/>
					<path id="&lt;Path&gt;" class="s24" d="m1063.2 300.2c-15.5 0-29.8-10.5-33.8-26.2q-1.1-4.4-1.1-8.8c0-6.2 1.6-12.3 4.8-17.7 4.8-8.1 12.4-13.8 21.4-16.1q1.5-0.4 3-0.6 0 0 0 0 1.9-0.4 3.8-0.5 0.3 0 0.6 0l0.1 3c-2.3 0.1-4.5 0.4-6.7 1q-0.3 0.1-0.5 0.1c-7.7 2.1-14.2 6.9-18.4 13.6q-0.4 0.5-0.7 1c-2.9 5-4.4 10.5-4.4 16.2q0 4 1 8c4.4 17.1 21.8 27.4 38.9 23 8.3-2.1 15.2-7.4 19.5-14.7 3-5 4.5-10.6 4.5-16.2q0-4-1-8c-1.5-5.6-4.4-10.7-8.5-14.8l2.1-2.1c4.5 4.4 7.7 10 9.3 16.1 0.7 2.9 1.1 5.9 1.1 8.7 0 15.6-10.5 29.8-26.3 33.9-2.9 0.7-5.8 1.1-8.7 1.1z"/>
				</g>
			</g>
			<g id="&lt;Group&gt;">
				<g id="&lt;Group&gt;">
					<path id="&lt;Path&gt;" class="s94" d="m1005.1 322.3c-0.3 0-0.7-0.2-0.9-0.5q-0.9-1.7-2.1-3.3c-0.3-0.4-0.2-1 0.2-1.4 0.5-0.3 1.1-0.2 1.4 0.2q1.3 1.7 2.3 3.5c0.2 0.5 0.1 1.1-0.4 1.4q-0.2 0.1-0.5 0.1z"/>
					<path id="&lt;Compound Path&gt;" class="s94" d="m984.7 370.1c-0.4 0-0.8-0.3-1-0.8-0.1-0.5 0.2-1.1 0.8-1.2q0.5-0.1 1-0.3 3.1-0.9 5.9-2.3c0.4-0.3 1-0.1 1.3 0.4 0.3 0.5 0.1 1.1-0.4 1.4q-3 1.5-6.2 2.4-0.6 0.2-1.1 0.3-0.2 0.1-0.3 0.1zm16.8-10.4q-0.4 0-0.7-0.2c-0.4-0.4-0.5-1-0.1-1.4 1.6-1.9 3-4 4.1-6.2 0.3-0.5 0.9-0.7 1.4-0.4 0.5 0.3 0.6 0.9 0.4 1.4-1.2 2.3-2.7 4.5-4.4 6.5-0.2 0.2-0.5 0.3-0.7 0.3zm7.7-18.1q0 0-0.1 0c-0.5-0.1-0.9-0.6-0.9-1.1q0.2-1.5 0.2-3.1 0-2.1-0.3-4.3c-0.1-0.5 0.3-1 0.8-1.1 0.6-0.1 1.1 0.3 1.1 0.8q0.4 2.3 0.4 4.6 0 1.6-0.2 3.3c-0.1 0.5-0.5 0.9-1 0.9z"/>
					<path id="&lt;Path&gt;" class="s94" d="m972.4 370.8q-0.1 0-0.1 0-2.1-0.3-4.1-0.8c-0.5-0.1-0.8-0.7-0.7-1.2 0.1-0.6 0.7-0.9 1.2-0.7q1.9 0.5 3.8 0.7c0.6 0.1 0.9 0.6 0.9 1.1-0.1 0.5-0.5 0.9-1 0.9z"/>
				</g>
				<g id="&lt;Group&gt;">
					<path id="&lt;Path&gt;" class="s94" d="m948.9 355.6c-0.4 0-0.7-0.2-0.9-0.5q-1.1-1.7-1.9-3.6c-0.3-0.5 0-1.1 0.5-1.3 0.5-0.3 1.1-0.1 1.3 0.4q0.8 1.8 1.8 3.5c0.3 0.4 0.2 1-0.3 1.3q-0.3 0.2-0.5 0.2z"/>
					<path id="&lt;Compound Path&gt;" class="s94" d="m944 340.3c-0.5 0-0.9-0.4-0.9-0.9q-0.1-1-0.1-2 0-2.9 0.5-5.7c0.1-0.6 0.6-0.9 1.1-0.9 0.6 0.1 1 0.7 0.9 1.2q-0.5 2.7-0.5 5.4 0 0.9 0 1.8c0.1 0.6-0.3 1.1-0.9 1.1q0 0-0.1 0zm4.7-18.8q-0.3 0-0.5-0.1c-0.5-0.3-0.6-1-0.3-1.4 1.3-2.2 2.9-4.3 4.7-6.1 0.4-0.4 1-0.4 1.4 0 0.4 0.3 0.4 1 0 1.4-1.7 1.7-3.2 3.6-4.4 5.7-0.2 0.3-0.5 0.5-0.9 0.5zm14.5-12.9c-0.4 0-0.7-0.2-0.9-0.6-0.2-0.5 0-1.1 0.5-1.3q2.2-1 4.5-1.6 1.4-0.4 2.8-0.7c0.6-0.1 1.1 0.2 1.2 0.8 0.1 0.5-0.2 1-0.8 1.1q-1.3 0.3-2.7 0.7-2.1 0.6-4.2 1.5-0.2 0.1-0.4 0.1z"/>
					<path id="&lt;Path&gt;" class="s94" d="m986.3 307.2q-0.1 0-0.3-0.1-1.8-0.5-3.7-0.9c-0.6-0.1-0.9-0.6-0.8-1.1 0.1-0.6 0.6-0.9 1.1-0.8q2.1 0.3 4 0.9c0.6 0.2 0.9 0.8 0.7 1.3-0.1 0.4-0.5 0.7-1 0.7z"/>
				</g>
				<g id="&lt;Group&gt;">
					<path id="&lt;Compound Path&gt;" class="s96" d="m987.1 314.6c-0.2-0.1-0.4-0.1-0.5 0l-3.6 3.1c-2.2-0.7-4.4-1-6.7-1l-2.6-3.9c-0.1-0.2-0.3-0.2-0.4-0.2l-5.6 1.4c-0.2 0.1-0.3 0.2-0.3 0.4l-0.4 4.7c-2 1.1-3.8 2.5-5.4 4.1l-4.6-1c-0.2 0-0.4 0.1-0.4 0.2l-3 4.9c0 0.2 0 0.4 0.1 0.5l3.1 3.6c-0.7 2.1-1 4.4-1 6.7l-4 2.6c-0.1 0.1-0.2 0.3-0.1 0.4l1.4 5.6c0.1 0.2 0.2 0.3 0.4 0.3l4.7 0.4c1.1 2 2.5 3.8 4.1 5.3l-1 4.7c0 0.2 0 0.4 0.2 0.4l4.9 3c0.2 0 0.3 0 0.5-0.1l3.6-3.1c2.1 0.7 4.4 1 6.7 1l2.6 3.9c0.1 0.2 0.3 0.3 0.4 0.2l5.6-1.4c0.1-0.1 0.3-0.2 0.3-0.4l0.4-4.7c2-1.1 3.8-2.5 5.3-4.1l4.7 1c0.2 0 0.3-0.1 0.4-0.2l2.9-4.9c0.1-0.2 0.1-0.4 0-0.5l-3.1-3.6c0.7-2.1 1-4.4 1-6.7l3.9-2.6c0.2-0.1 0.2-0.3 0.2-0.4l-1.4-5.6c-0.1-0.1-0.2-0.3-0.4-0.3l-4.7-0.4c-1.1-2-2.5-3.8-4.1-5.3l1-4.7c0-0.2-0.1-0.3-0.2-0.4z"/>
					<path id="&lt;Compound Path&gt;" class="s24" d="m976.8 344.2q-1 0-1.9-0.2c-1.7-0.5-3.1-1.7-3.9-3.2-0.9-1.5-1.1-3.3-0.6-5 0.5-1.7 1.6-3.1 3.2-3.9 3.2-1.8 7.2-0.6 8.9 2.6 1.8 3.2 0.6 7.2-2.6 8.9-1 0.6-2.1 0.8-3.1 0.8zm-1.8-9.7c-1.7 1-2.3 3.1-1.4 4.9 0.5 0.8 1.2 1.4 2.1 1.7 0.9 0.3 1.9 0.2 2.8-0.3 1.7-0.9 2.3-3.1 1.4-4.9-1-1.7-3.1-2.3-4.9-1.4z"/>
					<path id="&lt;Path&gt;" class="s24" d="m976.7 353.1c-2.7 0-5.4-0.7-7.8-2.2-3.5-2-6-5.4-7-9.3q-0.5-1.9-0.5-3.9c0-2.7 0.7-5.3 2.1-7.7 2.1-3.5 5.4-6 9.4-7.1q0 0 0.1 0 1.4-0.3 2.8-0.4 0.2 0 0.3 0l0.1 3q-1.3 0-2.6 0.3-0.4 0.1-0.8 0.3c-2.7 0.9-4.9 2.6-6.5 5q-0.1 0.2-0.2 0.4c-1.1 1.9-1.7 4.1-1.7 6.2q0 1.6 0.4 3.1c0.8 3.2 2.8 5.9 5.6 7.6 2.9 1.6 6.2 2.1 9.4 1.3 3.1-0.8 5.8-2.8 7.5-5.7 1.1-1.9 1.7-4 1.7-6.2q0-1.6-0.4-3.1c-0.5-2.2-1.7-4.1-3.2-5.7l2.1-2.1c1.9 1.9 3.3 4.4 4 7q0.5 2 0.5 3.9c0 2.7-0.7 5.4-2.1 7.8-2.1 3.5-5.4 6-9.4 7q-1.9 0.5-3.8 0.5z"/>
				</g>
			</g>
			<g id="&lt;Group&gt;">
				<path id="&lt;Path&gt;" class="s97" d="m499.5 358.9l-1.9-2.3v-0.1c-0.5-0.6-0.4-1.6 0.2-2.1 0.7-0.5 1.7-0.4 2.2 0.3l1.8 2.4c0.5 0.6 0.4 1.6-0.2 2.1-0.7 0.5-1.6 0.4-2.1-0.3z"/>
				<path id="&lt;Path&gt;" class="s97" d="m493.2 351.2l-2-2.2c-0.6-0.6-0.5-1.6 0.1-2.2 0.6-0.5 1.6-0.5 2.2 0.2l2 2.2c0.5 0.7 0.5 1.6-0.2 2.2-0.6 0.6-1.6 0.5-2.1-0.1z"/>
				<path id="&lt;Path&gt;" class="s97" d="m486.4 344l-2.1-2.1c-0.6-0.6-0.6-1.6 0-2.2 0.6-0.6 1.6-0.6 2.2 0l2.1 2.1c0.6 0.6 0.6 1.6 0 2.2-0.6 0.6-1.6 0.6-2.2 0z"/>
				<path id="&lt;Path&gt;" class="s97" d="m479.3 337.1l-2.3-1.9c-0.6-0.6-0.7-1.6-0.1-2.3 0.6-0.6 1.6-0.7 2.2-0.1l2.3 2c0.6 0.6 0.7 1.6 0.1 2.2-0.6 0.7-1.6 0.7-2.2 0.2z"/>
				<path id="&lt;Path&gt;" class="s97" d="m471.7 330.7l-2.3-1.8c-0.7-0.6-0.9-1.6-0.3-2.3 0.5-0.7 1.6-0.8 2.3-0.3l2.3 1.9c0.7 0.6 0.8 1.6 0.3 2.3-0.6 0.7-1.6 0.8-2.3 0.2z"/>
				<path id="&lt;Path&gt;" class="s97" d="m463.8 324.7l-2.4-1.7c-0.8-0.5-0.9-1.6-0.4-2.3 0.5-0.7 1.5-0.9 2.3-0.4l2.4 1.8c0.8 0.5 0.9 1.5 0.4 2.2-0.5 0.8-1.5 1-2.3 0.4z"/>
				<path id="&lt;Path&gt;" class="s97" d="m455.6 319.2l-2.5-1.6c-0.8-0.5-1-1.6-0.5-2.3 0.4-0.8 1.5-1 2.3-0.6l2.5 1.7c0.8 0.5 1 1.5 0.5 2.3-0.5 0.7-1.5 1-2.3 0.5z"/>
				<path id="&lt;Path&gt;" class="s97" d="m447.1 314.1l-2.6-1.5c-0.8-0.5-1.1-1.5-0.7-2.3 0.5-0.8 1.5-1.1 2.4-0.7l2.6 1.5c0.8 0.5 1.1 1.5 0.6 2.3-0.4 0.8-1.4 1.1-2.2 0.7z"/>
				<path id="&lt;Path&gt;" class="s97" d="m438.4 309.4l-2.7-1.3c-0.9-0.4-1.2-1.5-0.8-2.3 0.4-0.9 1.4-1.2 2.3-0.8l2.7 1.3c0.9 0.5 1.2 1.5 0.8 2.3-0.4 0.9-1.5 1.2-2.3 0.8z"/>
				<path id="&lt;Path&gt;" class="s97" d="m429.4 305.2l-2.7-1.2h-0.1c-0.8-0.3-1.3-1.4-0.9-2.3 0.4-0.8 1.4-1.3 2.3-0.9l2.8 1.2c0.9 0.4 1.3 1.4 0.9 2.3-0.4 0.9-1.4 1.3-2.3 0.9z"/>
				<path id="&lt;Path&gt;" class="s97" d="m420.2 301.5l-2.8-1c-0.9-0.4-1.4-1.4-1.1-2.3 0.4-0.9 1.4-1.4 2.3-1.1l2.9 1.1c0.9 0.3 1.3 1.3 1 2.3-0.3 0.9-1.3 1.3-2.3 1z"/>
				<path id="&lt;Path&gt;" class="s97" d="m410.9 298.2l-2.9-0.8v-0.1c-1-0.3-1.5-1.3-1.2-2.2 0.3-1 1.3-1.5 2.3-1.2l2.9 0.9c0.9 0.3 1.4 1.3 1.1 2.3-0.3 0.9-1.3 1.4-2.2 1.1z"/>
				<path id="&lt;Path&gt;" class="s97" d="m401.3 295.4l-2.8-0.7h-0.1c-0.9-0.2-1.5-1.2-1.3-2.2 0.3-1 1.3-1.5 2.2-1.3l3 0.8c0.9 0.2 1.5 1.2 1.3 2.2-0.3 0.9-1.3 1.5-2.2 1.3z"/>
				<path id="&lt;Path&gt;" class="s97" d="m391.7 293.1l-2.9-0.5v-0.1c-1-0.2-1.6-1.1-1.4-2.1 0.2-1 1.1-1.6 2.1-1.4l3 0.6c0.9 0.2 1.6 1.2 1.4 2.1-0.2 1-1.2 1.7-2.2 1.5z"/>
				<path id="&lt;Path&gt;" class="s97" d="m382 291.3l-3-0.4c-1-0.2-1.7-1.1-1.5-2.1 0.1-1 1-1.7 2-1.5l3 0.4c1 0.2 1.7 1.1 1.6 2.1-0.2 1-1.1 1.7-2.1 1.5z"/>
				<path id="&lt;Path&gt;" class="s97" d="m372.1 290l-2.9-0.3c-1.1-0.1-1.8-1-1.7-2 0.1-1 1-1.7 2-1.6l3 0.3c1 0.1 1.8 1 1.7 2-0.1 1-1 1.7-2 1.6z"/>
				<path id="&lt;Path&gt;" class="s97" d="m362.3 289.2l-3-0.1c-1.1-0.1-1.8-0.9-1.8-2 0.1-1 0.9-1.8 1.9-1.7l3.1 0.1c1 0.1 1.8 1 1.7 2 0 1-0.9 1.8-1.9 1.7z"/>
				<path id="&lt;Path&gt;" class="s97" d="m352.4 288.9h-3c-1.1 0-1.9-0.8-1.9-1.8 0-1 0.8-1.9 1.8-1.9h3.1c1 0 1.8 0.8 1.8 1.9 0 1-0.8 1.8-1.8 1.8z"/>
				<path id="&lt;Path&gt;" class="s97" d="m342.5 289.1l-3 0.2c-1.1 0.1-1.9-0.7-2-1.7-0.1-1.1 0.7-1.9 1.7-2h0.1l3-0.2c1 0 1.9 0.8 1.9 1.8 0.1 1-0.7 1.9-1.7 1.9z"/>
				<path id="&lt;Path&gt;" class="s97" d="m332.6 289.9l-3 0.3c-1 0.2-1.9-0.6-2.1-1.6-0.1-1 0.7-2 1.7-2.1l3-0.3c1-0.1 2 0.6 2.1 1.6 0.1 1.1-0.7 2-1.7 2.1z"/>
				<path id="&lt;Path&gt;" class="s97" d="m322.8 291.2l-3 0.5c-1 0.2-2-0.5-2.1-1.5-0.2-1.1 0.5-2 1.5-2.2l3-0.5c1-0.2 2 0.5 2.1 1.5 0.2 1.1-0.5 2-1.5 2.2z"/>
				<path id="&lt;Path&gt;" class="s97" d="m313 293l-2.9 0.7c-1 0.2-2-0.4-2.2-1.5-0.3-1 0.4-2 1.4-2.2l3-0.7c1-0.2 2 0.4 2.2 1.5 0.2 1-0.4 2-1.4 2.2z"/>
				<path id="&lt;Path&gt;" class="s97" d="m303.4 295.3l-2.8 0.8h-0.1c-1 0.3-2-0.3-2.3-1.3-0.3-1 0.3-2 1.3-2.3l2.9-0.8c1.1-0.3 2.1 0.3 2.4 1.3 0.3 1-0.3 2.1-1.3 2.3z"/>
				<path id="&lt;Path&gt;" class="s97" d="m293.9 298.2l-2.8 0.9c-1 0.3-2.1-0.2-2.4-1.2-0.4-1 0.2-2.1 1.2-2.4l2.9-1c1-0.3 2 0.3 2.4 1.3 0.3 1-0.2 2-1.2 2.4z"/>
				<path id="&lt;Path&gt;" class="s97" d="m284.6 301.5l-2.8 1v0.1c-1 0.3-2.1-0.1-2.5-1.1-0.4-1 0.1-2.1 1.1-2.5l2.8-1.1c1-0.4 2.1 0.1 2.5 1.1 0.4 1-0.1 2.1-1.1 2.5z"/>
				<path id="&lt;Path&gt;" class="s97" d="m275.4 305.2l-2.7 1.2c-1 0.5-2.1 0-2.5-0.9-0.5-1 0-2.1 0.9-2.6l2.8-1.2c1-0.4 2.1 0 2.5 1 0.5 0.9 0 2.1-0.9 2.5z"/>
				<path id="&lt;Path&gt;" class="s97" d="m266.5 309.4l-2.7 1.4c-1 0.5-2.1 0.1-2.6-0.9-0.5-0.9-0.1-2.1 0.8-2.6l2.7-1.3c1-0.5 2.2-0.1 2.6 0.8 0.5 1 0.1 2.1-0.8 2.6z"/>
				<path id="&lt;Path&gt;" class="s97" d="m257.7 314l-2.6 1.5c-0.9 0.6-2.1 0.2-2.7-0.7-0.5-0.9-0.2-2.1 0.8-2.6l2.6-1.5c0.9-0.6 2.1-0.2 2.7 0.7 0.5 0.9 0.2 2.1-0.8 2.6z"/>
				<path id="&lt;Path&gt;" class="s97" d="m249.2 319.1l-2.5 1.6h-0.1c-0.9 0.6-2.1 0.3-2.7-0.6-0.5-0.9-0.3-2.1 0.6-2.7l2.6-1.6c0.9-0.6 2.1-0.3 2.7 0.6 0.6 0.9 0.3 2.1-0.6 2.7z"/>
				<path id="&lt;Path&gt;" class="s97" d="m240.9 324.5l-2.5 1.7c-0.9 0.6-2.1 0.4-2.7-0.5-0.6-0.8-0.4-2.1 0.5-2.7l2.5-1.7c0.8-0.6 2.1-0.4 2.7 0.5 0.6 0.9 0.4 2.1-0.5 2.7z"/>
				<path id="&lt;Path&gt;" class="s97" d="m232.8 330.3l-2.3 1.8c-0.9 0.7-2.1 0.5-2.8-0.3-0.7-0.9-0.5-2.1 0.4-2.8l2.4-1.8c0.8-0.7 2.1-0.5 2.7 0.3 0.7 0.9 0.5 2.1-0.3 2.8z"/>
				<path id="&lt;Path&gt;" class="s97" d="m225.1 336.5l-2.3 1.9c-0.8 0.7-2.1 0.6-2.8-0.2-0.7-0.9-0.6-2.1 0.2-2.8h0.1l2.3-2c0.8-0.7 2-0.6 2.8 0.3 0.7 0.8 0.5 2.1-0.3 2.8z"/>
				<path id="&lt;Path&gt;" class="s97" d="m217.6 343l-2.2 2c-0.8 0.8-2 0.7-2.8-0.1-0.7-0.8-0.7-2.1 0.1-2.8l2.2-2.1c0.9-0.7 2.1-0.6 2.9 0.2 0.7 0.8 0.6 2-0.2 2.8z"/>
				<path id="&lt;Path&gt;" class="s97" d="m210.5 349.8l-2.1 2.1-0.1 0.1c-0.7 0.7-2 0.8-2.8 0-0.8-0.8-0.8-2.1 0-2.8v-0.1l2.1-2.1c0.8-0.8 2.1-0.8 2.9 0 0.7 0.8 0.7 2 0 2.8z"/>
				<path id="&lt;Path&gt;" class="s97" d="m203.6 357l-2 2.2c-0.8 0.8-2 0.9-2.9 0.2-0.8-0.8-0.8-2.1-0.1-2.9l2-2.2c0.8-0.8 2.1-0.9 2.9-0.2 0.8 0.8 0.9 2 0.1 2.9z"/>
				<path id="&lt;Path&gt;" class="s97" d="m197.1 364.4l-1.9 2.3v0.1c-0.7 0.8-2 0.9-2.9 0.2-0.8-0.7-1-1.9-0.3-2.8l2-2.3c0.7-0.9 2-1 2.8-0.3 0.9 0.7 1 2 0.3 2.8z"/>
				<path id="&lt;Path&gt;" class="s97" d="m190.9 372.2l-1.8 2.4c-0.7 0.9-2 1.1-2.9 0.4-0.8-0.7-1-1.9-0.4-2.8l1.9-2.5c0.6-0.8 1.9-1 2.8-0.4 0.9 0.7 1.1 2 0.4 2.9z"/>
				<path id="&lt;Path&gt;" class="s97" d="m185.1 380.2l-1.7 2.5c-0.7 0.9-1.9 1.2-2.8 0.5-1-0.6-1.2-1.9-0.6-2.8l1.7-2.5c0.7-0.9 1.9-1.2 2.8-0.5 1 0.6 1.2 1.9 0.6 2.8z"/>
				<path id="&lt;Path&gt;" class="s97" d="m179.6 388.5l-1.5 2.5v0.1c-0.6 0.9-1.9 1.2-2.9 0.6-0.9-0.6-1.2-1.8-0.6-2.8l1.6-2.6c0.6-0.9 1.8-1.2 2.8-0.6 0.9 0.6 1.2 1.8 0.6 2.8z"/>
				<path id="&lt;Path&gt;" class="s97" d="m174.6 397l-1.5 2.6c-0.5 1-1.8 1.4-2.8 0.9-1-0.6-1.3-1.8-0.8-2.8l1.5-2.7c0.5-1 1.8-1.3 2.8-0.8 1 0.6 1.3 1.8 0.8 2.8z"/>
				<path id="&lt;Path&gt;" class="s97" d="m169.9 405.8l-1.3 2.6v0.1c-0.5 1-1.7 1.4-2.8 0.9-1-0.5-1.4-1.7-0.9-2.8l1.4-2.7c0.5-1 1.7-1.4 2.7-0.9 1 0.5 1.4 1.7 0.9 2.7z"/>
				<path id="&lt;Path&gt;" class="s97" d="m165.7 414.7l-1.2 2.8c-0.4 1-1.7 1.5-2.7 1.1-1.1-0.5-1.5-1.7-1.1-2.8l1.2-2.7c0.5-1.1 1.7-1.6 2.8-1.1 1 0.4 1.5 1.7 1 2.7z"/>
				<path id="&lt;Path&gt;" class="s97" d="m161.9 423.9l-1 2.8c-0.4 1.1-1.6 1.6-2.7 1.2-1.1-0.4-1.6-1.6-1.2-2.7l1.1-2.8c0.4-1.1 1.6-1.6 2.6-1.2 1.1 0.4 1.6 1.6 1.2 2.7z"/>
				<path id="&lt;Path&gt;" class="s97" d="m158.6 433.2l-0.9 2.8-0.1 0.1c-0.3 1.1-1.5 1.6-2.6 1.3-1.1-0.4-1.7-1.5-1.3-2.6l0.9-2.9c0.4-1.1 1.6-1.7 2.7-1.3 1 0.3 1.6 1.5 1.3 2.6z"/>
				<path id="&lt;Path&gt;" class="s97" d="m155.6 442.7l-0.7 2.8-0.1 0.1c-0.3 1.1-1.4 1.7-2.5 1.4-1.1-0.3-1.8-1.4-1.5-2.5l0.9-3c0.3-1.1 1.4-1.7 2.5-1.4 1.1 0.3 1.8 1.4 1.5 2.5z"/>
				<path id="&lt;Path&gt;" class="s97" d="m153.2 452.3l-0.7 2.9c-0.3 1.1-1.4 1.8-2.5 1.5-1.1-0.2-1.8-1.3-1.5-2.4l0.6-3c0.3-1.1 1.4-1.8 2.5-1.6 1.1 0.3 1.8 1.4 1.6 2.5z"/>
				<path id="&lt;Path&gt;" class="s97" d="m151.1 461.9l-0.5 3c-0.2 1.1-1.3 1.9-2.4 1.7-1.2-0.2-1.9-1.3-1.7-2.4l0.5-3c0.2-1.1 1.3-1.9 2.4-1.7 1.2 0.2 1.9 1.3 1.7 2.4z"/>
				<path id="&lt;Path&gt;" class="s97" d="m149.5 471.7l-0.4 3c-0.2 1.1-1.2 1.9-2.3 1.8-1.2-0.2-2-1.2-1.8-2.4l0.4-3c0.2-1.1 1.2-1.9 2.3-1.7 1.1 0.1 1.9 1.2 1.8 2.3z"/>
				<path id="&lt;Path&gt;" class="s97" d="m148.3 481.6l-0.3 2.9c-0.1 1.2-1.1 2-2.2 1.9-1.1-0.1-2-1.1-1.9-2.2l0.3-3c0.1-1.2 1.1-2 2.2-1.9 1.2 0.1 2 1.1 1.9 2.2z"/>
				<path id="&lt;Path&gt;" class="s97" d="m147.6 491.4l-0.2 3c0 1.2-1 2-2.1 2-1.1-0.1-2-1-2-2.2l0.2-3c0-1.1 1-2 2.1-1.9 1.1 0 2 1 2 2.1z"/>
				<path id="&lt;Path&gt;" class="s97" d="m147.3 501.3v3c0 1.2-0.9 2.1-2.1 2.1-1.1 0-2-0.9-2-2.1v-3c0-1.1 0.9-2 2-2 1.2 0 2.1 0.9 2.1 2z"/>
				<path id="&lt;Path&gt;" class="s97" d="m147.4 511.2l0.2 3c0 1.2-0.9 2.1-2 2.2-1.1 0-2.1-0.8-2.1-2l-0.2-3c0-1.1 0.9-2.1 2-2.1 1.1-0.1 2.1 0.8 2.1 1.9z"/>
				<path id="&lt;Path&gt;" class="s97" d="m148 521.1l0.3 3c0.1 1.1-0.7 2.1-1.9 2.2-1.1 0.1-2.1-0.7-2.2-1.8l-0.2-3c-0.1-1.1 0.7-2.1 1.8-2.2 1.1-0.1 2.1 0.7 2.2 1.8z"/>
				<path id="&lt;Path&gt;" class="s97" d="m149.1 531l0.4 2.9v0.1c0.1 1.1-0.7 2.1-1.8 2.2-1.1 0.2-2.1-0.6-2.3-1.7l-0.4-3c-0.1-1.1 0.6-2.1 1.8-2.3 1.1-0.1 2.1 0.6 2.2 1.8z"/>
				<path id="&lt;Path&gt;" class="s97" d="m150.5 540.8l0.6 2.9c0.2 1.1-0.5 2.2-1.6 2.4-1.1 0.2-2.2-0.5-2.4-1.6l-0.5-3c-0.3-1.1 0.5-2.2 1.6-2.4 1.1-0.2 2.1 0.6 2.3 1.7z"/>
				<path id="&lt;Path&gt;" class="s97" d="m152.5 550.5l0.7 2.9c0.2 1.1-0.5 2.2-1.6 2.4-1 0.3-2.1-0.4-2.4-1.5l-0.7-2.9c-0.2-1.1 0.5-2.2 1.5-2.4 1.1-0.3 2.2 0.4 2.5 1.5z"/>
				<path id="&lt;Path&gt;" class="s97" d="m154.9 560.1l0.8 2.9c0.3 1.1-0.3 2.2-1.4 2.5-1.1 0.3-2.2-0.3-2.5-1.4l-0.8-2.9c-0.3-1.1 0.3-2.2 1.4-2.5 1.1-0.3 2.2 0.3 2.5 1.4z"/>
				<path id="&lt;Path&gt;" class="s97" d="m157.7 569.6l1 2.8c0.3 1.1-0.2 2.2-1.3 2.6-1 0.3-2.2-0.2-2.5-1.3l-1-2.9c-0.3-1 0.2-2.1 1.3-2.5 1-0.4 2.2 0.2 2.5 1.3z"/>
				<path id="&lt;Path&gt;" class="s97" d="m161 578.9l1.1 2.8c0.4 1-0.1 2.2-1.1 2.6-1 0.4-2.2-0.1-2.6-1.1l-1.1-2.8c-0.4-1.1 0.1-2.2 1.1-2.6 1.1-0.4 2.2 0.1 2.6 1.1z"/>
				<path id="&lt;Path&gt;" class="s97" d="m164.8 588.1l1.2 2.7c0.5 1 0 2.2-1 2.7-1 0.4-2.2 0-2.6-1l-1.3-2.8c-0.4-1 0-2.2 1-2.7 1-0.4 2.2 0 2.7 1z"/>
				<path id="&lt;Path&gt;" class="s97" d="m169 597l1.4 2.7c0.5 1 0.1 2.2-0.9 2.7-1 0.5-2.2 0.1-2.7-0.9l-1.4-2.7c-0.5-1-0.1-2.2 0.9-2.7 1-0.5 2.2-0.1 2.7 0.9z"/>
				<path id="&lt;Path&gt;" class="s97" d="m173.7 605.8l1.5 2.5c0.5 1 0.2 2.2-0.7 2.8-1 0.5-2.2 0.2-2.8-0.8l-1.5-2.6c-0.5-0.9-0.2-2.1 0.7-2.7 1-0.5 2.2-0.2 2.8 0.7z"/>
				<path id="&lt;Path&gt;" class="s97" d="m178.8 614.2l1.6 2.5c0.6 0.9 0.4 2.2-0.5 2.8-1 0.6-2.2 0.3-2.8-0.6l-1.6-2.5c-0.6-1-0.4-2.2 0.5-2.8 0.9-0.6 2.2-0.3 2.8 0.6z"/>
				<path id="&lt;Path&gt;" class="s97" d="m184.4 622.4l1.7 2.4c0.7 0.9 0.5 2.1-0.4 2.8-0.9 0.6-2.1 0.4-2.8-0.4l-1.7-2.5c-0.7-0.9-0.5-2.1 0.4-2.8 0.9-0.6 2.1-0.4 2.7 0.5z"/>
				<path id="&lt;Path&gt;" class="s97" d="m190.4 630.3l1.8 2.3h0.1c0.7 0.8 0.5 2.1-0.3 2.8-0.9 0.7-2.1 0.5-2.8-0.3l-1.9-2.4c-0.7-0.8-0.6-2 0.3-2.7 0.8-0.7 2-0.6 2.7 0.2z"/>
				<path id="&lt;Path&gt;" class="s97" d="m196.8 637.8l2 2.2c0.7 0.8 0.7 2.1-0.1 2.8-0.8 0.7-2.1 0.7-2.8-0.1l-2.1-2.3c-0.7-0.8-0.6-2 0.2-2.7 0.8-0.8 2-0.7 2.7 0.1z"/>
				<path id="&lt;Path&gt;" class="s97" d="m203.6 645l2.1 2.1c0.8 0.8 0.8 2 0 2.8-0.7 0.8-2 0.8-2.8 0l-2.1-2.1c-0.8-0.8-0.8-2 0-2.8 0.7-0.8 2-0.8 2.7 0z"/>
				<path id="&lt;Path&gt;" class="s97" d="m210.7 651.8l2.2 2h0.1c0.8 0.8 0.8 2 0.1 2.8-0.7 0.8-1.9 0.9-2.7 0.2l-2.3-2.1c-0.8-0.7-0.9-1.9-0.2-2.7 0.8-0.8 2-0.9 2.8-0.2z"/>
				<path id="&lt;Path&gt;" class="s97" d="m218.2 658.3l2.3 1.9h0.1c0.8 0.7 0.9 1.9 0.3 2.7-0.7 0.9-2 1-2.8 0.3l-2.3-1.9c-0.9-0.7-1-1.9-0.3-2.7 0.6-0.9 1.9-1 2.7-0.3z"/>
				<path id="&lt;Path&gt;" class="s97" d="m226 664.4l2.4 1.7 0.1 0.1c0.8 0.6 1 1.8 0.4 2.7-0.6 0.8-1.9 1-2.7 0.4l-2.5-1.8c-0.8-0.6-1-1.8-0.4-2.7 0.6-0.9 1.8-1.1 2.7-0.4z"/>
				<path id="&lt;Path&gt;" class="s97" d="m234.1 670.1l2.5 1.6h0.1c0.8 0.6 1.1 1.8 0.5 2.7-0.6 0.9-1.8 1.2-2.7 0.6l-2.5-1.7c-0.9-0.6-1.2-1.8-0.6-2.7 0.6-0.9 1.8-1.1 2.7-0.5z"/>
				<path id="&lt;Path&gt;" class="s97" d="m242.5 675.4l2.6 1.5c0.9 0.5 1.2 1.7 0.7 2.6-0.5 0.9-1.7 1.3-2.6 0.7l-2.7-1.5c-0.9-0.6-1.2-1.7-0.7-2.7 0.6-0.9 1.8-1.2 2.7-0.7z"/>
				<path id="&lt;Path&gt;" class="s97" d="m251.2 680.2l2.6 1.4c1 0.5 1.3 1.7 0.8 2.6-0.5 1-1.6 1.3-2.6 0.8l-2.7-1.4c-0.9-0.5-1.3-1.6-0.8-2.6 0.5-0.9 1.7-1.3 2.6-0.8z"/>
				<path id="&lt;Path&gt;" class="s97" d="m260 684.6l2.7 1.3c1 0.4 1.4 1.6 1 2.6-0.5 0.9-1.6 1.3-2.6 0.9l-2.7-1.3c-1-0.4-1.4-1.6-1-2.5 0.5-1 1.6-1.4 2.6-1z"/>
				<path id="&lt;Path&gt;" class="s97" d="m269.1 688.6l2.7 1.1h0.1c0.9 0.4 1.4 1.6 1 2.5-0.4 1-1.5 1.5-2.5 1.1l-2.8-1.1c-1-0.4-1.4-1.5-1-2.5 0.3-1 1.5-1.5 2.4-1.1h0.1z"/>
				<path id="&lt;Path&gt;" class="s97" d="m278.3 692.2l2.8 0.9h0.1c1 0.4 1.5 1.5 1.2 2.5-0.4 1-1.5 1.5-2.5 1.1l-2.8-0.9c-1-0.4-1.6-1.5-1.2-2.5 0.3-1 1.4-1.5 2.4-1.2z"/>
				<path id="&lt;Path&gt;" class="s97" d="m287.8 695.2l2.8 0.8c1 0.3 1.6 1.4 1.3 2.4-0.2 1-1.3 1.6-2.3 1.3l-2.9-0.8c-1-0.3-1.6-1.4-1.3-2.4 0.3-1 1.3-1.6 2.3-1.3z"/>
				<path id="&lt;Path&gt;" class="s97" d="m297.3 697.8l2.9 0.6v0.1c1.1 0.2 1.7 1.2 1.5 2.2-0.3 1.1-1.3 1.7-2.3 1.5l-3-0.7c-1-0.3-1.6-1.3-1.4-2.3 0.2-1 1.3-1.7 2.3-1.4z"/>
				<path id="&lt;Path&gt;" class="s97" d="m307 699.8l2.9 0.6h0.1c1 0.1 1.7 1.1 1.5 2.2-0.2 1-1.2 1.7-2.2 1.5l-3-0.5c-1-0.2-1.7-1.2-1.5-2.2 0.2-1.1 1.1-1.7 2.2-1.6z"/>
				<path id="&lt;Path&gt;" class="s97" d="m316.8 701.4l2.9 0.4c1.1 0.1 1.8 1 1.7 2.1-0.1 1-1.1 1.7-2.1 1.6l-3-0.4c-1.1-0.1-1.8-1-1.7-2.1 0.2-1 1.1-1.7 2.1-1.6z"/>
				<path id="&lt;Path&gt;" class="s97" d="m326.6 702.4l3 0.2c1 0.1 1.8 1 1.8 2-0.1 1.1-1 1.8-2 1.8l-3.1-0.2c-1-0.1-1.8-1-1.7-2 0-1.1 0.9-1.9 2-1.8z"/>
				<path id="&lt;Path&gt;" class="s97" d="m336.5 702.9h3c1 0 1.9 0.9 1.9 1.9-0.1 1.1-0.9 1.9-1.9 1.9l-3.1-0.1c-1 0-1.8-0.8-1.8-1.9 0-1 0.8-1.8 1.9-1.8z"/>
				<path id="&lt;Path&gt;" class="s97" d="m346.4 702.8l3-0.1c1-0.1 1.9 0.7 1.9 1.7 0.1 1.1-0.7 2-1.7 2l-3.1 0.1c-1 0.1-1.9-0.7-1.9-1.7-0.1-1.1 0.7-2 1.8-2z"/>
				<path id="&lt;Path&gt;" class="s97" d="m356.3 702.1l2.9-0.3c1.1-0.1 2 0.7 2.1 1.7 0.1 1-0.6 1.9-1.7 2l-3 0.4c-1 0.1-1.9-0.7-2-1.7-0.2-1 0.6-1.9 1.6-2.1z"/>
				<path id="&lt;Path&gt;" class="s97" d="m366.1 700.9l2.9-0.5c1-0.1 2 0.6 2.2 1.6 0.1 1-0.6 1.9-1.6 2.1l-3 0.5c-1 0.2-1.9-0.5-2.1-1.5-0.2-1.1 0.5-2 1.5-2.2z"/>
				<path id="&lt;Path&gt;" class="s97" d="m375.8 699.1l2.9-0.6c1-0.2 2 0.4 2.2 1.4 0.3 1-0.4 2-1.4 2.2l-2.9 0.7c-1 0.2-2-0.4-2.2-1.4-0.3-1 0.4-2 1.4-2.3z"/>
				<path id="&lt;Path&gt;" class="s97" d="m385.4 696.8l2.9-0.8c1-0.2 2 0.3 2.3 1.3 0.3 1-0.3 2-1.3 2.3l-2.9 0.8c-1 0.3-2-0.3-2.3-1.3-0.3-1 0.3-2 1.3-2.3z"/>
				<path id="&lt;Path&gt;" class="s97" d="m394.9 694l2.8-0.9h0.1c0.9-0.3 2 0.2 2.3 1.1 0.3 1-0.2 2.1-1.2 2.4l-2.8 0.9c-1 0.4-2.1-0.2-2.4-1.1-0.3-1 0.2-2 1.2-2.4z"/>
				<path id="&lt;Path&gt;" class="s97" d="m404.3 690.7l2.7-1h0.1c0.9-0.4 2 0.1 2.3 1 0.4 1-0.1 2-1 2.4l-2.8 1.1c-1 0.4-2-0.1-2.4-1.1-0.4-0.9 0.1-2 1-2.4z"/>
				<path id="&lt;Path&gt;" class="s97" d="m413.4 687l2.8-1.2c0.9-0.4 2 0 2.4 0.9 0.4 1 0 2-0.9 2.4l-2.8 1.3c-0.9 0.4-2 0-2.4-1-0.4-0.9 0-2 0.9-2.4z"/>
				<path id="&lt;Path&gt;" class="s97" d="m422.4 682.8l2.7-1.3c0.9-0.4 2-0.1 2.5 0.8 0.4 0.9 0.1 2-0.8 2.5l-2.7 1.3c-0.9 0.5-2 0.1-2.5-0.8-0.5-0.9-0.1-2 0.8-2.4z"/>
				<path id="&lt;Path&gt;" class="s97" d="m431.3 678.3l2.6-1.5c0.9-0.5 2-0.1 2.5 0.8 0.4 0.8 0.1 1.9-0.8 2.4l-2.6 1.5c-0.9 0.5-2 0.2-2.5-0.7-0.5-0.9-0.2-2 0.7-2.5z"/>
				<path id="&lt;Path&gt;" class="s97" d="m439.9 673.4l2.5-1.6c0.9-0.5 2-0.2 2.5 0.6 0.6 0.9 0.3 2-0.6 2.5l-2.6 1.6c-0.8 0.5-1.9 0.2-2.5-0.6-0.5-0.9-0.2-2 0.6-2.5z"/>
				<path id="&lt;Path&gt;" class="s97" d="m448.3 668.1l2.5-1.6v-0.1c0.8-0.5 1.9-0.3 2.5 0.6 0.6 0.8 0.3 1.9-0.5 2.5l-2.5 1.6c-0.9 0.6-2 0.4-2.6-0.5-0.5-0.8-0.3-1.9 0.6-2.5z"/>
				<path id="&lt;Path&gt;" class="s97" d="m456.5 662.5l2.4-1.7c0.8-0.6 2-0.4 2.6 0.4 0.5 0.8 0.4 1.9-0.5 2.5l-2.4 1.8c-0.8 0.6-2 0.4-2.5-0.4-0.6-0.9-0.4-2 0.4-2.6z"/>
				<path id="&lt;Path&gt;" class="s97" d="m464.5 656.6l2.4-1.8c0.8-0.6 1.9-0.4 2.5 0.3 0.6 0.8 0.5 2-0.3 2.6l-2.4 1.8c-0.8 0.6-1.9 0.5-2.5-0.3-0.6-0.8-0.5-1.9 0.3-2.6z"/>
				<path id="&lt;Path&gt;" class="s97" d="m472.3 650.5l2.3-1.9c0.8-0.6 1.9-0.5 2.6 0.2 0.6 0.8 0.5 1.9-0.3 2.6l-2.3 1.9c-0.8 0.6-1.9 0.5-2.5-0.3-0.7-0.7-0.6-1.9 0.2-2.5z"/>
				<path id="&lt;Path&gt;" class="s97" d="m479.9 644.1l2.3-2c0.7-0.6 1.9-0.5 2.5 0.2 0.7 0.8 0.6 1.9-0.1 2.5l-2.3 2c-0.8 0.7-1.9 0.6-2.5-0.1-0.7-0.8-0.6-1.9 0.1-2.6z"/>
				<path id="&lt;Path&gt;" class="s97" d="m487.4 637.5l2.2-2c0.7-0.7 1.8-0.7 2.5 0.1 0.7 0.7 0.6 1.8-0.1 2.5l-2.2 2c-0.7 0.7-1.9 0.7-2.5-0.1-0.7-0.7-0.7-1.8 0.1-2.5z"/>
				<path id="&lt;Path&gt;" class="s97" d="m494.6 630.7l2.2-2.1c0.7-0.7 1.8-0.7 2.5 0 0.7 0.7 0.6 1.8-0.1 2.5l-2.1 2.1c-0.7 0.7-1.8 0.7-2.5 0-0.7-0.7-0.7-1.8 0-2.5z"/>
				<path id="&lt;Path&gt;" class="s97" d="m501.7 623.7l2.1-2.2c0.7-0.7 1.8-0.7 2.5 0 0.7 0.7 0.7 1.8 0 2.5l-2.1 2.1c-0.7 0.7-1.8 0.7-2.5 0.1-0.7-0.7-0.7-1.8 0-2.5z"/>
				<path id="&lt;Path&gt;" class="s97" d="m508.6 616.5l2-2.2c0.7-0.7 1.8-0.8 2.5-0.1 0.7 0.6 0.7 1.7 0.1 2.4l-2.1 2.3c-0.6 0.7-1.7 0.7-2.4 0.1-0.7-0.7-0.8-1.8-0.1-2.5z"/>
				<path id="&lt;Path&gt;" class="s97" d="m515.3 609.1l2-2.2c0.6-0.7 1.7-0.8 2.4-0.2 0.7 0.7 0.8 1.8 0.2 2.5l-2 2.2c-0.6 0.7-1.7 0.8-2.4 0.2-0.8-0.6-0.8-1.7-0.2-2.5z"/>
				<path id="&lt;Path&gt;" class="s97" d="m521.9 601.6l1.9-2.2v-0.1c0.6-0.7 1.7-0.8 2.4-0.1 0.7 0.6 0.8 1.6 0.2 2.4l-1.9 2.3c-0.6 0.7-1.7 0.8-2.4 0.2-0.8-0.7-0.9-1.7-0.2-2.5z"/>
				<path id="&lt;Path&gt;" class="s97" d="m528.3 594l1.9-2.3c0.6-0.8 1.6-0.9 2.3-0.3 0.8 0.6 0.9 1.7 0.3 2.4l-1.9 2.3c-0.6 0.8-1.7 0.9-2.4 0.3-0.7-0.6-0.8-1.7-0.2-2.4z"/>
				<path id="&lt;Path&gt;" class="s97" d="m534.5 586.2l1.9-2.3c0.5-0.8 1.6-0.9 2.3-0.3 0.7 0.5 0.9 1.6 0.3 2.3l-1.8 2.4c-0.6 0.7-1.7 0.9-2.4 0.3-0.7-0.6-0.9-1.6-0.3-2.4z"/>
				<path id="&lt;Path&gt;" class="s97" d="m540.6 578.3l1.8-2.3c0.6-0.8 1.6-0.9 2.4-0.4 0.7 0.6 0.8 1.6 0.3 2.4l-1.8 2.4c-0.6 0.7-1.6 0.8-2.4 0.3-0.7-0.6-0.8-1.6-0.3-2.4z"/>
				<path id="&lt;Path&gt;" class="s97" d="m546.7 570.4l1.8-2.4c0.5-0.7 1.6-0.9 2.3-0.3 0.7 0.5 0.9 1.6 0.3 2.3l-1.8 2.4c-0.5 0.7-1.6 0.8-2.3 0.3-0.7-0.5-0.9-1.6-0.3-2.3z"/>
				<path id="&lt;Path&gt;" class="s97" d="m552.7 562.4l1.9-2.4c0.5-0.7 1.5-0.8 2.2-0.3 0.8 0.6 0.9 1.6 0.3 2.3l-1.8 2.4c-0.5 0.7-1.5 0.9-2.3 0.3-0.7-0.5-0.8-1.6-0.3-2.3z"/>
				<path id="&lt;Path&gt;" class="s97" d="m558.9 554.5l1.8-2.4c0.6-0.7 1.6-0.8 2.3-0.2 0.7 0.5 0.8 1.5 0.3 2.2l-1.9 2.4c-0.5 0.7-1.6 0.8-2.3 0.3-0.7-0.6-0.8-1.6-0.2-2.3z"/>
				<path id="&lt;Path&gt;" class="s97" d="m565.1 546.7l2-2.3c0.5-0.7 1.5-0.8 2.2-0.3 0.7 0.6 0.8 1.6 0.2 2.3l-1.9 2.3c-0.5 0.7-1.6 0.8-2.2 0.2-0.7-0.5-0.8-1.5-0.3-2.2z"/>
				<path id="&lt;Path&gt;" class="s97" d="m571.6 539l2-2.3c0.6-0.6 1.6-0.7 2.3-0.1 0.6 0.6 0.7 1.6 0.1 2.2l-2 2.3c-0.6 0.7-1.6 0.7-2.2 0.1-0.7-0.5-0.7-1.5-0.2-2.2z"/>
				<path id="&lt;Path&gt;" class="s97" d="m578.4 531.5l2.1-2.1c0.6-0.7 1.6-0.7 2.2-0.1 0.6 0.6 0.7 1.6 0.1 2.2l-0.1 0.1-2 2.1c-0.6 0.7-1.6 0.7-2.3 0.1-0.6-0.6-0.6-1.6 0-2.2z"/>
				<path id="&lt;Path&gt;" class="s97" d="m585.5 524.4l2.2-2.1c0.6-0.6 1.6-0.5 2.2 0.1 0.6 0.6 0.6 1.6-0.1 2.2l-2.1 2-0.1 0.1c-0.6 0.6-1.6 0.5-2.2-0.1-0.6-0.6-0.5-1.6 0.1-2.2z"/>
				<path id="&lt;Path&gt;" class="s97" d="m593 517.6l2.3-1.9c0.7-0.6 1.6-0.5 2.2 0.2 0.5 0.6 0.4 1.6-0.2 2.1v0.1l-2.3 1.9c-0.7 0.5-1.7 0.5-2.2-0.2-0.6-0.7-0.5-1.6 0.2-2.2z"/>
				<path id="&lt;Path&gt;" class="s97" d="m600.9 511.3l2.5-1.7c0.6-0.5 1.6-0.4 2.1 0.3 0.5 0.7 0.3 1.6-0.4 2.1v0.1l-2.4 1.7c-0.7 0.5-1.7 0.4-2.1-0.3-0.5-0.7-0.4-1.7 0.3-2.2z"/>
				<path id="&lt;Path&gt;" class="s97" d="m609.3 505.7l2.6-1.6c0.7-0.5 1.6-0.2 2 0.5 0.5 0.7 0.2 1.6-0.5 2.1l-2.5 1.5h-0.1c-0.7 0.5-1.6 0.2-2-0.5-0.5-0.7-0.3-1.6 0.5-2z"/>
			</g>
			<path id="&lt;Compound Path&gt;" class="s98" d="m745.2 453.6c-0.4 0-0.8-0.1-1.1-0.4-0.6-0.6-0.6-1.6 0-2.1q1.1-1.1 2.2-2.2c0.6-0.5 1.5-0.5 2.1 0.1 0.6 0.6 0.5 1.5-0.1 2.1q-1 1-2.1 2.1c-0.3 0.3-0.7 0.4-1 0.4zm7.3-6.8c-0.4 0-0.9-0.2-1.2-0.5-0.5-0.7-0.4-1.6 0.2-2.1q1.1-1 2.3-2c0.6-0.5 1.6-0.4 2.1 0.2 0.5 0.6 0.5 1.6-0.2 2.1q-1.1 1-2.2 1.9c-0.3 0.3-0.7 0.4-1 0.4zm7.8-6.3c-0.5 0-0.9-0.2-1.2-0.6-0.5-0.6-0.4-1.6 0.3-2.1q1.2-0.9 2.4-1.8c0.7-0.4 1.6-0.3 2.1 0.4 0.5 0.7 0.3 1.6-0.3 2.1q-1.2 0.8-2.4 1.7-0.5 0.3-0.9 0.3zm8.2-5.7c-0.5 0-1-0.2-1.3-0.7-0.4-0.7-0.2-1.6 0.5-2q1.2-0.9 2.5-1.7c0.7-0.4 1.6-0.2 2.1 0.5 0.4 0.7 0.2 1.7-0.5 2.1q-1.3 0.8-2.5 1.6-0.4 0.2-0.8 0.2zm8.5-5.1c-0.5 0-1-0.3-1.3-0.8-0.4-0.7-0.1-1.6 0.6-2q1.3-0.8 2.7-1.5c0.7-0.4 1.6-0.1 2 0.6 0.4 0.7 0.1 1.7-0.6 2q-1.3 0.7-2.6 1.5-0.4 0.2-0.8 0.2zm8.9-4.7c-0.6 0-1.1-0.3-1.3-0.8-0.4-0.8-0.1-1.6 0.6-2q1.4-0.7 2.8-1.3c0.7-0.4 1.6 0 2 0.7 0.3 0.8 0 1.7-0.8 2q-1.3 0.6-2.6 1.3-0.4 0.1-0.7 0.1zm9.1-4.1c-0.6 0-1.1-0.3-1.4-0.9-0.3-0.8 0.1-1.6 0.8-2q1.4-0.6 2.8-1.1c0.8-0.3 1.7 0 2 0.8 0.3 0.8-0.1 1.7-0.9 2q-1.3 0.5-2.7 1.1-0.3 0.1-0.6 0.1zm9.3-3.6c-0.6 0-1.2-0.4-1.4-1-0.3-0.8 0.1-1.7 0.9-1.9q1.4-0.6 2.9-1c0.7-0.3 1.6 0.1 1.9 0.9 0.2 0.8-0.2 1.6-1 1.9q-1.4 0.5-2.8 1-0.2 0.1-0.5 0.1zm9.5-3.2c-0.6 0-1.2-0.4-1.4-1.1-0.3-0.8 0.2-1.6 0.9-1.9q1.5-0.4 2.9-0.8c0.8-0.3 1.7 0.2 1.9 1 0.2 0.8-0.2 1.6-1 1.8q-1.4 0.5-2.9 0.9-0.2 0.1-0.4 0.1zm9.6-2.8c-0.7 0-1.3-0.4-1.4-1.1-0.3-0.8 0.2-1.6 1-1.8q1.5-0.4 2.9-0.8c0.8-0.2 1.7 0.3 1.9 1.1 0.2 0.8-0.3 1.6-1.1 1.8q-1.5 0.4-2.9 0.8-0.2 0-0.4 0zm9.7-2.4c-0.7 0-1.3-0.4-1.4-1.1-0.2-0.8 0.3-1.6 1.1-1.8q1.5-0.3 2.9-0.7c0.9-0.1 1.7 0.4 1.8 1.2 0.2 0.8-0.3 1.6-1.1 1.8q-1.5 0.3-3 0.6-0.1 0-0.3 0zm9.8-1.9c-0.7 0-1.3-0.5-1.5-1.3-0.1-0.8 0.4-1.6 1.3-1.7l2.9-0.5c0.8-0.2 1.6 0.4 1.8 1.2 0.1 0.8-0.5 1.6-1.3 1.7l-2.9 0.5q-0.1 0.1-0.3 0.1zm9.9-1.7c-0.7 0-1.4-0.5-1.5-1.3-0.1-0.8 0.4-1.6 1.3-1.7q1.5-0.2 2.9-0.4c0.9-0.1 1.6 0.4 1.7 1.3 0.2 0.8-0.4 1.5-1.2 1.7q-1.5 0.2-3 0.4-0.1 0-0.2 0zm9.9-1.3c-0.8 0-1.4-0.6-1.5-1.4-0.1-0.8 0.5-1.5 1.3-1.6q1.5-0.2 3-0.4c0.8-0.1 1.6 0.5 1.7 1.3 0.1 0.9-0.5 1.6-1.4 1.7q-1.4 0.2-2.9 0.3-0.1 0.1-0.2 0.1zm9.9-1.1c-0.7 0-1.4-0.6-1.5-1.4 0-0.8 0.6-1.6 1.4-1.6q1.5-0.2 3-0.3c0.8-0.1 1.5 0.5 1.6 1.3 0.1 0.9-0.5 1.6-1.3 1.7q-1.5 0.1-3 0.2-0.1 0.1-0.2 0.1zm10-0.9c-0.8 0-1.4-0.6-1.5-1.4-0.1-0.8 0.5-1.6 1.4-1.6q1.5-0.1 3-0.3c0.8 0 1.5 0.6 1.6 1.4 0 0.9-0.6 1.6-1.4 1.6q-1.5 0.2-3 0.3-0.1 0-0.1 0zm10-0.7c-0.8 0-1.5-0.6-1.5-1.4-0.1-0.9 0.5-1.6 1.4-1.6q1.5-0.1 3-0.2c0.8-0.1 1.5 0.6 1.6 1.4 0 0.8-0.6 1.5-1.5 1.6q-1.4 0.1-2.9 0.2-0.1 0-0.1 0zm9.9-0.6c-0.7 0-1.4-0.6-1.4-1.4-0.1-0.8 0.5-1.6 1.4-1.6l3-0.1c0.8-0.1 1.5 0.6 1.5 1.4 0.1 0.8-0.6 1.5-1.4 1.6l-3 0.1q0 0-0.1 0zm10-0.5c-0.8 0-1.4-0.6-1.5-1.4 0-0.8 0.6-1.5 1.5-1.6l3-0.1c0.8 0 1.5 0.6 1.5 1.4 0.1 0.9-0.6 1.6-1.4 1.6l-3 0.1q0 0-0.1 0zm10-0.4c-0.8 0-1.4-0.6-1.5-1.4 0-0.8 0.6-1.5 1.5-1.6l3-0.1c0.8 0 1.5 0.6 1.5 1.5 0.1 0.8-0.6 1.5-1.4 1.5l-3 0.1q0 0-0.1 0zm10-0.4c-0.8 0-1.4-0.6-1.5-1.4 0-0.8 0.6-1.5 1.5-1.6l3-0.1c0.8 0 1.5 0.6 1.5 1.5 0.1 0.8-0.6 1.5-1.4 1.5l-3 0.1q0 0-0.1 0zm10-0.4c-0.8 0-1.4-0.6-1.5-1.4 0-0.8 0.6-1.5 1.5-1.6l2.9-0.1c0.9 0 1.6 0.6 1.6 1.4 0 0.9-0.6 1.6-1.4 1.6l-3 0.1q-0.1 0-0.1 0zm10-0.4c-0.8 0-1.5-0.6-1.5-1.4 0-0.9 0.6-1.6 1.4-1.6l3-0.2c0.9 0 1.6 0.6 1.6 1.4 0 0.9-0.6 1.6-1.4 1.6l-3 0.2q-0.1 0-0.1 0zm10-0.6c-0.8 0-1.5-0.6-1.5-1.4-0.1-0.8 0.6-1.5 1.4-1.6q1.5-0.1 3-0.2c0.8 0 1.5 0.6 1.6 1.4 0 0.9-0.6 1.6-1.4 1.6q-1.5 0.1-3 0.2-0.1 0-0.1 0zm10-0.7c-0.8 0-1.5-0.6-1.5-1.4-0.1-0.8 0.5-1.5 1.3-1.6q1.5-0.1 3-0.2c0.9-0.1 1.6 0.5 1.6 1.4 0.1 0.8-0.5 1.5-1.3 1.6q-1.5 0.1-3 0.2-0.1 0-0.1 0zm9.9-0.8c-0.7 0-1.4-0.6-1.5-1.4 0-0.8 0.6-1.6 1.4-1.6q1.5-0.2 3-0.3c0.8-0.1 1.5 0.5 1.6 1.3 0.1 0.8-0.5 1.6-1.3 1.6q-1.5 0.2-3 0.3-0.1 0.1-0.2 0.1zm10-1.1c-0.8 0-1.4-0.6-1.5-1.4-0.1-0.8 0.5-1.5 1.3-1.6q1.5-0.2 3-0.4c0.8-0.1 1.5 0.5 1.6 1.3 0.1 0.8-0.4 1.6-1.3 1.7q-1.5 0.2-3 0.4 0 0-0.1 0zm9.9-1.4c-0.8 0-1.4-0.5-1.5-1.2-0.1-0.9 0.4-1.6 1.3-1.7q1.4-0.3 2.9-0.5c0.8-0.1 1.6 0.4 1.7 1.2 0.2 0.9-0.4 1.6-1.2 1.8q-1.5 0.2-3 0.4-0.1 0-0.2 0zm9.8-1.6c-0.7 0-1.3-0.5-1.4-1.2-0.2-0.8 0.4-1.6 1.2-1.8q1.5-0.2 2.9-0.5c0.8-0.2 1.6 0.4 1.8 1.2 0.1 0.8-0.4 1.6-1.2 1.7q-1.5 0.3-3 0.6-0.1 0-0.3 0zm9.9-1.9c-0.7 0-1.4-0.5-1.5-1.2-0.2-0.8 0.3-1.6 1.1-1.8q1.5-0.3 3-0.6c0.8-0.2 1.6 0.3 1.7 1.1 0.2 0.8-0.3 1.6-1.1 1.8q-1.4 0.3-2.9 0.6-0.2 0.1-0.3 0.1zm9.7-2.3c-0.7 0-1.3-0.5-1.5-1.2-0.2-0.8 0.3-1.6 1.1-1.8q1.5-0.4 2.9-0.8c0.8-0.2 1.6 0.3 1.8 1.1 0.3 0.8-0.2 1.6-1 1.8q-1.5 0.4-2.9 0.8-0.2 0.1-0.4 0.1zm9.6-2.7c-0.6 0-1.2-0.5-1.4-1.1-0.3-0.8 0.2-1.6 1-1.9q1.4-0.4 2.8-0.9c0.8-0.2 1.7 0.2 1.9 1 0.3 0.8-0.2 1.6-1 1.9q-1.4 0.5-2.8 0.9-0.3 0.1-0.5 0.1zm9.5-3.2c-0.6 0-1.2-0.4-1.4-1-0.3-0.8 0.1-1.6 0.9-1.9q1.4-0.5 2.8-1c0.8-0.3 1.6 0.1 1.9 0.9 0.3 0.7-0.1 1.6-0.8 1.9q-1.5 0.5-2.9 1-0.2 0.1-0.5 0.1zm9.3-3.6c-0.6 0-1.1-0.3-1.3-0.9-0.4-0.8 0-1.6 0.8-2q1.3-0.5 2.7-1.1c0.8-0.4 1.6 0 2 0.8 0.3 0.7 0 1.6-0.8 1.9q-1.4 0.6-2.8 1.2-0.3 0.1-0.6 0.1zm9.2-4.1c-0.6 0-1.1-0.3-1.4-0.8-0.4-0.8 0-1.7 0.7-2q1.3-0.7 2.7-1.3c0.7-0.4 1.6-0.1 2 0.6 0.4 0.8 0.1 1.7-0.7 2q-1.3 0.7-2.7 1.4-0.3 0.1-0.6 0.1zm8.8-4.6c-0.5 0-1-0.3-1.3-0.7-0.4-0.8-0.1-1.7 0.6-2.1q1.3-0.7 2.6-1.5c0.7-0.4 1.6-0.1 2 0.6 0.5 0.7 0.2 1.6-0.5 2q-1.3 0.8-2.6 1.5-0.4 0.2-0.8 0.2zm8.6-5.1c-0.5 0-1-0.2-1.2-0.7-0.5-0.7-0.3-1.6 0.4-2.1q1.3-0.7 2.5-1.6c0.7-0.4 1.6-0.2 2.1 0.5 0.5 0.7 0.3 1.6-0.4 2q-1.3 0.9-2.6 1.7-0.4 0.2-0.8 0.2zm8.3-5.6c-0.5 0-0.9-0.2-1.2-0.6-0.5-0.7-0.3-1.6 0.3-2.1q1.2-0.9 2.4-1.8c0.7-0.4 1.6-0.3 2.1 0.4 0.5 0.6 0.4 1.6-0.3 2.1q-1.2 0.9-2.4 1.7-0.4 0.3-0.9 0.3zm8-6c-0.5 0-0.9-0.2-1.2-0.6-0.5-0.6-0.4-1.6 0.2-2.1q1.2-0.9 2.3-1.9c0.7-0.5 1.6-0.4 2.1 0.2 0.6 0.6 0.5 1.6-0.2 2.1q-1.1 1-2.3 1.9-0.4 0.4-0.9 0.4zm7.6-6.6c-0.5 0-0.9-0.1-1.2-0.4-0.5-0.7-0.5-1.6 0.1-2.2q1.1-1 2.2-2c0.6-0.6 1.6-0.5 2.1 0.1 0.6 0.6 0.6 1.5 0 2.1q-1.1 1-2.2 2.1c-0.3 0.2-0.7 0.3-1 0.3zm7.1-6.9c-0.3 0-0.7-0.2-1-0.4-0.6-0.6-0.6-1.6 0-2.2q1-1 2-2.1c0.6-0.6 1.5-0.6 2.1-0.1 0.6 0.6 0.7 1.5 0.1 2.1q-1 1.2-2.1 2.2c-0.3 0.3-0.7 0.5-1.1 0.5zm6.8-7.4c-0.4 0-0.7-0.1-1-0.3-0.6-0.6-0.7-1.5-0.1-2.2q0.9-1.1 1.9-2.2c0.5-0.7 1.4-0.8 2.1-0.2 0.6 0.5 0.7 1.4 0.2 2.1q-1 1.1-2 2.3c-0.3 0.3-0.7 0.5-1.1 0.5zm6.3-7.8q-0.5 0-0.9-0.3c-0.7-0.5-0.8-1.4-0.3-2.1q0.9-1.2 1.8-2.4c0.4-0.6 1.4-0.8 2-0.3 0.7 0.5 0.9 1.4 0.4 2.1q-0.9 1.2-1.8 2.4c-0.3 0.4-0.8 0.6-1.2 0.6zm5.8-8.1q-0.5 0-0.9-0.3c-0.7-0.4-0.9-1.4-0.4-2q0.8-1.3 1.6-2.5c0.5-0.7 1.4-1 2.1-0.5 0.7 0.4 0.9 1.4 0.5 2.1q-0.9 1.2-1.7 2.5c-0.3 0.4-0.8 0.7-1.2 0.7zm5.2-8.5q-0.4 0-0.8-0.2c-0.7-0.4-0.9-1.4-0.5-2.1q0.7-1.3 1.4-2.6c0.4-0.7 1.3-1 2.1-0.6 0.7 0.4 1 1.3 0.6 2.1q-0.8 1.3-1.5 2.6c-0.3 0.5-0.8 0.8-1.3 0.8zm4.6-8.9q-0.3 0-0.6-0.1c-0.8-0.4-1.1-1.3-0.7-2q0.6-1.4 1.2-2.7c0.4-0.8 1.3-1.1 2-0.8 0.8 0.4 1.1 1.3 0.8 2q-0.7 1.4-1.3 2.8c-0.3 0.5-0.8 0.8-1.4 0.8zm-160.7-1.1q-0.3 0-0.5-0.1-1.5-0.5-2.9-1.1c-0.8-0.4-1.1-1.2-0.8-2 0.4-0.8 1.3-1.1 2-0.8q1.4 0.6 2.7 1.1c0.8 0.3 1.2 1.2 0.9 2-0.2 0.6-0.8 0.9-1.4 0.9zm-9-4.4q-0.4 0-0.8-0.2-1.3-0.8-2.5-1.7c-0.7-0.5-0.8-1.5-0.4-2.1 0.5-0.7 1.5-0.9 2.1-0.4q1.2 0.9 2.4 1.6c0.7 0.5 1 1.4 0.5 2.1-0.3 0.5-0.8 0.7-1.3 0.7zm173.8-3.6q-0.3 0-0.6-0.1c-0.8-0.4-1.1-1.2-0.8-2l0.1-0.4q0.5-1.2 0.9-2.4c0.3-0.7 1.2-1.1 2-0.8 0.7 0.2 1.1 1.1 0.8 1.9q-0.4 1.2-0.9 2.4l-0.2 0.4c-0.2 0.6-0.8 1-1.3 1zm-181.6-2.5c-0.4 0-0.8-0.1-1.1-0.4q-1.1-1.1-2.2-2.2c-0.5-0.6-0.5-1.5 0.1-2.1 0.6-0.6 1.5-0.5 2.1 0.1q1 1 2.1 2c0.6 0.6 0.6 1.5 0 2.1-0.3 0.3-0.6 0.5-1 0.5zm184.9-7q-0.2 0-0.4 0c-0.8-0.3-1.3-1.1-1-1.9q0.4-1.4 0.8-2.8c0.3-0.8 1.1-1.3 1.9-1.1 0.8 0.3 1.2 1.1 1 1.9q-0.4 1.4-0.9 2.9c-0.2 0.6-0.8 1-1.4 1zm-191.6-0.5c-0.4 0-0.9-0.2-1.2-0.6q-0.9-1.2-1.8-2.5c-0.4-0.7-0.2-1.6 0.5-2.1 0.7-0.4 1.6-0.2 2 0.4q0.8 1.3 1.7 2.4c0.5 0.7 0.4 1.6-0.3 2.1q-0.4 0.3-0.9 0.3zm-5.2-8.5c-0.6 0-1.1-0.3-1.3-0.8q-0.7-1.4-1.3-2.8c-0.4-0.8 0-1.7 0.7-2 0.8-0.3 1.7 0 2 0.8q0.6 1.3 1.2 2.6c0.4 0.8 0.1 1.7-0.6 2.1q-0.4 0.1-0.7 0.1zm199.4-0.6q-0.1 0-0.3 0c-0.8-0.2-1.3-1-1.1-1.8q0.3-1.5 0.6-2.9c0.1-0.9 0.9-1.4 1.7-1.2 0.8 0.1 1.4 0.9 1.2 1.7q-0.3 1.5-0.6 3c-0.2 0.7-0.8 1.2-1.5 1.2zm-203-8.7c-0.7 0-1.3-0.4-1.5-1.1q-0.1-0.6-0.3-1.3-0.2-0.8-0.4-1.7c-0.2-0.8 0.3-1.6 1.1-1.8 0.8-0.1 1.6 0.4 1.8 1.2q0.2 0.8 0.4 1.6 0.1 0.6 0.3 1.2c0.2 0.8-0.2 1.6-1 1.9q-0.2 0-0.4 0zm204.8-1.2q-0.1 0-0.2 0c-0.8-0.1-1.4-0.8-1.3-1.6q0.2-1.5 0.3-3c0.1-0.8 0.9-1.4 1.7-1.3 0.8 0.1 1.4 0.8 1.3 1.6q-0.1 1.5-0.3 3c-0.1 0.8-0.8 1.3-1.5 1.3zm-206.7-8.6c-0.8 0-1.4-0.6-1.5-1.3q-0.2-1.6-0.3-3.1c0-0.8 0.6-1.5 1.4-1.6 0.8 0 1.6 0.6 1.6 1.4q0.1 1.5 0.3 2.9c0.1 0.9-0.5 1.6-1.4 1.7q0 0-0.1 0zm207.5-1.3q0 0 0 0c-0.9 0-1.5-0.7-1.5-1.6q0-1.3 0-2.7v-0.2c0-0.8 0.7-1.5 1.5-1.5q0 0 0 0c0.9 0 1.5 0.7 1.5 1.5v0.2q0 1.4 0 2.8c0 0.8-0.7 1.5-1.5 1.5zm-207.8-8.7q0 0-0.1 0c-0.8 0-1.4-0.7-1.4-1.6q0.1-1.5 0.2-3c0.1-0.8 0.8-1.4 1.6-1.4 0.9 0.1 1.5 0.8 1.4 1.7q-0.1 1.4-0.2 2.9c-0.1 0.8-0.7 1.4-1.5 1.4zm207.5-1.3c-0.7 0-1.4-0.6-1.5-1.4q-0.1-1.4-0.2-2.9c-0.1-0.8 0.4-1.6 1.3-1.7 0.8-0.1 1.5 0.5 1.6 1.3q0.2 1.5 0.3 3.1c0.1 0.8-0.5 1.5-1.3 1.6q-0.1 0-0.2 0zm-206.3-8.6q-0.1 0-0.3 0c-0.8-0.2-1.3-1-1.2-1.8q0.3-1.5 0.7-3c0.2-0.8 1-1.3 1.8-1.1 0.8 0.2 1.3 1 1.1 1.8q-0.3 1.5-0.6 2.9c-0.2 0.7-0.8 1.2-1.5 1.2zm204.9-1.3c-0.7 0-1.3-0.5-1.5-1.2q-0.3-1.4-0.6-2.9c-0.2-0.8 0.3-1.6 1.1-1.8 0.8-0.2 1.6 0.3 1.8 1.1q0.4 1.5 0.7 3c0.2 0.8-0.4 1.6-1.2 1.8q-0.1 0-0.3 0zm-202.3-8.3q-0.2 0-0.5-0.1c-0.8-0.3-1.2-1.1-0.9-1.9q0.5-1.5 1-2.9c0.3-0.8 1.2-1.2 2-0.9 0.8 0.3 1.1 1.2 0.8 2q-0.5 1.3-1 2.7c-0.2 0.7-0.8 1.1-1.4 1.1zm199.7-1.3c-0.7 0-1.2-0.4-1.5-1.1q-0.4-1.3-1-2.7c-0.2-0.8 0.1-1.7 0.9-2 0.8-0.3 1.7 0.1 1.9 0.9q0.6 1.4 1.1 2.9c0.3 0.8-0.2 1.6-0.9 1.9q-0.3 0.1-0.5 0.1zm-195.8-8q-0.4 0-0.7-0.1c-0.7-0.4-1-1.3-0.7-2q0.7-1.4 1.4-2.7c0.4-0.8 1.3-1 2.1-0.6 0.7 0.4 1 1.3 0.6 2q-0.7 1.3-1.4 2.6c-0.3 0.5-0.8 0.8-1.3 0.8zm192-1.3c-0.6 0-1.1-0.3-1.4-0.8q-0.6-1.4-1.3-2.7c-0.4-0.7-0.1-1.6 0.6-2 0.8-0.4 1.7-0.1 2.1 0.6q0.7 1.4 1.3 2.8c0.4 0.7 0.1 1.6-0.7 2q-0.3 0.1-0.6 0.1zm-187-7.3q-0.5 0-0.9-0.3c-0.6-0.4-0.8-1.4-0.4-2q0.9-1.3 1.8-2.6c0.5-0.6 1.4-0.8 2.1-0.3 0.6 0.5 0.8 1.4 0.3 2.1q-0.9 1.2-1.7 2.4c-0.3 0.5-0.7 0.7-1.2 0.7zm182.2-1.4c-0.5 0-1-0.3-1.3-0.7q-0.8-1.3-1.6-2.5c-0.5-0.7-0.3-1.6 0.4-2.1 0.7-0.5 1.6-0.3 2.1 0.4q0.8 1.3 1.6 2.6c0.5 0.7 0.3 1.6-0.4 2q-0.4 0.3-0.8 0.3zm-176.2-6.6c-0.3 0-0.7-0.1-1-0.3-0.6-0.6-0.7-1.5-0.1-2.1q1-1.2 2-2.3c0.6-0.6 1.5-0.7 2.1-0.1 0.6 0.5 0.7 1.5 0.1 2.1q-1 1.1-1.9 2.2c-0.3 0.4-0.8 0.5-1.2 0.5zm170.4-1.6c-0.4 0-0.9-0.2-1.2-0.6q-0.9-1.1-1.8-2.3c-0.6-0.6-0.5-1.5 0.2-2.1 0.6-0.5 1.5-0.4 2.1 0.2q0.9 1.2 1.9 2.4c0.5 0.6 0.4 1.6-0.3 2.1q-0.4 0.3-0.9 0.3zm-163.5-5.6c-0.4 0-0.8-0.2-1.1-0.5-0.5-0.6-0.5-1.5 0.1-2.1q1.1-1 2.2-2.1c0.7-0.5 1.6-0.4 2.2 0.2 0.5 0.6 0.4 1.5-0.2 2.1q-1.1 1-2.2 2c-0.2 0.3-0.6 0.4-1 0.4zm156.9-1.9c-0.4 0-0.8-0.2-1.1-0.5q-1-1-2-2.1c-0.6-0.5-0.6-1.5-0.1-2.1 0.6-0.6 1.6-0.6 2.1 0q1.1 1 2.2 2.1c0.6 0.6 0.6 1.6 0 2.1-0.3 0.3-0.7 0.5-1.1 0.5zm-149.3-4.6c-0.4 0-0.9-0.2-1.2-0.6-0.5-0.6-0.4-1.6 0.3-2.1q1.2-0.9 2.4-1.8c0.7-0.5 1.6-0.4 2.1 0.3 0.5 0.7 0.4 1.6-0.3 2.1q-1.2 0.9-2.4 1.8-0.4 0.3-0.9 0.3zm142-2.2c-0.3 0-0.7-0.1-1-0.4q-1.1-0.9-2.2-1.8c-0.7-0.6-0.8-1.5-0.3-2.2 0.5-0.6 1.5-0.7 2.1-0.2q1.2 0.9 2.4 1.9c0.6 0.5 0.7 1.5 0.2 2.1-0.3 0.4-0.8 0.6-1.2 0.6zm-133.8-3.5c-0.5 0-1-0.3-1.3-0.7-0.4-0.7-0.2-1.7 0.5-2.1q1.3-0.8 2.6-1.6c0.7-0.4 1.6-0.2 2 0.5 0.5 0.7 0.2 1.6-0.5 2.1q-1.2 0.7-2.5 1.5-0.4 0.3-0.8 0.3zm125.8-2.6q-0.4 0-0.8-0.2-1.2-0.9-2.5-1.6c-0.7-0.5-0.9-1.4-0.4-2.1 0.4-0.7 1.3-0.9 2-0.5q1.3 0.8 2.6 1.7c0.7 0.5 0.8 1.4 0.4 2.1-0.3 0.4-0.8 0.6-1.3 0.6zm-117.2-2.5c-0.5 0-1-0.3-1.3-0.8-0.4-0.7-0.1-1.6 0.6-2q1.4-0.7 2.8-1.4c0.7-0.3 1.6 0 2 0.7 0.3 0.7 0 1.6-0.7 2q-1.3 0.7-2.7 1.4-0.3 0.1-0.7 0.1zm108.7-2.6q-0.4 0-0.7-0.2-1.3-0.7-2.6-1.4c-0.8-0.4-1.1-1.3-0.7-2 0.3-0.7 1.3-1 2-0.7q1.4 0.7 2.7 1.4c0.7 0.4 1 1.3 0.6 2.1-0.3 0.5-0.8 0.8-1.3 0.8zm-99.6-1.7c-0.6 0-1.2-0.3-1.4-0.9-0.3-0.7 0-1.6 0.8-2q1.4-0.6 2.8-1.1c0.7-0.3 1.6 0 1.9 0.8 0.3 0.8 0 1.7-0.8 2q-1.4 0.5-2.7 1.1-0.3 0.1-0.6 0.1zm90.5-2.6q-0.2 0-0.5-0.1l-0.4-0.2q-1.2-0.5-2.4-0.9c-0.7-0.3-1.1-1.2-0.9-1.9 0.3-0.8 1.2-1.2 2-0.9q1.2 0.5 2.4 0.9l0.4 0.2c0.8 0.3 1.1 1.2 0.8 2-0.2 0.5-0.8 0.9-1.4 0.9zm-81.2-1c-0.6 0-1.2-0.4-1.4-1-0.3-0.8 0.1-1.6 0.9-1.9q1.4-0.5 2.9-0.9c0.8-0.3 1.6 0.2 1.9 0.9 0.2 0.8-0.2 1.7-1 1.9q-1.4 0.5-2.8 0.9-0.3 0.1-0.5 0.1zm71.8-2.3q-0.2 0-0.4-0.1-1.4-0.4-2.9-0.8c-0.8-0.2-1.2-1-1-1.8 0.2-0.8 1-1.3 1.8-1.1q1.5 0.4 2.9 0.8c0.8 0.3 1.3 1.1 1.1 1.9-0.2 0.7-0.8 1.1-1.5 1.1zm-62.2-0.5c-0.7 0-1.3-0.5-1.5-1.2-0.2-0.8 0.3-1.6 1.1-1.8q1.5-0.4 2.9-0.7c0.9-0.2 1.7 0.3 1.8 1.1 0.2 0.8-0.3 1.6-1.1 1.8q-1.4 0.4-2.9 0.7-0.1 0.1-0.3 0.1zm52.5-1.9q-0.1 0-0.3 0-1.4-0.3-2.9-0.6c-0.8-0.1-1.4-0.9-1.2-1.7 0.1-0.8 0.9-1.4 1.7-1.2q1.5 0.2 3 0.5c0.8 0.2 1.3 1 1.2 1.8-0.2 0.7-0.8 1.2-1.5 1.2zm-42.8-0.2c-0.7 0-1.3-0.6-1.4-1.3-0.2-0.8 0.4-1.6 1.2-1.7q1.5-0.3 3-0.5c0.8-0.1 1.6 0.4 1.7 1.3 0.1 0.8-0.4 1.5-1.3 1.7q-1.4 0.2-2.9 0.4-0.1 0.1-0.3 0.1zm32.9-1.3q-0.1 0-0.1 0-1.5-0.1-3-0.3c-0.8 0-1.4-0.7-1.4-1.6 0.1-0.8 0.8-1.4 1.6-1.3q1.6 0.1 3.1 0.2c0.8 0.1 1.4 0.8 1.3 1.7-0.1 0.7-0.7 1.3-1.5 1.3zm-22.9-0.1c-0.8 0-1.5-0.5-1.5-1.3-0.1-0.8 0.5-1.6 1.3-1.7q1.5-0.1 3-0.2c0.9-0.1 1.6 0.6 1.6 1.4 0.1 0.8-0.5 1.5-1.4 1.6q-1.4 0.1-2.9 0.2-0.1 0-0.1 0zm12.9-0.5q0 0 0 0-0.9 0-1.8 0-0.6 0-1.1 0c-0.8 0-1.6-0.6-1.6-1.5 0-0.8 0.7-1.5 1.5-1.5q0.7 0 1.3 0 0.9 0 1.8 0c0.8 0 1.5 0.7 1.4 1.6 0 0.8-0.6 1.4-1.5 1.4z"/>
		</g>
	</g>
</svg>