<svg version="1.2" xmlns="http://www.w3.org/2000/svg" viewBox="0 -1 700 501" width="700" height="501">
	<title>5106983</title>
	<style>
		tspan { white-space:pre } 
		.s0 { fill: #97a7af } 
		.s1 { fill: #1395ed } 
		.s2 { fill: #f45573 } 
		.s3 { fill: #3a415e } 
		.s4 { fill: none;stroke: #97a7af;stroke-miterlimit:10;stroke-width: 1.6;stroke-dasharray: 6.23782,6.23782 } 
		.s5 { opacity: .3;fill: #1395ed } 
		.s6 { opacity: .3;fill: #97a7af } 
		.s7 { fill: #25263a } 
		.s8 { fill: #748389 } 
		.s9 { fill: #c2cfd8 } 
		.s10 { fill: #ffffff } 
		.s11 { fill: none;stroke: #97a7af;stroke-miterlimit:10;stroke-width: 1.6 } 
		.s12 { fill: none;stroke: #97a7af;stroke-miterlimit:10;stroke-width: 1.6;stroke-dasharray: 6.12532,6.12532 } 
		.s13 { fill: #cc3366 } 
		.s14 { fill: none;stroke: #1395ed;stroke-miterlimit:10;stroke-width: 1.5 } 
		.t15 { font-size: 14px;fill: #ffffff;font-weight: 700;font-family: "Montserrat-Bold", "Montserrat" } 
		.s16 { fill: #1147cb } 
		.s17 { fill: none;stroke: #1147cb;stroke-miterlimit:10;stroke-width: 1.3 } 
		.s18 { fill: #ff5077 } 
		.s19 { fill: #3c4161 } 
		.s20 { fill: none;stroke: #1c2035;stroke-miterlimit:10;stroke-width: 1.3 } 
		.s21 { fill: none;stroke: #25263a;stroke-linecap: round;stroke-linejoin: round } 
	</style>
	<g id="BACKGROUND">
		<g id="&lt;Group&gt;">
		</g>
	</g>
	<g id="OBJECTS">
		<g id="&lt;Group&gt;">
			<g id="&lt;Group&gt;">
				<g id="&lt;Group&gt;">
					<g id="&lt;Group&gt;" style="opacity: .2">
						<path id="&lt;Path&gt;" class="s0" d="m264.5 449.6c0 0-33.7-230.9-86.5-208.3-22.2 9.5-10.4 58.1 2.8 95.9 2 5.9-5.6 10.1-9.4 5.2-19.3-24.4-44.2-46.9-59.6-27.2-15.4 19.6-0.1 43.1 16.9 60.2 4.8 4.9 0.3 12.9-6.3 11.4-14-3.1-27.7-3.3-31.9 6.4-13.9 32.2 32.1 56.4 63.3 56.4 31.3 0 110.7 0 110.7 0z"/>
					</g>
					<g id="&lt;Group&gt;" style="opacity: .3">
						<path id="&lt;Path&gt;" class="s1" d="m445.6 449.6c0 0 3.8-193.6 56.1-182 21.8 4.8 23 36.3 19.8 63.4-0.7 5.6 6.8 7.9 9.3 2.9 15.9-30.5 39.6-66.5 58.4-53.7 21.3 14.7 0.4 46.3-18.7 68.5-3.4 4 0.2 10.1 5.4 9 11-2.6 22.8-0.7 30.1 13.7 16.9 33.2-15.7 76.7-68.4 76.7-52.7 0-92 1.5-92 1.5z"/>
					</g>
				</g>
				<g id="&lt;Group&gt;">
					<g id="&lt;Group&gt;" style="opacity: .3">
						<g id="&lt;Group&gt;">
							<path id="&lt;Compound Path&gt;" class="s1" d="m205.5 147.2q0-5.3 0-10.5c3.3-1.8 6.8-3 10.2-4.4 3.3-1.4 4.8-5.2 3.3-8.4-1.2-2.7-2.4-5.4-3.6-8.1-0.5-1.2-0.3-2.2 0.7-3.1 1.6-1.5 3.2-3 4.7-4.7 1-1 2.1-1.3 3.4-0.7 3.1 1.2 6.2 2.4 9.2 3.6 2.5 0.9 6.6-0.8 7.6-3.3 1.1-2.8 2.3-5.7 3.5-8.6 0.5-1.4 1.4-2.1 3-2q3.2 0.1 6.5 0c1.4-0.1 2.4 0.5 2.9 1.9 1.2 2.7 2.4 5.4 3.6 8.1 1.4 3.3 5.2 4.9 8.5 3.5 2.8-1.2 5.6-2.3 8.4-3.5 1.2-0.6 2.2-0.4 3.2 0.6q2.3 2.5 4.8 4.7c1.1 0.9 1.3 1.9 0.8 3.2-1.3 2.9-2.4 5.8-3.6 8.7-1.2 2.8 0.5 6.8 3.3 7.8 3.5 1.4 7.1 2.6 10.4 4.3q0 5.2 0 10.5c-3.5 1.8-7.2 3.2-10.9 4.7-2.2 0.9-3.8 5.1-2.9 7.3 1.3 2.9 2.5 5.7 3.8 8.5 0.6 1.5 0.5 2.6-0.8 3.7-1.6 1.4-3 2.9-4.5 4.4-1 1.1-2 1.3-3.4 0.8-2.8-1.2-5.7-2.3-8.6-3.4-3.2-1.3-7.1 0.4-8.4 3.6-1 2.6-2.1 5.2-3.1 7.8-0.6 1.6-1.6 2.4-3.4 2.3-2-0.2-4.1-0.1-6.2-0.1-1.5 0.1-2.4-0.5-3-1.8-1.2-3-2.6-5.9-3.9-8.9-1-2.4-5.2-4-7.6-3-2.9 1.2-5.8 2.4-8.7 3.7-1.4 0.6-2.5 0.5-3.6-0.7q-2.2-2.4-4.6-4.5c-1.2-1-1.3-2.1-0.8-3.4 1.2-2.7 2.2-5.4 3.3-8 1.5-3.6 0-7.2-3.6-8.6-3.3-1.3-6.7-2.4-9.9-4zm45.4 8.5c8 0 14.3-6.1 14.3-13.9 0-7.9-6.2-14-14.3-14-8 0-14.3 6.1-14.2 13.8 0 8 6.1 14 14.2 14.1z"/>
						</g>
					</g>
					<g id="&lt;Group&gt;" style="opacity: .3">
						<g id="&lt;Group&gt;">
							<path id="&lt;Compound Path&gt;" class="s0" d="m308.2 82.9q1.8-2 3.6-4.1c1.9 0.4 3.7 1.2 5.5 1.8 1.8 0.6 3.6-0.4 4.2-2.2 0.4-1.5 0.9-2.9 1.4-4.4 0.2-0.6 0.6-0.9 1.3-1q1.7 0 3.4-0.2c0.8 0 1.3 0.2 1.6 0.9q1.2 2.3 2.4 4.5c0.6 1.3 2.8 2 4 1.4q2.2-1.1 4.3-2.2c0.7-0.4 1.3-0.4 1.9 0.2q1.3 1.2 2.6 2.2c0.6 0.5 0.7 1.1 0.5 1.8-0.5 1.4-0.9 2.9-1.4 4.4-0.6 1.8 0.4 3.7 2.2 4.3 1.5 0.4 2.9 1 4.4 1.4 0.7 0.3 1.1 0.7 1.1 1.4q0.1 1.7 0.3 3.5c0.1 0.7-0.2 1.2-0.8 1.5q-2.2 1.1-4.4 2.2c-1.4 0.7-2.1 2.8-1.4 4.2 0.9 1.7 1.9 3.4 2.6 5.2q-1.7 2.1-3.5 4.1c-2.1-0.4-4-1.2-5.9-1.9-1.2-0.4-3.3 0.7-3.7 1.9q-0.7 2.3-1.4 4.6c-0.2 0.8-0.7 1.2-1.6 1.2q-1.6 0-3.2 0.2c-0.8 0.1-1.3-0.2-1.6-0.8q-1.1-2.2-2.2-4.3c-0.9-1.6-3-2.3-4.5-1.5-1.3 0.7-2.7 1.3-4 2-0.7 0.4-1.4 0.4-2-0.2q-1.2-1.2-2.5-2.2c-0.6-0.5-0.8-1-0.5-1.7q0.8-2.4 1.5-4.8c0.4-1.3-0.7-3.4-2-3.8-1.5-0.5-3.1-1.1-4.6-1.6-0.8-0.2-1.2-0.6-1.2-1.5q0-1.6-0.3-3.3c-0.1-0.8 0.2-1.3 0.9-1.6 1.3-0.6 2.7-1.3 4-2 1.8-0.9 2.5-2.8 1.5-4.6-0.8-1.6-1.8-3.2-2.5-5zm14.9 18.9c3.2 2.7 7.7 2.5 10.3-0.6 2.8-3.1 2.4-7.6-0.8-10.3-3.1-2.8-7.6-2.5-10.3 0.5-2.7 3.1-2.4 7.6 0.8 10.4z"/>
						</g>
					</g>
				</g>
				<g id="&lt;Group&gt;">
					<g id="&lt;Group&gt;">
						<g id="&lt;Group&gt;">
							<g id="&lt;Group&gt;">
								<path id="&lt;Path&gt;" class="s2" d="m107.2 172.7l12.8-12.7c-6.1-6-14.4-9.6-23.6-9.6v18c4.2 0 8 1.6 10.8 4.3z"/>
							</g>
							<g id="&lt;Group&gt;">
								<path id="&lt;Path&gt;" class="s3" d="m120 160l-12.8 12.7c3 2.9 4.9 6.9 4.9 11.3 0 4.2-1.7 8-4.4 10.8l12.7 12.8c6-6.1 9.7-14.4 9.7-23.6 0-9.4-3.9-17.9-10.1-24z"/>
							</g>
							<path id="&lt;Path&gt;" class="s1" d="m96.4 199.6c-8.6 0-15.6-7-15.6-15.6 0-8.6 7-15.6 15.6-15.6v-18c-18.5 0-33.6 15-33.6 33.6 0 18.6 15.1 33.6 33.6 33.6 9.4 0 17.9-3.8 24-10l-12.7-12.8c-2.9 3-6.9 4.8-11.3 4.8z"/>
						</g>
						<g id="&lt;Group&gt;" style="opacity: .5">
							<path id="&lt;Path&gt;" class="s4" d="m96.4 150.4v-49h92.5"/>
						</g>
						<path id="&lt;Path&gt;" class="s0" d="m195.1 101.4c0 2.1-1.8 3.9-3.9 3.9-2.2 0-4-1.8-4-3.9 0-2.2 1.8-4 4-4 2.1 0 3.9 1.8 3.9 4z"/>
						<g id="&lt;Group&gt;" style="opacity: .5">
							<path id="&lt;Path&gt;" class="s4" d="m96.4 217.6v63.4"/>
						</g>
						<path id="&lt;Path&gt;" class="s0" d="m100.4 281c0 2.2-1.8 3.9-4 3.9-2.2 0-3.9-1.7-3.9-3.9 0-2.2 1.7-3.9 3.9-3.9 2.2 0 4 1.7 4 3.9z"/>
					</g>
					<g id="&lt;Group&gt;">
						<g id="&lt;Group&gt;">
							<path id="&lt;Path&gt;" class="s1" d="m515.8 73.4v18c9.7 0.3 17.5 8.2 17.5 18 0 9.9-8.1 18-18 18-4 0-7.6-1.3-10.6-3.5l-10.9 14.4c6 4.4 13.4 7.1 21.5 7.1 19.8 0 36-16.2 36-36 0-19.7-15.9-35.7-35.5-36z"/>
							<g id="&lt;Group&gt;">
								<path id="&lt;Path&gt;" class="s3" d="m515.3 91.3q0.2 0 0.5 0.1v-18q-0.3-0.1-0.5-0.1c-17.1 0-31.5 12-35.2 28.1l17.6 3.9c1.9-8 9-14 17.6-14z"/>
							</g>
							<g id="&lt;Group&gt;">
								<path id="&lt;Path&gt;" class="s2" d="m497.2 109.4q0-2.1 0.5-4.1l-17.6-3.9q-0.9 3.8-0.9 8c0 11.8 5.8 22.3 14.6 28.9l10.9-14.4c-4.5-3.2-7.5-8.5-7.5-14.5z"/>
							</g>
						</g>
						<g id="&lt;Group&gt;">
							<g id="&lt;Group&gt;">
								<path id="&lt;Path&gt;" class="s3" d="m615.9 166.1c0-18.5-15.1-33.6-33.6-33.6q0 0 0 0v18q0 0 0 0c8.6 0 15.6 7 15.6 15.6 0 5.7-3.1 10.7-7.6 13.5l9.2 15.4c9.8-5.9 16.4-16.6 16.4-28.9z"/>
							</g>
							<g id="&lt;Group&gt;">
								<path id="&lt;Path&gt;" class="s2" d="m582.3 150.5v-18c-14.5 0-26.9 9.2-31.6 22.1l16.9 6.2c2.2-6 7.9-10.3 14.7-10.3z"/>
							</g>
							<path id="&lt;Path&gt;" class="s1" d="m582.3 181.8c-8.7 0-15.7-7-15.7-15.7 0-1.8 0.4-3.7 1-5.3l-16.9-6.2c-1.4 3.6-2.1 7.5-2.1 11.5 0 18.6 15.1 33.7 33.7 33.7 6.3 0 12.2-1.8 17.2-4.8l-9.2-15.4c-2.4 1.4-5.1 2.2-8 2.2z"/>
						</g>
						<path id="&lt;Path&gt;" class="s0" d="m586.2 252c0 2.2-1.8 4-3.9 4-2.2 0-4-1.8-4-4 0-2.1 1.8-3.9 4-3.9 2.1 0 3.9 1.8 3.9 3.9z"/>
						<g id="&lt;Group&gt;" style="opacity: .5">
							<path id="&lt;Path&gt;" class="s4" d="m551.3 109.4h31v23.1"/>
						</g>
						<g id="&lt;Group&gt;" style="opacity: .5">
							<path id="&lt;Path&gt;" class="s4" d="m582.3 199.8v52.2"/>
						</g>
					</g>
				</g>
				<g id="&lt;Group&gt;">
					<path id="&lt;Path&gt;" class="s5" d="m145.4 141.7c0 4-3.2 7.2-7.1 7.2-4 0-7.2-3.2-7.2-7.2 0-3.9 3.2-7.1 7.2-7.1 3.9 0 7.1 3.2 7.1 7.1z"/>
					<path id="&lt;Path&gt;" class="s5" d="m481.8 179.6c0 3.9-3.2 7.1-7.1 7.1-4 0-7.2-3.2-7.2-7.1 0-4 3.2-7.2 7.2-7.2 3.9 0 7.1 3.2 7.1 7.2z"/>
					<path id="&lt;Path&gt;" class="s6" d="m612.8 218.7c0 4-3.2 7.2-7.2 7.2-3.9 0-7.1-3.2-7.1-7.2 0-3.9 3.2-7.1 7.1-7.1 4 0 7.2 3.2 7.2 7.1z"/>
					<path id="&lt;Path&gt;" class="s6" d="m156.9 125.9c0 2-1.6 3.6-3.6 3.6-2 0-3.7-1.6-3.7-3.6 0-2.1 1.7-3.7 3.7-3.7 2 0 3.6 1.6 3.6 3.7z"/>
					<path id="&lt;Path&gt;" class="s6" d="m471.5 155.1c0 2-1.6 3.7-3.6 3.7-2 0-3.7-1.7-3.7-3.7 0-2 1.7-3.6 3.7-3.6 2 0 3.6 1.6 3.6 3.6z"/>
					<path id="&lt;Path&gt;" class="s5" d="m577.7 88.5c0 2-1.6 3.7-3.6 3.7-2.1 0-3.7-1.7-3.7-3.7 0-2 1.6-3.6 3.7-3.6 2 0 3.6 1.6 3.6 3.6z"/>
					<path id="&lt;Path&gt;" class="s6" d="m547.6 201.6c0 2-1.6 3.6-3.6 3.6-2 0-3.7-1.6-3.7-3.6 0-2 1.7-3.7 3.7-3.7 2 0 3.6 1.7 3.6 3.7z"/>
					<path id="&lt;Path&gt;" class="s6" d="m203.2 188.9c0 2.1-1.7 3.7-3.7 3.7-2 0-3.7-1.6-3.7-3.7 0-2 1.7-3.6 3.7-3.6 2 0 3.7 1.6 3.7 3.6z"/>
					<path id="&lt;Path&gt;" class="s6" d="m82.7 238.8c0 3.2-2.6 5.8-5.8 5.8-3.2 0-5.8-2.6-5.8-5.8 0-3.2 2.6-5.8 5.8-5.8 3.2 0 5.8 2.6 5.8 5.8z"/>
					<path id="&lt;Path&gt;" class="s6" d="m84.2 110.4c0 2-1.7 3.6-3.7 3.6-2 0-3.6-1.6-3.6-3.6 0-2 1.6-3.7 3.6-3.7 2 0 3.7 1.7 3.7 3.7z"/>
				</g>
			</g>
			<g id="&lt;Group&gt;">
				<g id="&lt;Group&gt;">
					<path id="&lt;Path&gt;" class="s7" d="m597.2 450.4h-520v-1.5h520z"/>
				</g>
				<g id="&lt;Group&gt;">
					<path id="&lt;Path&gt;" class="s7" d="m70.2 450.4h-20.2v-1.5h20.2z"/>
				</g>
				<g id="&lt;Group&gt;">
					<path id="&lt;Path&gt;" class="s7" d="m624.7 450.4h-19.1v-1.5h19.1z"/>
				</g>
				<g id="&lt;Group&gt;">
					<path id="&lt;Path&gt;" class="s7" d="m650 450.4h-19.1v-1.5h19.1z"/>
				</g>
			</g>
		</g>
		<g id="&lt;Group&gt;">
			<g id="&lt;Group&gt;">
				<g id="&lt;Group&gt;">
					<path id="&lt;Path&gt;" class="s8" d="m302.8 448.8h-9.2c-4.9 0-8.5-4.4-7.5-9.1l5.2-26.8h18.6z"/>
				</g>
				<g id="&lt;Group&gt;">
					<path id="&lt;Path&gt;" class="s0" d="m386.4 448.8h-92.6l7-35.9h92.7z"/>
				</g>
				<g id="&lt;Group&gt;">
					<path id="&lt;Path&gt;" class="s0" d="m293.8 448.8h103.3l2.9-10.1h-104.2z"/>
				</g>
			</g>
			<g id="&lt;Group&gt;">
				<g id="&lt;Group&gt;">
					<path id="&lt;Path&gt;" class="s0" d="m243 413h-22c-11.9 0-21.5-9.7-21.5-21.5v-167.1c0-11.9 9.6-21.5 21.5-21.5h22c11.9 0 21.5 9.6 21.5 21.5v167.1c0 11.8-9.6 21.5-21.5 21.5z"/>
				</g>
				<g id="&lt;Group&gt;">
					<path id="&lt;Path&gt;" class="s9" d="m462.2 413h-231.2c-12.9 0-23.3-10.5-23.3-23.3v-163.6c0-12.8 10.4-23.2 23.3-23.2h231.2c12.9 0 23.3 10.4 23.3 23.2v163.6c0 12.8-10.4 23.3-23.3 23.3z"/>
				</g>
				<g id="&lt;Group&gt;">
					<path id="&lt;Path&gt;" class="s10" d="m461.4 383.3h-229.7c-8.5 0-15.4-6.9-15.4-15.5v-140.8c0-8.5 6.9-15.4 15.4-15.4h229.7c8.5 0 15.4 6.9 15.4 15.4v140.8c0 8.6-6.9 15.5-15.4 15.5z"/>
				</g>
				<path id="&lt;Path&gt;" class="s10" d="m353.3 398.6c0 3.4-2.7 6.2-6.1 6.2-3.4 0-6.2-2.8-6.2-6.2 0-3.4 2.8-6.1 6.2-6.1 3.4 0 6.1 2.7 6.1 6.1z"/>
			</g>
			<g id="&lt;Group&gt;">
				<g id="&lt;Group&gt;">
					<g id="&lt;Group&gt;" style="opacity: .5">
						<g id="&lt;Group&gt;">
							<path id="&lt;Path&gt;" class="s11" d="m250.8 211.6v3.1"/>
							<path id="&lt;Path&gt;" class="s12" d="m250.8 220.9v156.2"/>
							<path id="&lt;Path&gt;" class="s11" d="m250.8 380.1v3.2"/>
						</g>
					</g>
					<g id="&lt;Group&gt;" style="opacity: .5">
						<g id="&lt;Group&gt;">
							<path id="&lt;Path&gt;" class="s11" d="m289.4 211.6v3.1"/>
							<path id="&lt;Path&gt;" class="s12" d="m289.4 220.9v156.2"/>
							<path id="&lt;Path&gt;" class="s11" d="m289.4 380.1v3.2"/>
						</g>
					</g>
					<g id="&lt;Group&gt;" style="opacity: .5">
						<g id="&lt;Group&gt;">
							<path id="&lt;Path&gt;" class="s11" d="m327.9 211.6v3.1"/>
							<path id="&lt;Path&gt;" class="s12" d="m327.9 220.9v156.2"/>
							<path id="&lt;Path&gt;" class="s11" d="m327.9 380.1v3.2"/>
						</g>
					</g>
					<g id="&lt;Group&gt;" style="opacity: .5">
						<g id="&lt;Group&gt;">
							<path id="&lt;Path&gt;" class="s11" d="m366.4 211.6v3.1"/>
							<path id="&lt;Path&gt;" class="s12" d="m366.4 220.9v156.2"/>
							<path id="&lt;Path&gt;" class="s11" d="m366.4 380.1v3.2"/>
						</g>
					</g>
					<g id="&lt;Group&gt;" style="opacity: .5">
						<g id="&lt;Group&gt;">
							<path id="&lt;Path&gt;" class="s11" d="m405 211.6v3.1"/>
							<path id="&lt;Path&gt;" class="s12" d="m405 220.9v156.2"/>
							<path id="&lt;Path&gt;" class="s11" d="m405 380.1v3.2"/>
						</g>
					</g>
					<g id="&lt;Group&gt;" style="opacity: .5">
						<g id="&lt;Group&gt;">
							<path id="&lt;Path&gt;" class="s11" d="m443.5 211.6v3.1"/>
							<path id="&lt;Path&gt;" class="s12" d="m443.5 220.9v156.2"/>
							<path id="&lt;Path&gt;" class="s11" d="m443.5 380.1v3.2"/>
						</g>
					</g>
				</g>
				<g id="&lt;Group&gt;">
					<path id="&lt;Path&gt;" class="s13" d="m427.1 328.8h-11.3v54.5h11.3z"/>
					<g id="&lt;Group&gt;">
						<path id="&lt;Path&gt;" class="s2" d="m394.9 347h-11.2v36.3h11.2z"/>
					</g>
					<g id="&lt;Group&gt;">
						<path id="&lt;Path&gt;" class="s2" d="m449.2 304.1h-11.3v79.2h11.3z"/>
					</g>
				</g>
				<g id="&lt;Group&gt;">
					<g id="&lt;Group&gt;">
						<path id="&lt;Path&gt;" class="s14" d="m250.8 307.9l38.6 13.5 77-24 38.6 3.8 38.5-60.6"/>
					</g>
					<g id="&lt;Group&gt;">
						<path id="&lt;Path&gt;" class="s2" d="m253.7 307.9c0 1.6-1.3 2.9-2.9 2.9-1.6 0-2.9-1.3-2.9-2.9 0-1.6 1.3-2.9 2.9-2.9 1.6 0 2.9 1.3 2.9 2.9z"/>
					</g>
					<g id="&lt;Group&gt;">
						<path id="&lt;Path&gt;" class="s2" d="m292.3 321.4c0 1.6-1.3 3-2.9 3-1.7 0-3-1.4-3-3 0-1.6 1.3-2.9 3-2.9 1.6 0 2.9 1.3 2.9 2.9z"/>
					</g>
					<g id="&lt;Group&gt;">
						<path id="&lt;Path&gt;" class="s2" d="m369.4 297.4c0 1.7-1.3 3-3 3-1.6 0-2.9-1.3-2.9-3 0-1.6 1.3-2.9 2.9-2.9 1.7 0 3 1.3 3 2.9z"/>
					</g>
					<g id="&lt;Group&gt;">
						<path id="&lt;Path&gt;" class="s2" d="m446.5 240.6c0 1.6-1.3 2.9-3 2.9-1.6 0-2.9-1.3-2.9-2.9 0-1.7 1.3-3 2.9-3 1.7 0 3 1.3 3 3z"/>
					</g>
					<g id="&lt;Group&gt;">
						<path id="&lt;Path&gt;" class="s2" d="m407.9 301.2c0 1.6-1.3 2.9-2.9 2.9-1.6 0-2.9-1.3-2.9-2.9 0-1.7 1.3-3 2.9-3 1.6 0 2.9 1.3 2.9 3z"/>
					</g>
				</g>
				<g id="&lt;Group&gt;">
					<path id="&lt;Path&gt;" class="s2" d="m288.7 249.8h-63.8c-0.3 0-0.6-0.3-0.6-0.6v-17.3c0-0.3 0.3-0.6 0.6-0.6h63.8c0.4 0 0.7 0.3 0.7 0.6v17.3c0 0.3-0.3 0.6-0.7 0.6z"/>
					<text id="START
" style="transform: matrix(1,0,0,1,256.819,245.729)" >
						<tspan x="-24.1" y="0" class="t15">START
</tspan>
					</text>
				</g>
			</g>
		</g>
		<g id="&lt;Group&gt;">
			<g id="&lt;Group&gt;" style="opacity: .2">
				<g id="&lt;Group&gt;">
					<path id="&lt;Path&gt;" class="s0" d="m344.6 202.7c-17.7-9.2-41.5-2.6-47.8 15.7-1.2 3.5-2.2 7.6-5.5 9.1-1.7 0.8-3.7 0.6-5.6 0.6-17.2 0.1-31.5 19.2-26.6 35.7 1.1 4 3.2 8.1 2.2 12.1-0.9 3.4-3.9 5.8-6.5 8.2-9.3 8.7-16.2 20.4-17.5 33.1-1.3 12.6 3.7 26.2 13.9 33.8 10.2 7.6 25.6 8.2 35.4 0.2 4.7-3.8 8.9-9.6 14.9-9.3 3.5 0.1 6.5 2.4 9.6 4 12.6 6.3 29.9-0.5 34.8-13.7 1-2.6 1.6-5.6 3.6-7.6 2.9-2.9 7.5-2.7 11.6-2.8 14.7-0.3 30.1-6.7 37.1-19.6 7-12.8 1.9-32.1-12.1-36.5-2.3-0.8-5-1.3-6.3-3.3-1.8-2.7-0.1-6.2 1.2-9.1 4.8-10.8 3.8-24.1-2.7-34.1-6.5-10-23.1-11-33.7-16.5z"/>
				</g>
				<g id="&lt;Group&gt;">
					<path id="&lt;Path&gt;" class="s0" d="m365 335.4c-5.8 1.8-8.8 8.6-10.4 14.4-0.5 1.5-0.7 3.2-0.1 4.7 0.7 1.6 2.3 2.5 3.8 3.2 4.9 1.9 10.8 1.7 15.2-1.3 4.4-3 6.8-8.8 5.2-13.8-1.6-5.1-8.6-8.8-13.7-7.2z"/>
				</g>
				<g id="&lt;Group&gt;">
					<path id="&lt;Path&gt;" class="s0" d="m295.4 356.8c-1.6 3.2-4 6.4-2.7 9.7 1.2 3.4 5.1 5.7 8.6 4.7 1-0.3 2-0.8 2.9-1.5 3.6-2.9 4.7-8.6 1.9-12.2-2.7-3.6-8.6-4.7-10.7-0.7z"/>
				</g>
			</g>
			<g id="&lt;Group&gt;">
				<path id="&lt;Path&gt;" class="s0" d="m370.1 156.4c0 0-23.3-8.5-55.3-2.2-0.6 0.1-1.2 0.5-1.4 1.2l-10.4 24.8c-0.4 1.1 0.2 2.4 1.4 2.7l43.8 11.7z"/>
			</g>
			<g id="&lt;Group&gt;">
				<path id="&lt;Path&gt;" class="s0" d="m404.6 176.2c0 0 19.1 15.9 29.8 46.6 0.2 0.7 0.1 1.4-0.3 1.9l-16.3 21.5c-0.7 0.9-2.1 1-3 0.2l-32.1-32z"/>
			</g>
			<g id="&lt;Group&gt;">
				<path id="&lt;Path&gt;" class="s9" d="m380.5 225.1c77.3-54 80.8-145 80.3-170-0.1-3.3-3.4-5.6-6.5-4.5-98.7 34.9-116.2 150-116.2 150l0.3 0.3c11.5 11.9 26.1 20.3 42.1 24.2z"/>
			</g>
			<path id="&lt;Path&gt;" class="s13" d="m338.1 200.6l0.3 0.3c11.5 11.9 26.1 20.3 42.1 24.2q7-4.9 13.2-10.2c-26.3-8.6-43.3-22.5-51.9-30.9-2.7 10.2-3.7 16.6-3.7 16.6z"/>
			<g id="&lt;Group&gt;">
				<path id="&lt;Path&gt;" class="s2" d="m456.8 101.5c3.9-20.7 4.2-37.6 4-46.4-0.1-3.3-3.4-5.6-6.5-4.5-16.3 5.8-30.5 13.8-42.6 23.1 5.3 8.3 19.2 25.5 45.1 27.8z"/>
			</g>
			<g id="&lt;Group&gt;">
				<path id="&lt;Path&gt;" class="s0" d="m428.7 132.7c0 12.4-10.1 22.4-22.4 22.4-12.4 0-22.4-10-22.4-22.4 0-12.3 10-22.3 22.4-22.3 12.3 0 22.4 10 22.4 22.3z"/>
			</g>
			<g id="&lt;Group&gt;">
				<path id="&lt;Path&gt;" class="s3" d="m423.1 132.7c0 9.3-7.5 16.8-16.8 16.8-9.3 0-16.8-7.5-16.8-16.8 0-9.2 7.5-16.7 16.8-16.7 9.3 0 16.8 7.5 16.8 16.7z"/>
			</g>
			<g id="&lt;Group&gt;">
				<g id="&lt;Group&gt;">
					<g id="&lt;Group&gt;">
						<path id="&lt;Path&gt;" class="s0" d="m412.4 80.8c0 0.8-0.7 1.5-1.6 1.5-0.8 0-1.5-0.7-1.5-1.5 0-0.9 0.7-1.6 1.5-1.6 0.9 0 1.6 0.7 1.6 1.6z"/>
					</g>
					<g id="&lt;Group&gt;">
						<path id="&lt;Path&gt;" class="s0" d="m418.4 88.5c0 0.9-0.7 1.6-1.6 1.6-0.9 0-1.6-0.7-1.6-1.6 0-0.9 0.7-1.6 1.6-1.6 0.9 0 1.6 0.7 1.6 1.6z"/>
					</g>
					<g id="&lt;Group&gt;">
						<path id="&lt;Path&gt;" class="s0" d="m433.9 100.2c0 0.8-0.7 1.5-1.5 1.5-0.9 0-1.6-0.7-1.6-1.5 0-0.9 0.7-1.6 1.6-1.6 0.8 0 1.5 0.7 1.5 1.6z"/>
					</g>
					<g id="&lt;Group&gt;">
						<path id="&lt;Path&gt;" class="s0" d="m453.3 105c0 0.9-0.7 1.6-1.6 1.6-0.8 0-1.5-0.7-1.5-1.6 0-0.9 0.7-1.6 1.5-1.6 0.9 0 1.6 0.7 1.6 1.6z"/>
					</g>
					<g id="&lt;Group&gt;">
						<path id="&lt;Path&gt;" class="s0" d="m425.4 94.8c0 0.8-0.7 1.5-1.6 1.5-0.9 0-1.6-0.7-1.6-1.5 0-0.9 0.7-1.6 1.6-1.6 0.9 0 1.6 0.7 1.6 1.6z"/>
					</g>
					<g id="&lt;Group&gt;">
						<path id="&lt;Path&gt;" class="s0" d="m443.4 103.3c0 0.9-0.7 1.6-1.6 1.6-0.9 0-1.6-0.7-1.6-1.6 0-0.9 0.7-1.6 1.6-1.6 0.9 0 1.6 0.7 1.6 1.6z"/>
					</g>
				</g>
			</g>
			<g id="&lt;Group&gt;">
				<g id="&lt;Group&gt;">
					<g id="&lt;Group&gt;">
						<path id="&lt;Path&gt;" class="s0" d="m349.4 183.6c0 0.8-0.7 1.5-1.5 1.5-0.9 0-1.6-0.7-1.6-1.5 0-0.9 0.7-1.6 1.6-1.6 0.8 0 1.5 0.7 1.5 1.6z"/>
					</g>
					<g id="&lt;Group&gt;">
						<path id="&lt;Path&gt;" class="s0" d="m358.6 190.5c0 0.9-0.8 1.6-1.6 1.6-0.9 0-1.6-0.7-1.6-1.6 0-0.9 0.7-1.6 1.6-1.6 0.8 0 1.6 0.7 1.6 1.6z"/>
					</g>
					<g id="&lt;Group&gt;">
						<path id="&lt;Path&gt;" class="s0" d="m368.4 197c0 0.9-0.7 1.6-1.6 1.6-0.8 0-1.5-0.7-1.5-1.6 0-0.9 0.7-1.6 1.5-1.6 0.9 0 1.6 0.7 1.6 1.6z"/>
					</g>
					<g id="&lt;Group&gt;">
						<path id="&lt;Path&gt;" class="s0" d="m380.4 203.6c0 0.8-0.7 1.5-1.5 1.5-0.9 0-1.6-0.7-1.6-1.5 0-0.9 0.7-1.6 1.6-1.6 0.8 0 1.5 0.7 1.5 1.6z"/>
					</g>
					<g id="&lt;Group&gt;">
						<path id="&lt;Path&gt;" class="s0" d="m393.6 208.8c0 0.8-0.7 1.5-1.6 1.5-0.8 0-1.5-0.7-1.5-1.5 0-0.9 0.7-1.6 1.5-1.6 0.9 0 1.6 0.7 1.6 1.6z"/>
					</g>
				</g>
			</g>
			<g id="&lt;Group&gt;">
				<g id="&lt;Group&gt;">
					<path id="&lt;Path&gt;" class="s1" d="m363.1 245.7c10.5-22.7-19.9-42.6-35.9-23.5-3.2 3.8-5.9 9-7.9 16.3-9.4 35-3.6 46.1-3.6 46.1 0 0 17.9-1.7 39.6-27.2 3.5-4.1 6.1-8 7.8-11.7z"/>
				</g>
				<g id="&lt;Group&gt;">
					<path id="&lt;Path&gt;" class="s16" d="m357.4 236.6c6.1-13-11.4-24.4-20.6-13.4-1.8 2.1-3.4 5.1-4.5 9.3-5.4 20.1-2.1 26.4-2.1 26.4 0 0 10.3-0.9 22.8-15.6q3-3.5 4.4-6.7z"/>
				</g>
			</g>
		</g>
		<g id="&lt;Group&gt;">
			<g id="&lt;Group&gt;">
				<g id="&lt;Group&gt;">
					<g id="&lt;Group&gt;">
						<path id="&lt;Path&gt;" class="s1" d="m186.7 288.3c0 0 16.1 60.8 16.3 78.3 0.2 17.5-7.5 75.1-7.5 75.1h-15.6c0 0 0.5-65.4-0.9-76.7-1.5-11.3-9.8-40.3-9.8-40.3 0 0-3 78.8-9.4 117h-15.5c0 0-2.3-104.1-0.8-153.4z"/>
					</g>
					<g id="&lt;Group&gt;">
						<path id="&lt;Path&gt;" class="s17" d="m146.8 441.7l1.6-149.3"/>
					</g>
					<g id="&lt;Group&gt;">
						<path id="&lt;Path&gt;" class="s16" d="m174.9 317.5c-0.2 0.8-0.6 1.5-1 2.1q-0.6 1-1.3 1.9-0.7 0.9-1.5 1.8c-0.6 0.5-1.2 1-1.9 1.4 0.3-0.7 0.7-1.4 1.1-2.1q0.6-1 1.3-1.9 0.7-0.9 1.5-1.7c0.5-0.5 1.1-1 1.8-1.5z"/>
					</g>
					<path id="&lt;Path&gt;" class="s17" d="m172 321.3c0 0 9.5 31.1 10.4 43.7 0.9 12.6-0.5 76.7-0.5 76.7"/>
				</g>
				<g id="&lt;Group&gt;">
					<path id="&lt;Path&gt;" class="s18" d="m216.9 289.8c1.8-2.3 5.8-1 8.7-1.5 0.4-0.1 0.8-0.1 1.1 0 0.7 0.2 1 1 1.2 1.7 0 0.2 0.1 0.5-0.1 0.7-0.1 0.2-0.2 0.2-0.4 0.3q-1.7 0.5-3.5 0.8c2.2 1.6 4.5 3.3 7.1 3.9 1 0.2 2.1 0.4 2.6 1.3 0.2 0.4 0.2 0.7 0.2 1.1 0 2.4-2 4.7-4.4 5.1-1.5 0.2-3-0.2-4.4-0.8-4.2-1.6-7.9-4.3-10.7-7.7 0-0.1-0.1-0.2-0.1-0.3 0-0.2 0.1-0.3 0.1-0.4 1.1-1.3 1.6-2.9 2.6-4.2z"/>
				</g>
				<g id="&lt;Group&gt;">
					<path id="&lt;Path&gt;" class="s18" d="m145.8 300.9c2.8-1.2 5.8 2 8.7 3 0.4 0.1 0.8 0.3 1 0.6 0.5 0.5 0.4 1.3 0.2 2-0.1 0.3-0.1 0.6-0.4 0.7-0.1 0.1-0.3 0-0.5 0q-1.9-0.3-3.6-1c1.2 2.6 2.5 5.2 4.6 7.1 0.7 0.6 1.6 1.4 1.6 2.4 0 0.4-0.1 0.8-0.3 1.1-1.3 2.2-4.1 3.2-6.5 2.4-1.5-0.6-2.7-1.7-3.7-2.9-3-3.5-5-7.8-5.8-12.3-0.1-0.1-0.1-0.2 0-0.3 0-0.1 0.1-0.2 0.3-0.2 1.6-0.7 2.8-1.9 4.4-2.6z"/>
				</g>
				<g id="&lt;Group&gt;">
					<path id="&lt;Path&gt;" class="s18" d="m165.6 162.6c0 0 7.9-1.2 11.5 7.2 3.5 8.4 4.2 26-6.9 25.7-11.1-0.2-15.7-8.9-15.7-8.9 0 0-5.4-2.2-4.7-5.7 0.7-3.4 3.2-2.4 3.2-2.4 0 0-2.2-15.6 12.6-15.9z"/>
				</g>
				<g id="&lt;Group&gt;">
					<path id="&lt;Path&gt;" class="s18" d="m170.6 185.7l4.5 16.9 6 3.6c0 0-4 15.6-12.4 15.6-8.4 0-15.4-16.4-15.4-16.4l5.6-2.9 1.1-16.8z"/>
				</g>
				<path id="&lt;Path&gt;" class="s13" d="m173.9 198.2l-0.8-3.1c0 0-4 1.2-8.8-0.8 0 0 4.1 3.3 9.6 3.9z"/>
				<g id="&lt;Group&gt;">
					<path id="&lt;Path&gt;" class="s7" d="m152.6 178.9c1.8-0.5 2 3.2 3 4.8 0.1 0.2 0.3 0.5 0.6 0.5 0.3 0.1 0.7-0.2 0.8-0.5 0.1-0.4 0-0.7-0.1-1.1-0.5-2.9-0.3-6 0.7-8.7 0.1-0.2 0.1-0.3 0.3-0.4 0.1 0 0.2 0 0.4 0.1 3.1 1.1 6.5 0.6 9.8 0.1 1.9-0.2 3.8-0.5 5.6-1.1 3.8-1.2 7.2-3.9 8.6-7.5 0.3-0.8 0.5-1.8-0.1-2.5-0.5-0.5-1.2-0.6-1.9-0.5-1.2 0-2.3 0.2-3.3 0.6-0.2-1.4-1.1-2.7-2.4-3.3-1.3-0.6-2.9-0.5-4.1 0.3-0.2 0.2-0.4 0.3-0.6 0.4-0.4 0-0.7-0.2-1.1-0.3-1.5-0.8-3.4-0.6-5.1-0.2-2.9 0.6-5.7 1.4-8.2 3-2.5 1.6-4.5 4-5.1 6.9-0.4 1.6-0.3 3.4-0.2 5.1q0.2 1.6 0.3 3.3c0 0.2 0 0.5 0.1 0.6 0.4 0.6 1.4 0.6 2 0.4z"/>
				</g>
				<path id="&lt;Path&gt;" class="s19" d="m179.2 204.9c-2-0.7-2.8 7.4-13.5 6.6-5.5-0.3-8.2-7.9-9.3-7.7-3.4 0.4-7.9 0.3-11.2 2.9-3.4 2.7-5.6 6.4-7.7 10.1-3.8 7.1-7.1 14.4-10.3 21.7-1.3 3-2.6 5.9-3.4 9.1-2.9 12 3 25.8 8.7 36.9 2.7 5.4 2.8 10.8 5.5 16.2 0.6 1.2 1.4 2.2 2.3 3.2 1.3 1.6 5.8 0.1 8.2-1.9 2.4-2 0.7-6.5-0.1-9.6 12.1 0.9 25.2 0.3 37.1-2.4 0.8-0.2 1.6-0.5 2-1.1 0.3-0.5 0.3-1.2 0.3-1.8q-0.2-9.8-0.9-19.5c1.7 4.3 3.8 8.5 6.6 12.2 2.8 3.6 6.4 6.7 9.9 9.7 2.8 2.4 5.9 4.5 9.4 5.4 3.3 0.8 7-5.5 6.9-6.6-0.3-1.9-2.1-3.2-3.6-4.5-3.5-3.1-6.5-6.9-8.8-11-4.3-7.9-5.8-16.9-7.3-25.7q-1.5-8.8-3-17.6c-0.6-3.4-1.2-6.9-2.7-10.1-3.1-6.4-5.6-11.1-15.1-14.5z"/>
				<path id="&lt;Path&gt;" class="s20" d="m148.4 292.4c0 0-4.6-15.6-10.1-40.6 0 0 5.7-10.8 9.4-17.5"/>
				<path id="&lt;Path&gt;" class="s20" d="m186.9 267.6c0 0-0.7-17.7-2.3-31.1"/>
				<path id="&lt;Path&gt;" class="s20" d="m179 204.7c0 0-3.6 6.9-10.7 6.9-7.2 0-11.9-7.8-11.9-7.8"/>
				<g id="&lt;Group&gt;">
					<g id="&lt;Group&gt;">
						<path id="&lt;Path&gt;" class="s7" d="m194.1 441.7l24.1 7.9h-38.1l0.4-7.9z"/>
					</g>
					<g id="&lt;Group&gt;">
						<path id="&lt;Path&gt;" class="s7" d="m158.8 441.7l24.8 7.9h-39.2l0.5-7.9z"/>
					</g>
				</g>
				<g id="&lt;Group&gt;">
					<path id="&lt;Path&gt;" class="s10" d="m174.5 187.1l-9.3-1c0 0 0.9 5.2 4.7 5.6 3.8 0.4 4.6-4.6 4.6-4.6z"/>
					<g id="&lt;Group&gt;">
						<path id="&lt;Path&gt;" class="s13" d="m171.5 178.9c0.4 0.6 0.8 1.3 1 2q0.5 1.1 0.6 2.2 0.1 0.6 0 1.3l-0.1 0.3c-0.1 0.1-0.2 0.3-0.3 0.4q-0.3 0.2-0.6 0.3c-0.9 0.3-1.7-0.1-2.3-0.6 0.8 0.2 1.5 0.2 2-0.1q0.2-0.1 0.3-0.2c0-0.1 0-0.1 0-0.1q0.1-0.1 0.1-0.2 0-0.4-0.1-1c0-0.7-0.2-1.4-0.3-2.1q-0.2-1-0.3-2.2z"/>
					</g>
					<g id="&lt;Group&gt;">
						<g id="&lt;Group&gt;">
							<path id="&lt;Path&gt;" class="s7" d="m165.7 180.3c-0.1-0.5 0.1-1 0.5-1.4 0.4-0.4 0.9-0.5 1.4-0.5 0.5 0 1.1 0.1 1.5 0.5 0.4 0.4 0.5 0.9 0.4 1.4-0.2-0.4-0.5-0.7-0.8-0.9q-0.5-0.3-1.1-0.2-0.6-0.1-1.1 0.2-0.5 0.3-0.8 0.9z"/>
						</g>
						<path id="&lt;Path&gt;" class="s21" d="m165.2 177c0 0 1.2-0.9 3.2-0.6"/>
					</g>
					<g id="&lt;Group&gt;">
						<g id="&lt;Group&gt;">
							<path id="&lt;Path&gt;" class="s7" d="m173.8 179.8c0-0.5 0.1-1 0.5-1.4 0.4-0.3 0.9-0.5 1.4-0.5 0.5 0 1.1 0.2 1.5 0.5 0.4 0.4 0.5 0.9 0.4 1.4-0.2-0.4-0.5-0.7-0.8-0.9q-0.5-0.2-1.1-0.2-0.5-0.1-1 0.2-0.5 0.3-0.9 0.9z"/>
						</g>
						<path id="&lt;Path&gt;" class="s21" d="m177.5 176.6c0 0-1.3-0.8-3.2-0.3"/>
					</g>
					<g id="&lt;Group&gt;">
						<path id="&lt;Path&gt;" class="s13" d="m152.3 180.3c-0.5 0.1-0.9 0.4-0.9 0.7-0.1 0.3 0 0.8 0.2 1.1q0.4 1.2 1.7 2c-1 0-2-0.7-2.4-1.7-0.2-0.5-0.3-1-0.1-1.6 0.1-0.3 0.4-0.5 0.7-0.6q0.4-0.1 0.8 0.1z"/>
					</g>
				</g>
			</g>
			<g id="&lt;Group&gt;">
				<g id="&lt;Group&gt;">
					<path id="&lt;Path&gt;" class="s18" d="m434.6 291.3c-1.5-2.3-5.3-1.2-7.9-1.8-0.3-0.1-0.7-0.2-1-0.1-0.6 0.2-0.9 0.9-1.1 1.6-0.1 0.2-0.2 0.5-0.1 0.7 0.1 0.1 0.3 0.2 0.4 0.2q1.6 0.6 3.2 1c-2.1 1.4-4.3 2.8-6.8 3.3-0.9 0.2-1.9 0.3-2.4 1.1-0.2 0.3-0.2 0.7-0.2 1-0.2 2.3 1.5 4.5 3.7 4.9 1.4 0.3 2.8 0 4.1-0.5 3.9-1.3 7.5-3.7 10.2-6.8 0.1 0 0.2-0.1 0.2-0.2 0-0.1-0.1-0.2-0.1-0.3-0.9-1.3-1.3-2.8-2.2-4.1z"/>
				</g>
				<g id="&lt;Group&gt;">
					<g id="&lt;Group&gt;">
						<path id="&lt;Path&gt;" class="s1" d="m475.8 303.1c0 0-0.4 45.4-1.5 58.3-1.1 12.8-2.5 81.4-2.5 81.4h13.9c0 0 12.1-70.4 14.4-115.8l8.6 115.8h13.8c0 0 6.5-94.5-0.5-139.7z"/>
					</g>
					<g id="&lt;Group&gt;">
						<path id="&lt;Path&gt;" class="s16" d="m497.6 319.6c0.9 1.1 1.4 2.3 1.9 3.5q0.3 1 0.5 1.9c0.1 0.7 0.2 1.3 0.1 2-0.4-0.5-0.8-1.1-1.1-1.6q-0.4-0.9-0.7-1.9c-0.4-1.2-0.7-2.5-0.7-3.9z"/>
					</g>
					<path id="&lt;Path&gt;" class="s17" d="m498.9 323.3c0 0-6.3 81.7-13.2 119.5"/>
					<path id="&lt;Path&gt;" class="s17" d="m520.5 442.8c0 0 7.6-101-1.6-139.5"/>
				</g>
				<path id="&lt;Path&gt;" class="s7" d="m490.8 190.2l-3.8 30.4c-0.8 6.9 4.6 13.1 11.6 13.1h10.6c7.2 0 12.7-6.5 11.5-13.6l-4.2-25.6z"/>
				<path id="&lt;Path&gt;" class="s18" d="m502.1 183.1c-5.3-0.3-10 3.4-11.4 8.5-1.7 6.1-4.3 18.8 3.8 22.3 10.6 4.7 18.6-6.6 18.6-6.6 0 0 3.3-2.8 2.8-7.2-0.6-4.4-3.1-1.8-3.1-1.8 0 0 1.3-14.1-9.8-15.2q-0.5 0-0.9 0z"/>
				<path id="&lt;Path&gt;" class="s18" d="m495.6 208.3l-1.6 14.1-8.6 3.4c0 0 4.3 13 14.2 13 9.9 0 15.6-13.2 15.6-13.2l-7.7-3.2-1.3-17.9z"/>
				<path id="&lt;Path&gt;" class="s13" d="m494.9 214.1c0 0 3.5 1.6 8.6 0.4 0 0-1.5 3.2-8.9 2.7z"/>
				<g id="&lt;Group&gt;">
					<path id="&lt;Path&gt;" class="s7" d="m490.1 188.5c0 0-0.6 3.5 2.7 4.6 3 1 7.7 10.3 17.4 8.7 1-0.2 1.8-0.9 2.1-1.9l0.5-1.6c0 0 2.2-2.4 3.1 1.8 0 0 4.4-17.1-10-20.1-14.4-2.9-15.8 8.5-15.8 8.5z"/>
				</g>
				<g id="&lt;Group&gt;">
					<path id="&lt;Path&gt;" class="s10" d="m479.7 303.1c1.2-38.2 9.5-78.9 9.5-78.9 0 0 4 13.3 10.2 13.3 7.3 0 12.5-13.6 12.5-13.6l4.7 79.2c0 0-5.9 5.3-20.6 5.3-14.7 0-16.3-5.3-16.3-5.3z"/>
				</g>
				<g id="&lt;Group&gt;">
					<g id="&lt;Group&gt;">
						<path id="&lt;Path&gt;" class="s3" d="m492.1 231c-1.6-2.9-1.6-3.8-2.5-6.3l-0.4-0.5c0 0-2.7 0.8-2.7 0.8q0 0 0 0c0 0 0 0 0 0l-2.1 0.8c-2 0.8-3.8 2.2-5.1 3.9-5.9 8.3-8.2 26.1-8.2 26.1q-0.5 1.9-0.9 3.8c-1.1 5.1 0.5 7.5-8.3 14.5-1.6 1.3-3.2 2.5-5 3.3q-10.4 4.6-20.8 9.1-0.9 0.4-1.7 1.1c-1.9 1.8-1.4 1.5-1.3 4.2 0.1 1.1-0.3 5.5 0.3 6.4 0.9 1.3 2.9 1.4 4.5 1.3 8.3-0.3 16.1-3.8 23.7-7.3 3.1-1.4 6-2.7 9-4.1-0.8 15.4-1.2 28.4-1.2 28.4q0.3 6.4 0.5 12.8c0 1.1 0.1 2.4 0.9 3.1 0.6 0.6 1.5 0.7 2.3 0.8q3.4 0.5 6.9 0.8c0.4 0.1 0.8 0.1 1.2-0.1 0.5-0.3 0.7-1.1 0.8-1.7 1.3-9.9 2.7-19.9 1.9-29.8-0.3-2.7 0.4-10.3 0.4-13-0.1-4.8-0.1-4.7 0.4-9.5 1.1-11.2-0.7-22.7 2.6-33.4 1-3.6 2.7-7 4.4-10.4 0.3-0.6 1.9-2 1.8-2.7 0-0.8-1-1.7-1.4-2.4z"/>
					</g>
				</g>
				<g id="&lt;Group&gt;">
					<path id="&lt;Path&gt;" class="s3" d="m511.9 223.9c6.8 1.2 8.9 3 13.2 8.3 5 6.1 7.2 16.6 7.8 24.6 1.6 20.7 3.2 34.2 4.3 58.6q0 0.5-0.2 1c-0.4 0.7-1.1 0.9-1.8 1.1-2.5 0.5-5-0.2-7.5-0.4-0.5 0-0.9 0-1.3 0.2-1.6 0.7-0.7 7.8-0.8 9.5-0.2 2.6-3.5 3.9-6.1 4.1-3.1 0.3-6.2 0.2-9.2-0.4-0.4-0.1-0.8-0.2-1.1-0.6-0.4-0.4-0.4-1-0.4-1.5-0.2-16.2-0.4-32.4 0.4-48.6 0.4-7.5 1-15 0.2-22.5-0.2-2.5-0.7-5-0.8-7.6-0.3-4.9-0.7-6-1.1-10.9-0.1-0.7-0.8-5.6-0.6-6.2 0.2-0.5 0.5-0.9 0.8-1.3 1.8-2.2 2.2-4.5 3.9-6.7z"/>
				</g>
				<path id="&lt;Path&gt;" class="s7" d="m473.3 442.8l-20.9 6.8h32.7l-0.6-6.8z"/>
				<path id="&lt;Path&gt;" class="s7" d="m510.4 442.8l-20.9 6.8h32.7l-0.6-6.8z"/>
				<path id="&lt;Path&gt;" class="s20" d="m526.2 322c0 0-0.2-42.8-4.2-70"/>
				<g id="&lt;Group&gt;">
					<path id="&lt;Path&gt;" class="s18" d="m529.6 316.9c-2.7-0.5-3.1 1.6-5.4 3.3-0.2 0.2-0.5 0.5-0.7 0.8-0.2 0.6 0.1 1.2 0.5 1.8 0.1 0.2 0.2 0.4 0.5 0.4 0.1 0.1 0.3 0 0.4-0.1q1.5-0.9 2.9-1.9c-0.4 2.5-0.7 5.1-2 7.3-0.5 0.8-1.1 1.7-0.8 2.6 0.2 0.3 0.4 0.6 0.7 0.8 1.6 1.5 4.4 1.5 6.2 0.1 1.1-0.9 1.8-2.3 2.4-3.6 1.5-3.8 2.4-7.5 1.9-11.5-0.1-0.1-0.1-0.2-0.1-0.3-0.1-0.1-0.3-0.1-0.4-0.1-0.6 0.3-3.6 0.9-6.1 0.4z"/>
				</g>
				<path id="&lt;Path&gt;" class="s20" d="m489.3 224.2c0 0 3.6 13.3 10.4 13.3 6.7 0 12.2-13.6 12.2-13.6"/>
				<g id="&lt;Group&gt;">
					<path id="&lt;Path&gt;" class="s10" d="m495 208.1l8.4-1c0 0-0.6 5.4-4.3 5.4-3.8 0-4.1-4.4-4.1-4.4z"/>
					<g id="&lt;Group&gt;">
						<path id="&lt;Path&gt;" class="s13" d="m498.1 200.2q-0.1 1.1-0.3 2.2c-0.1 0.6-0.2 1.3-0.3 2q-0.1 0.5 0 0.9 0 0 0 0.1c0 0.1 0 0.1 0 0.1q0.1 0.2 0.3 0.3c0.5 0.2 1.2 0.2 1.9 0.1-0.5 0.5-1.3 0.9-2.2 0.6q-0.3-0.1-0.6-0.4c-0.1-0.1-0.2-0.2-0.2-0.3l-0.2-0.3q-0.1-0.7 0-1.2 0.2-1.2 0.6-2.2c0.3-0.6 0.6-1.3 1-1.9z"/>
					</g>
					<g id="&lt;Group&gt;">
						<g id="&lt;Group&gt;">
							<path id="&lt;Path&gt;" class="s7" d="m504.1 200.9q-0.3-0.6-0.8-0.8-0.5-0.3-1-0.3-0.6 0-1 0.3c-0.3 0.1-0.6 0.4-0.8 0.8-0.1-0.4 0-1 0.4-1.3 0.4-0.4 0.9-0.5 1.4-0.5 0.5 0 1 0.1 1.4 0.5 0.3 0.3 0.5 0.9 0.4 1.3z"/>
						</g>
						<path id="&lt;Path&gt;" class="s21" d="m504.6 197.7c0 0-1.2-0.8-3.1-0.5"/>
					</g>
					<g id="&lt;Group&gt;">
						<g id="&lt;Group&gt;">
							<path id="&lt;Path&gt;" class="s7" d="m495 200.8q-0.4-0.6-0.8-0.8-0.5-0.3-1.1-0.3-0.5 0-1 0.2c-0.3 0.2-0.6 0.5-0.8 0.9-0.1-0.4 0.1-1 0.5-1.3 0.3-0.4 0.9-0.5 1.3-0.5 0.5 0 1.1 0.1 1.4 0.5 0.4 0.3 0.5 0.9 0.5 1.3z"/>
						</g>
						<path id="&lt;Path&gt;" class="s21" d="m491.5 197.7c0 0 1.2-0.7 3.1-0.3"/>
					</g>
					<g id="&lt;Group&gt;">
						<path id="&lt;Path&gt;" class="s13" d="m514 199.8c0.7 0.6 1 1.6 0.8 2.5-0.1 0.5-0.3 1-0.6 1.3-0.2 0.4-0.6 0.7-1 0.9q0.3-0.6 0.5-1.2 0.2-0.5 0.4-1.1 0.1-0.6 0-1.2 0-0.6-0.1-1.2z"/>
					</g>
				</g>
				<path id="&lt;Path&gt;" class="s20" d="m470.7 288.1c0 0 2.4-19.1 5.2-34.6"/>
				<path id="&lt;Path&gt;" class="s20" d="m526 317c0 0 7.6 1.7 11.5-1.1"/>
			</g>
		</g>
	</g>
</svg>