<?xml version="1.0" encoding="utf-8"?>
<!-- Generator: Adobe Illustrator 15.0.0, SVG Export Plug-In . SVG Version: 6.00 Build 0)  -->
<!DOCTYPE svg PUBLIC "-//W3C//DTD SVG 1.1//EN" "http://www.w3.org/Graphics/SVG/1.1/DTD/svg11.dtd">
<svg version="1.1" id="Layer_1" xmlns="http://www.w3.org/2000/svg" xmlns:xlink="http://www.w3.org/1999/xlink" x="0px" y="0px"
	 width="275px" height="100px" viewBox="0 0 275 100" enable-background="new 0 0 275 100" xml:space="preserve">
<g>
	<path fill="none" stroke="#00782E" stroke-width="1.8" stroke-miterlimit="10" d="M235.088,41.277l-1.717-1.775
		c0,0-0.71-1.006-3.609-2.723c-2.9-1.716-5.741,0.651-5.741,0.651s-2.308,1.243-6.511,0.414c0,0-2.07-0.178-1.361,2.841
		c0.711,3.019,5.268,6.156,6.807,3.966c0,0,1.124-2.959,3.137-2.427s2.309,2.174,2.664,3.159c0.354,0.984,3.032,12.912,9.291,8.619
		c5.109-3.502,5.683-5.326,5.683-5.326"/>
	<path fill="none" stroke="#00782E" stroke-width="1.8" stroke-miterlimit="10" d="M246.414,71.626c0,0-5.359,3.001,0,10.183v6.566
		c0,0,0.17,2.083-2.705,4.791c-2.875,2.709-0.793,4.334,1.354,4.125c2.146-0.207,8.521,1.25,8.646-4.166s-3.834-8.375-0.75-12.541
		c3.083-4.168,6.291-6.957,11.666-8.958c0,0,1.295,3.241,0.167,8.541c-1.484,6.978-4.883,10.9-4.875,11.458
		c0.013,0.896,3.541-2.833,5.958-11.208s0.834-19.625,0.834-19.625"/>
	<path fill="none" stroke="#00782E" stroke-width="1.8" stroke-miterlimit="10" d="M244.827,55.91c0,0,5.399,12.705,8.538,12.756
		c3.137,0.051,13.526-2.365,14.606-10.287c1.08-7.92-4.423-15.379-5.708-17.076c-1.286-1.697-11.933-12.395-11.933-12.395
		s-3.398-4.353-5.079-6.564c-1.682-2.212-2.124-2.655-3.407-3.628s-6.681-2.832-11.194,2.655c-4.512,5.486-9.689,4.911-10.618,1.814
		s3.407-1.991,6.194-2.434s3.717-4.955,2.832-6.902s-3.009-0.796-3.009,0s1.372,2.272-0.133,3.761c0,0-1.505,1.15-6.282-0.354
		c-4.779-1.504-6.726,3.318-4.912,7.389c1.814,4.07,3.982,6.416,9.203,7.92"/>
	<path fill="none" stroke="#00782E" stroke-width="1.8" stroke-miterlimit="10" d="M248.916,27.917c0,0,1.75,5.583-1,6
		s-8.166-1.167-9,0.833c-0.832,2-2.832,1.917-2.832,0S235,29,238.25,27.083"/>
</g>
<g>
	<path fill="none" stroke="#00782E" stroke-width="1.8" stroke-miterlimit="10" d="M40.076,41.277l1.717-1.775
		c0,0,0.71-1.006,3.609-2.723c2.9-1.716,5.741,0.651,5.741,0.651s2.308,1.243,6.511,0.414c0,0,2.07-0.178,1.361,2.841
		c-0.711,3.019-5.268,6.156-6.807,3.966c0,0-1.124-2.959-3.137-2.427s-2.309,2.174-2.664,3.159
		c-0.354,0.984-3.032,12.912-9.291,8.619c-5.109-3.502-5.683-5.326-5.683-5.326"/>
	<path fill="none" stroke="#00782E" stroke-width="1.8" stroke-miterlimit="10" d="M28.75,71.626c0,0,5.359,3.001,0,10.183v6.566
		c0,0-0.17,2.083,2.705,4.791c2.875,2.709,0.793,4.334-1.354,4.125c-2.146-0.207-8.521,1.25-8.646-4.166s3.834-8.375,0.75-12.541
		c-3.083-4.168-6.291-6.957-11.666-8.958c0,0-1.295,3.241-0.167,8.541c1.484,6.978,4.883,10.9,4.875,11.458
		c-0.013,0.896-3.541-2.833-5.958-11.208S8.455,60.792,8.455,60.792"/>
	<path fill="none" stroke="#00782E" stroke-width="1.8" stroke-miterlimit="10" d="M30.337,55.91c0,0-5.399,12.705-8.538,12.756
		c-3.137,0.051-13.526-2.365-14.606-10.287C6.112,50.458,11.615,43,12.9,41.303c1.286-1.697,11.933-12.395,11.933-12.395
		s3.398-4.353,5.079-6.564c1.682-2.212,2.124-2.655,3.407-3.628S40,15.884,44.514,21.37c4.512,5.486,9.689,4.911,10.618,1.814
		s-3.407-1.991-6.194-2.434s-3.717-4.955-2.832-6.902s3.009-0.796,3.009,0s-1.372,2.272,0.133,3.761c0,0,1.505,1.15,6.282-0.354
		c4.779-1.504,6.726,3.318,4.912,7.389c-1.814,4.07-3.982,6.416-9.203,7.92"/>
	<path fill="none" stroke="#00782E" stroke-width="1.8" stroke-miterlimit="10" d="M26.248,27.917c0,0-1.75,5.583,1,6
		s8.166-1.167,9,0.833c0.832,2,2.832,1.917,2.832,0s1.084-5.75-2.166-7.667"/>
</g>
<polygon fill="#00782E" points="194.902,3.021 194.902,5.021 206.889,5.021 206.889,94.611 69.238,94.611 69.238,5.021 
	135.246,5.021 135.246,3.021 67.238,3.021 67.238,96.611 208.889,96.611 208.889,3.021 "/>
<g>
	<path fill="#00782E" d="M83.592,13.974h5.319l-0.267,0.57c-0.43,1.089-0.646,2.065-0.646,2.926v21.166
		c1.772,0,3.413-0.107,4.921-0.323c1.508-0.215,2.996-0.614,4.465-1.197l-1.367,4.218H83.592c0.303-0.532,0.519-1.064,0.646-1.596
		c0.126-0.532,0.19-1.229,0.19-2.09V17.47C84.428,16.152,84.148,14.987,83.592,13.974z"/>
	<path fill="#00782E" d="M102.629,41.333l0.305-0.57c0.43-0.937,0.646-1.963,0.646-3.078V17.47c0-0.963-0.203-1.925-0.608-2.888
		l-0.304-0.608h5.396l-0.304,0.608c-0.431,1.014-0.646,1.976-0.646,2.888v20.216c0,1.267,0.304,2.483,0.912,3.648H102.629z"/>
	<path fill="#00782E" d="M113.154,18.153l1.33-4.18h18.278l-1.14,3.572c-1.622-0.506-3.219-0.836-4.789-0.988l-2.051-0.114v21.242
		c0,1.444,0.277,2.66,0.836,3.648h-5.32c0.328-0.506,0.563-1.045,0.703-1.615c0.139-0.57,0.209-1.247,0.209-2.033V16.558
		c-0.938,0-1.724,0.019-2.356,0.057c-0.634,0.038-1.45,0.159-2.451,0.361C115.402,17.179,114.319,17.571,113.154,18.153z"/>
	<path fill="#00782E" d="M135.118,18.153l1.33-4.18h18.278l-1.141,3.572c-1.621-0.506-3.217-0.836-4.787-0.988l-2.053-0.114v21.242
		c0,1.444,0.279,2.66,0.836,3.648h-5.32c0.33-0.506,0.564-1.045,0.703-1.615c0.14-0.57,0.209-1.247,0.209-2.033V16.558
		c-0.938,0-1.723,0.019-2.355,0.057c-0.633,0.038-1.451,0.159-2.451,0.361C137.366,17.179,136.283,17.571,135.118,18.153z"/>
	<path fill="#00782E" d="M159.818,13.974h5.319l-0.267,0.57c-0.43,1.089-0.646,2.065-0.646,2.926v21.166
		c1.772,0,3.413-0.107,4.921-0.323c1.508-0.215,2.996-0.614,4.465-1.197l-1.367,4.218h-12.426c0.303-0.532,0.519-1.064,0.646-1.596
		c0.126-0.532,0.19-1.229,0.19-2.09V17.47C160.654,16.152,160.375,14.987,159.818,13.974z"/>
	<path fill="#00782E" d="M178.932,41.333l0.229-0.532c0.43-1.038,0.646-2.077,0.646-3.116V17.47c0-1.292-0.279-2.457-0.837-3.496
		h14.289l-1.786,3.648l-1.862-0.456c-1.039-0.203-2.084-0.367-3.135-0.494c-1.052-0.126-2.084-0.19-3.098-0.19v9.31h8.209
		l-1.9,3.534c-1.014-0.329-2.071-0.602-3.173-0.817c-1.103-0.215-2.147-0.323-3.136-0.323v10.716c0.963,0,1.9-0.05,2.813-0.152
		c0.912-0.101,2.059-0.272,3.439-0.513c1.38-0.24,2.957-0.69,4.73-1.349l-2.166,4.446H178.932z"/>
	<path fill="#00782E" d="M88.512,85.334l0.304-0.57c0.431-0.938,0.646-1.963,0.646-3.078V61.47c0-0.963-0.203-1.925-0.607-2.888
		l-0.305-0.608h5.396l-0.305,0.608c-0.431,1.014-0.646,1.976-0.646,2.888v20.216c0,1.268,0.304,2.482,0.912,3.648H88.512z"/>
	<path fill="#00782E" d="M99.684,57.974h4.838c0.152,1.11,0.584,2.146,1.295,3.104l13.285,18.568V61.422
		c0-1.111-0.178-2.059-0.533-2.842l-0.303-0.606h5.053l-0.266,0.608c-0.304,0.912-0.455,1.875-0.455,2.888v20.444
		c0,0.987,0.075,1.925,0.228,2.812l0.151,0.608h-3.648L104.889,65.08v16.605c0,1.268,0.178,2.306,0.532,3.115l0.267,0.533h-5.168
		c0.506-0.938,0.76-2.141,0.76-3.61V60.748L99.684,57.974z"/>
	<path fill="#00782E" d="M129.893,85.334c0.329-0.507,0.564-1.045,0.703-1.615s0.209-1.248,0.209-2.033V61.432
		c0-0.76-0.082-1.393-0.246-1.9c-0.166-0.506-0.299-0.861-0.399-1.064c-0.102-0.201-0.178-0.366-0.228-0.493h4.332l1.823,0.114
		c3.647,0.455,6.593,1.609,8.835,3.457c2.242,1.85,3.559,3.775,3.952,5.776c0.393,2.002,0.589,3.534,0.589,4.599
		c0,3.977-1.355,7.207-4.066,9.689c-2.711,2.483-6.346,3.725-10.906,3.725H129.893z M134.377,82.901h0.57
		c0.228,0,1.189-0.082,2.888-0.247c1.696-0.164,3.413-1.172,5.149-3.021c1.734-1.848,2.603-4.256,2.603-7.219
		c0-0.912-0.285-2.9-0.854-5.967c-0.57-3.064-3.553-5.041-8.949-5.928l-1.406-0.152V82.901z"/>
	<path fill="#00782E" d="M154.936,85.334l0.304-0.57c0.431-0.938,0.646-1.963,0.646-3.078V61.47c0-0.963-0.203-1.925-0.607-2.888
		l-0.305-0.608h5.396l-0.305,0.608c-0.431,1.014-0.646,1.976-0.646,2.888v20.216c0,1.268,0.304,2.482,0.912,3.648H154.936z"/>
	<path fill="#00782E" d="M163.902,85.334c1.141-1.444,2.166-3.18,3.078-5.207l8.664-20.141l0.436-1.131l0.138-0.425l0.11-0.457h2.66
		l0.114,0.456l0.114,0.455l0.379,1.103l7.904,20.026c0.305,0.785,0.602,1.457,0.894,2.014c0.291,0.558,0.716,1.268,1.272,2.128
		l0.381,0.608l0.418,0.57h-5.549v-0.609c0-0.939-0.21-1.979-0.629-3.121l-2.18-5.732h-9.742l-2.26,5.552
		c-0.488,1.215-0.73,2.253-0.73,3.113c0,0.354,0,0.62,0,0.798H163.902z M173.221,73.06h7.736l-3.605-10.376L173.221,73.06z"/>
</g>
</svg>
