<svg width="160" height="44" viewBox="0 0 160 44" fill="none" xmlns="http://www.w3.org/2000/svg">
<rect width="160" height="44" fill="white"/>
<rect width="160" height="44" fill="white"/>
<path d="M27.5479 30.5541V13.1541H31.2479C32.0479 13.1541 32.8479 13.2541 33.6479 13.4541C34.5479 13.8541 35.2479 14.5541 35.5479 15.5541C35.8479 16.4541 35.9479 17.3541 35.8479 18.2541C35.9479 19.3541 35.7479 20.3541 35.3479 21.4541C34.9479 22.3541 34.2479 23.0541 33.2479 23.2541C32.5479 23.4541 31.9479 23.4541 31.2479 23.4541H30.2479V30.5541H27.5479ZM31.0479 20.8541C31.6479 20.9541 32.1479 20.7541 32.6479 20.3541C32.8479 20.0541 32.9479 19.7541 33.0479 19.4541C33.0479 19.0541 33.1479 18.6541 33.1479 18.2541C33.1479 17.7541 33.1479 17.1541 32.9479 16.6541C32.8479 16.2541 32.5479 15.9541 32.1479 15.7541C31.8479 15.6541 31.4479 15.6541 31.1479 15.6541H30.3479V20.7541L31.0479 20.8541Z" fill="black"/>
<path d="M30.3482 30.654H27.4482V13.054H31.2482C32.0482 13.054 32.8482 13.154 33.6482 13.354C34.5482 13.754 35.2482 14.554 35.5482 15.454C35.8482 16.354 35.9482 17.254 35.8482 18.254C35.9482 19.354 35.7482 20.454 35.3482 21.454C34.9482 22.354 34.1482 23.054 33.2482 23.354C32.5482 23.554 31.9482 23.554 31.2482 23.554H30.3482V30.654ZM27.6482 30.554H30.2482V23.454H31.2482C31.9482 23.454 32.5482 23.454 33.2482 23.254C34.1482 22.954 34.8482 22.354 35.2482 21.454C35.6482 20.454 35.8482 19.354 35.7482 18.354C35.7482 17.454 35.6482 16.554 35.4482 15.654C35.1482 14.754 34.5482 13.954 33.6482 13.654C32.9482 13.354 32.1482 13.254 31.3482 13.354H27.6482V30.554ZM31.0482 20.954H30.2482V15.654H31.0482C31.4482 15.654 31.7482 15.654 32.1482 15.754C32.5482 15.854 32.8482 16.254 33.0482 16.654C33.1482 17.154 33.2482 17.754 33.2482 18.254C33.2482 18.654 33.2482 19.054 33.1482 19.454C33.1482 19.754 32.9482 20.154 32.7482 20.354C32.2482 20.854 31.6482 20.954 31.0482 20.954ZM30.3482 20.754H31.0482C31.5482 20.854 32.1482 20.654 32.5482 20.354C32.7482 20.154 32.8482 19.854 32.9482 19.554C32.9482 19.154 33.0482 18.754 33.0482 18.354C33.0482 17.854 33.0482 17.354 32.8482 16.754C32.7482 16.354 32.4482 16.054 32.0482 15.954C31.7482 15.854 31.3482 15.854 31.0482 15.854H30.3482V20.754Z" fill="black"/>
<path d="M45.348 30.854C44.148 30.954 43.048 30.354 42.248 29.454C41.748 28.854 41.448 28.154 41.348 27.354C41.248 26.554 41.148 25.654 41.248 24.854V18.854C41.148 17.754 41.348 16.554 41.648 15.454C41.948 14.554 42.648 13.854 43.448 13.354C44.048 13.054 44.748 12.854 45.448 12.854C46.648 12.854 47.748 13.354 48.548 14.254C49.048 14.854 49.348 15.554 49.448 16.354C49.548 17.154 49.548 18.054 49.548 18.854V24.854C49.648 25.954 49.448 27.154 49.148 28.254C48.848 29.154 48.148 29.854 47.348 30.354C46.748 30.654 46.048 30.854 45.348 30.854ZM45.348 15.454C44.748 15.454 44.148 15.854 44.048 16.554C43.948 17.454 43.848 18.254 43.948 19.154V24.654C43.948 25.554 43.948 26.454 44.148 27.354C44.248 27.954 44.748 28.254 45.348 28.254C45.948 28.254 46.548 27.854 46.648 27.154C46.748 26.254 46.848 25.454 46.748 24.554V19.154C46.748 18.254 46.748 17.354 46.548 16.454C46.448 15.854 45.948 15.454 45.348 15.454Z" fill="black"/>
<path d="M45.3479 30.954C44.1479 31.054 42.9479 30.454 42.1479 29.554C41.6479 28.954 41.3479 28.254 41.2479 27.454C41.1479 26.654 41.0479 25.754 41.1479 24.954V18.954C41.0479 17.754 41.2479 16.654 41.5479 15.554C41.8479 14.654 42.5479 13.854 43.3479 13.454C43.9479 13.154 44.6479 12.954 45.3479 12.954C46.5479 12.954 47.7479 13.454 48.5479 14.354C49.0479 14.954 49.3479 15.654 49.4479 16.454C49.5479 17.254 49.6479 18.154 49.5479 18.954V24.954C49.6479 26.154 49.4479 27.254 49.1479 28.354C48.8479 29.254 48.1479 30.054 47.3479 30.454C46.7479 30.754 46.0479 30.954 45.3479 30.954ZM45.3479 12.954C44.6479 12.954 43.9479 13.154 43.3479 13.454C42.5479 13.854 41.9479 14.654 41.5479 15.454C41.2479 16.554 41.1479 17.654 41.1479 18.854V24.854C41.1479 25.654 41.1479 26.554 41.2479 27.354C41.3479 28.054 41.6479 28.754 42.1479 29.354C42.8479 30.254 44.0479 30.754 45.1479 30.754C45.8479 30.754 46.5479 30.554 47.1479 30.254C47.9479 29.754 48.5479 29.054 48.9479 28.154C49.2479 27.054 49.3479 25.954 49.3479 24.754V18.754C49.3479 17.954 49.3479 17.054 49.2479 16.254C49.1479 15.554 48.8479 14.754 48.3479 14.254C47.6479 13.454 46.5479 12.954 45.3479 12.954ZM45.3479 28.354C44.7479 28.354 44.2479 27.954 44.0479 27.354C43.8479 26.454 43.8479 25.554 43.8479 24.554V19.154C43.8479 18.254 43.8479 17.454 43.9479 16.554C44.0479 15.854 44.6479 15.354 45.2479 15.454C45.8479 15.454 46.3479 15.854 46.5479 16.454C46.7479 17.354 46.7479 18.254 46.7479 19.254V24.754C46.7479 25.654 46.7479 26.454 46.6479 27.354C46.5479 27.854 45.9479 28.354 45.3479 28.354ZM45.3479 15.554C44.7479 15.554 44.2479 15.954 44.1479 16.554C44.0479 17.354 43.9479 18.254 44.0479 19.154V24.654C44.0479 25.554 44.0479 26.454 44.2479 27.354C44.3479 27.854 44.8479 28.254 45.3479 28.254C45.9479 28.254 46.4479 27.854 46.5479 27.254C46.6479 26.454 46.7479 25.554 46.6479 24.654V19.154C46.6479 18.254 46.6479 17.354 46.4479 16.454C46.3479 15.854 45.8479 15.554 45.3479 15.554Z" fill="black"/>
<path d="M60.3481 30.554L58.7481 23.354H57.6481V30.554H54.8481V13.154H58.5481C59.6481 13.054 60.7481 13.454 61.6481 14.154C62.6481 15.254 63.0481 16.754 62.9481 18.254C62.9481 19.354 62.7481 20.354 62.3481 21.354C62.0481 21.854 61.6481 22.354 61.2481 22.654L63.2481 30.654L60.3481 30.554ZM58.3481 20.754C58.7481 20.754 59.1481 20.754 59.4481 20.554C59.9481 20.254 60.1481 19.454 60.1481 18.254C60.2481 17.554 60.0481 16.754 59.6481 16.154C59.6481 16.054 59.4481 15.954 59.3481 15.854C59.0481 15.754 58.6481 15.754 58.3481 15.754H57.6481V20.754H58.3481Z" fill="black"/>
<path d="M63.3481 30.654H60.2481V30.554L58.6481 23.454H57.7481V30.654H54.8481V13.054H58.6481C59.7481 12.954 60.9481 13.354 61.8481 14.054C62.8481 15.154 63.3481 16.654 63.1481 18.254C63.1481 19.354 62.9481 20.454 62.5481 21.354C62.2481 21.854 61.8481 22.254 61.4481 22.654L63.3481 30.654ZM60.3481 30.554H63.1481L61.1481 22.654C61.6481 22.354 61.9481 21.854 62.2481 21.354C62.6481 20.354 62.8481 19.354 62.8481 18.254C62.9481 16.754 62.5481 15.354 61.5481 14.254C60.6481 13.554 59.5481 13.154 58.4481 13.254H54.8481V30.554H57.4481V23.354H58.6481V23.454L60.3481 30.554ZM58.3481 20.854H57.5481V15.654H58.3481C58.6481 15.654 59.0481 15.654 59.3481 15.754C59.5481 15.854 59.6481 15.954 59.7481 16.054C60.1481 16.654 60.3481 17.454 60.2481 18.254C60.2481 19.454 59.9481 20.254 59.4481 20.654C59.1481 20.854 58.7481 20.854 58.3481 20.854ZM57.6481 20.654H58.3481C58.7481 20.654 59.0481 20.654 59.4481 20.454C59.9481 20.154 60.1481 19.354 60.1481 18.254C60.2481 17.554 60.0481 16.854 59.6481 16.154C59.5481 16.054 59.4481 15.954 59.3481 15.954C59.0481 15.854 58.7481 15.854 58.3481 15.854H57.6481V20.654Z" fill="black"/>
<path d="M70.8479 30.5541V15.7541H68.1479V13.1541H76.448V15.7541H73.6479V30.6541H70.8479V30.5541Z" fill="black"/>
<path d="M73.6479 30.654H70.7479V15.854H68.0479V13.054H76.5479V15.854H73.7479L73.6479 30.654ZM70.9479 30.554H73.5479V15.654H76.3479V13.254H68.1479V15.654H70.8479L70.9479 30.554Z" fill="black"/>
<path d="M81.748 30.5541V13.1541H88.948V15.7541H84.448V20.2541H87.648V22.8541H84.448V27.9541H88.948V30.5541H81.748Z" fill="black"/>
<path d="M89.0479 30.654H81.6479V13.054H89.0479V15.854H84.5479V20.254H87.7479V23.054H84.5479V28.054H89.0479V30.654ZM81.8479 30.554H88.9479V28.054H84.4479V22.754H87.6479V20.354H84.4479V15.654H88.9479V13.254H81.8479V30.554Z" fill="black"/>
<path d="M99.9482 30.5541L98.3482 23.3541H97.2482V30.5541H94.4482V13.1541H98.1482C99.2482 13.0541 100.348 13.3541 101.248 14.1541C102.248 15.2541 102.648 16.7541 102.548 18.2541C102.548 19.3541 102.348 20.3541 101.948 21.3541C101.748 21.8541 101.348 22.2541 100.848 22.6541L102.848 30.6541L99.9482 30.5541ZM97.9482 20.7541C98.3482 20.7541 98.7482 20.7541 99.0482 20.5541C99.5482 20.2541 99.7482 19.4541 99.7482 18.2541C99.8482 17.5541 99.7482 16.7541 99.3482 16.1541C99.2482 16.0541 99.0482 15.9541 98.9482 15.8541C98.6482 15.7541 98.2482 15.7541 97.9482 15.7541H97.2482V20.7541H97.9482Z" fill="black"/>
<path d="M18.148 30.654C16.648 30.754 15.248 29.954 14.448 28.654C13.948 27.854 13.748 26.954 13.748 25.954V25.854L16.348 25.454V25.554C16.448 27.254 16.948 28.054 18.148 28.054C18.548 28.054 18.948 27.854 19.248 27.554C19.548 27.154 19.648 26.754 19.648 26.254C19.648 25.554 19.448 24.954 18.948 24.454C18.348 23.754 17.648 23.054 16.948 22.454C16.148 21.754 15.348 20.854 14.748 19.954C14.248 19.154 13.948 18.154 13.948 17.154C13.948 16.054 14.448 14.954 15.248 14.054C16.048 13.354 17.048 12.954 18.148 13.054C19.448 12.954 20.648 13.654 21.448 14.654C21.848 15.454 22.148 16.254 22.248 17.154V17.254L19.548 17.654V17.554C19.548 17.054 19.448 16.654 19.248 16.254C19.048 15.854 18.648 15.554 18.148 15.654C17.748 15.654 17.448 15.754 17.148 16.054C16.848 16.354 16.748 16.854 16.748 17.254C16.748 17.854 16.948 18.354 17.248 18.854C17.748 19.554 18.348 20.154 19.048 20.754C20.048 21.554 20.848 22.454 21.648 23.454C22.248 24.354 22.448 25.354 22.448 26.354C22.448 27.454 22.148 28.554 21.448 29.354C20.548 30.154 19.348 30.654 18.148 30.654Z" fill="black"/>
<path d="M18.148 30.754C16.648 30.854 15.148 30.054 14.448 28.754C13.948 27.954 13.748 26.954 13.748 26.054V25.954L16.548 25.454V25.654C16.648 27.354 17.148 28.154 18.248 28.154C18.648 28.154 19.048 28.054 19.248 27.654C19.548 27.354 19.648 26.854 19.648 26.454C19.648 25.854 19.448 25.254 19.048 24.754C18.448 24.054 17.748 23.354 17.048 22.754C16.148 21.954 15.348 21.054 14.748 20.154C14.248 19.354 13.948 18.354 13.948 17.354C13.848 16.054 14.348 14.854 15.248 14.054C16.048 13.354 17.048 12.954 18.148 13.054C19.448 12.954 20.748 13.654 21.448 14.754C21.848 15.554 22.148 16.354 22.248 17.254V17.454H22.148L19.348 17.854V17.654C19.348 17.254 19.248 16.754 19.048 16.354C18.848 15.954 18.448 15.754 18.048 15.754C17.748 15.754 17.348 15.854 17.148 16.154C16.848 16.454 16.748 16.854 16.748 17.254C16.748 17.754 16.948 18.354 17.248 18.754C17.748 19.454 18.348 20.054 19.048 20.654C20.048 21.454 20.848 22.354 21.648 23.354C22.248 24.254 22.548 25.254 22.448 26.354C22.448 27.454 22.148 28.554 21.348 29.454C20.548 30.254 19.348 30.754 18.148 30.754ZM13.848 25.954C13.848 26.854 14.048 27.754 14.548 28.554C15.348 29.854 16.648 30.554 18.148 30.554C19.348 30.554 20.448 30.054 21.248 29.254C21.948 28.454 22.348 27.354 22.248 26.254C22.248 25.254 21.948 24.254 21.448 23.354C20.748 22.354 19.848 21.454 18.948 20.654C18.248 20.054 17.648 19.454 17.148 18.754C16.848 18.254 16.648 17.754 16.648 17.154C16.648 16.654 16.748 16.254 17.048 15.954C17.348 15.654 17.648 15.554 18.048 15.554C18.548 15.554 19.048 15.754 19.248 16.254C19.448 16.654 19.548 17.154 19.548 17.554L22.048 17.154C21.948 16.254 21.748 15.454 21.348 14.754C20.648 13.654 19.448 13.054 18.148 13.154C17.148 13.154 16.148 13.454 15.348 14.154C14.448 14.954 14.048 16.154 14.048 17.354C14.048 18.354 14.348 19.254 14.848 20.054C15.448 20.954 16.248 21.754 17.048 22.554C17.748 23.154 18.448 23.854 19.048 24.554C19.448 25.054 19.748 25.754 19.748 26.354C19.748 26.854 19.648 27.254 19.348 27.654C19.048 27.954 18.648 28.154 18.148 28.154C16.948 28.154 16.348 27.254 16.348 25.554L13.848 25.954Z" fill="black"/>
<path d="M102.948 30.654H99.8481V30.554L98.2481 23.454H97.2481V30.654H94.3481V13.054H98.1481C99.2481 12.954 100.448 13.354 101.348 14.054C102.348 15.154 102.848 16.654 102.648 18.254C102.648 19.354 102.448 20.454 102.048 21.354C101.748 21.854 101.448 22.354 100.948 22.654L102.948 30.654ZM99.9481 30.554H102.748L100.748 22.654C101.248 22.354 101.548 21.854 101.848 21.354C102.248 20.354 102.448 19.354 102.448 18.254C102.548 16.754 102.148 15.354 101.148 14.254C100.248 13.554 99.1481 13.154 98.0481 13.254H94.5481V30.554H97.1481V23.354H98.3481V23.454L99.9481 30.554ZM97.9481 20.854H97.1481V15.654H97.9481C98.2481 15.654 98.6481 15.654 98.9481 15.754C99.1481 15.854 99.2481 15.954 99.3481 16.054C99.7481 16.654 99.9481 17.454 99.8481 18.254C99.8481 19.454 99.5481 20.254 99.0481 20.654C98.7481 20.854 98.3481 20.854 97.9481 20.854ZM97.2481 20.654H97.9481C98.3481 20.654 98.6481 20.654 99.0481 20.454C99.5481 20.154 99.7481 19.354 99.7481 18.154C99.8481 17.454 99.6481 16.754 99.2481 16.054C99.1481 16.054 99.0481 15.954 98.9481 15.954C98.6481 15.854 98.3481 15.854 97.9481 15.854H97.2481V20.654Z" fill="black"/>
<path d="M117 44H160V0H117V44ZM139.495 7.35011L149.648 22.0503L139.495 36.7506H127.551L137.704 22.0503L127.551 7.35011H139.495Z" fill="#FFDD2E"/>
<path d="M127 37H139.432L150 22L139.432 7H127.104L137.671 22L127 37Z" fill="black"/>
<rect x="0.75" y="0.75" width="115.5" height="42.5" stroke="black" stroke-width="1.5"/>
</svg>
